<svg xmlns="http://www.w3.org/2000/svg" xmlns:xlink="http://www.w3.org/1999/xlink" width="505" height="274.448" viewBox="0 0 505 274.448">
  <defs>
    <clipPath id="clip-path">
      <path id="Trazado_188539" data-name="Trazado 188539" d="M10402.521-677.58v107.77a11.013,11.013,0,0,0,.85,4.273,11.1,11.1,0,0,0,2.421,3.625,11.054,11.054,0,0,0,3.624,2.421,11.081,11.081,0,0,0,4.275.851h107.77a11.1,11.1,0,0,0,4.275-.85,11.1,11.1,0,0,0,3.624-2.422,11.092,11.092,0,0,0,2.421-3.624,11.094,11.094,0,0,0,.851-4.274V-677.58a11.1,11.1,0,0,0-.851-4.277,11.052,11.052,0,0,0-2.421-3.622,11.066,11.066,0,0,0-3.625-2.422,11.059,11.059,0,0,0-4.275-.85h-107.769a11.083,11.083,0,0,0-4.275.849,11.051,11.051,0,0,0-3.624,2.422,11.049,11.049,0,0,0-2.421,3.624A11.017,11.017,0,0,0,10402.521-677.58Z" fill="#6677d6" clip-rule="evenodd"/>
    </clipPath>
    <clipPath id="clip-path-2">
      <rect id="Rectángulo_44302" data-name="Rectángulo 44302" width="130.25" height="130.5" transform="translate(10402.5 -689)" fill="none"/>
    </clipPath>
    <clipPath id="clip-path-3">
      <path id="Trazado_188640" data-name="Trazado 188640" d="M10252-820.9v107.771a11.071,11.071,0,0,0,.85,4.274,11.067,11.067,0,0,0,2.423,3.624,11.041,11.041,0,0,0,3.624,2.42,11.055,11.055,0,0,0,4.273.852h107.771a11.067,11.067,0,0,0,4.274-.852,11.062,11.062,0,0,0,3.624-2.42,11.064,11.064,0,0,0,2.421-3.626,11.04,11.04,0,0,0,.851-4.272V-820.9a11.058,11.058,0,0,0-.851-4.277,11.048,11.048,0,0,0-2.422-3.623,11.062,11.062,0,0,0-3.624-2.422,11.075,11.075,0,0,0-4.274-.849H10263.17a11.07,11.07,0,0,0-4.275.85,11.056,11.056,0,0,0-3.622,2.421,11.051,11.051,0,0,0-2.423,3.623A11.074,11.074,0,0,0,10252-820.9Z" fill="#6677d6" clip-rule="evenodd"/>
    </clipPath>
    <clipPath id="clip-path-4">
      <rect id="Rectángulo_44386" data-name="Rectángulo 44386" width="130.25" height="130.5" transform="translate(10252 -832.25)" fill="none"/>
    </clipPath>
  </defs>
  <g id="Grupo_120636" data-name="Grupo 120636" transform="translate(-2596 2172.062)">
    <g id="Grupo_120590" data-name="Grupo 120590" transform="translate(-283 -1818)">
      <g id="Grupo_120589" data-name="Grupo 120589">
        <g id="Grupo_120588" data-name="Grupo 120588">
          <g id="Grupo_120587" data-name="Grupo 120587">
            <g id="Grupo_120586" data-name="Grupo 120586">
              <path id="Trazado_188455" data-name="Trazado 188455" d="M10455.251-779.59a1.511,1.511,0,0,0-.631.477.1.1,0,0,0-.014.022l-4.5,8.4a.133.133,0,0,0-.017.08l.144,1.358-.213.774a.139.139,0,0,0,.086.169l.553.208a.166.166,0,0,0,.049.008.154.154,0,0,0,.063-.014.15.15,0,0,0,.071-.086l.255-.854.587-1.061,3.694-8.724a.151.151,0,0,0,.011-.046l.031-.563a.144.144,0,0,0-.05-.116A.14.14,0,0,0,10455.251-779.59Z" transform="translate(-7373 478.662)" fill="#d5e8f6"/>
              <path id="Trazado_188456" data-name="Trazado 188456" d="M10455.251-779.59a1.506,1.506,0,0,0-.63.477.106.106,0,0,0-.015.022l-.432.8c.273.113.545.237.814.375l.391-.925a.127.127,0,0,0,.011-.046l.031-.563a.141.141,0,0,0-.05-.116A.139.139,0,0,0,10455.251-779.59Z" transform="translate(-7373 478.662)" fill="#6d889b"/>
              <path id="Trazado_188457" data-name="Trazado 188457" d="M10457.227-758.061l-4.552-8.367a.141.141,0,0,0-.059-.057l-1.214-.626-.53-.6a.14.14,0,0,0-.188-.02l-.476.348a.139.139,0,0,0-.056.1.139.139,0,0,0,.03.106l.574.683.565,1.072,5.267,7.874a.125.125,0,0,0,.033.035l.454.335a.133.133,0,0,0,.083.029.148.148,0,0,0,.04-.007.136.136,0,0,0,.091-.086,1.518,1.518,0,0,0-.052-.788A.072.072,0,0,0,10457.227-758.061Z" transform="translate(-7373 478.662)" fill="#d5e8f6"/>
              <path id="Trazado_188458" data-name="Trazado 188458" d="M10457.227-758.061l-.343-.63a4.435,4.435,0,0,1-.812.365l.518.772a.1.1,0,0,0,.033.035l.454.335a.133.133,0,0,0,.083.029.141.141,0,0,0,.039-.007.136.136,0,0,0,.092-.085,1.521,1.521,0,0,0-.052-.789A.072.072,0,0,0,10457.227-758.061Z" transform="translate(-7373 478.662)" fill="#6d889b"/>
              <path id="Trazado_188459" data-name="Trazado 188459" d="M10450.19-769.045a1.168,1.168,0,0,0-1.205.927l-.142.043-1.21.1-9.313,1.731a.117.117,0,0,0-.045.017l-.487.283a.141.141,0,0,0-.068.1.14.14,0,0,0,.042.117,1.518,1.518,0,0,0,.745.265h.027l9.485-.881a.137.137,0,0,0,.076-.031l1.054-.868h0a1.159,1.159,0,0,0,.906.524l.067,0a1.164,1.164,0,0,0,1.161-1.1A1.167,1.167,0,0,0,10450.19-769.045Z" transform="translate(-7373 478.662)" fill="#d5e8f6"/>
              <path id="Trazado_188460" data-name="Trazado 188460" d="M10438.32-766.249a.137.137,0,0,0-.045.017l-.487.284a.137.137,0,0,0-.068.1.14.14,0,0,0,.042.117,1.509,1.509,0,0,0,.745.265h.027l.957-.089c-.068-.293-.127-.587-.174-.884Z" transform="translate(-7373 478.662)" fill="#6d889b"/>
              <path id="Trazado_188461" data-name="Trazado 188461" d="M10450.614-767.676h-1.171a.141.141,0,0,0-.141.139l-.5,29.855a.147.147,0,0,0,.04.1.151.151,0,0,0,.1.041h2.161a.15.15,0,0,0,.1-.041.147.147,0,0,0,.04-.1l-.5-29.855A.14.14,0,0,0,10450.614-767.676Z" transform="translate(-7373 478.662)" fill="#d5e8f6"/>
              <path id="Trazado_188462" data-name="Trazado 188462" d="M10461.512-765.255l-.041-1.058-1.187-8.19a.135.135,0,0,0-.016-.046l-.23-.433a.144.144,0,0,0-.1-.073.135.135,0,0,0-.118.037,1.327,1.327,0,0,0-.262.652.116.116,0,0,0,0,.026l.438,8.31a.144.144,0,0,0,.029.077l.719.947.188.671a.143.143,0,0,0,.136.1l.026,0,.507-.1a.145.145,0,0,0,.093-.064.14.14,0,0,0,.017-.11Z" transform="translate(-7373 478.662)" fill="#fff"/>
              <path id="Trazado_188463" data-name="Trazado 188463" d="M10460.268-774.549l-.23-.433a.144.144,0,0,0-.1-.073.135.135,0,0,0-.118.037,1.327,1.327,0,0,0-.262.652.116.116,0,0,0,0,.026l.058,1.088c.274-.061.552-.116.83-.161l-.158-1.09A.135.135,0,0,0,10460.268-774.549Z" transform="translate(-7373 478.662)" fill="#6d889b"/>
              <path id="Trazado_188464" data-name="Trazado 188464" d="M10460.963-764.1a.144.144,0,0,0-.1-.043.144.144,0,0,0-.1.047l-.519.577-.86.62-6.175,5.507a.143.143,0,0,0-.031.038l-.234.433a.141.141,0,0,0,0,.125.142.142,0,0,0,.1.078.52.52,0,0,0,.115.012,1.608,1.608,0,0,0,.572-.153.081.081,0,0,0,.023-.014l6.688-4.95a.137.137,0,0,0,.049-.067l.395-1.122.455-.528a.142.142,0,0,0,0-.19Z" transform="translate(-7373 478.662)" fill="#fff"/>
              <path id="Trazado_188465" data-name="Trazado 188465" d="M10453.2-757.39a.161.161,0,0,0-.031.038l-.234.433a.141.141,0,0,0,0,.125.139.139,0,0,0,.1.078.524.524,0,0,0,.115.012,1.636,1.636,0,0,0,.572-.152.116.116,0,0,0,.023-.015l.99-.732c-.188-.216-.367-.439-.542-.667Z" transform="translate(-7373 478.662)" fill="#6d889b"/>
              <path id="Trazado_188466" data-name="Trazado 188466" d="M10471.078-759.813a.092.092,0,0,0-.022-.016l-7.187-4.192a.144.144,0,0,0-.08-.019l-1.187.082-.666-.21a.14.14,0,0,0-.171.08l-.2.476a.14.14,0,0,0,0,.112.144.144,0,0,0,.083.075l.734.249.909.546,7.5,3.5a.131.131,0,0,0,.047.013l.491.045h.012a.143.143,0,0,0,.1-.046.141.141,0,0,0,.033-.12A1.322,1.322,0,0,0,10471.078-759.813Z" transform="translate(-7373 478.662)" fill="#fff"/>
              <path id="Trazado_188467" data-name="Trazado 188467" d="M10471.078-759.814a.088.088,0,0,0-.022-.015l-1.073-.626c-.083.277-.165.555-.248.831l1.057.494a.13.13,0,0,0,.047.012l.49.046h.013a.141.141,0,0,0,.1-.047.138.138,0,0,0,.033-.119A1.334,1.334,0,0,0,10471.078-759.814Z" transform="translate(-7373 478.662)" fill="#6d889b"/>
              <path id="Trazado_188468" data-name="Trazado 188468" d="M10461.295-764.974a1.047,1.047,0,0,0-.486.121,1.035,1.035,0,0,0-.5.613,1.024,1.024,0,0,0,.077.789,1.032,1.032,0,0,0,.914.549,1.036,1.036,0,0,0,.486-.122,1.023,1.023,0,0,0,.5-.611,1.037,1.037,0,0,0-.076-.789A1.035,1.035,0,0,0,10461.295-764.974Z" transform="translate(-7373 478.662)" fill="#fff"/>
              <path id="Trazado_188469" data-name="Trazado 188469" d="M10461.769-763.9h-1.022a.139.139,0,0,0-.14.137l-.433,26.079a.138.138,0,0,0,.039.1.148.148,0,0,0,.1.042h1.887a.144.144,0,0,0,.1-.042.138.138,0,0,0,.039-.1l-.432-26.079A.141.141,0,0,0,10461.769-763.9Z" transform="translate(-7373 478.662)" fill="#fff"/>
              <rect id="Rectángulo_44265" data-name="Rectángulo 44265" width="2.243" height="28.14" transform="translate(3183.471 -195.235)" fill="#4760a9"/>
              <path id="Trazado_188470" data-name="Trazado 188470" d="M10554.236-672.916h6.712l-3.355-5.812Z" transform="translate(-7373 478.662)" fill="#4760a9"/>
              <path id="Trazado_188471" data-name="Trazado 188471" d="M10557.593-640.928l3.355-5.812h-6.712Z" transform="translate(-7373 478.662)" fill="#4760a9"/>
              <rect id="Rectángulo_44266" data-name="Rectángulo 44266" width="28.14" height="2.243" transform="translate(3170.522 -182.287)" fill="#4760a9"/>
              <path id="Trazado_188472" data-name="Trazado 188472" d="M10570.681-656.472l5.812-3.356-5.812-3.355Z" transform="translate(-7373 478.662)" fill="#4760a9"/>
              <path id="Trazado_188473" data-name="Trazado 188473" d="M10544.5-656.472v-6.712l-5.812,3.355Z" transform="translate(-7373 478.662)" fill="#4760a9"/>
              <path id="Trazado_188474" data-name="Trazado 188474" d="M10557.593-653.309a6.526,6.526,0,0,1-6.52-6.519,6.527,6.527,0,0,1,6.52-6.52,6.527,6.527,0,0,1,6.52,6.52A6.526,6.526,0,0,1,10557.593-653.309Zm0-15.282a8.773,8.773,0,0,0-8.763,8.763,8.773,8.773,0,0,0,8.763,8.763,8.773,8.773,0,0,0,8.763-8.763A8.773,8.773,0,0,0,10557.593-668.591Z" transform="translate(-7373 478.662)" fill="#4760a9"/>
              <path id="Trazado_188475" data-name="Trazado 188475" d="M10719.712-592.835a13.662,13.662,0,0,1-13.646,13.647h-243.722l-6.651-21.6H10324.78a13.663,13.663,0,0,1-13.647-13.648v-70.426a13.663,13.663,0,0,1,13.647-13.647h381.285a13.662,13.662,0,0,1,13.646,13.647Zm-13.646-108.29H10324.78a16.283,16.283,0,0,0-16.266,16.264v70.426a16.283,16.283,0,0,0,16.266,16.265h128.979l6.652,21.6h245.654a16.283,16.283,0,0,0,16.264-16.265v-92.026A16.282,16.282,0,0,0,10706.065-701.125Z" transform="translate(-7373 478.662)" fill="#fff"/>
              <path id="Trazado_188476" data-name="Trazado 188476" d="M10354.884-630.16l16.188,10.134,16.188-10.134-16.188-10.135Z" transform="translate(-7373 478.662)" fill="#fff"/>
              <path id="Trazado_188477" data-name="Trazado 188477" d="M10354.884-636.032l16.188,10.135,16.188-10.135-16.188-10.135Z" transform="translate(-7373 478.662)" fill="#6d889b"/>
              <path id="Trazado_188478" data-name="Trazado 188478" d="M10354.884-641.9l16.188,10.134,16.188-10.134-16.188-10.135Z" transform="translate(-7373 478.662)" fill="#4760a9"/>
              <circle id="Elipse_12909" data-name="Elipse 12909" cx="7.273" cy="7.273" r="7.273" transform="translate(2990.799 -177.375)" fill="#6d889b"/>
              <path id="Trazado_188479" data-name="Trazado 188479" d="M10371.072-642.425a6.347,6.347,0,0,1-6.339-6.339,6.346,6.346,0,0,1,6.339-6.339,6.346,6.346,0,0,1,6.338,6.339A6.346,6.346,0,0,1,10371.072-642.425Zm0-14.547a8.217,8.217,0,0,0-8.208,8.208,8.216,8.216,0,0,0,8.208,8.207,8.217,8.217,0,0,0,8.208-8.207A8.218,8.218,0,0,0,10371.072-656.972Z" transform="translate(-7373 478.662)" fill="#fff"/>
              <path id="Trazado_188480" data-name="Trazado 188480" d="M10371.072-652.974a.936.936,0,0,0-.936.935v6.55a.935.935,0,0,0,.936.935.935.935,0,0,0,.935-.935v-6.55A.935.935,0,0,0,10371.072-652.974Z" transform="translate(-7373 478.662)" fill="#fff"/>
              <path id="Trazado_188481" data-name="Trazado 188481" d="M10374.345-649.7h-6.547a.934.934,0,0,0-.934.934.934.934,0,0,0,.934.934h6.547a.934.934,0,0,0,.936-.934A.934.934,0,0,0,10374.345-649.7Z" transform="translate(-7373 478.662)" fill="#fff"/>
              <rect id="Rectángulo_44267" data-name="Rectángulo 44267" width="3.178" height="15.649" transform="translate(2955.733 -148.628)" fill="#4760a9"/>
              <path id="Trazado_188482" data-name="Trazado 188482" d="M10326.793-627.739a3.544,3.544,0,0,1,.508-1.3,3.57,3.57,0,0,1,.969-1.009,3.558,3.558,0,0,1,1.281-.561,3.54,3.54,0,0,1,1.4-.029,3.53,3.53,0,0,1,1.3.509,3.527,3.527,0,0,1,1.009.968,3.572,3.572,0,0,1,.563,1.281,3.551,3.551,0,0,1,.027,1.4,3.546,3.546,0,0,1-.508,1.3,3.531,3.531,0,0,1-.969,1.009,3.536,3.536,0,0,1-1.281.562,3.554,3.554,0,0,1-1.4.029,3.552,3.552,0,0,1-1.3-.509,3.555,3.555,0,0,1-1.009-.969,3.555,3.555,0,0,1-.562-1.281A3.547,3.547,0,0,1,10326.793-627.739Z" transform="translate(-7373 478.662)" fill="#4760a9"/>
              <path id="Trazado_188483" data-name="Trazado 188483" d="M10316.088-643.824a.98.98,0,0,0,0,1.385.98.98,0,0,0,1.384,0,18.193,18.193,0,0,1,25.7,0,.98.98,0,0,0,1.384,0,.977.977,0,0,0,0-1.385A20.154,20.154,0,0,0,10316.088-643.824Z" transform="translate(-7373 478.662)" fill="#4760a9"/>
              <path id="Trazado_188484" data-name="Trazado 188484" d="M10340.256-639.523a13.956,13.956,0,0,0-9.934-4.116,13.956,13.956,0,0,0-9.935,4.116.978.978,0,0,0,0,1.384.98.98,0,0,0,1.385,0,12.1,12.1,0,0,1,3.608-2.494,12.065,12.065,0,0,1,4.941-1.048,12.011,12.011,0,0,1,8.55,3.542.979.979,0,0,0,1.384,0,.978.978,0,0,0,0-1.384Z" transform="translate(-7373 478.662)" fill="#4760a9"/>
              <path id="Trazado_188485" data-name="Trazado 188485" d="M10330.323-637.363a7.717,7.717,0,0,0-5.5,2.277.98.98,0,0,0,0,1.385.979.979,0,0,0,1.384,0,5.769,5.769,0,0,1,4.113-1.7,5.774,5.774,0,0,1,4.111,1.7.98.98,0,0,0,1.385,0,.979.979,0,0,0,0-1.385A7.723,7.723,0,0,0,10330.323-637.363Z" transform="translate(-7373 478.662)" fill="#4760a9"/>
              <path id="Trazado_188486" data-name="Trazado 188486" d="M10687.767-661.774h-90.048c-.059,0-5.894,0-9.755-3.824-2.271-2.252-3.423-5.4-3.423-9.361v-41.625h-1.683v41.625c0,4.425,1.319,7.977,3.921,10.556,4.354,4.318,10.688,4.31,10.945,4.31h90.042c5.489,0,9.385,2.2,11.578,6.546a16.891,16.891,0,0,1,1.7,6.734v20.446h1.683v-20.446a18.314,18.314,0,0,0-1.854-7.436C10699.159-657.683,10695.491-661.774,10687.767-661.774Z" transform="translate(-7373 478.662)" fill="#fff"/>
              <path id="Trazado_188487" data-name="Trazado 188487" d="M10557.593-714.665v-29.674a2.638,2.638,0,0,1,.2-1.018,2.622,2.622,0,0,1,.577-.864,2.635,2.635,0,0,1,.863-.576,2.63,2.63,0,0,1,1.018-.2h46.375a2.635,2.635,0,0,1,1.019.2,2.641,2.641,0,0,1,.862.576,2.622,2.622,0,0,1,.577.864,2.642,2.642,0,0,1,.2,1.018v29.674a2.646,2.646,0,0,1-.2,1.018,2.619,2.619,0,0,1-.577.863,2.628,2.628,0,0,1-.862.577,2.64,2.64,0,0,1-1.019.2h-46.375a2.635,2.635,0,0,1-1.018-.2,2.621,2.621,0,0,1-.863-.577,2.634,2.634,0,0,1-.577-.863A2.646,2.646,0,0,1,10557.593-714.665Z" transform="translate(-7373 478.662)" fill="#4760a9"/>
              <rect id="Rectángulo_44268" data-name="Rectángulo 44268" width="47.836" height="25.472" transform="translate(3186.522 -265.144)" fill="#fff"/>
              <path id="Trazado_188488" data-name="Trazado 188488" d="M10583.441-740.927a4.406,4.406,0,0,0-4.4,4.4v7.779h1.68v-7.779a2.723,2.723,0,0,1,2.721-2.72,2.723,2.723,0,0,1,2.72,2.72v4.057h1.679v-4.057A4.4,4.4,0,0,0,10583.441-740.927Z" transform="translate(-7373 478.662)" fill="#014657"/>
              <rect id="Rectángulo_44269" data-name="Rectángulo 44269" width="12.119" height="12.132" transform="translate(3204.381 -254.997)" fill="#6d889b"/>
              <path id="Trazado_188489" data-name="Trazado 188489" d="M10583.441-730.814a1.515,1.515,0,0,0-1.517,1.515,1.508,1.508,0,0,0,.49,1.113l-.49,3.813h3.031l-.49-3.813a1.508,1.508,0,0,0,.49-1.113A1.515,1.515,0,0,0,10583.441-730.814Z" transform="translate(-7373 478.662)" fill="#014657"/>
              <path id="Trazado_188490" data-name="Trazado 188490" d="M10578.072-713.916l-1.025,13.062h12.788l-1.025-13.062Z" transform="translate(-7373 478.662)" fill="#4760a9"/>
              <rect id="Rectángulo_44270" data-name="Rectángulo 44270" width="19.376" height="2.063" transform="translate(3200.753 -224.256)" fill="#4760a9"/>
              <path id="Trazado_188491" data-name="Trazado 188491" d="M10593.128-628.217a34.788,34.788,0,0,0-34.788,34.789,34.788,34.788,0,0,0,34.788,34.789,34.789,34.789,0,0,0,34.789-34.789A34.789,34.789,0,0,0,10593.128-628.217Z" transform="translate(-7373 478.662)" fill="#fff"/>
              <path id="Trazado_188492" data-name="Trazado 188492" d="M10593.128-558.64a34.775,34.775,0,0,0,30.4-17.859h-60.791A34.776,34.776,0,0,0,10593.128-558.64Z" transform="translate(-7373 478.662)" fill="#d5e8f6"/>
              <rect id="Rectángulo_44271" data-name="Rectángulo 44271" width="33.32" height="13.331" transform="translate(3195.802 -116.828)" fill="#302578"/>
              <rect id="Rectángulo_44272" data-name="Rectángulo 44272" width="33.32" height="1.777" transform="translate(3195.802 -105.275)" fill="#bfd7e8"/>
              <rect id="Rectángulo_44273" data-name="Rectángulo 44273" width="30.676" height="3.674" transform="translate(3198.445 -103.496)" fill="#566b7a"/>
              <path id="Trazado_188493" data-name="Trazado 188493" d="M10611.447-590.975c-2.574-3.382-4.5-3.123-4.5-3.123h-4.016v15.613h14.5V-581a4.868,4.868,0,0,0-.764-3.094C10614.813-586.506,10613.382-588.432,10611.447-590.975Z" transform="translate(-7373 478.662)" fill="#ffe500"/>
              <path id="Trazado_188494" data-name="Trazado 188494" d="M10602.937-579.527v1.041h14.5v-1.03h-14.267C10603.091-579.516,10603.013-579.52,10602.937-579.527Z" transform="translate(-7373 478.662)" fill="#566b7a"/>
              <path id="Trazado_188495" data-name="Trazado 188495" d="M10602.937-582.2v3.714h3.59q-1.189-1.852-2.372-3.714Z" transform="translate(-7373 478.662)" fill="#566b7a"/>
              <path id="Trazado_188496" data-name="Trazado 188496" d="M10606.526-589.851l.958,3.558,8.33,1.08-3.515-4.638Z" transform="translate(-7373 478.662)" fill="#014657"/>
              <path id="Trazado_188497" data-name="Trazado 188497" d="M10616.072-580.877h1.335v-1.282h-2.059Z" transform="translate(-7373 478.662)" fill="#bfd7e8"/>
              <path id="Trazado_188498" data-name="Trazado 188498" d="M10602.131-580.772a1.973,1.973,0,0,0-1.975,1.973,1.975,1.975,0,0,0,1.975,1.976,1.976,1.976,0,0,0,1.976-1.976A1.974,1.974,0,0,0,10602.131-580.772Z" transform="translate(-7373 478.662)" fill="#fff"/>
              <path id="Trazado_188499" data-name="Trazado 188499" d="M10602.13-577.385a1.416,1.416,0,0,1-1.414-1.414,1.416,1.416,0,0,1,1.414-1.414,1.416,1.416,0,0,1,1.415,1.414A1.416,1.416,0,0,1,10602.13-577.385Zm0-3.949a2.538,2.538,0,0,0-2.535,2.535,2.538,2.538,0,0,0,2.535,2.535,2.539,2.539,0,0,0,2.537-2.535A2.538,2.538,0,0,0,10602.13-581.334Z" transform="translate(-7373 478.662)" fill="#0c1d30"/>
              <path id="Trazado_188500" data-name="Trazado 188500" d="M10596.2-580.772a1.974,1.974,0,0,0-1.976,1.973,1.976,1.976,0,0,0,1.976,1.976,1.974,1.974,0,0,0,1.974-1.976A1.972,1.972,0,0,0,10596.2-580.772Z" transform="translate(-7373 478.662)" fill="#fff"/>
              <path id="Trazado_188501" data-name="Trazado 188501" d="M10596.2-577.385a1.416,1.416,0,0,1-1.414-1.414,1.416,1.416,0,0,1,1.414-1.414,1.416,1.416,0,0,1,1.414,1.414A1.416,1.416,0,0,1,10596.2-577.385Zm0-3.949a2.537,2.537,0,0,0-2.535,2.535,2.537,2.537,0,0,0,2.535,2.535,2.538,2.538,0,0,0,2.535-2.535A2.538,2.538,0,0,0,10596.2-581.334Z" transform="translate(-7373 478.662)" fill="#0c1d30"/>
              <path id="Trazado_188502" data-name="Trazado 188502" d="M10580.333-580.772a1.973,1.973,0,0,0-1.975,1.973,1.975,1.975,0,0,0,1.975,1.976,1.975,1.975,0,0,0,1.975-1.976A1.973,1.973,0,0,0,10580.333-580.772Z" transform="translate(-7373 478.662)" fill="#fff"/>
              <path id="Trazado_188503" data-name="Trazado 188503" d="M10580.333-577.385a1.416,1.416,0,0,1-1.414-1.414,1.416,1.416,0,0,1,1.414-1.414,1.416,1.416,0,0,1,1.414,1.414A1.416,1.416,0,0,1,10580.333-577.385Zm0-3.949a2.538,2.538,0,0,0-2.536,2.535,2.538,2.538,0,0,0,2.536,2.535,2.538,2.538,0,0,0,2.536-2.535A2.538,2.538,0,0,0,10580.333-581.334Z" transform="translate(-7373 478.662)" fill="#0c1d30"/>
              <path id="Trazado_188504" data-name="Trazado 188504" d="M10574.4-580.772a1.973,1.973,0,0,0-1.975,1.973,1.975,1.975,0,0,0,1.975,1.976,1.975,1.975,0,0,0,1.975-1.976A1.973,1.973,0,0,0,10574.4-580.772Z" transform="translate(-7373 478.662)" fill="#fff"/>
              <path id="Trazado_188505" data-name="Trazado 188505" d="M10574.405-577.385a1.417,1.417,0,0,1-1.415-1.414,1.417,1.417,0,0,1,1.415-1.414,1.416,1.416,0,0,1,1.413,1.414A1.416,1.416,0,0,1,10574.405-577.385Zm0-3.949a2.538,2.538,0,0,0-2.536,2.535,2.538,2.538,0,0,0,2.536,2.535,2.539,2.539,0,0,0,2.535-2.535A2.539,2.539,0,0,0,10574.405-581.334Z" transform="translate(-7373 478.662)" fill="#0c1d30"/>
              <path id="Trazado_188506" data-name="Trazado 188506" d="M10614.079-580.772a1.974,1.974,0,0,0-1.976,1.973,1.976,1.976,0,0,0,1.976,1.976,1.974,1.974,0,0,0,1.974-1.976A1.972,1.972,0,0,0,10614.079-580.772Z" transform="translate(-7373 478.662)" fill="#fff"/>
              <path id="Trazado_188507" data-name="Trazado 188507" d="M10614.079-577.385a1.416,1.416,0,0,1-1.414-1.414,1.416,1.416,0,0,1,1.414-1.414,1.416,1.416,0,0,1,1.414,1.414A1.416,1.416,0,0,1,10614.079-577.385Zm0-3.949a2.537,2.537,0,0,0-2.535,2.535,2.537,2.537,0,0,0,2.535,2.535,2.538,2.538,0,0,0,2.535-2.535A2.538,2.538,0,0,0,10614.079-581.334Z" transform="translate(-7373 478.662)" fill="#0c1d30"/>
              <path id="Trazado_188508" data-name="Trazado 188508" d="M10581.083-608.212a.826.826,0,0,0,0,1.171.83.83,0,0,0,1.172,0,15.394,15.394,0,0,1,21.747,0,.83.83,0,0,0,1.171,0,.828.828,0,0,0,0-1.171A17.053,17.053,0,0,0,10581.083-608.212Z" transform="translate(-7373 478.662)" fill="#bfd7e8"/>
              <path id="Trazado_188509" data-name="Trazado 188509" d="M10601.534-604.573a11.814,11.814,0,0,0-8.405-3.482,11.813,11.813,0,0,0-8.407,3.482.829.829,0,0,0,0,1.172.829.829,0,0,0,1.171,0,10.225,10.225,0,0,1,3.056-2.111,10.207,10.207,0,0,1,4.18-.886,10.159,10.159,0,0,1,7.235,3,.832.832,0,0,0,1.172,0,.829.829,0,0,0,0-1.172Z" transform="translate(-7373 478.662)" fill="#bfd7e8"/>
              <path id="Trazado_188510" data-name="Trazado 188510" d="M10593.128-602.745a6.532,6.532,0,0,0-4.651,1.926.829.829,0,0,0,0,1.172.83.83,0,0,0,1.172,0,4.885,4.885,0,0,1,3.479-1.442,4.888,4.888,0,0,1,3.48,1.442.83.83,0,0,0,1.172,0,.829.829,0,0,0,0-1.172A6.534,6.534,0,0,0,10593.128-602.745Z" transform="translate(-7373 478.662)" fill="#bfd7e8"/>
              <path id="Trazado_188511" data-name="Trazado 188511" d="M10504.632-735.043a4.858,4.858,0,0,0-4.858,4.858,4.859,4.859,0,0,0,4.858,4.86,4.86,4.86,0,0,0,4.859-4.86A4.859,4.859,0,0,0,10504.632-735.043Z" transform="translate(-7373 478.662)" fill="#ffe500"/>
              <path id="Trazado_188512" data-name="Trazado 188512" d="M10431.477-769.229c0,4.813-1.4,8.635-4.155,11.362-4.651,4.6-11.7,4.573-11.78,4.573h-37.2v1.683h37.246c.8,0,7.928-.142,12.9-5.048,3.1-3.056,4.666-7.284,4.666-12.57,0-11.868,5.769-17.636,17.636-17.636h182.548v-1.683h-182.548C10437.976-788.548,10431.477-782.049,10431.477-769.229Z" transform="translate(-7373 478.662)" fill="#fff"/>
              <path id="Trazado_188513" data-name="Trazado 188513" d="M10332.775-583.268c-2.554,2.332-3.848,5.789-3.848,10.272,0,4.65-1.287,8.122-3.825,10.317-3.966,3.43-9.758,2.634-9.814,2.626l-.062-.01h-21v1.684h20.885a14.313,14.313,0,0,0,1.8.1,14.3,14.3,0,0,0,9.284-3.12c2.932-2.529,4.419-6.431,4.419-11.6,0-3.984,1.105-7.019,3.289-9.02,3.385-3.1,8.312-2.713,8.359-2.71l.038,0h61.7V-586.4h-61.631C10341.812-586.447,10336.585-586.748,10332.775-583.268Z" transform="translate(-7373 478.662)" fill="#fff"/>
              <rect id="Rectángulo_44274" data-name="Rectángulo 44274" width="1.682" height="89.68" transform="translate(2888.073 -180.176)" fill="#fff"/>
              <path id="Trazado_188514" data-name="Trazado 188514" d="M10295.062-614.8a.723.723,0,0,0-.723.724v2.51a2.46,2.46,0,0,1-2.458,2.458h-18.219a3.912,3.912,0,0,0-3.906,3.907v11.445a.726.726,0,0,0,.726.725.725.725,0,0,0,.724-.725V-605.2a2.459,2.459,0,0,1,2.457-2.458h18.219a3.91,3.91,0,0,0,3.906-3.907v-2.51A.725.725,0,0,0,10295.062-614.8Z" transform="translate(-7373 478.662)" fill="#566b7a"/>
              <path id="Trazado_188515" data-name="Trazado 188515" d="M10290.351-614.8a.724.724,0,0,0-.724.724v2.51a2.46,2.46,0,0,1-2.458,2.458h-13.507a3.912,3.912,0,0,0-3.906,3.907v11.445a.726.726,0,0,0,.726.725.725.725,0,0,0,.724-.725V-605.2a2.459,2.459,0,0,1,2.457-2.458h13.507a3.91,3.91,0,0,0,3.906-3.907v-2.51A.724.724,0,0,0,10290.351-614.8Z" transform="translate(-7373 478.662)" fill="#566b7a"/>
              <path id="Rectángulo_44275" data-name="Rectángulo 44275" d="M6.847,0H45.289a6.847,6.847,0,0,1,6.847,6.847v27.3a6.848,6.848,0,0,1-6.848,6.848H6.847A6.847,6.847,0,0,1,0,34.143V6.847A6.847,6.847,0,0,1,6.847,0Z" transform="translate(2879 -123.176)" fill="#4760a9"/>
              <rect id="Rectángulo_44276" data-name="Rectángulo 44276" width="43.881" height="31.516" transform="translate(2883.128 -118.438)" fill="#fff"/>
              <rect id="Rectángulo_44277" data-name="Rectángulo 44277" width="11.573" height="2.207" transform="translate(2883.128 -82.185)" fill="#4760a9"/>
              <rect id="Rectángulo_44278" data-name="Rectángulo 44278" width="11.572" height="2.207" transform="translate(2915.437 -82.185)" fill="#4760a9"/>
              <rect id="Rectángulo_44279" data-name="Rectángulo 44279" width="43.881" height="1.953" transform="translate(2883.128 -112.25)" fill="#566b7a"/>
              <path id="Trazado_188516" data-name="Trazado 188516" d="M10269.747-579.592l7.452,3.942,7.452-3.942-7.452-3.942Z" transform="translate(-7373 478.662)" fill="#6d889b"/>
              <path id="Trazado_188517" data-name="Trazado 188517" d="M10277.2-567.452l7.452-4.1v-8.041l-7.452,3.942Z" transform="translate(-7373 478.662)" fill="#c7dff1"/>
              <path id="Trazado_188518" data-name="Trazado 188518" d="M10269.747-571.551l7.452,4.1v-8.2l-7.452-3.942Z" transform="translate(-7373 478.662)" fill="#566b7a"/>
              <path id="Trazado_188519" data-name="Trazado 188519" d="M10270.481-583.71a.724.724,0,0,0-.726.724V-572.5a.725.725,0,0,0,.726.724.724.724,0,0,0,.724-.724v-10.489A.724.724,0,0,0,10270.481-583.71Z" transform="translate(-7373 478.662)" fill="#566b7a"/>
              <rect id="Rectángulo_44280" data-name="Rectángulo 44280" width="1.448" height="4.217" transform="translate(2896.756 -118.583)" fill="#014657"/>
              <rect id="Rectángulo_44281" data-name="Rectángulo 44281" width="6.584" height="8.207" transform="translate(2894.188 -115.09)" fill="#014657"/>
              <path id="Trazado_188520" data-name="Trazado 188520" d="M10269.539-583.928a.941.941,0,0,0,.941.942.941.941,0,0,0,.941-.942v-6.552h-1.883Z" transform="translate(-7373 478.662)" fill="#014657"/>
              <g id="Grupo_120398" data-name="Grupo 120398" transform="translate(-7373 478.662)">
                <g id="Grupo_120397" data-name="Grupo 120397" clip-path="url(#clip-path)">
                  <g id="Grupo_120396" data-name="Grupo 120396" style="isolation: isolate">
                    <g id="Grupo_120395" data-name="Grupo 120395">
                      <g id="Grupo_120394" data-name="Grupo 120394" clip-path="url(#clip-path-2)">
                        <path id="Trazado_188914" data-name="Trazado 188914" d="M12.405,0H117.7a12.406,12.406,0,0,1,12.406,12.406v105.3a12.406,12.406,0,0,1-12.406,12.406H12.406A12.406,12.406,0,0,1,0,117.706V12.405A12.405,12.405,0,0,1,12.405,0Z" transform="translate(10402.521 -688.751)" fill="#6677d6"/>
                        <path id="Trazado_188521" data-name="Trazado 188521" d="M10402.52-565.816a7.179,7.179,0,0,0,7.179,7.177h115.756a7.177,7.177,0,0,0,7.177-7.177v-13.871H10402.52Z" fill="#0c1d30"/>
                        <rect id="Rectángulo_44283" data-name="Rectángulo 44283" width="4.542" height="26.717" transform="translate(10401.729 -606.304)" fill="#566b7a"/>
                        <rect id="Rectángulo_44284" data-name="Rectángulo 44284" width="4.542" height="26.717" transform="translate(10434.6 -606.304)" fill="#566b7a"/>
                        <rect id="Rectángulo_44285" data-name="Rectángulo 44285" width="4.542" height="26.717" transform="translate(10467.471 -606.304)" fill="#566b7a"/>
                        <rect id="Rectángulo_44286" data-name="Rectángulo 44286" width="4.542" height="26.717" transform="translate(10500.342 -606.304)" fill="#566b7a"/>
                        <rect id="Rectángulo_44287" data-name="Rectángulo 44287" width="150.51" height="10.77" transform="translate(10394.486 -607.731)" fill="#566b7a"/>
                        <rect id="Rectángulo_44288" data-name="Rectángulo 44288" width="150.51" height="8.044" transform="translate(10394.486 -606.304)" fill="#014657"/>
                        <path id="Trazado_188522" data-name="Trazado 188522" d="M10402.02-604.3a2.019,2.019,0,0,0-2.019,2.019,2.019,2.019,0,0,0,2.019,2.018,2.019,2.019,0,0,0,2.019-2.018A2.019,2.019,0,0,0,10402.02-604.3Z" fill="#566b7a"/>
                        <path id="Trazado_188523" data-name="Trazado 188523" d="M10418.887-604.3a2.019,2.019,0,0,0-2.018,2.019,2.019,2.019,0,0,0,2.018,2.018,2.019,2.019,0,0,0,2.02-2.018A2.019,2.019,0,0,0,10418.887-604.3Z" fill="#566b7a"/>
                        <path id="Trazado_188524" data-name="Trazado 188524" d="M10435.755-604.3a2.018,2.018,0,0,0-2.018,2.019,2.018,2.018,0,0,0,2.018,2.018,2.018,2.018,0,0,0,2.019-2.018A2.019,2.019,0,0,0,10435.755-604.3Z" fill="#566b7a"/>
                        <path id="Trazado_188525" data-name="Trazado 188525" d="M10452.623-604.3a2.018,2.018,0,0,0-2.018,2.019,2.018,2.018,0,0,0,2.018,2.018,2.018,2.018,0,0,0,2.019-2.018A2.019,2.019,0,0,0,10452.623-604.3Z" fill="#566b7a"/>
                        <path id="Trazado_188526" data-name="Trazado 188526" d="M10469.492-604.3a2.019,2.019,0,0,0-2.02,2.019,2.019,2.019,0,0,0,2.02,2.018,2.018,2.018,0,0,0,2.018-2.018A2.018,2.018,0,0,0,10469.492-604.3Z" fill="#566b7a"/>
                        <path id="Trazado_188527" data-name="Trazado 188527" d="M10486.359-604.3a2.019,2.019,0,0,0-2.019,2.019,2.018,2.018,0,0,0,2.019,2.018,2.019,2.019,0,0,0,2.019-2.018A2.019,2.019,0,0,0,10486.359-604.3Z" fill="#566b7a"/>
                        <circle id="Elipse_12910" data-name="Elipse 12910" cx="2.018" cy="2.018" r="2.018" transform="translate(10501.209 -604.3)" fill="#566b7a"/>
                        <path id="Trazado_188528" data-name="Trazado 188528" d="M10520.1-604.3a2.019,2.019,0,0,0-2.019,2.019,2.019,2.019,0,0,0,2.019,2.018,2.019,2.019,0,0,0,2.019-2.018A2.019,2.019,0,0,0,10520.1-604.3Z" fill="#566b7a"/>
                        <rect id="Rectángulo_44289" data-name="Rectángulo 44289" width="19.299" height="5.287" transform="translate(10408.724 -613.02)" fill="#fff"/>
                        <rect id="Rectángulo_44290" data-name="Rectángulo 44290" width="19.299" height="5.287" transform="translate(10442.974 -613.02)" fill="#fff"/>
                        <rect id="Rectángulo_44291" data-name="Rectángulo 44291" width="19.299" height="5.287" transform="translate(10477.225 -613.02)" fill="#fff"/>
                        <path id="Trazado_188529" data-name="Trazado 188529" d="M10418.112-663.662a1.088,1.088,0,0,0,0,1.536,1.088,1.088,0,0,0,1.537,0,20.189,20.189,0,0,1,28.521,0,1.087,1.087,0,0,0,1.536,0,1.087,1.087,0,0,0,0-1.536A22.367,22.367,0,0,0,10418.112-663.662Z" fill="#fff"/>
                        <path id="Trazado_188530" data-name="Trazado 188530" d="M10444.935-658.89a15.492,15.492,0,0,0-11.024-4.567,15.5,15.5,0,0,0-11.025,4.567,1.086,1.086,0,0,0,0,1.537,1.087,1.087,0,0,0,1.536,0,13.412,13.412,0,0,1,4.006-2.768,13.4,13.4,0,0,1,5.483-1.163,13.331,13.331,0,0,1,9.489,3.931,1.085,1.085,0,0,0,1.535,0,1.086,1.086,0,0,0,0-1.537Z" fill="#fff"/>
                        <path id="Trazado_188531" data-name="Trazado 188531" d="M10433.91-656.493a8.571,8.571,0,0,0-6.1,2.528,1.085,1.085,0,0,0,0,1.536,1.087,1.087,0,0,0,1.536,0,6.409,6.409,0,0,1,4.564-1.891,6.41,6.41,0,0,1,4.563,1.891,1.088,1.088,0,0,0,1.537,0,1.087,1.087,0,0,0,0-1.536A8.571,8.571,0,0,0,10433.91-656.493Z" fill="#fff"/>
                        <rect id="Rectángulo_44292" data-name="Rectángulo 44292" width="11.366" height="3.523" transform="translate(10446.94 -616.542)" fill="#2baaae"/>
                        <rect id="Rectángulo_44293" data-name="Rectángulo 44293" width="11.366" height="3.523" transform="translate(10481.19 -616.542)" fill="#2baaae"/>
                        <rect id="Rectángulo_44294" data-name="Rectángulo 44294" width="28.711" height="17.368" transform="translate(10497.003 -596.954)" fill="#566b7a"/>
                        <rect id="Rectángulo_44295" data-name="Rectángulo 44295" width="32.846" height="4.654" transform="translate(10494.936 -600.827)" fill="#566b7a"/>
                        <rect id="Rectángulo_44296" data-name="Rectángulo 44296" width="15.03" height="2.676" transform="matrix(0.974, -0.228, 0.228, 0.974, 10435.661, -645.226)" fill="#b82c1d"/>
                        <path id="Trazado_188532" data-name="Trazado 188532" d="M10437.822-644.219s-.007-.029-.021-.077l-.01-.054-.015-.052-.015-.078-.011,0a3.908,3.908,0,0,0-4.734-2.817l-1.575.368-2.383,2.816,3.774-.882,2.043,1.269-.041.065.066.041-1.27,2.044-3.773.882,3.383,1.467,1.576-.368a3.908,3.908,0,0,0,2.994-4.623Z" fill="#b82c1d"/>
                        <rect id="Rectángulo_44297" data-name="Rectángulo 44297" width="14.721" height="4.886" transform="translate(10442.728 -648.012) rotate(-13.159)" fill="#b82c1d"/>
                        <rect id="Rectángulo_44298" data-name="Rectángulo 44298" width="14.721" height="4.886" transform="translate(10442.728 -648.012) rotate(-13.159)" fill="#b82c1d"/>
                        <path id="Trazado_188533" data-name="Trazado 188533" d="M10441.161-646.536l.669,2.862,2.01.419-1.112-4.758Z" fill="#b82c1d"/>
                        <rect id="Rectángulo_44299" data-name="Rectángulo 44299" width="28.624" height="8.434" transform="matrix(0.974, -0.228, 0.228, 0.974, 10448.585, -651.203)" fill="#b82c1d"/>
                        <path id="Trazado_188534" data-name="Trazado 188534" d="M10479.5-649.818a13.029,13.029,0,0,1-.085,5.35c-.883,3.7-3.445,6.074-7.615,7.049-3.361.786-6.2.476-8.445-.92-4.1-2.554-5.381-8.093-6.068-11.068-.071-.31-.136-.591-.2-.835-1.285-5.186-3.483-6.91-7.592-5.948a6.485,6.485,0,0,0-4.306,2.764,5.485,5.485,0,0,0-.639,3.886l.244,1.043,1.092-.255-.245-1.05a4.411,4.411,0,0,1,.513-3.053,5.437,5.437,0,0,1,3.6-2.243c2.98-.7,4.958-.083,6.249,5.125.059.239.123.515.193.818.724,3.135,2.071,8.968,6.566,11.767a10.419,10.419,0,0,0,5.616,1.515,16.151,16.151,0,0,0,3.678-.454c5.753-1.344,7.771-5.027,8.451-7.881a14.008,14.008,0,0,0,.087-5.865Z" fill="#00566b"/>
                        <rect id="Rectángulo_44300" data-name="Rectángulo 44300" width="26.503" height="12.65" transform="matrix(0.974, -0.228, 0.228, 0.974, 10468.905, -658.118)" fill="#e64e19"/>
                        <path id="Trazado_188535" data-name="Trazado 188535" d="M10493.357-654.731a7.243,7.243,0,0,0-9.441-3.968,7.24,7.24,0,0,0-3.968,9.442l10.513,29.907c1.511,3.7,7.728,6.313,11.429,4.8s6.079-7.631,4.568-11.334Z" fill="#b82c1d"/>
                        <path id="Trazado_188536" data-name="Trazado 188536" d="M10486.376-655.7a4.3,4.3,0,0,1,.825-.052,4.254,4.254,0,0,1,.818.11,4.281,4.281,0,0,1,.782.268,4.2,4.2,0,0,1,.715.416,4.184,4.184,0,0,1,.62.546,4.1,4.1,0,0,1,.5.658,4.128,4.128,0,0,1,.364.742,4.258,4.258,0,0,1,.212.8,4.164,4.164,0,0,1,.051.825,4.129,4.129,0,0,1-.109.819,4.17,4.17,0,0,1-.269.782,4.119,4.119,0,0,1-.415.715,4.187,4.187,0,0,1-.547.62,4.163,4.163,0,0,1-.657.5,4.225,4.225,0,0,1-.741.363,4.2,4.2,0,0,1-.8.212,4.218,4.218,0,0,1-.824.052,4.274,4.274,0,0,1-.82-.11,4.262,4.262,0,0,1-.782-.268,4.154,4.154,0,0,1-.714-.416,4.233,4.233,0,0,1-.62-.546,4.284,4.284,0,0,1-.5-.658,4.225,4.225,0,0,1-.363-.742,4.184,4.184,0,0,1-.212-.8,4.164,4.164,0,0,1-.052-.825,4.2,4.2,0,0,1,.11-.819,4.164,4.164,0,0,1,.268-.782,4.183,4.183,0,0,1,.415-.715,4.187,4.187,0,0,1,.547-.62,4.181,4.181,0,0,1,.657-.5,4.212,4.212,0,0,1,.743-.364A4.21,4.21,0,0,1,10486.376-655.7Z" fill="#014657"/>
                        <path id="Trazado_188537" data-name="Trazado 188537" d="M10518.445-620.971l-14.351-5.221a9.144,9.144,0,0,0-4.177-1.005,9.184,9.184,0,0,0-9.184,9.184,9.162,9.162,0,0,0,3.243,7l5.94,10.183h24.247v-8.688A11.043,11.043,0,0,0,10518.445-620.971Z" fill="#b82c1d"/>
                        <path id="Trazado_188538" data-name="Trazado 188538" d="M10499.918-622.986a4.973,4.973,0,0,0-4.974,4.973,4.973,4.973,0,0,0,4.974,4.974,4.973,4.973,0,0,0,4.974-4.974A4.973,4.973,0,0,0,10499.918-622.986Z" fill="#014657"/>
                        <rect id="Rectángulo_44301" data-name="Rectángulo 44301" width="11.366" height="3.523" transform="translate(10421.638 -642.402) rotate(-13.161)" fill="#2baaae"/>
                      </g>
                    </g>
                  </g>
                </g>
              </g>
              <path id="Trazado_188540" data-name="Trazado 188540" d="M10407.437-766.254c-3.542,3.476-9.437,3.4-9.514,3.4h-25.7v1.684h25.806c.935,0,6.778-.154,10.582-3.877a11.159,11.159,0,0,0,3.207-8.316h-1.684A9.546,9.546,0,0,1,10407.437-766.254Z" transform="translate(-7373 478.662)" fill="#fff"/>
              <rect id="Rectángulo_44303" data-name="Rectángulo 44303" width="195.656" height="1.682" transform="translate(3067.492 -340.3)" fill="#fff"/>
              <path id="Trazado_188541" data-name="Trazado 188541" d="M10527.5-815.155a12.911,12.911,0,0,0-12.9-12.3,12.866,12.866,0,0,0-5.936,1.444,14.915,14.915,0,0,0-12.009-6.053,14.938,14.938,0,0,0-14.938,14.937,14.9,14.9,0,0,0,.132,1.948,14.216,14.216,0,0,0-10.84,13.806,14.211,14.211,0,0,0,14.211,14.211c.5,0,40.557.095,40.557.095a14.418,14.418,0,0,0,12.44-14.306A14.213,14.213,0,0,0,10527.5-815.155Z" transform="translate(-7373 478.662)" fill="#fff"/>
              <path id="Trazado_188542" data-name="Trazado 188542" d="M10489.722-809.89a1.026,1.026,0,0,0,0,1.449,1.024,1.024,0,0,0,1.448,0,19.048,19.048,0,0,1,26.905,0,1.024,1.024,0,0,0,1.448,0,1.024,1.024,0,0,0,0-1.449A21.1,21.1,0,0,0,10489.722-809.89Z" transform="translate(-7373 478.662)" fill="#b82c1d"/>
              <path id="Trazado_188543" data-name="Trazado 188543" d="M10515.022-805.39a14.614,14.614,0,0,0-10.4-4.307,14.618,14.618,0,0,0-10.4,4.307,1.027,1.027,0,0,0,0,1.45,1.025,1.025,0,0,0,1.449,0,12.58,12.58,0,0,1,8.951-3.708,12.578,12.578,0,0,1,8.95,3.708,1.025,1.025,0,0,0,1.449,0A1.025,1.025,0,0,0,10515.022-805.39Z" transform="translate(-7373 478.662)" fill="#b82c1d"/>
              <path id="Trazado_188544" data-name="Trazado 188544" d="M10504.623-803.128a8.085,8.085,0,0,0-5.755,2.383,1.024,1.024,0,0,0,0,1.449,1.026,1.026,0,0,0,1.45,0,6.043,6.043,0,0,1,4.3-1.783,6.047,6.047,0,0,1,4.3,1.783,1.025,1.025,0,0,0,1.449,0,1.022,1.022,0,0,0,0-1.449A8.089,8.089,0,0,0,10504.623-803.128Z" transform="translate(-7373 478.662)" fill="#b82c1d"/>
              <rect id="Rectángulo_44304" data-name="Rectángulo 44304" width="2.243" height="42.452" transform="translate(3130.501 -313.581)" fill="#fff"/>
              <path id="Trazado_188545" data-name="Trazado 188545" d="M10504.623-752.446a2.53,2.53,0,0,0-2.531,2.529,2.531,2.531,0,0,0,2.531,2.53,2.531,2.531,0,0,0,2.53-2.53A2.53,2.53,0,0,0,10504.623-752.446Z" transform="translate(-7373 478.662)" fill="#fff"/>
              <path id="Trazado_188546" data-name="Trazado 188546" d="M10495.026-775.909l-8.127,8.127,1.586,1.586,8.784-8.784v-15.488h-2.243Z" transform="translate(-7373 478.662)" fill="#fff"/>
              <path id="Trazado_188547" data-name="Trazado 188547" d="M10485.992-768.868a2.531,2.531,0,0,0,0,3.579,2.53,2.53,0,0,0,3.578,0,2.531,2.531,0,0,0,0-3.578A2.531,2.531,0,0,0,10485.992-768.868Z" transform="translate(-7373 478.662)" fill="#fff"/>
              <path id="Trazado_188548" data-name="Trazado 188548" d="M10514.22-793.032h-2.244v19.858l13.334,13.294,1.584-1.589L10514.22-774.1Z" transform="translate(-7373 478.662)" fill="#fff"/>
              <path id="Trazado_188549" data-name="Trazado 188549" d="M10524.22-762.551a2.531,2.531,0,0,0,0,3.578,2.527,2.527,0,0,0,3.578-.005,2.529,2.529,0,0,0,0-3.578A2.532,2.532,0,0,0,10524.22-762.551Z" transform="translate(-7373 478.662)" fill="#fff"/>
              <rect id="Rectángulo_44305" data-name="Rectángulo 44305" width="1.309" height="17.253" transform="translate(3051.053 -341.205) rotate(-74.725)" fill="#fff"/>
              <path id="Trazado_188550" data-name="Trazado 188550" d="M10436.3-809.16l-10.137,1.142a.661.661,0,0,0-.438.242l-9.563,11.979-8.825-2.718-4.273-6.867a.65.65,0,0,0-.226-.22l-5.625-3.276.513-8.8,6.156-7.708,16.4-5.982,13.149,4.792,5.605,4.521,1.143,6Zm3.98-13.38a.662.662,0,0,0-.232-.388l-5.877-4.74a.618.618,0,0,0-.187-.1l-13.478-4.912a.663.663,0,0,0-.448,0l-16.8,6.128a.664.664,0,0,0-.287.206l-6.4,8.014a.655.655,0,0,0-.143.37l-.549,9.413a.66.66,0,0,0,.324.605l5.832,3.4,4.315,6.938a.661.661,0,0,0,.363.279l9.485,2.92a.635.635,0,0,0,.191.029.654.654,0,0,0,.513-.247l9.673-12.113,10.2-1.149a.657.657,0,0,0,.5-.331l4.164-7.405a.657.657,0,0,0,.072-.442Z" transform="translate(-7373 478.662)" fill="#fff"/>
              <path id="Trazado_188551" data-name="Trazado 188551" d="M10412.461-785.079h-2.441l-.27-10.957,5.8,1.315Zm4.078-10.761-7.319-1.658a.649.649,0,0,0-.56.131.656.656,0,0,0-.239.522l.307,12.437a.655.655,0,0,0,.654.637h3.557a.655.655,0,0,0,.623-.455l3.455-10.776a.656.656,0,0,0-.054-.524A.66.66,0,0,0,10416.539-795.84Z" transform="translate(-7373 478.662)" fill="#fff"/>
              <path id="Trazado_188552" data-name="Trazado 188552" d="M10423.486-821.1l-27.217,11.984.528,1.2,26.823-11.812,12.64,11.662.889-.963-12.955-11.95A.657.657,0,0,0,10423.486-821.1Z" transform="translate(-7373 478.662)" fill="#fff"/>
              <path id="Trazado_188553" data-name="Trazado 188553" d="M10423.524-821.134l-26.5,2.554.125,1.3,26.667-2.57a.653.653,0,0,0,.3-.106l10.01-6.661-.726-1.089Z" transform="translate(-7373 478.662)" fill="#fff"/>
              <path id="Trazado_188554" data-name="Trazado 188554" d="M10424.889-819.868l-1.292.208,1.891,11.754-13.089,2.174-7.45-6.684-.874.974,7.684,6.893a.656.656,0,0,0,.438.168.653.653,0,0,0,.107-.01l14.04-2.331a.652.652,0,0,0,.538-.749Z" transform="translate(-7373 478.662)" fill="#fff"/>
              <path id="Trazado_188555" data-name="Trazado 188555" d="M10407.361-799.659l-3.11-25.4,18.4,4.943Zm16.857-21.556-3.309-11.043-1.254.375,3.13,10.447-19.133-5.139a.657.657,0,0,0-.6.137.659.659,0,0,0-.221.575l3.425,27.981a.654.654,0,0,0,.482.552.6.6,0,0,0,.168.022.651.651,0,0,0,.523-.262l16.675-22.313,15.607-1.886-.158-1.3Z" transform="translate(-7373 478.662)" fill="#fff"/>
              <rect id="Rectángulo_44306" data-name="Rectángulo 44306" width="26.345" height="1.309" transform="matrix(0.279, -0.96, 0.96, 0.279, 3042.767, -316.722)" fill="#fff"/>
              <path id="Trazado_188556" data-name="Trazado 188556" d="M10422.75-827.124a8.272,8.272,0,0,0-8.273,8.272,8.273,8.273,0,0,0,8.273,8.274,8.273,8.273,0,0,0,8.272-8.274A8.273,8.273,0,0,0,10422.75-827.124Z" transform="translate(-7373 478.662)" fill="#ffe500"/>
              <path id="Trazado_188557" data-name="Trazado 188557" d="M10420.918-817.165l.7-4.664.7,4.664Zm-.29-6.3-1.476,9.224h1.331l.251-1.674h1.777l.251,1.674h1.462l-1.475-9.224Z" transform="translate(-7373 478.662)" fill="#014657"/>
              <rect id="Rectángulo_44307" data-name="Rectángulo 44307" width="1.449" height="9.223" transform="translate(3051.897 -344.801)" fill="#014657"/>
              <path id="Trazado_188558" data-name="Trazado 188558" d="M10566.793-794.651V-820.43a2.207,2.207,0,0,1,.171-.858,2.23,2.23,0,0,1,.486-.728,2.239,2.239,0,0,1,.728-.486,2.241,2.241,0,0,1,.858-.17h25.778a2.233,2.233,0,0,1,.857.17,2.233,2.233,0,0,1,.729.486,2.223,2.223,0,0,1,.485.728,2.215,2.215,0,0,1,.171.858v25.779a2.206,2.206,0,0,1-.171.857,2.227,2.227,0,0,1-.485.729,2.2,2.2,0,0,1-.729.485,2.211,2.211,0,0,1-.857.171h-25.778a2.224,2.224,0,0,1-.859-.171,2.215,2.215,0,0,1-.727-.485,2.251,2.251,0,0,1-.486-.728A2.211,2.211,0,0,1,10566.793-794.651Z" transform="translate(-7373 478.662)" fill="#b82c1d"/>
              <path id="Trazado_188559" data-name="Trazado 188559" d="M10596.226-793.851a.61.61,0,0,1-.609.61h-27.381a.611.611,0,0,1-.611-.61v-27.38a.613.613,0,0,1,.611-.611h27.381a.611.611,0,0,1,.609.611Zm-.609-29.654h-27.381a2.276,2.276,0,0,0-2.273,2.274v27.38a2.276,2.276,0,0,0,2.273,2.273h27.381a2.275,2.275,0,0,0,2.271-2.273v-27.38A2.275,2.275,0,0,0,10595.616-823.505Z" transform="translate(-7373 478.662)" fill="#fff"/>
              <path id="Trazado_188560" data-name="Trazado 188560" d="M10600.214-817.106h-3.157a.582.582,0,0,0-.582.582.582.582,0,0,0,.582.582h3.157a.582.582,0,0,0,.582-.582A.581.581,0,0,0,10600.214-817.106Z" transform="translate(-7373 478.662)" fill="#fff"/>
              <path id="Trazado_188561" data-name="Trazado 188561" d="M10600.214-812.615h-3.157a.582.582,0,0,0-.582.582.582.582,0,0,0,.582.582h3.157a.582.582,0,0,0,.582-.582A.582.582,0,0,0,10600.214-812.615Z" transform="translate(-7373 478.662)" fill="#fff"/>
              <path id="Trazado_188562" data-name="Trazado 188562" d="M10600.214-808.123h-3.157a.582.582,0,0,0-.582.582.582.582,0,0,0,.582.582h3.157a.582.582,0,0,0,.582-.582A.581.581,0,0,0,10600.214-808.123Z" transform="translate(-7373 478.662)" fill="#fff"/>
              <path id="Trazado_188563" data-name="Trazado 188563" d="M10600.214-803.631h-3.157a.582.582,0,0,0-.582.581.582.582,0,0,0,.582.582h3.157a.582.582,0,0,0,.582-.582A.581.581,0,0,0,10600.214-803.631Z" transform="translate(-7373 478.662)" fill="#fff"/>
              <path id="Trazado_188564" data-name="Trazado 188564" d="M10600.214-799.139h-3.157a.582.582,0,0,0-.582.581.582.582,0,0,0,.582.582h3.157a.581.581,0,0,0,.582-.582A.581.581,0,0,0,10600.214-799.139Z" transform="translate(-7373 478.662)" fill="#fff"/>
              <path id="Trazado_188565" data-name="Trazado 188565" d="M10566.794-817.106h-3.158a.582.582,0,0,0-.582.582.583.583,0,0,0,.582.582h3.158a.582.582,0,0,0,.581-.582A.581.581,0,0,0,10566.794-817.106Z" transform="translate(-7373 478.662)" fill="#fff"/>
              <path id="Trazado_188566" data-name="Trazado 188566" d="M10566.794-812.615h-3.158a.583.583,0,0,0-.582.582.583.583,0,0,0,.582.582h3.158a.582.582,0,0,0,.581-.582A.582.582,0,0,0,10566.794-812.615Z" transform="translate(-7373 478.662)" fill="#fff"/>
              <path id="Trazado_188567" data-name="Trazado 188567" d="M10566.794-808.123h-3.158a.582.582,0,0,0-.582.582.583.583,0,0,0,.582.582h3.158a.582.582,0,0,0,.581-.582A.581.581,0,0,0,10566.794-808.123Z" transform="translate(-7373 478.662)" fill="#fff"/>
              <path id="Trazado_188568" data-name="Trazado 188568" d="M10566.794-803.631h-3.158a.582.582,0,0,0-.582.581.583.583,0,0,0,.582.582h3.158a.582.582,0,0,0,.581-.582A.581.581,0,0,0,10566.794-803.631Z" transform="translate(-7373 478.662)" fill="#fff"/>
              <path id="Trazado_188569" data-name="Trazado 188569" d="M10566.794-799.139h-3.158a.582.582,0,0,0-.582.581.582.582,0,0,0,.582.582h3.158a.581.581,0,0,0,.581-.582A.581.581,0,0,0,10566.794-799.139Z" transform="translate(-7373 478.662)" fill="#fff"/>
              <path id="Trazado_188570" data-name="Trazado 188570" d="M10572.942-826.412a.581.581,0,0,0-.582.582v3.157a.582.582,0,0,0,.582.582.583.583,0,0,0,.582-.582v-3.157A.582.582,0,0,0,10572.942-826.412Z" transform="translate(-7373 478.662)" fill="#fff"/>
              <path id="Trazado_188571" data-name="Trazado 188571" d="M10577.433-826.412a.582.582,0,0,0-.581.582v3.157a.582.582,0,0,0,.581.582.582.582,0,0,0,.582-.582v-3.157A.582.582,0,0,0,10577.433-826.412Z" transform="translate(-7373 478.662)" fill="#fff"/>
              <path id="Trazado_188572" data-name="Trazado 188572" d="M10581.925-826.412a.582.582,0,0,0-.582.582v3.157a.582.582,0,0,0,.582.582.582.582,0,0,0,.582-.582v-3.157A.582.582,0,0,0,10581.925-826.412Z" transform="translate(-7373 478.662)" fill="#fff"/>
              <path id="Trazado_188573" data-name="Trazado 188573" d="M10586.417-826.412a.581.581,0,0,0-.582.582v3.157a.582.582,0,0,0,.582.582.582.582,0,0,0,.582-.582v-3.157A.582.582,0,0,0,10586.417-826.412Z" transform="translate(-7373 478.662)" fill="#fff"/>
              <path id="Trazado_188574" data-name="Trazado 188574" d="M10590.909-826.412a.582.582,0,0,0-.583.582v3.157a.583.583,0,0,0,.583.582.582.582,0,0,0,.581-.582v-3.157A.581.581,0,0,0,10590.909-826.412Z" transform="translate(-7373 478.662)" fill="#fff"/>
              <path id="Trazado_188575" data-name="Trazado 188575" d="M10572.942-792.991a.582.582,0,0,0-.582.582v3.157a.582.582,0,0,0,.582.582.583.583,0,0,0,.582-.582v-3.157A.583.583,0,0,0,10572.942-792.991Z" transform="translate(-7373 478.662)" fill="#fff"/>
              <path id="Trazado_188576" data-name="Trazado 188576" d="M10577.433-792.991a.582.582,0,0,0-.581.582v3.157a.582.582,0,0,0,.581.582.582.582,0,0,0,.582-.582v-3.157A.582.582,0,0,0,10577.433-792.991Z" transform="translate(-7373 478.662)" fill="#fff"/>
              <path id="Trazado_188577" data-name="Trazado 188577" d="M10581.925-792.991a.582.582,0,0,0-.582.582v3.157a.582.582,0,0,0,.582.582.582.582,0,0,0,.582-.582v-3.157A.582.582,0,0,0,10581.925-792.991Z" transform="translate(-7373 478.662)" fill="#fff"/>
              <path id="Trazado_188578" data-name="Trazado 188578" d="M10586.417-792.991a.582.582,0,0,0-.582.582v3.157a.582.582,0,0,0,.582.582.582.582,0,0,0,.582-.582v-3.157A.582.582,0,0,0,10586.417-792.991Z" transform="translate(-7373 478.662)" fill="#fff"/>
              <path id="Trazado_188579" data-name="Trazado 188579" d="M10590.909-792.991a.583.583,0,0,0-.583.582v3.157a.583.583,0,0,0,.583.582.582.582,0,0,0,.581-.582v-3.157A.582.582,0,0,0,10590.909-792.991Z" transform="translate(-7373 478.662)" fill="#fff"/>
              <path id="Trazado_188580" data-name="Trazado 188580" d="M10581.925-797.34c-1.468,0-3.1-4.189-3.1-10.2s1.637-10.2,3.1-10.2,3.1,4.19,3.1,10.2S10583.394-797.34,10581.925-797.34Zm0-21.233c-1.149,0-2.147,1.173-2.884,3.393a25.268,25.268,0,0,0-1.052,7.639,25.266,25.266,0,0,0,1.052,7.638c.736,2.22,1.734,3.394,2.884,3.394s2.148-1.174,2.883-3.394a25.2,25.2,0,0,0,1.054-7.638,25.2,25.2,0,0,0-1.054-7.639C10584.073-817.4,10583.076-818.573,10581.925-818.573Z" transform="translate(-7373 478.662)" fill="#fff"/>
              <path id="Trazado_188581" data-name="Trazado 188581" d="M10590.76-802.44c-.362.627-1.669.777-3.494.4a24.406,24.406,0,0,1-6.893-2.815c-5.207-3-8.017-6.517-7.283-7.789.232-.4.836-.61,1.719-.61,1.906,0,5.11.967,8.668,3.022C10588.684-807.225,10591.494-803.713,10590.76-802.44Zm-6.867-8.51a25.2,25.2,0,0,0-7.141-2.907c-2.291-.474-3.806-.2-4.382.8s-.057,2.447,1.5,4.2a25.229,25.229,0,0,0,6.09,4.729,25.213,25.213,0,0,0,7.14,2.908,9.675,9.675,0,0,0,1.942.225,2.6,2.6,0,0,0,2.438-1.025c.576-1,.058-2.447-1.5-4.195A25.249,25.249,0,0,0,10583.893-810.95Z" transform="translate(-7373 478.662)" fill="#fff"/>
              <path id="Trazado_188582" data-name="Trazado 188582" d="M10583.477-804.853a24.406,24.406,0,0,1-6.893,2.815c-1.826.376-3.131.225-3.494-.4s.16-1.834,1.4-3.227a24.369,24.369,0,0,1,5.883-4.563c5.207-3.006,9.653-3.684,10.387-2.412S10588.683-807.858,10583.477-804.853Zm3.62-9a25.183,25.183,0,0,0-7.14,2.908,25.2,25.2,0,0,0-6.089,4.729c-1.555,1.748-2.073,3.2-1.5,4.195a2.6,2.6,0,0,0,2.438,1.025,9.668,9.668,0,0,0,1.943-.225,25.207,25.207,0,0,0,7.141-2.908,25.242,25.242,0,0,0,6.089-4.729c1.555-1.749,2.072-3.2,1.5-4.2S10589.389-814.331,10587.1-813.857Z" transform="translate(-7373 478.662)" fill="#fff"/>
              <path id="Trazado_188583" data-name="Trazado 188583" d="M10581.925-809.3a1.76,1.76,0,0,0-1.761,1.761,1.76,1.76,0,0,0,1.761,1.761,1.76,1.76,0,0,0,1.761-1.761A1.76,1.76,0,0,0,10581.925-809.3Z" transform="translate(-7373 478.662)" fill="#fff"/>
              <path id="Trazado_188584" data-name="Trazado 188584" d="M10668.637-620.731l-20.465-20.466-8.558,8.557-13.748-13.748-1.322,1.322,15.07,15.07,8.558-8.558,20.465,20.466,13.451-13.451,16.26,16.26,1.322-1.321-17.582-17.582Z" transform="translate(-7373 478.662)" fill="#fff"/>
              <path id="Trazado_188585" data-name="Trazado 188585" d="M10660.318-622.857a9.784,9.784,0,0,0,0,13.834,9.784,9.784,0,0,0,13.834,0,9.784,9.784,0,0,0,0-13.834A9.781,9.781,0,0,0,10660.318-622.857Z" transform="translate(-7373 478.662)" fill="#fff"/>
              <path id="Trazado_188586" data-name="Trazado 188586" d="M10659.46-609.883l-13.5,13.5a1.216,1.216,0,0,0,0,1.719,1.212,1.212,0,0,0,.859.356,1.214,1.214,0,0,0,.859-.356l13.5-13.5a1.216,1.216,0,0,0,0-1.719A1.216,1.216,0,0,0,10659.46-609.883Z" transform="translate(-7373 478.662)" fill="#b82c1d"/>
              <path id="Trazado_188587" data-name="Trazado 188587" d="M10655.562-606.777l-10,10a1.774,1.774,0,0,0,0,2.511,1.771,1.771,0,0,0,1.256.521,1.771,1.771,0,0,0,1.256-.521l10-10a1.777,1.777,0,0,0,0-2.511A1.775,1.775,0,0,0,10655.562-606.777Z" transform="translate(-7373 478.662)" fill="#b82c1d"/>
              <path id="Trazado_188588" data-name="Trazado 188588" d="M10624.791-653.938a2.782,2.782,0,0,0-2.781,2.781,2.78,2.78,0,0,0,2.781,2.781,2.78,2.78,0,0,0,2.781-2.781A2.782,2.782,0,0,0,10624.791-653.938Z" transform="translate(-7373 478.662)" fill="#fff"/>
              <path id="Trazado_188589" data-name="Trazado 188589" d="M10639.5-635.946a2.781,2.781,0,0,0-2.781,2.781,2.781,2.781,0,0,0,2.781,2.78,2.781,2.781,0,0,0,2.781-2.78A2.782,2.782,0,0,0,10639.5-635.946Z" transform="translate(-7373 478.662)" fill="#fff"/>
              <path id="Trazado_188590" data-name="Trazado 188590" d="M10648.355-645.758a2.782,2.782,0,0,0-2.781,2.782,2.781,2.781,0,0,0,2.781,2.781,2.781,2.781,0,0,0,2.78-2.781A2.782,2.782,0,0,0,10648.355-645.758Z" transform="translate(-7373 478.662)" fill="#fff"/>
              <path id="Trazado_188591" data-name="Trazado 188591" d="M10682.363-637.288a2.782,2.782,0,0,0-2.781,2.781,2.78,2.78,0,0,0,2.781,2.78,2.779,2.779,0,0,0,2.78-2.78A2.781,2.781,0,0,0,10682.363-637.288Z" transform="translate(-7373 478.662)" fill="#fff"/>
              <path id="Trazado_188592" data-name="Trazado 188592" d="M10447.156-812.735a2.634,2.634,0,0,0-2.634,2.635,2.634,2.634,0,0,0,2.634,2.635,2.635,2.635,0,0,0,2.636-2.635A2.635,2.635,0,0,0,10447.156-812.735Z" transform="translate(-7373 478.662)" fill="#ffe500" opacity="0.502"/>
              <path id="Trazado_188593" data-name="Trazado 188593" d="M10456.207-812.735a2.635,2.635,0,0,0-2.636,2.635,2.636,2.636,0,0,0,2.636,2.635,2.635,2.635,0,0,0,2.635-2.635A2.634,2.634,0,0,0,10456.207-812.735Z" transform="translate(-7373 478.662)" fill="#ffe500" opacity="0.8"/>
              <path id="Trazado_188594" data-name="Trazado 188594" d="M10465.256-812.735a2.634,2.634,0,0,0-2.635,2.635,2.634,2.634,0,0,0,2.635,2.635,2.635,2.635,0,0,0,2.636-2.635A2.635,2.635,0,0,0,10465.256-812.735Z" transform="translate(-7373 478.662)" fill="#ffe500"/>
              <path id="Trazado_188595" data-name="Trazado 188595" d="M10388.521-740.815a2.635,2.635,0,0,0-2.636,2.635,2.636,2.636,0,0,0,2.636,2.635,2.636,2.636,0,0,0,2.635-2.635A2.635,2.635,0,0,0,10388.521-740.815Z" transform="translate(-7373 478.662)" fill="#ffe500" opacity="0.502"/>
              <path id="Trazado_188596" data-name="Trazado 188596" d="M10397.572-740.815a2.635,2.635,0,0,0-2.636,2.635,2.636,2.636,0,0,0,2.636,2.635,2.635,2.635,0,0,0,2.635-2.635A2.634,2.634,0,0,0,10397.572-740.815Z" transform="translate(-7373 478.662)" fill="#ffe500" opacity="0.8"/>
              <path id="Trazado_188597" data-name="Trazado 188597" d="M10406.621-740.815a2.634,2.634,0,0,0-2.635,2.635,2.635,2.635,0,0,0,2.635,2.635,2.634,2.634,0,0,0,2.635-2.635A2.634,2.634,0,0,0,10406.621-740.815Z" transform="translate(-7373 478.662)" fill="#ffe500"/>
              <path id="Trazado_188598" data-name="Trazado 188598" d="M10596.014-676.471a2.627,2.627,0,0,1,1.01.2,2.622,2.622,0,0,1,.854.572,2.615,2.615,0,0,1,.571.854,2.614,2.614,0,0,1,.2,1.009,2.6,2.6,0,0,1-.2,1.008,2.609,2.609,0,0,1-.571.855,2.622,2.622,0,0,1-.854.572,2.627,2.627,0,0,1-1.01.2,2.624,2.624,0,0,1-1.008-.2,2.611,2.611,0,0,1-.854-.572,2.609,2.609,0,0,1-.571-.855,2.6,2.6,0,0,1-.2-1.008,2.614,2.614,0,0,1,.2-1.009,2.615,2.615,0,0,1,.571-.854,2.611,2.611,0,0,1,.854-.572A2.624,2.624,0,0,1,10596.014-676.471Z" transform="translate(-7373 478.662)" fill="#ffe500" opacity="0.502"/>
              <path id="Trazado_188599" data-name="Trazado 188599" d="M10605.065-676.471a2.636,2.636,0,0,0-2.636,2.635,2.636,2.636,0,0,0,2.636,2.636,2.636,2.636,0,0,0,2.635-2.636A2.636,2.636,0,0,0,10605.065-676.471Z" transform="translate(-7373 478.662)" fill="#ffe500" opacity="0.8"/>
              <path id="Trazado_188600" data-name="Trazado 188600" d="M10614.114-676.471a2.636,2.636,0,0,0-2.636,2.635,2.636,2.636,0,0,0,2.636,2.636,2.636,2.636,0,0,0,2.636-2.636A2.636,2.636,0,0,0,10614.114-676.471Z" transform="translate(-7373 478.662)" fill="#ffe500"/>
              <path id="Trazado_188601" data-name="Trazado 188601" d="M10722.3-628.041a34.7,34.7,0,0,0-34.7,34.7,34.7,34.7,0,0,0,34.7,34.7,34.7,34.7,0,0,0,34.7-34.7A34.7,34.7,0,0,0,10722.3-628.041Z" transform="translate(-7373 478.662)" fill="#fff"/>
              <rect id="Rectángulo_44308" data-name="Rectángulo 44308" width="18.22" height="36.552" transform="translate(3329.429 -132.954)" fill="#302578"/>
              <rect id="Rectángulo_44309" data-name="Rectángulo 44309" width="2.091" height="1.131" transform="translate(3343.54 -129.399)" fill="#d5e8f6"/>
              <rect id="Rectángulo_44310" data-name="Rectángulo 44310" width="11.022" height="1.131" transform="translate(3331.446 -129.399)" fill="#d5e8f6"/>
              <rect id="Rectángulo_44311" data-name="Rectángulo 44311" width="2.091" height="1.131" transform="translate(3343.54 -125.915)" fill="#d5e8f6"/>
              <rect id="Rectángulo_44312" data-name="Rectángulo 44312" width="11.022" height="1.131" transform="translate(3331.446 -125.915)" fill="#d5e8f6"/>
              <rect id="Rectángulo_44313" data-name="Rectángulo 44313" width="2.091" height="1.131" transform="translate(3343.54 -122.433)" fill="#d5e8f6"/>
              <rect id="Rectángulo_44314" data-name="Rectángulo 44314" width="11.022" height="1.131" transform="translate(3331.446 -122.433)" fill="#d5e8f6"/>
              <rect id="Rectángulo_44315" data-name="Rectángulo 44315" width="2.091" height="1.131" transform="translate(3343.54 -118.949)" fill="#d5e8f6"/>
              <rect id="Rectángulo_44316" data-name="Rectángulo 44316" width="11.022" height="1.131" transform="translate(3331.446 -118.949)" fill="#d5e8f6"/>
              <rect id="Rectángulo_44317" data-name="Rectángulo 44317" width="2.091" height="1.131" transform="translate(3343.54 -115.467)" fill="#d5e8f6"/>
              <rect id="Rectángulo_44318" data-name="Rectángulo 44318" width="11.022" height="1.131" transform="translate(3331.446 -115.467)" fill="#d5e8f6"/>
              <rect id="Rectángulo_44319" data-name="Rectángulo 44319" width="2.091" height="1.131" transform="translate(3343.54 -111.984)" fill="#d5e8f6"/>
              <rect id="Rectángulo_44320" data-name="Rectángulo 44320" width="11.022" height="1.131" transform="translate(3331.446 -111.984)" fill="#d5e8f6"/>
              <rect id="Rectángulo_44321" data-name="Rectángulo 44321" width="2.091" height="1.131" transform="translate(3343.54 -108.501)" fill="#d5e8f6"/>
              <rect id="Rectángulo_44322" data-name="Rectángulo 44322" width="11.022" height="1.131" transform="translate(3331.446 -108.501)" fill="#d5e8f6"/>
              <rect id="Rectángulo_44323" data-name="Rectángulo 44323" width="2.091" height="1.131" transform="translate(3343.54 -105.019)" fill="#d5e8f6"/>
              <rect id="Rectángulo_44324" data-name="Rectángulo 44324" width="11.022" height="1.131" transform="translate(3331.446 -105.019)" fill="#d5e8f6"/>
              <rect id="Rectángulo_44325" data-name="Rectángulo 44325" width="18.22" height="36.552" transform="translate(3350.949 -132.954)" fill="#4760a9"/>
              <rect id="Rectángulo_44326" data-name="Rectángulo 44326" width="2.091" height="1.131" transform="translate(3365.061 -129.399)" fill="#d5e8f6"/>
              <rect id="Rectángulo_44327" data-name="Rectángulo 44327" width="11.022" height="1.131" transform="translate(3352.967 -129.399)" fill="#d5e8f6"/>
              <rect id="Rectángulo_44328" data-name="Rectángulo 44328" width="2.091" height="1.131" transform="translate(3365.061 -125.915)" fill="#d5e8f6"/>
              <rect id="Rectángulo_44329" data-name="Rectángulo 44329" width="11.022" height="1.131" transform="translate(3352.967 -125.915)" fill="#d5e8f6"/>
              <rect id="Rectángulo_44330" data-name="Rectángulo 44330" width="2.091" height="1.131" transform="translate(3365.061 -122.433)" fill="#d5e8f6"/>
              <rect id="Rectángulo_44331" data-name="Rectángulo 44331" width="11.022" height="1.131" transform="translate(3352.967 -122.433)" fill="#d5e8f6"/>
              <rect id="Rectángulo_44332" data-name="Rectángulo 44332" width="2.091" height="1.131" transform="translate(3365.061 -118.949)" fill="#d5e8f6"/>
              <rect id="Rectángulo_44333" data-name="Rectángulo 44333" width="11.022" height="1.131" transform="translate(3352.967 -118.949)" fill="#d5e8f6"/>
              <rect id="Rectángulo_44334" data-name="Rectángulo 44334" width="2.091" height="1.131" transform="translate(3365.061 -115.467)" fill="#d5e8f6"/>
              <rect id="Rectángulo_44335" data-name="Rectángulo 44335" width="11.022" height="1.131" transform="translate(3352.967 -115.467)" fill="#d5e8f6"/>
              <rect id="Rectángulo_44336" data-name="Rectángulo 44336" width="2.091" height="1.131" transform="translate(3365.061 -111.984)" fill="#d5e8f6"/>
              <rect id="Rectángulo_44337" data-name="Rectángulo 44337" width="11.022" height="1.131" transform="translate(3352.967 -111.984)" fill="#d5e8f6"/>
              <rect id="Rectángulo_44338" data-name="Rectángulo 44338" width="2.091" height="1.131" transform="translate(3365.061 -108.501)" fill="#d5e8f6"/>
              <rect id="Rectángulo_44339" data-name="Rectángulo 44339" width="11.022" height="1.131" transform="translate(3352.967 -108.501)" fill="#d5e8f6"/>
              <rect id="Rectángulo_44340" data-name="Rectángulo 44340" width="2.091" height="1.131" transform="translate(3365.061 -105.019)" fill="#d5e8f6"/>
              <rect id="Rectángulo_44341" data-name="Rectángulo 44341" width="11.022" height="1.131" transform="translate(3352.967 -105.019)" fill="#d5e8f6"/>
              <g id="Grupo_120406" data-name="Grupo 120406" transform="translate(-7373 478.662)">
                <g id="Grupo_120405" data-name="Grupo 120405" clip-path="url(#clip-path-3)">
                  <g id="Grupo_120404" data-name="Grupo 120404" style="isolation: isolate">
                    <g id="Grupo_120403" data-name="Grupo 120403">
                      <g id="Grupo_120402" data-name="Grupo 120402" clip-path="url(#clip-path-4)">
                        <path id="Trazado_188602" data-name="Trazado 188602" d="M10252-713.128V-820.9a11.174,11.174,0,0,1,.215-2.179,11.28,11.28,0,0,1,.635-2.1,11.164,11.164,0,0,1,1.033-1.931,11.087,11.087,0,0,1,1.39-1.693,11.221,11.221,0,0,1,1.691-1.389,11.19,11.19,0,0,1,1.933-1.032,11.1,11.1,0,0,1,2.095-.636,11.14,11.14,0,0,1,2.179-.214h107.771a11.157,11.157,0,0,1,2.18.214,11.1,11.1,0,0,1,2.095.636,11.226,11.226,0,0,1,1.933,1.032,11.169,11.169,0,0,1,1.691,1.39,11.033,11.033,0,0,1,1.39,1.692,11.13,11.13,0,0,1,1.032,1.932,11.2,11.2,0,0,1,.637,2.095,11.191,11.191,0,0,1,.214,2.18v107.769a11.191,11.191,0,0,1-.214,2.18,11.2,11.2,0,0,1-.637,2.095,11.133,11.133,0,0,1-1.032,1.932,11.138,11.138,0,0,1-1.39,1.693,11.217,11.217,0,0,1-1.691,1.389,11.222,11.222,0,0,1-1.933,1.032,11.1,11.1,0,0,1-2.095.636,11.157,11.157,0,0,1-2.18.214H10263.17a11.14,11.14,0,0,1-2.179-.214,11.142,11.142,0,0,1-2.1-.636,11.241,11.241,0,0,1-1.931-1.032,11.121,11.121,0,0,1-1.691-1.389,11.09,11.09,0,0,1-1.39-1.693,11.164,11.164,0,0,1-1.033-1.931,11.291,11.291,0,0,1-.635-2.095A11.192,11.192,0,0,1,10252-713.128Z" fill="#6677d6"/>
                        <path id="Trazado_188603" data-name="Trazado 188603" d="M10296.133-701.958h78.8a7.177,7.177,0,0,0,7.178-7.177v-97.833h-85.979Z" fill="#9cb5c7"/>
                        <rect id="Rectángulo_44342" data-name="Rectángulo 44342" width="58.147" height="44.487" transform="translate(10315.367 -798.134)" fill="#566b7a"/>
                        <rect id="Rectángulo_44343" data-name="Rectángulo 44343" width="52.772" height="38.087" transform="translate(10318.054 -794.935)" fill="#2baaae"/>
                        <rect id="Rectángulo_44344" data-name="Rectángulo 44344" width="8.481" height="14.551" transform="translate(10301.479 -798.134)" fill="#566b7a"/>
                        <rect id="Rectángulo_44345" data-name="Rectángulo 44345" width="5.523" height="4.163" transform="translate(10302.959 -796.787)" fill="#d5e8f6"/>
                        <path id="Trazado_188604" data-name="Trazado 188604" d="M10305.72-790.858a2.928,2.928,0,0,1,1.129.224,2.9,2.9,0,0,1,.957.64,2.912,2.912,0,0,1,.641.957,2.926,2.926,0,0,1,.224,1.129,2.93,2.93,0,0,1-.224,1.129,2.933,2.933,0,0,1-.641.957,2.881,2.881,0,0,1-.957.639,2.912,2.912,0,0,1-1.129.225,2.923,2.923,0,0,1-1.129-.225,2.922,2.922,0,0,1-.957-.639,2.912,2.912,0,0,1-.639-.957,2.914,2.914,0,0,1-.226-1.129,2.91,2.91,0,0,1,.226-1.129,2.892,2.892,0,0,1,.639-.957,2.94,2.94,0,0,1,.957-.64A2.939,2.939,0,0,1,10305.72-790.858Z" fill="#fff"/>
                        <rect id="Rectángulo_44346" data-name="Rectángulo 44346" width="8.481" height="14.551" transform="translate(10301.479 -775.323)" fill="#566b7a"/>
                        <rect id="Rectángulo_44347" data-name="Rectángulo 44347" width="5.523" height="4.163" transform="translate(10302.959 -773.977)" fill="#d5e8f6"/>
                        <path id="Trazado_188605" data-name="Trazado 188605" d="M10305.72-768.047a2.951,2.951,0,0,0-2.95,2.951,2.951,2.951,0,0,0,2.95,2.95,2.951,2.951,0,0,0,2.951-2.95A2.951,2.951,0,0,0,10305.72-768.047Z" fill="#e85623"/>
                        <rect id="Rectángulo_44348" data-name="Rectángulo 44348" width="57.531" height="26.157" transform="translate(10315.982 -746.538)" fill="#566b7a"/>
                        <rect id="Rectángulo_44349" data-name="Rectángulo 44349" width="3.359" height="3.359" transform="translate(10321.699 -742.464)" fill="#014657"/>
                        <rect id="Rectángulo_44350" data-name="Rectángulo 44350" width="3.359" height="3.359" transform="translate(10326.718 -742.464)" fill="#014657"/>
                        <rect id="Rectángulo_44351" data-name="Rectángulo 44351" width="3.359" height="3.359" transform="translate(10331.737 -742.464)" fill="#014657"/>
                        <rect id="Rectángulo_44352" data-name="Rectángulo 44352" width="3.359" height="3.359" transform="translate(10336.756 -742.464)" fill="#014657"/>
                        <rect id="Rectángulo_44353" data-name="Rectángulo 44353" width="3.359" height="3.359" transform="translate(10321.699 -737.581)" fill="#e85623"/>
                        <rect id="Rectángulo_44354" data-name="Rectángulo 44354" width="3.359" height="3.359" transform="translate(10326.718 -737.581)" fill="#014657"/>
                        <rect id="Rectángulo_44355" data-name="Rectángulo 44355" width="3.359" height="3.359" transform="translate(10331.737 -737.581)" fill="#014657"/>
                        <rect id="Rectángulo_44356" data-name="Rectángulo 44356" width="3.359" height="3.359" transform="translate(10336.756 -737.581)" fill="#014657"/>
                        <rect id="Rectángulo_44357" data-name="Rectángulo 44357" width="3.359" height="3.359" transform="translate(10321.699 -732.697)" fill="#014657"/>
                        <rect id="Rectángulo_44358" data-name="Rectángulo 44358" width="3.359" height="3.359" transform="translate(10326.718 -732.697)" fill="#014657"/>
                        <rect id="Rectángulo_44359" data-name="Rectángulo 44359" width="3.359" height="3.359" transform="translate(10331.737 -732.697)" fill="#014657"/>
                        <rect id="Rectángulo_44360" data-name="Rectángulo 44360" width="3.359" height="3.359" transform="translate(10336.756 -732.697)" fill="#014657"/>
                        <rect id="Rectángulo_44361" data-name="Rectángulo 44361" width="3.359" height="3.359" transform="translate(10321.699 -727.814)" fill="#014657"/>
                        <rect id="Rectángulo_44362" data-name="Rectángulo 44362" width="3.359" height="3.359" transform="translate(10326.718 -727.814)" fill="#014657"/>
                        <rect id="Rectángulo_44363" data-name="Rectángulo 44363" width="3.359" height="3.359" transform="translate(10331.737 -727.814)" fill="#014657"/>
                        <rect id="Rectángulo_44364" data-name="Rectángulo 44364" width="3.359" height="3.359" transform="translate(10336.756 -727.814)" fill="#e85623"/>
                        <rect id="Rectángulo_44365" data-name="Rectángulo 44365" width="3.359" height="3.359" transform="translate(10349.149 -742.464)" fill="#014657"/>
                        <rect id="Rectángulo_44366" data-name="Rectángulo 44366" width="3.359" height="3.359" transform="translate(10354.168 -742.464)" fill="#014657"/>
                        <rect id="Rectángulo_44367" data-name="Rectángulo 44367" width="3.359" height="3.359" transform="translate(10359.187 -742.464)" fill="#014657"/>
                        <rect id="Rectángulo_44368" data-name="Rectángulo 44368" width="3.359" height="3.359" transform="translate(10364.206 -742.464)" fill="#e85623"/>
                        <rect id="Rectángulo_44369" data-name="Rectángulo 44369" width="3.359" height="3.359" transform="translate(10349.149 -737.581)" fill="#014657"/>
                        <rect id="Rectángulo_44370" data-name="Rectángulo 44370" width="3.359" height="3.359" transform="translate(10354.168 -737.581)" fill="#014657"/>
                        <rect id="Rectángulo_44371" data-name="Rectángulo 44371" width="3.359" height="3.359" transform="translate(10359.187 -737.581)" fill="#014657"/>
                        <rect id="Rectángulo_44372" data-name="Rectángulo 44372" width="3.359" height="3.359" transform="translate(10364.206 -737.581)" fill="#014657"/>
                        <rect id="Rectángulo_44373" data-name="Rectángulo 44373" width="3.359" height="3.359" transform="translate(10349.149 -732.697)" fill="#014657"/>
                        <rect id="Rectángulo_44374" data-name="Rectángulo 44374" width="3.359" height="3.359" transform="translate(10354.168 -732.697)" fill="#014657"/>
                        <rect id="Rectángulo_44375" data-name="Rectángulo 44375" width="3.359" height="3.359" transform="translate(10359.187 -732.697)" fill="#014657"/>
                        <rect id="Rectángulo_44376" data-name="Rectángulo 44376" width="3.359" height="3.359" transform="translate(10364.206 -732.697)" fill="#014657"/>
                        <rect id="Rectángulo_44377" data-name="Rectángulo 44377" width="3.359" height="3.359" transform="translate(10349.149 -727.814)" fill="#014657"/>
                        <rect id="Rectángulo_44378" data-name="Rectángulo 44378" width="3.359" height="3.359" transform="translate(10354.168 -727.814)" fill="#014657"/>
                        <rect id="Rectángulo_44379" data-name="Rectángulo 44379" width="3.359" height="3.359" transform="translate(10359.187 -727.814)" fill="#014657"/>
                        <rect id="Rectángulo_44380" data-name="Rectángulo 44380" width="3.359" height="3.359" transform="translate(10364.206 -727.814)" fill="#014657"/>
                        <rect id="Rectángulo_44381" data-name="Rectángulo 44381" width="12.482" height="8.408" transform="translate(10323.071 -769.181)" fill="#e85623"/>
                        <rect id="Rectángulo_44382" data-name="Rectángulo 44382" width="12.482" height="8.408" transform="translate(10338.199 -769.181)" fill="#d5e8f6"/>
                        <rect id="Rectángulo_44383" data-name="Rectángulo 44383" width="12.482" height="8.408" transform="translate(10353.328 -769.181)" fill="#d5e8f6"/>
                        <rect id="Rectángulo_44384" data-name="Rectángulo 44384" width="42.815" height="15.275" transform="translate(10323.071 -789.251)" fill="#48b4bd"/>
                        <g id="Grupo_120401" data-name="Grupo 120401" opacity="0.6" style="isolation: isolate">
                          <g id="Grupo_120400" data-name="Grupo 120400">
                            <g id="Grupo_120399" data-name="Grupo 120399" clip-path="url(#clip-path-4)">
                              <path id="Trazado_188606" data-name="Trazado 188606" d="M10362.119-785.26l-3.02,6.735-2.866-4.174a.473.473,0,0,0-.387-.2h-3.058l-1.7-3.188a.467.467,0,0,0-.407-.248.472.472,0,0,0-.412.237l-3.3,5.834h-4.53l-1.765-2.528a.47.47,0,0,0-.4-.2.466.466,0,0,0-.385.221l-3.109,5.025-4.64-8.893a.466.466,0,0,0-.408-.251.468.468,0,0,0-.415.24l-3.206,5.785h-5.051v.935h5.326a.464.464,0,0,0,.408-.241l2.918-5.265,4.617,8.851a.47.47,0,0,0,.4.25h.017a.468.468,0,0,0,.4-.222l3.168-5.119,1.5,2.145a.469.469,0,0,0,.383.2h5.048a.47.47,0,0,0,.407-.237l3.012-5.33,1.427,2.684a.469.469,0,0,0,.413.248h3.093l3.2,4.657a.469.469,0,0,0,.428.2.467.467,0,0,0,.385-.274l3.235-7.218h3.036v-.935h-3.339A.469.469,0,0,0,10362.119-785.26Z" fill="#fff"/>
                            </g>
                          </g>
                        </g>
                        <path id="Trazado_188607" data-name="Trazado 188607" d="M10269.911-772.569l5.049,1.835,3.108-14.38h-4.89Z" fill="#014657"/>
                        <path id="Trazado_188608" data-name="Trazado 188608" d="M10276.337-770.606l2.525.649,2.019-14.38-2.365,1.187Z" fill="#014657"/>
                        <path id="Trazado_188609" data-name="Trazado 188609" d="M10278.839-803.715a10.837,10.837,0,0,0-9.748,11.826,10.837,10.837,0,0,0,11.826,9.748c5.957-.574,11.317-6.225,10.743-12.184S10284.8-804.289,10278.839-803.715Z" fill="#fff"/>
                        <path id="Trazado_188610" data-name="Trazado 188610" d="M10281.4-784.867s.147,2.7.239,3.594a2.359,2.359,0,0,0,.759,1.526s4.477,3.929,5.9,3.992c2.535.111,2.87-.538,2.87-.538a90.969,90.969,0,0,0,.489-18.03Z" fill="#fff"/>
                        <path id="Trazado_188611" data-name="Trazado 188611" d="M10262.786-727.139s-.968,13.228-2.275,18.068h15.5s3.856-12.2,3.18-19.334S10262.786-727.139,10262.786-727.139Z" fill="#014657"/>
                        <path id="Trazado_188612" data-name="Trazado 188612" d="M10272.257-774.38c-10.342-.692-15.663,6.776-14.925,15.619,2.765,33.133,1.72,36.437,1.72,36.437l21.717,5.632a62.053,62.053,0,0,0,4.826-17.061,158.341,158.341,0,0,0,1.253-21.329C10286.848-759.672,10282.6-773.69,10272.257-774.38Z" fill="#fff"/>
                        <path id="Trazado_188613" data-name="Trazado 188613" d="M10303.206-746.479q-2.506,2.016-4.889,4.165a62.1,62.1,0,0,0-4.56,4.525l4.767,5.268a62.438,62.438,0,0,0,4.917-4.165q2.358-2.191,4.589-4.526c1.488-1.552,7.45-8.157,8.677-9.989l-2.852-3.046C10311.923-753.182,10304.875-747.824,10303.206-746.479Z" fill="#014657"/>
                        <path id="Trazado_188614" data-name="Trazado 188614" d="M10267.53-754.439l21.068,20.757,6.194-5.892-19.677-22.081Z" fill="#014657"/>
                        <path id="Trazado_188615" data-name="Trazado 188615" d="M10269.848-766.942a7.534,7.534,0,0,0-7.534,7.535,7.534,7.534,0,0,0,7.534,7.535,7.535,7.535,0,0,0,7.535-7.535A7.536,7.536,0,0,0,10269.848-766.942Z" fill="#566b7a"/>
                        <path id="Trazado_188616" data-name="Trazado 188616" d="M10293.376-741.32l-5.444,6.789s1.217,4.912,7.148,4.912c5.011,0,6.848-5.527,6.848-5.527l-4.654-6.08Z" fill="#566b7a"/>
                        <path id="Trazado_188617" data-name="Trazado 188617" d="M10312.666-756.97l.243,1.738,4.5-3.636-1.182-1.311Z" fill="#014657"/>
                        <path id="Trazado_188618" data-name="Trazado 188618" d="M10312.548-753.522l3.273,3.688c3.244.515,8.688-4.474,8.688-4.474l-5.392-5.987C10314.311-755.173,10312.548-753.522,10312.548-753.522Z" fill="#fff"/>
                        <path id="Trazado_188619" data-name="Trazado 188619" d="M10318.543-765.33l-3.227,2.906s-3.153,2.841-2.652,5.775l3.752-3.38s-.275-.746,1.328-2.255C10319.711-764.135,10319.224-765.044,10318.543-765.33Z" fill="#fff"/>
                        <path id="Trazado_188620" data-name="Trazado 188620" d="M10316.755-759.595l-3.987,3.59s-.013,2.7-.012,2.691l.949.908,6.754-6.4-1.342-1.489C10317.421-758.767,10316.755-759.595,10316.755-759.595Z" fill="#fff"/>
                        <path id="Trazado_188621" data-name="Trazado 188621" d="M10319.913-760.932l-.031.029-.011.012,1.179,1.309c.016-.013.032-.022.047-.036l1.755-1.663-1.1-1.223Z" fill="#fff"/>
                        <path id="Trazado_188622" data-name="Trazado 188622" d="M10322.917-760.528l-1.528,1.322,1.064,1.181,1.474-1.381a.759.759,0,0,0,.055-1.039A.755.755,0,0,0,10322.917-760.528Z" fill="#fff"/>
                        <path id="Trazado_188623" data-name="Trazado 188623" d="M10324.015-758.741l-1.238,1.076,1.051,1.166,1.2-1.12a.758.758,0,0,0,.055-1.039A.756.756,0,0,0,10324.015-758.741Z" fill="#fff"/>
                        <path id="Trazado_188624" data-name="Trazado 188624" d="M10325.178-757.01l-1.016.884,1.041,1.155.985-.918a.759.759,0,0,0,.054-1.038A.754.754,0,0,0,10325.178-757.01Z" fill="#fff"/>
                        <path id="Trazado_188625" data-name="Trazado 188625" d="M10319.353-760.618a1.026,1.026,0,0,0-.074,1.448,1.025,1.025,0,0,0,1.446.076,1.025,1.025,0,0,0,.076-1.448A1.026,1.026,0,0,0,10319.353-760.618Z" fill="#566b7a"/>
                        <path id="Trazado_188626" data-name="Trazado 188626" d="M10320.813-759a1.024,1.024,0,0,0-.075,1.447,1.024,1.024,0,0,0,1.446.076,1.025,1.025,0,0,0,.076-1.448A1.024,1.024,0,0,0,10320.813-759Z" fill="#566b7a"/>
                        <path id="Trazado_188627" data-name="Trazado 188627" d="M10322.234-757.419a.963.963,0,0,0-.07,1.361.963.963,0,0,0,1.361.071.961.961,0,0,0,.07-1.36A.964.964,0,0,0,10322.234-757.419Z" fill="#566b7a"/>
                        <path id="Trazado_188628" data-name="Trazado 188628" d="M10323.641-755.858a.927.927,0,0,0-.067,1.308.924.924,0,0,0,1.308.068.925.925,0,0,0,.068-1.308A.926.926,0,0,0,10323.641-755.858Z" fill="#566b7a"/>
                        <path id="Trazado_188629" data-name="Trazado 188629" d="M10326.12-766.285l-1.632,1.418,1,1.108,1.581-1.475a.71.71,0,0,0,.05-.975A.706.706,0,0,0,10326.12-766.285Z" fill="#fff"/>
                        <path id="Trazado_188630" data-name="Trazado 188630" d="M10322.137-762.838l1.086,1.207,1.917-1.807-1.007-1.117Z" fill="#fff"/>
                        <path id="Trazado_188631" data-name="Trazado 188631" d="M10321.948-762.7c-.216.2-.141.63.168.973s.734.463.951.27.141-.631-.168-.975S10322.165-762.9,10321.948-762.7Z" fill="#566b7a"/>
                        <path id="Trazado_188632" data-name="Trazado 188632" d="M10324.316-764.709c-.193.172-.127.561.148.866s.654.413.847.239.127-.561-.148-.867S10324.508-764.883,10324.316-764.709Z" fill="#566b7a"/>
                        <path id="Trazado_188633" data-name="Trazado 188633" d="M10263.766-713.319c-8.82.326-8.462,12.742-8.462,12.742h23.517C10279.17-708.418,10272.588-713.646,10263.766-713.319Z" fill="#fff"/>
                        <path id="Trazado_188634" data-name="Trazado 188634" d="M10284.521-794.323s2.345,8.045,5.186,6.893c1.953-.794,1.274-1.406,2.163-1.2,0,0,1.065-1.513-.026-5.7Z" fill="#014657"/>
                        <path id="Trazado_188635" data-name="Trazado 188635" d="M10277.795-796.912a4.406,4.406,0,0,0-4.406,4.4,4.406,4.406,0,0,0,4.406,4.406,4.406,4.406,0,0,0,4.405-4.406A4.406,4.406,0,0,0,10277.795-796.912Z" fill="#fff"/>
                        <path id="Trazado_188636" data-name="Trazado 188636" d="M10277.794-788.569a3.941,3.941,0,0,1-3.937-3.938,3.941,3.941,0,0,1,3.937-3.937,3.942,3.942,0,0,1,3.938,3.937A3.942,3.942,0,0,1,10277.794-788.569Zm0-8.81a4.878,4.878,0,0,0-4.872,4.872,4.878,4.878,0,0,0,4.872,4.873,4.878,4.878,0,0,0,4.873-4.873A4.878,4.878,0,0,0,10277.794-797.379Z" fill="#728c9f"/>
                        <path id="Trazado_188637" data-name="Trazado 188637" d="M10263.846-819.112a1.087,1.087,0,0,0,0,1.536,1.088,1.088,0,0,0,1.537,0,20.191,20.191,0,0,1,28.521,0,1.088,1.088,0,0,0,1.537,0,1.087,1.087,0,0,0,0-1.536A22.369,22.369,0,0,0,10263.846-819.112Z" fill="#fff"/>
                        <path id="Trazado_188638" data-name="Trazado 188638" d="M10290.668-814.34a15.492,15.492,0,0,0-11.024-4.567,15.492,15.492,0,0,0-11.024,4.567,1.086,1.086,0,0,0,0,1.537,1.088,1.088,0,0,0,1.536,0,13.388,13.388,0,0,1,4.006-2.768,13.387,13.387,0,0,1,5.482-1.163,13.329,13.329,0,0,1,9.488,3.931,1.09,1.09,0,0,0,1.537,0,1.088,1.088,0,0,0,0-1.537Z" fill="#fff"/>
                        <path id="Trazado_188639" data-name="Trazado 188639" d="M10279.644-811.942a8.573,8.573,0,0,0-6.1,2.527,1.088,1.088,0,0,0,0,1.537,1.088,1.088,0,0,0,1.537,0,6.407,6.407,0,0,1,4.563-1.892,6.414,6.414,0,0,1,4.564,1.892,1.087,1.087,0,0,0,1.536,0,1.086,1.086,0,0,0,0-1.537A8.572,8.572,0,0,0,10279.644-811.942Z" fill="#fff"/>
                      </g>
                    </g>
                  </g>
                </g>
              </g>
              <path id="Trazado_188641" data-name="Trazado 188641" d="M10295.581-663.484a2.622,2.622,0,0,0-2.623,2.622,2.61,2.61,0,0,0,.516,1.55l-4.9,7.529a2.647,2.647,0,0,0-.566-.065,2.647,2.647,0,0,0-.554.061l-4.838-7.516a2.6,2.6,0,0,0,.524-1.559,2.621,2.621,0,0,0-2.622-2.622,2.622,2.622,0,0,0-2.623,2.622,2.592,2.592,0,0,0,.517,1.55l-4.9,7.529a2.623,2.623,0,0,0-.565-.065,2.622,2.622,0,0,0-2.622,2.623,2.622,2.622,0,0,0,2.622,2.623,2.623,2.623,0,0,0,2.624-2.623,2.594,2.594,0,0,0-.518-1.549l4.9-7.53a2.576,2.576,0,0,0,.566.066,2.6,2.6,0,0,0,.554-.062l4.837,7.516a2.6,2.6,0,0,0-.524,1.559,2.623,2.623,0,0,0,2.623,2.623,2.622,2.622,0,0,0,2.623-2.623,2.593,2.593,0,0,0-.517-1.549l4.9-7.53a2.583,2.583,0,0,0,.566.066,2.624,2.624,0,0,0,2.623-2.624A2.622,2.622,0,0,0,10295.581-663.484Z" transform="translate(-7373 478.662)" fill="#fff"/>
              <path id="Trazado_188912" data-name="Trazado 188912" d="M12.405,0H117.7a12.407,12.407,0,0,1,12.407,12.407v105.3a12.406,12.406,0,0,1-12.406,12.406H12.405A12.405,12.405,0,0,1,0,117.706V12.405A12.405,12.405,0,0,1,12.405,0Z" transform="translate(3253.889 -353.407)" fill="#6677d6"/>
              <rect id="Rectángulo_44388" data-name="Rectángulo 44388" width="130.111" height="5.422" transform="translate(3253.889 -339.411)" fill="#302578"/>
              <path id="Trazado_188642" data-name="Trazado 188642" d="M10626.888-709.136a7.178,7.178,0,0,0,7.179,7.177h115.757a7.177,7.177,0,0,0,7.177-7.177V-733.25h-130.112Z" transform="translate(-7373 478.662)" fill="#0c1d30"/>
              <rect id="Rectángulo_44389" data-name="Rectángulo 44389" width="36.097" height="36.096" transform="translate(3265.767 -327.742)" fill="#b82c1d"/>
              <rect id="Rectángulo_44390" data-name="Rectángulo 44390" width="8.893" height="8.893" transform="translate(3269.833 -323.677)" fill="#b82c1d"/>
              <rect id="Rectángulo_44391" data-name="Rectángulo 44391" width="36.097" height="36.096" transform="translate(3265.767 -290.161)" fill="#b82c1d"/>
              <rect id="Rectángulo_44392" data-name="Rectángulo 44392" width="8.893" height="8.893" transform="translate(3269.833 -286.095)" fill="#b82c1d"/>
              <rect id="Rectángulo_44393" data-name="Rectángulo 44393" width="36.097" height="36.096" transform="translate(3302.863 -327.742)" fill="#b82c1d"/>
              <rect id="Rectángulo_44394" data-name="Rectángulo 44394" width="8.893" height="8.893" transform="translate(3306.929 -323.677)" fill="#fff"/>
              <rect id="Rectángulo_44395" data-name="Rectángulo 44395" width="36.097" height="36.096" transform="translate(3302.863 -290.161)" fill="#6d889b"/>
              <rect id="Rectángulo_44396" data-name="Rectángulo 44396" width="8.893" height="8.893" transform="translate(3306.929 -286.095)" fill="#fff"/>
              <rect id="Rectángulo_44397" data-name="Rectángulo 44397" width="36.097" height="36.096" transform="translate(3339.959 -327.742)" fill="#b82c1d"/>
              <rect id="Rectángulo_44398" data-name="Rectángulo 44398" width="8.893" height="8.893" transform="translate(3344.024 -323.677)" fill="#b82c1d"/>
              <rect id="Rectángulo_44399" data-name="Rectángulo 44399" width="36.097" height="36.096" transform="translate(3339.959 -290.161)" fill="#b82c1d"/>
              <rect id="Rectángulo_44400" data-name="Rectángulo 44400" width="8.893" height="8.893" transform="translate(3344.024 -286.095)" fill="#b82c1d"/>
              <path id="Trazado_188643" data-name="Trazado 188643" d="M10642.833-802.339v8.893l24.4,44.61,29.484-35.026-44.994-18.477Z" transform="translate(-7373 478.662)" fill="#fff" opacity="0.502"/>
              <path id="Rectángulo_44401" data-name="Rectángulo 44401" d="M5.022,0H76.553a5.023,5.023,0,0,1,5.023,5.023V52.785a5.023,5.023,0,0,1-5.023,5.023H5.023A5.023,5.023,0,0,1,0,52.785V5.022A5.022,5.022,0,0,1,5.022,0Z" transform="translate(3289.216 -305.2)" fill="#302578"/>
              <rect id="Rectángulo_44402" data-name="Rectángulo 44402" width="70.441" height="52.286" transform="translate(3294.784 -302.439)" fill="#fff"/>
              <rect id="Rectángulo_44403" data-name="Rectángulo 44403" width="30.089" height="52.286" transform="translate(3294.784 -302.439)" fill="#d5e8f6"/>
              <rect id="Rectángulo_44404" data-name="Rectángulo 44404" width="20.891" height="20.891" transform="translate(3299.383 -297.585)" fill="#fff"/>
              <rect id="Rectángulo_44405" data-name="Rectángulo 44405" width="20.891" height="2.129" transform="translate(3299.383 -270.173)" fill="#fff"/>
              <rect id="Rectángulo_44406" data-name="Rectángulo 44406" width="20.891" height="2.129" transform="translate(3299.383 -265.753)" fill="#fff"/>
              <rect id="Rectángulo_44407" data-name="Rectángulo 44407" width="20.891" height="2.128" transform="translate(3299.383 -261.333)" fill="#fff"/>
              <rect id="Rectángulo_44408" data-name="Rectángulo 44408" width="16.04" height="2.128" transform="translate(3299.383 -256.913)" fill="#fff"/>
              <rect id="Rectángulo_44409" data-name="Rectángulo 44409" width="3.151" height="3.15" transform="translate(3301.95 -295.018)" fill="#014657"/>
              <rect id="Rectángulo_44410" data-name="Rectángulo 44410" width="3.151" height="3.15" transform="translate(3308.253 -295.018)" fill="#014657"/>
              <rect id="Rectángulo_44411" data-name="Rectángulo 44411" width="3.151" height="3.15" transform="translate(3311.404 -295.018)" fill="#014657"/>
              <rect id="Rectángulo_44412" data-name="Rectángulo 44412" width="3.151" height="3.151" transform="translate(3301.95 -291.866)" fill="#014657"/>
              <rect id="Rectángulo_44413" data-name="Rectángulo 44413" width="3.151" height="3.151" transform="translate(3308.253 -291.866)" fill="#014657"/>
              <rect id="Rectángulo_44414" data-name="Rectángulo 44414" width="3.151" height="3.151" transform="translate(3314.556 -291.866)" fill="#014657"/>
              <rect id="Rectángulo_44415" data-name="Rectángulo 44415" width="3.151" height="3.15" transform="translate(3305.102 -288.715)" fill="#014657"/>
              <rect id="Rectángulo_44416" data-name="Rectángulo 44416" width="3.151" height="3.15" transform="translate(3311.404 -288.715)" fill="#014657"/>
              <rect id="Rectángulo_44417" data-name="Rectángulo 44417" width="3.151" height="3.151" transform="translate(3301.95 -285.564)" fill="#014657"/>
              <rect id="Rectángulo_44418" data-name="Rectángulo 44418" width="3.151" height="3.151" transform="translate(3308.253 -285.564)" fill="#014657"/>
              <rect id="Rectángulo_44419" data-name="Rectángulo 44419" width="3.151" height="3.151" transform="translate(3311.404 -285.564)" fill="#014657"/>
              <rect id="Rectángulo_44420" data-name="Rectángulo 44420" width="3.151" height="3.151" transform="translate(3308.253 -282.412)" fill="#014657"/>
              <rect id="Rectángulo_44421" data-name="Rectángulo 44421" width="3.151" height="3.151" transform="translate(3314.556 -282.412)" fill="#014657"/>
              <rect id="Rectángulo_44422" data-name="Rectángulo 44422" width="29.515" height="8.916" transform="translate(3330.004 -297.268)" fill="#2baaae"/>
              <rect id="Rectángulo_44423" data-name="Rectángulo 44423" width="29.515" height="8.916" transform="translate(3330.004 -283.719)" fill="#e85623"/>
              <rect id="Rectángulo_44424" data-name="Rectángulo 44424" width="29.515" height="8.916" transform="translate(3330.004 -270.17)" fill="#d5e8f6"/>
              <path id="Trazado_188644" data-name="Trazado 188644" d="M10745.555-736.051a2.893,2.893,0,0,0-2.894-2.893,2.881,2.881,0,0,0-1.446.389v-1.562a2.894,2.894,0,0,0-2.894-2.894,2.885,2.885,0,0,0-2.331,1.185,2.9,2.9,0,0,0-2.878-2.585,2.894,2.894,0,0,0-2.562,1.55l-.4-15.023a2.249,2.249,0,0,0-2.187-2.186,2.241,2.241,0,0,0-2.3,2.186l-.7,26.943c-.675-.337-3.922-.269-3.922-4.7,0-8.01-5.085-7.287-5.085-7.287v13.28s0,13.079,9.13,17.773h14.469s6.616-6.458,6-15.426Z" transform="translate(-7373 478.662)" fill="#dfac91"/>
              <rect id="Rectángulo_44425" data-name="Rectángulo 44425" width="16.052" height="14.39" transform="translate(3350.991 -237.768)" fill="#dfac91"/>
              <path id="Trazado_188645" data-name="Trazado 188645" d="M10722.1-710.568l-.314,8.528h19.893l-.21-8.528Z" transform="translate(-7373 478.662)" fill="#014657"/>
              <rect id="Rectángulo_44426" data-name="Rectángulo 44426" width="8.858" height="2.629" transform="translate(3269.279 -338.015)" fill="#d5e8f6"/>
              <rect id="Rectángulo_44427" data-name="Rectángulo 44427" width="8.858" height="2.629" transform="translate(3344.358 -338.015)" fill="#d5e8f6"/>
              <path id="Trazado_188646" data-name="Trazado 188646" d="M10675.542-624.722c-.121-.07-.8-.393-.173-.13a2.575,2.575,0,0,1-1.4-1.074c-.037-.063-.069-.128-.1-.194l-5.594,5.594-5.979-5.979a2.349,2.349,0,0,1-2.312,1.535l8.291,8.291L10676-624.4c-.019-.018-.037-.036-.057-.052C10675.885-624.487,10675.613-624.681,10675.542-624.722Z" transform="translate(-7373 478.662)" fill="#6d889b"/>
              <path id="Trazado_188647" data-name="Trazado 188647" d="M10668.2-621.969a3.557,3.557,0,0,0-3.558,3.557,3.558,3.558,0,0,0,3.558,3.558,3.558,3.558,0,0,0,3.557-3.558A3.556,3.556,0,0,0,10668.2-621.969Z" transform="translate(-7373 478.662)" fill="#6d889b"/>
              <path id="Trazado_188648" data-name="Trazado 188648" d="M10378.313-580.846v-8.205a1.34,1.34,0,0,1,.1-.517,1.363,1.363,0,0,1,.293-.439,1.343,1.343,0,0,1,.439-.293,1.346,1.346,0,0,1,.517-.1h8.205a1.351,1.351,0,0,1,.518.1,1.339,1.339,0,0,1,.438.293,1.362,1.362,0,0,1,.294.439,1.343,1.343,0,0,1,.1.517v8.205a1.348,1.348,0,0,1-.1.518,1.357,1.357,0,0,1-.294.438,1.323,1.323,0,0,1-.438.293,1.333,1.333,0,0,1-.518.1h-8.205a1.332,1.332,0,0,1-.517-.1,1.327,1.327,0,0,1-.439-.293,1.37,1.37,0,0,1-.293-.438A1.349,1.349,0,0,1,10378.313-580.846Z" transform="translate(-7373 478.662)" fill="#ffe500"/>
              <path id="Trazado_188649" data-name="Trazado 188649" d="M10365.218-580.846v-8.205a1.323,1.323,0,0,1,.1-.517,1.318,1.318,0,0,1,.293-.439,1.335,1.335,0,0,1,.438-.293,1.351,1.351,0,0,1,.518-.1h8.206a1.346,1.346,0,0,1,.517.1,1.353,1.353,0,0,1,.439.293,1.348,1.348,0,0,1,.293.439,1.358,1.358,0,0,1,.1.517v8.205a1.367,1.367,0,0,1-.1.518,1.37,1.37,0,0,1-.293.438,1.337,1.337,0,0,1-.439.293,1.332,1.332,0,0,1-.517.1h-8.205a1.335,1.335,0,0,1-.519-.1,1.319,1.319,0,0,1-.437-.293,1.324,1.324,0,0,1-.293-.438A1.332,1.332,0,0,1,10365.218-580.846Z" transform="translate(-7373 478.662)" fill="#d5e8f6"/>
              <path id="Trazado_188650" data-name="Trazado 188650" d="M10352.122-580.846v-8.205a1.34,1.34,0,0,1,.1-.517,1.348,1.348,0,0,1,.293-.439,1.349,1.349,0,0,1,.438-.293,1.351,1.351,0,0,1,.518-.1h8.205a1.352,1.352,0,0,1,.519.1,1.335,1.335,0,0,1,.438.293,1.318,1.318,0,0,1,.293.439,1.327,1.327,0,0,1,.1.517v8.205a1.332,1.332,0,0,1-.1.518,1.324,1.324,0,0,1-.293.438,1.319,1.319,0,0,1-.437.293,1.335,1.335,0,0,1-.519.1h-8.205a1.329,1.329,0,0,1-.517-.1,1.327,1.327,0,0,1-.439-.293,1.354,1.354,0,0,1-.293-.438A1.349,1.349,0,0,1,10352.122-580.846Z" transform="translate(-7373 478.662)" fill="#d5e8f6"/>
              <path id="Trazado_188651" data-name="Trazado 188651" d="M10383.264-584.519l-1.834-1.835-1.322,1.322,3.156,3.156,4.164-4.164-1.321-1.321Z" transform="translate(-7373 478.662)" fill="#302578"/>
              <path id="Trazado_188652" data-name="Trazado 188652" d="M10673.294-610.986a8.516,8.516,0,0,1-6.058,2.508,8.515,8.515,0,0,1-6.059-2.508,8.578,8.578,0,0,1,0-12.116,8.511,8.511,0,0,1,6.058-2.509,8.515,8.515,0,0,1,6.059,2.509,8.515,8.515,0,0,1,2.508,6.057A8.515,8.515,0,0,1,10673.294-610.986Zm-6.059-17.056a10.928,10.928,0,0,0-7.776,3.221,11.01,11.01,0,0,0,0,15.552,10.92,10.92,0,0,0,7.776,3.221,10.921,10.921,0,0,0,7.775-3.221,10.921,10.921,0,0,0,3.222-7.776,10.925,10.925,0,0,0-3.222-7.775A10.927,10.927,0,0,0,10667.235-628.042Z" transform="translate(-7373 478.662)" fill="#4760a9"/>
            </g>
          </g>
        </g>
      </g>
    </g>
  </g>
</svg>
