<svg xmlns="http://www.w3.org/2000/svg" width="189" height="189" viewBox="0 0 189 189">
  <g id="Grupo_120645" data-name="Grupo 120645" transform="translate(-2332 -266.609)">
    <circle id="Elipse_12911" data-name="Elipse 12911" cx="94.5" cy="94.5" r="94.5" transform="translate(2332 266.609)" fill="#fff"/>
    <path id="Trazado_188656" data-name="Trazado 188656" d="M578.513,1556.448a1.147,1.147,0,0,0-.362.59q-1.872,4.56-3.734,9.124c-.132.326-.266.425-.627.32a11.937,11.937,0,0,0-1.607-.312c-.283-.041-.415-.16-.4-.441.039-1.046-.14-2.081-.187-3.123-.109-2.4-.23-4.8-.349-7.2a1.248,1.248,0,0,0-.081-.249c-.4.416-.3.925-.377,1.358-.429,2.325-.814,4.657-1.21,6.988-.1.609-.2,1.22-.284,1.832-.038.3-.131.392-.448.312a11.014,11.014,0,0,0-1.506-.279c-.4-.046-.377-.293-.33-.561.186-1.078.388-2.153.569-3.231q.686-4.1,1.356-8.2c.1-.632.171-.685.83-.571.835.143,1.669.3,2.509.4.408.047.521.2.541.6.113,2.243.219,4.487.407,6.725a22.116,22.116,0,0,0,.2,2.746c.026.123-.075.325.139.338.143.01.161-.168.206-.276q1.362-3.281,2.718-6.562c.312-.751.637-1.495.933-2.253a.458.458,0,0,1,.568-.334c1.026.173,2.052.351,3.078.527.232.04.192.174.16.352q-.624,3.517-1.227,7.038c-.268,1.564-.533,3.129-.777,4.7-.067.427-.206.618-.673.491a12.772,12.772,0,0,0-1.4-.271c-.232-.035-.276-.115-.237-.347.549-3.307,1.074-6.616,1.706-9.907A.276.276,0,0,0,578.513,1556.448Z" transform="translate(1838 -1121.413)" fill="#4763ab"/>
    <path id="Trazado_188657" data-name="Trazado 188657" d="M623.487,1549.743c-.049.021-.123.028-.136.061-.052.13.031.234.091.341.517.925,1.032,1.853,1.553,2.777q1.289,2.286,2.587,4.568c.126.222.081.341-.137.458-.483.259-.961.529-1.43.812-.242.146-.349.078-.479-.156q-2.663-4.768-5.344-9.527c-.051-.093-.109-.181-.162-.273-.723-1.249-.726-.86.443-1.685a2,2,0,0,1,2.573.047c2.347,1.511,4.774,2.9,7.173,4.329.135.08.3.3.453.132.132-.146-.064-.321-.146-.467-1.295-2.294-2.585-4.59-3.9-6.872-.225-.392-.164-.57.24-.746a7.884,7.884,0,0,0,1.151-.652c.291-.192.447-.144.614.158.934,1.685,1.883,3.362,2.826,5.042.987,1.757,1.959,3.521,2.968,5.266.224.388.152.546-.208.77-1.7,1.053-1.675,1.035-3.389-.013-2.368-1.446-4.766-2.843-7.152-4.262C623.617,1549.815,623.555,1549.782,623.487,1549.743Z" transform="translate(1838 -1121.413)" fill="#4763ab"/>
    <path id="Trazado_188658" data-name="Trazado 188658" d="M550.718,1555.033a3.477,3.477,0,0,0,2.2,3.366,3.2,3.2,0,0,0,3.682-.8,6.73,6.73,0,0,0,1.947-4.413,3.376,3.376,0,0,0-5.137-3.088A6.8,6.8,0,0,0,550.718,1555.033Zm10.342-1.659a8.805,8.805,0,0,1-2.951,6.249,5.357,5.357,0,0,1-5.816.851,5.718,5.718,0,0,1-4.057-5.13,7.579,7.579,0,0,1,.611-3.2,9.4,9.4,0,0,1,1.274-2.374,5.6,5.6,0,0,1,7.089-1.915c1.947.851,3.385,2.1,3.757,4.3C561.028,1552.511,561.025,1552.886,561.06,1553.374Z" transform="translate(1838 -1121.413)" fill="#4763ab"/>
    <path id="Trazado_188659" data-name="Trazado 188659" d="M608.518,1558.73c0,.265.009.531,0,.8-.016.368.082.527.493.4.806-.259,1.618-.5,2.438-.707.419-.106.421-.268.212-.579-.849-1.259-1.689-2.525-2.534-3.787-.075-.112-.142-.278-.321-.2-.14.057-.108.212-.1.329C608.75,1556.23,608.544,1557.477,608.518,1558.73Zm-2.73,6.287c.207-2.057.24-4.213.454-6.359.148-1.477.189-2.965.279-4.447.036-.582.085-1.163.108-1.746.009-.227.121-.29.315-.344.715-.2,1.431-.394,2.133-.631a.458.458,0,0,1,.617.2q2.769,3.927,5.551,7.839c.6.852,1.2,1.708,1.815,2.551.2.27.228.392-.158.481a13.559,13.559,0,0,0-1.725.514c-.389.147-.58.016-.774-.3-.323-.528-.7-1.024-1.016-1.554a.529.529,0,0,0-.707-.26c-1.251.376-2.5.756-3.761,1.1a.633.633,0,0,0-.536.71c0,.636-.069,1.272-.083,1.909a.387.387,0,0,1-.344.434c-.53.137-1.047.32-1.574.47C605.779,1565.76,605.777,1565.753,605.788,1565.017Z" transform="translate(1838 -1121.413)" fill="#4763ab"/>
    <path id="Trazado_188660" data-name="Trazado 188660" d="M592.875,1556.575a12.864,12.864,0,0,0-1.629.113c-.286.03-.409.154-.389.442q.116,1.638.22,3.277c.016.243.151.365.382.329.858-.134,1.739-.011,2.586-.217a1.61,1.61,0,0,0,1.394-1.288,2.242,2.242,0,0,0-.615-2.333A2.792,2.792,0,0,0,592.875,1556.575Zm5.134,2.142c-.018.336-.016.674-.058,1.006-.232,1.824-1.71,2.628-3.424,2.8q-1.4.141-2.8.218c-.425.026-.538.219-.5.616.117,1.266.2,2.536.323,3.8.023.247-.065.33-.274.339a14.169,14.169,0,0,0-1.852.115c-.265.045-.328-.115-.348-.34-.084-.933-.2-1.864-.262-2.8-.193-2.82-.358-5.641-.553-8.46-.079-1.149-.1-1.141,1.061-1.219,1.393-.095,2.786-.193,4.178-.3a5.954,5.954,0,0,1,1.9.143,3.356,3.356,0,0,1,2.591,3.391c.012.23,0,.46,0,.69Z" transform="translate(1838 -1121.413)" fill="#4763ab"/>
    <path id="Trazado_188661" data-name="Trazado 188661" d="M531.856,1545.253a7.187,7.187,0,0,1,1.214-3.724,8.833,8.833,0,0,1,3.065-3.032,5.385,5.385,0,0,1,6.633.9,5.047,5.047,0,0,1,1.661,5.265,4.051,4.051,0,0,1-.2.6c-.253.6-.255.595-.769.188a14.594,14.594,0,0,0-1.18-.9c-.308-.2-.308-.394-.21-.7a2.522,2.522,0,0,0-.855-2.984,2.807,2.807,0,0,0-3.3-.457,7.1,7.1,0,0,0-3.6,4.581,2.726,2.726,0,0,0,1.019,2.843,2.531,2.531,0,0,0,3.092.391c.836-.469.839-.459,1.572.133.3.244.611.481.921.717.192.148.176.279-.005.423a5.181,5.181,0,0,1-6.172.523,5.675,5.675,0,0,1-2.81-3.82,2.651,2.651,0,0,1-.08-.305C531.847,1545.679,531.856,1545.466,531.856,1545.253Z" transform="translate(1838 -1121.413)" fill="#4763ab"/>
    <path id="Trazado_188662" data-name="Trazado 188662" d="M633.451,1539.165c.638-.585,1.231-1.115,1.807-1.663a.685.685,0,0,1,.825-.109q2.407.978,4.819,1.943c.143.058.314.206.438.1.145-.13.026-.323-.028-.492-.525-1.63-1.035-3.266-1.572-4.893a.645.645,0,0,1,.21-.821c.583-.485,1.128-1.016,1.739-1.574.274,1.03.545,2,.791,2.985q.662,2.643,1.293,5.3a1.694,1.694,0,0,0,.419.781c.864.937,1.71,1.89,2.589,2.813.3.315.336.523-.028.805a10.821,10.821,0,0,0-1.147,1.025c-.258.268-.414.209-.632-.034-.873-.975-1.765-1.934-2.639-2.91a1.771,1.771,0,0,0-.794-.5q-3.944-1.321-7.883-2.656C633.611,1539.244,633.567,1539.219,633.451,1539.165Z" transform="translate(1838 -1121.413)" fill="#4763ab"/>
    <path id="Trazado_188672" data-name="Trazado 188672" d="M595.739,1504.884c1.088-.535,2.146-1.009,3.152-1.594a27.332,27.332,0,0,0,5.836-4.545.682.682,0,0,1,1.018-.128c.893.539,1.773,1.1,2.636,1.681.347.235.276.363,0,.556a39.655,39.655,0,0,1-3.746,2.3,37.23,37.23,0,0,1-6.888,2.841.45.45,0,0,1-.443-.026C596.8,1505.61,596.29,1505.265,595.739,1504.884Z" transform="translate(1838 -1121.413)" fill="#6677d6"/>
    <path id="Trazado_188677" data-name="Trazado 188677" d="M578.656,1506.567a15.34,15.34,0,0,1,16.653-.016C592.023,1507.7,583.392,1507.954,578.656,1506.567Z" transform="translate(1838 -1121.413)" fill="#6677d6"/>
    <path id="Trazado_188680" data-name="Trazado 188680" d="M578.3,1504.873c-.585.4-1.118.768-1.65,1.136-.121.083-.226.03-.349-.007a37.5,37.5,0,0,1-10.3-4.9c-.727-.491-.739-.5-.07-.986.845-.615,1.747-1.14,2.646-1.671.294-.174.418.011.576.172a29.212,29.212,0,0,0,4.834,3.968A28.752,28.752,0,0,0,578.3,1504.873Z" transform="translate(1838 -1121.413)" fill="#6677d6"/>
    <path id="Trazado_188688" data-name="Trazado 188688" d="M549.642,1515.22a2.692,2.692,0,0,1-1.228,2.64,2.619,2.619,0,0,1-4.037-2.218,3.34,3.34,0,0,1,.576-2.369,2.661,2.661,0,0,1,3.1-.826,2.432,2.432,0,0,1,1.583,2.348C549.645,1514.937,549.642,1515.078,549.642,1515.22Z" transform="translate(1838 -1121.413)" fill="#6677d6"/>
    <path id="Trazado_188689" data-name="Trazado 188689" d="M555.4,1517.844a11.163,11.163,0,0,1,.35-3.306,2.684,2.684,0,0,1,1.8-2.172,2.227,2.227,0,0,1,2.507.908,5.287,5.287,0,0,1,.813,2.546,14.374,14.374,0,0,1-.21,5.006,2.78,2.78,0,0,1-1.949,2.359,2.315,2.315,0,0,1-2.27-.772,4.972,4.972,0,0,1-.912-2.507A9.9,9.9,0,0,1,555.4,1517.844Z" transform="translate(1838 -1121.413)" fill="#6677d6"/>
    <path id="Trazado_188690" data-name="Trazado 188690" d="M572.075,1517.783a10.856,10.856,0,0,1-.724,4.031,2.279,2.279,0,0,1-2.159,1.448,2.322,2.322,0,0,1-2.118-1.523,7.408,7.408,0,0,1-.459-1.681,12.805,12.805,0,0,1,.18-5.466,2.726,2.726,0,0,1,1.605-2.162,2.238,2.238,0,0,1,2.9,1.166A10.3,10.3,0,0,1,572.075,1517.783Z" transform="translate(1838 -1121.413)" fill="#6677d6"/>
    <path id="Trazado_188691" data-name="Trazado 188691" d="M610.734,1517.756a10.406,10.406,0,0,1-.639,3.891,2.294,2.294,0,0,1-4.377.012,11.082,11.082,0,0,1-.605-4.793,9.893,9.893,0,0,1,.557-2.9,2.265,2.265,0,0,1,2.15-1.677,2.2,2.2,0,0,1,2.266,1.574,6.241,6.241,0,0,1,.4,1.2A13.007,13.007,0,0,1,610.734,1517.756Z" transform="translate(1838 -1121.413)" fill="#6677d6"/>
    <path id="Trazado_188663" data-name="Trazado 188663" d="M641.112,1426.667c.159,0,.319.008.477,0a1.1,1.1,0,0,0,.253-.072,7.171,7.171,0,0,0,4.274-4.079,2.045,2.045,0,0,0-.372-2.232,27.728,27.728,0,0,0-2.214-2.2c-.21-.211-.367-.125-.534.053q-2.676,2.834-5.359,5.659c-.239.251-.224.429.028.654.552.5,1.085,1.012,1.628,1.519A2.388,2.388,0,0,0,641.112,1426.667Zm.257,2.384a4.386,4.386,0,0,1-3.319-1.4c-1.207-1.118-2.4-2.255-3.594-3.383-.2-.19-.375-.338-.089-.638q4.14-4.338,8.251-8.7c.236-.251.36-.217.584,0,1.278,1.223,2.583,2.419,3.853,3.65a4.828,4.828,0,0,1,1.553,2.882,4.672,4.672,0,0,1-.547,2.811,8.943,8.943,0,0,1-5.178,4.589,4.378,4.378,0,0,1-.826.184A5.453,5.453,0,0,1,641.369,1429.051Z" transform="translate(1838 -1121.414)" fill="#4763ab"/>
    <path id="Trazado_188664" data-name="Trazado 188664" d="M567.855,1401.444a1.789,1.789,0,0,0-2.351-1.936c-.971.187-1.89.56-2.849.787-.313.073-.368.245-.28.542.27.911.518,1.829.775,2.744.073.26.22.394.505.309,1.045-.312,2.1-.586,3.132-.947A1.428,1.428,0,0,0,567.855,1401.444Zm-1.092-4.225c1.884-.177,3.775,1.844,3.447,4.106a2.648,2.648,0,0,1-.882,1.7c-.286.25-.2.349.118.425a2.385,2.385,0,0,1,1.8,1.827c.21.729.458,1.447.683,2.171a1.371,1.371,0,0,0,.673.911c.3.147.176.275-.03.334-.728.21-1.463.4-2.2.589-.32.082-.436-.168-.56-.381a24.689,24.689,0,0,1-.866-2.443c-.058-.129-.088-.268-.141-.4a1.5,1.5,0,0,0-2.06-1.036c-.837.216-1.663.469-2.5.7-.345.094-.422.254-.312.62.4,1.317.733,2.651,1.119,3.973.1.355.033.505-.332.586a9.572,9.572,0,0,0-1.423.417c-.386.153-.519.043-.622-.331-.677-2.466-1.371-4.929-2.064-7.392-.383-1.36-.765-2.718-1.172-4.07-.089-.3-.1-.43.253-.524,2.079-.555,4.151-1.132,6.224-1.71A4.687,4.687,0,0,1,566.763,1397.219Z" transform="translate(1838 -1121.414)" fill="#4763ab"/>
    <path id="Trazado_188665" data-name="Trazado 188665" d="M636.166,1409.745a11.55,11.55,0,0,1-.975,1.557c-.156.183-.285-.031-.4-.1-1.652-.994-3.307-1.983-4.943-3-.432-.269-.675-.232-.909.23a11.146,11.146,0,0,1-.851,1.4c-.287.4-.209.634.2.872,1.055.612,2.1,1.253,3.14,1.883.47.283.929.585,1.41.848.263.143.312.275.141.527a12.7,12.7,0,0,0-.666,1.084c-.153.284-.314.332-.588.161-.691-.431-1.392-.843-2.088-1.265-.847-.513-1.7-1.021-2.537-1.547-.314-.2-.5-.134-.681.178-.434.75-.885,1.491-1.343,2.226-.15.239-.164.381.113.548,1.742,1.051,3.471,2.123,5.211,3.176.584.354.6.34.237.947-.2.335-.416.658-.612.994-.111.189-.2.228-.411.1q-3.849-2.355-7.713-4.681c-.225-.136-.229-.249-.1-.461q2.172-3.553,4.329-7.118c.634-1.043,1.289-2.073,1.9-3.129.187-.322.328-.371.644-.176,2.092,1.291,4.193,2.567,6.292,3.848.317.193.64.378.957.572C636.039,1409.487,636.182,1409.546,636.166,1409.745Z" transform="translate(1838 -1121.414)" fill="#4763ab"/>
    <path id="Trazado_188666" data-name="Trazado 188666" d="M554.365,1408.743c-.02.179-.178.2-.3.268-1.559.834-3.111,1.682-4.684,2.488-.413.212-.507.382-.263.8.413.7.793,1.421,1.143,2.154.181.381.367.379.7.2,1.79-.964,3.6-1.9,5.38-2.875.414-.226.639-.171.8.263a5.7,5.7,0,0,0,.275.574c.406.814.411.822-.383,1.244-2.4,1.28-4.811,2.544-7.208,3.832-.39.21-.569.126-.768-.251-1.769-3.366-3.557-6.72-5.337-10.079-.368-.694-.366-.7.326-1.068,2.355-1.26,4.716-2.507,7.06-3.784.379-.207.566-.152.729.22a5.569,5.569,0,0,0,.477.944c.263.377.119.553-.224.732q-2.488,1.308-4.966,2.637c-.6.321-.6.328-.283.943.269.519.565,1.023.819,1.548.163.338.347.376.668.2,1.539-.832,3.1-1.628,4.626-2.483.442-.247.61-.133.786.267C553.924,1407.936,554.154,1408.335,554.365,1408.743Z" transform="translate(1838 -1121.414)" fill="#4763ab"/>
    <path id="Trazado_188667" data-name="Trazado 188667" d="M537.1,1426.1a6.483,6.483,0,0,1-4.757-2.492,8.193,8.193,0,0,1-2.057-3.714,5.044,5.044,0,0,1,1.185-4.733,5.727,5.727,0,0,1,4.7-2.169,4.668,4.668,0,0,1,2.68,1.031c.22.177.3.313.035.527q-.726.579-1.421,1.2c-.261.233-.461.067-.663-.064a2.466,2.466,0,0,0-3.123.348,2.707,2.707,0,0,0-1.084,2.765,6.734,6.734,0,0,0,2.047,3.462,4.707,4.707,0,0,0,2.579,1.455c1.658.274,3.929-1.542,3.043-3.737a.844.844,0,0,1,.354-1.186,6.714,6.714,0,0,0,.935-.782c.328-.329.477-.192.641.151a5.271,5.271,0,0,1-.764,5.931A5.889,5.889,0,0,1,537.1,1426.1Z" transform="translate(1838 -1121.414)" fill="#4763ab"/>
    <path id="Trazado_188668" data-name="Trazado 188668" d="M612.344,1398.378c-.126.458-.256.914-.376,1.374-.074.282-.25.285-.489.227-1.765-.429-3.535-.839-5.3-1.282-.488-.123-.7,0-.784.506a19.986,19.986,0,0,1-.487,1.95c-.113.4.018.571.413.663,1.546.36,3.085.752,4.63,1.114.3.07.432.151.318.49a6.362,6.362,0,0,0-.263,1.135c-.053.373-.236.411-.554.335-1.51-.361-3.027-.691-4.531-1.071-.459-.116-.653.02-.751.448-.32,1.392-.663,2.78-.974,4.173-.093.414-.209.636-.7.455a7.969,7.969,0,0,0-1.432-.366c-.434-.074-.418-.3-.335-.634q.759-3.083,1.491-6.171c.417-1.749.834-3.5,1.228-5.253.084-.372.23-.443.589-.358,2.659.636,5.324,1.252,7.985,1.876C612.223,1398.035,612.421,1398.091,612.344,1398.378Z" transform="translate(1838 -1121.414)" fill="#4763ab"/>
    <path id="Trazado_188669" data-name="Trazado 188669" d="M586.743,1395.823c-.007.793-.009.77-.778.808-.9.045-1.794.137-2.691.2-.3.022-.355.166-.334.459.143,2.009.257,4.02.392,6.028q.12,1.8.28,3.595c.038.421-.076.613-.538.6a9.9,9.9,0,0,0-1.374.1c-.408.047-.579-.137-.62-.523-.067-.614-.077-1.233-.125-1.849-.194-2.518-.334-5.041-.469-7.563-.027-.493-.151-.688-.694-.631-.948.1-1.907.093-2.858.163-.359.026-.476-.094-.476-.437a11.49,11.49,0,0,0-.062-1.27c-.028-.254.082-.3.292-.317,1.162-.089,2.323-.193,3.485-.279,1.954-.145,3.91-.267,5.862-.432.434-.038.621.053.613.506A6.328,6.328,0,0,0,586.743,1395.823Z" transform="translate(1838 -1121.414)" fill="#4763ab"/>
    <path id="Trazado_188670" data-name="Trazado 188670" d="M618.959,1400.546c.638.271,1.328.545,2,.861.175.084.036.288-.021.43q-1.421,3.478-2.843,6.958c-.54,1.323-1.09,2.642-1.607,3.975-.158.4-.34.523-.747.326-.476-.232-.972-.422-1.464-.617-.223-.088-.341-.161-.222-.45,1.114-2.709,2.21-5.425,3.313-8.138q.609-1.5,1.229-2.988C618.656,1400.753,618.653,1400.534,618.959,1400.546Z" transform="translate(1838 -1121.414)" fill="#4763ab"/>
    <path id="Trazado_188671" data-name="Trazado 188671" d="M592.3,1406.826c.245-1.726.316-3.494.454-5.257q.139-1.767.291-3.537c.089-1.037.19-2.072.275-3.109.015-.181.08-.257.26-.238q.973.1,1.946.2c.243.023.315.128.287.387q-.309,2.846-.494,5.7c-.128,2.008-.3,4.014-.448,6.022-.033.437-.2.688-.7.619s-1.022-.091-1.534-.122C592.157,1407.462,592.362,1407.1,592.3,1406.826Z" transform="translate(1838 -1121.414)" fill="#4763ab"/>
    <path id="Trazado_188673" data-name="Trazado 188673" d="M587,1431.093a38.625,38.625,0,0,0-8.318.886A39.06,39.06,0,0,0,556.8,1445.4a37.774,37.774,0,0,0-2.642,3.614l-.036.054a.349.349,0,0,0,.206.623,2.67,2.67,0,0,0,.611.078,1.923,1.923,0,0,0,1.633-.939,38.211,38.211,0,0,1,6.994-7.532.459.459,0,0,1,.269-.135.385.385,0,0,1,.223.1,28.345,28.345,0,0,0,3.121,2.052c.142.08.153.118.153.119s0,.044-.116.183a31.739,31.739,0,0,0-3.377,4.855,1.826,1.826,0,0,1-.171.234c-.18.224-.4.5-.223.8a.539.539,0,0,0,.486.23,2.351,2.351,0,0,0,.277-.022,2.346,2.346,0,0,1,.251-.019.9.9,0,0,1,.095.005,1.234,1.234,0,0,0,.2.016,1,1,0,0,0,.9-.6,32.524,32.524,0,0,1,3.132-4.439l.038-.046c.106-.13.176-.209.264-.209a.349.349,0,0,1,.149.044,36.2,36.2,0,0,0,5.5,2.284c.071.023.161.061.185.113.015.033.018.106-.052.268-.2.446-.354.913-.507,1.365l-.034.1c-.171.5-.249.73-.125.91s.358.188.872.2l.077,0,.083,0a.891.891,0,0,0,.975-.724c.065-.233.155-.468.243-.695.081-.211.165-.43.231-.652.071-.24.139-.24.2-.24a.751.751,0,0,1,.2.034,36.625,36.625,0,0,0,8.72,1.274.389.389,0,0,1,.269.072.308.308,0,0,1,.026.214.649.649,0,0,0,.114.539.574.574,0,0,0,.456.173c.037,0,.077,0,.118-.006.074-.006.155-.01.252-.01.072,0,.144,0,.216,0l.152,0h.012a.568.568,0,0,0,.441-.167.486.486,0,0,0,.109-.4.443.443,0,0,1,.048-.328c.075-.087.271-.1.5-.106a37.738,37.738,0,0,0,7.48-1l.119-.027a4.9,4.9,0,0,1,.893-.162c.3,0,.37.148.673,1.071.288.876.375,1.141,1.119,1.141.133,0,.292-.007.476-.015l.039,0a.494.494,0,0,0,.507-.76c-.076-.2-.148-.405-.221-.608-.147-.407-.3-.828-.467-1.235-.064-.155-.062-.222-.048-.25s.088-.077.2-.111a34.581,34.581,0,0,0,5.362-2.207.648.648,0,0,1,.267-.079c.089,0,.18.038.332.225a25.39,25.39,0,0,1,2.83,4,1.679,1.679,0,0,0,1.57,1.057,2.606,2.606,0,0,0,.362-.027c.317-.043.491-.067.569-.219s-.017-.335-.15-.583a31.455,31.455,0,0,0-3.58-5.231c-.136-.163-.138-.224-.135-.238s.046-.077.221-.175a25.763,25.763,0,0,0,2.944-1.937.545.545,0,0,1,.307-.137.53.53,0,0,1,.315.154,37.971,37.971,0,0,1,7.039,7.631,1.356,1.356,0,0,0,1.108.757,1.376,1.376,0,0,0,.31-.037.407.407,0,0,1,.078-.007,1.68,1.68,0,0,1,.21.02,1.862,1.862,0,0,0,.246.023.442.442,0,0,0,.415-.213c.189-.326-.054-.611-.232-.818-.052-.062-.1-.12-.137-.173a39.866,39.866,0,0,0-6.127-7.148,39.315,39.315,0,0,0-12.033-7.548,38.144,38.144,0,0,0-12.213-2.673C588.442,1431.11,587.714,1431.093,587,1431.093Zm-44.565,47.544a.635.635,0,0,0-.729.768c.018.31.013.63.008.94,0,.143,0,.288,0,.431,0,.532,0,1.064,0,1.595,0,1.358.008,2.761-.015,4.14a.9.9,0,0,0,.2.678.713.713,0,0,0,.536.186c.048,0,.1,0,.154-.008s.108-.007.176-.007.111,0,.166,0l.174,0h17.673l1.238,0c.354,0,.709,0,1.063,0h.009a.723.723,0,0,0,.524-.167.693.693,0,0,0,.166-.523c-.015-2.352-.016-4.835,0-7.382a.579.579,0,0,0-.667-.681h-.026c-.533.007-1.062.008-1.464.008h-1.273c-.456,0-.808,0-1.14.005h-.022c-.043,0-.175,0-.209-.034-.011-.012-.038-.054-.037-.2.015-6.019.016-11.371,0-16.364a.581.581,0,0,1,.1-.4.523.523,0,0,1,.371-.092h.048c.307.007.641.011,1.051.011l.687,0,.687,0c.4,0,.727,0,1.027.01h.059a.85.85,0,0,0,.623-.193.865.865,0,0,0,.192-.661c-.03-2.314-.03-4.69,0-7.06a.868.868,0,0,0-.185-.658.9.9,0,0,0-.656-.191h-.02c-1.9.012-3.784.013-5.212.013h-4.6l-5.138,0c-1.509,0-3.5,0-5.5-.008h-.009a.8.8,0,0,0-.585.174.745.745,0,0,0-.17.554c.018,2.368.018,4.816,0,7.276a.757.757,0,0,0,.179.57.786.786,0,0,0,.568.181h.017l.687,0,.808,0,.81,0c.588,0,1.042,0,1.469-.015h.043a.4.4,0,0,1,.255.054c.039.039.058.138.057.31-.014,5.753-.013,11.088,0,16.31,0,.2-.023.32-.076.373a.44.44,0,0,1-.3.07h-.041c-.385-.008-.809-.013-1.334-.013l-.775,0-.774,0c-.319,0-.586,0-.838-.005Zm74.31-26.331a20.676,20.676,0,0,0-2.575.16,23.829,23.829,0,0,0-7.99,2.361,12.878,12.878,0,0,0-6.126,6.527,22.672,22.672,0,0,0-1.734,8.792v.007c.009.25.016.484.022.7.019.641.036,1.194.078,1.74a18.524,18.524,0,0,0,1.717,6.633,13.549,13.549,0,0,0,5.2,5.8,21.35,21.35,0,0,0,11.559,3.093c.807,0,1.648-.034,2.5-.1a21.831,21.831,0,0,0,7.291-1.933,12.8,12.8,0,0,0,6.054-5.436,21.049,21.049,0,0,0,2.513-9.944,25.12,25.12,0,0,0-.82-6.757,13.74,13.74,0,0,0-3.418-6.35,14.953,14.953,0,0,0-5.8-3.674A24.128,24.128,0,0,0,616.749,1452.306Zm-43.305,32.873c.066.024.172.074.276.123l.008.005c.307.144.616.3.916.45a19.078,19.078,0,0,0,2.129.96,22.691,22.691,0,0,0,7.657,1.418,19.091,19.091,0,0,0,2.676-.19,14.577,14.577,0,0,0,5.662-1.849,10.1,10.1,0,0,0,5.155-9.176c-.054-3.272-1.646-6.129-4.734-8.49a15.985,15.985,0,0,0-5.451-2.418l-3.221-.941c-2.194-.64-4.462-1.3-6.7-1.949a4.307,4.307,0,0,1-1.426-.666.9.9,0,0,1-.417-.748.857.857,0,0,1,.478-.67,3.175,3.175,0,0,1,1.6-.522c.037,0,.074,0,.112,0,.29.014.584.024.869.034.63.02,1.281.042,1.921.115a11.643,11.643,0,0,1,8.164,4.272.9.9,0,0,0,.763.352h.194c1.018,0,2.071-.008,3.106-.008s1.965,0,2.813.012h.018a.722.722,0,0,0,.548-.17.784.784,0,0,0,.17-.576c-.015-3.556-.015-7.04,0-10.359a.83.83,0,0,0-.173-.6.743.743,0,0,0-.56-.173h-.029c-.787.011-1.563.013-2.15.013h-1.981c-.541,0-.983,0-1.393,0h-.086c-.152,0-.283,0-.4-.005l-.234,0a.7.7,0,0,0-.515.135c-.148.149-.145.373-.14.865,0,.112,0,.239,0,.384v.023c0,.1,0,.21-.005.278-.067-.027-.172-.078-.274-.128l-.058-.029a23.466,23.466,0,0,0-4.75-1.923,22.893,22.893,0,0,0-5.461-.6c-.271,0-.553,0-.836.009a16.037,16.037,0,0,0-5.5.992,10.908,10.908,0,0,0-4.89,3.3,10.535,10.535,0,0,0-2.177,6.088,9.173,9.173,0,0,0,1.816,6.249,13.586,13.586,0,0,0,6.968,4.7c1.537.467,3.1.938,4.614,1.393,1.812.545,3.685,1.109,5.525,1.671.762.232,1.5.526,2.124.782.269.111.722.362.729.8.005.333-.218.589-.748.858a2.424,2.424,0,0,1-.32.126,8.161,8.161,0,0,1-2.3.405c-.148,0-.3.007-.447.007a14.962,14.962,0,0,1-5.793-1.169,8.818,8.818,0,0,1-4.392-3.692.9.9,0,0,0-.867-.473h-.011c-.967,0-2,.009-3.028.009-1,0-1.882-.005-2.706-.014h-.028a.668.668,0,0,0-.777.8c.018,1.359.015,2.742.012,4.079q0,.775,0,1.55c0,.516,0,1.032,0,1.547,0,1.338.007,2.722-.014,4.082a.867.867,0,0,0,.193.654.726.726,0,0,0,.545.183c.037,0,.077,0,.118,0,.109-.007.226-.01.367-.01.1,0,.209,0,.313,0s.213,0,.319,0h2.9l2.25,0c.833,0,.929-.1.932-.95,0-.152,0-.305,0-.456s0-.3,0-.447C573.436,1485.382,573.437,1485.254,573.444,1485.179Zm-18.919,5.462c-.1,0-.39,0-.5.2s.063.449.119.529c.151.216.3.439.448.653.216.318.439.647.668.964a39.15,39.15,0,0,0,26.113,15.919,31.224,31.224,0,0,0,4.674.385c.239,0,.475,0,.7-.011h.2a36.1,36.1,0,0,0,6.264-.489,40.321,40.321,0,0,0,5.683-1.334,39.279,39.279,0,0,0,11.321-5.807,39.931,39.931,0,0,0,9.392-9.882c.032-.048.075-.1.12-.156.158-.193.374-.458.232-.743a.489.489,0,0,0-.48-.268,1.862,1.862,0,0,0-.26.024,1.7,1.7,0,0,1-.21.019h-.02c-.044,0-.089,0-.133-.006-.078-.005-.159-.01-.24-.01a.889.889,0,0,0-.821.412,31.234,31.234,0,0,1-2.795,3.641,39.918,39.918,0,0,1-4.713,4.544.351.351,0,0,1-.22.1.4.4,0,0,1-.229-.1,27.625,27.625,0,0,0-3.036-1.986c-.174-.1-.216-.154-.221-.182s0-.078.134-.231a28.216,28.216,0,0,0,2.246-2.982c.485-.731,1.045-1.6,1.526-2.506l.018-.033a.488.488,0,0,0,.079-.423.424.424,0,0,0-.3-.226,2.206,2.206,0,0,0-.593-.089,1.682,1.682,0,0,0-1.49.936,32.128,32.128,0,0,1-3.138,4.369c-.14.165-.228.187-.295.187a.632.632,0,0,1-.271-.084,33.662,33.662,0,0,0-5.265-2.163c-.16-.048-.2-.093-.213-.116-.027-.057.036-.216.059-.275.231-.58.446-1.177.653-1.754l.1-.287a.615.615,0,0,0,0-.547.5.5,0,0,0-.427-.191h-.328a1.259,1.259,0,0,1-.188-.01,1.578,1.578,0,0,0-.2-.014.882.882,0,0,0-.892.78,9.02,9.02,0,0,1-.376,1.059c-.062.152-.125.309-.184.466-.078.207-.148.224-.22.224a.573.573,0,0,1-.181-.037,12.279,12.279,0,0,0-1.661-.431,51.374,51.374,0,0,0-6.795-.848c-.343-.02-.406-.081-.4-.388.015-.757-.165-.789-1.018-.818h-.115a.76.76,0,0,0-.615.211.773.773,0,0,0-.129.646.38.38,0,0,1-.025.267.348.348,0,0,1-.222.077c-.31.026-.625.05-.93.072-.631.047-1.283.095-1.926.169a35.14,35.14,0,0,0-5.749,1.03.92.92,0,0,1-.234.04c-.111,0-.2-.024-.294-.326-.083-.257-.178-.514-.27-.762s-.194-.523-.278-.786a.782.782,0,0,0-.79-.635,1.145,1.145,0,0,0-.127.007c-.065.006-.136.009-.223.009l-.175,0c-.056,0-.113,0-.169,0a.57.57,0,0,0-.485.179.6.6,0,0,0-.012.537c.055.162.108.324.161.486a11.617,11.617,0,0,0,.6,1.572c.063.125.085.217.064.265s-.071.09-.252.146a30.671,30.671,0,0,0-5.071,2.078.922.922,0,0,1-.406.127c-.163,0-.3-.094-.491-.327a29.409,29.409,0,0,1-2.915-4.137,1.587,1.587,0,0,0-1.5-.951c-.086,0-.176.005-.271.014-.369.035-.581.063-.67.235s.014.365.177.648a33.223,33.223,0,0,0,3.713,5.331c.124.142.127.2.125.21s-.028.068-.2.171c-.759.454-1.568.966-2.471,1.567l-.04.027c-.4.265-.618.411-.783.411s-.376-.163-.788-.5a33.991,33.991,0,0,1-6.522-7.093,1.905,1.905,0,0,0-1.641-1.028,2.351,2.351,0,0,0-.382.033h-.1Zm34.1,26.052c.141,0,.262,0,.369.007.084,0,.158.005.223.005.642,0,.645-.294.657-1.267v-.108c.008-.6.012-.929-.181-1.125s-.5-.193-1.121-.194h-.514c-.309,0-.505.01-.633.137s-.133.331-.131.716c0,.114,0,.245,0,.4,0,.073,0,.145,0,.218.005.172,0,.313,0,.438-.007.308-.011.492.121.627s.319.151.7.151l.353,0h.154Zm-.654,5.465a.734.734,0,0,0-.541.135c-.138.139-.137.341-.134.743,0,.126,0,.269,0,.438,0,.614,0,.921.161,1.114.176.211.481.211.985.211h.051c.688,0,1.033,0,1.235-.216s.18-.6.139-1.22c-.012-.181-.016-.335-.02-.457-.017-.567-.051-.746-.652-.746l-.214,0c-.1,0-.222,0-.358,0-.157,0-.293,0-.41-.005Zm8.984-9.718a2.245,2.245,0,0,1,1.886.9,2.335,2.335,0,0,1,.431,1.734,2.519,2.519,0,0,1-.955,1.68,21.128,21.128,0,0,1-2.739,1.668c-2.5,1.342-3.8,3.18-3.975,5.617a.783.783,0,0,0,.129.6.7.7,0,0,0,.527.164h.03c.553-.008,1.156-.011,1.9-.011l1.2,0,1.2,0,1.151,0,1.153,0c.565,0,1.032,0,1.468-.007h.12c.134,0,.25,0,.352,0l.214,0c.644,0,.647-.247.654-.909,0-.125,0-.272.008-.444a.876.876,0,0,0-.177-.649.811.811,0,0,0-.622-.2h-.026c-.923.01-1.834.011-2.6.011h-1.855c-.552,0-1.28,0-2.02.006h-.015a.678.678,0,0,1-.212-.022.793.793,0,0,1,.09-.218,5.056,5.056,0,0,1,2.263-2.027c.235-.129.472-.257.708-.384.734-.4,1.492-.8,2.207-1.271a4.83,4.83,0,0,0,2.193-3.176,4.528,4.528,0,0,0-.858-3.515,4.63,4.63,0,0,0-3.819-1.7,5.818,5.818,0,0,0-2.735.664,4.55,4.55,0,0,0-2.263,3.8c-.06.486-.094.753.062.929.139.158.38.17.706.17h.282c.113,0,.213,0,.3,0l.2,0c.666,0,.7-.238.831-1.127l.017-.117c.181-1.228.663-1.863,1.563-2.062A4.8,4.8,0,0,1,596.952,1512.44Zm21.143,2.469a.39.39,0,0,1,.271.066.545.545,0,0,1,.075.363c-.017,1.956-.015,3.943-.013,5.865q0,1,0,1.994c0,1.518.073,1.593,1.559,1.611h.084a.823.823,0,0,0,.6-.181.8.8,0,0,0,.177-.612c-.018-1.609-.014-3.245-.012-4.827,0-.549,0-1.1,0-1.648v-1.393c0-1.649,0-3.354,0-5.032,0-.036,0-.075.005-.116a.621.621,0,0,0-.206-.608.9.9,0,0,0-.553-.16,1.378,1.378,0,0,0-1.276.727c-.467,1.425-.981,1.792-2.747,1.967l-.11.011c-.74.07-.8.141-.8.95,0,.037,0,.075,0,.112,0,.067,0,.132,0,.192a.676.676,0,0,0,.141.539.727.727,0,0,0,.564.194h.035c.129,0,.257,0,.385,0l.5,0c.168,0,.336,0,.5,0,.288,0,.523-.005.74-.016Zm-40.163.007.631,0,.571,0a1.485,1.485,0,0,1,.576.05,1.353,1.353,0,0,1,.049.55v7.586c0,1.461.037,1.7,1.339,1.7l.371,0h.034c.491,0,.689-.2.686-.682-.012-1.6-.01-3.234-.009-4.812q0-.828,0-1.658c0-.737.012-1.488.023-2.215.022-1.465.044-2.982-.018-4.475-.019-.458-.227-.682-.634-.682-.029,0-.06,0-.092,0-.078.006-.154.009-.227.009s-.152,0-.223-.01c-.039,0-.077-.005-.112-.005a.724.724,0,0,0-.74.613c-.484,1.561-1.054,1.859-2.636,2.016-.826.081-.964.112-.993.7-.005.1-.011.217-.027.362a1.577,1.577,0,0,0-.006.179c0,.033,0,.065,0,.1a.651.651,0,0,0,.151.5.66.66,0,0,0,.5.172h.031C577.4,1514.918,577.641,1514.916,577.932,1514.916Zm-8.564-4.6a6.057,6.057,0,0,0-1.547.215,4.411,4.411,0,0,0-3.039,3.223,12.823,12.823,0,0,0-.231,7.253c.657,2.636,2.243,4.116,4.467,4.17l.165,0a4.237,4.237,0,0,0,3.879-2.06,10.669,10.669,0,0,0,1.254-5.252v-.015a13.714,13.714,0,0,0-.572-3.993C572.98,1511.569,571.426,1510.311,569.368,1510.311Zm-26.48,10.6a.537.537,0,0,0-.432.171.658.658,0,0,0-.1.552,4.559,4.559,0,0,0,.434,1.411,4.036,4.036,0,0,0,3.78,2.137,6.9,6.9,0,0,0,1.246-.12c1.721-.319,2.892-1.489,3.582-3.578a13.294,13.294,0,0,0,.484-6.872c-.553-2.732-2.3-4.3-4.783-4.3a6.753,6.753,0,0,0-1.364.146,4.257,4.257,0,0,0-3.225,2.951,5.641,5.641,0,0,0,.736,5.19,4.768,4.768,0,0,0,3.549,1.549,4.524,4.524,0,0,0,2.841-.976,6.694,6.694,0,0,1-1.1,3.149,2.167,2.167,0,0,1-1.777.907,2.476,2.476,0,0,1-.257-.013,1.921,1.921,0,0,1-1.732-1.256,1.256,1.256,0,0,1-.055-.3c-.027-.248-.061-.558-.38-.685a1.3,1.3,0,0,0-.495-.078c-.087,0-.176,0-.261.008s-.166.008-.245.008h-.1l-.092,0h-.084l-.089,0C542.947,1520.913,542.917,1520.912,542.888,1520.912Zm82.517-.112a.513.513,0,0,0-.42.168.6.6,0,0,0-.084.518,4.462,4.462,0,0,0,1.143,2.392,4.714,4.714,0,0,0,3.606,1.3h.057a5.413,5.413,0,0,0,3.123-.824,5.014,5.014,0,0,0,2-3.09,4.752,4.752,0,0,0-2.871-5.638,5.194,5.194,0,0,0-4.214.23l.108-.628c.134-.776.26-1.51.388-2.241.016-.088.034-.11.16-.11.029,0,.058,0,.086,0l.1,0c.321,0,.639,0,.957,0h1.627c.607,0,1.072,0,1.511-.005h.119c.141,0,.265,0,.376,0l.241,0c.788,0,.788-.248.789-1.069,0-.146,0-.312,0-.506a.711.711,0,0,0-.162-.539.754.754,0,0,0-.555-.173h-.014c-1.167.007-2.221.011-3.22.011-1.116,0-2.147-.005-3.152-.013h-.015a.7.7,0,0,0-.779.741c-.043.425-.1.876-.182,1.465-.236,1.671-.479,3.369-.715,5.011l-.033.231a.473.473,0,0,0,.269.567,1.708,1.708,0,0,0,.671.128,1.965,1.965,0,0,0,1.354-.5,3.028,3.028,0,0,1,2.138-.849,2.558,2.558,0,0,1,2.335,1.273,3.278,3.278,0,0,1-.116,3.342,2.354,2.354,0,0,1-2.159,1.144,4.325,4.325,0,0,1-.6-.044,2.14,2.14,0,0,1-1.874-1.276l-.009-.024c-.376-.918-.439-1-1.419-1h-.123l-.126,0-.121,0c-.042,0-.078,0-.111,0S625.433,1520.8,625.405,1520.8Zm-67.181-10.479a4.209,4.209,0,0,0-3.7,1.853,9.848,9.848,0,0,0-1.413,5.091l-.017.208v.007a13.057,13.057,0,0,0,.648,4.31c.777,2.221,2.265,3.394,4.3,3.394h0a6.3,6.3,0,0,0,1.491-.191c1.623-.394,2.657-1.56,3.254-3.668a13.35,13.35,0,0,0,.115-6.732c-.606-2.6-2.187-4.155-4.339-4.263C558.449,1510.324,558.335,1510.321,558.224,1510.321Zm49.79-.035c-.087,0-.174,0-.26.008a4.522,4.522,0,0,0-4.138,3.01,10.671,10.671,0,0,0-.736,3.346,11.846,11.846,0,0,0,.8,5.69,4.363,4.363,0,0,0,4.231,2.853h.068a4.43,4.43,0,0,0,4.161-2.861,11.517,11.517,0,0,0,.833-4.28v-.009a11.659,11.659,0,0,0-.961-5.148A4.52,4.52,0,0,0,608.014,1510.286Zm-20.424,39.35a68.795,68.795,0,0,1-49.1-20.458,69.552,69.552,0,0,1-14.713-22,69.093,69.093,0,0,1,0-53.36,68.917,68.917,0,0,1,63.747-42.448h.06a69.131,69.131,0,0,1,1.077,138.254C588.307,1549.633,587.945,1549.636,587.59,1549.636Z" transform="translate(1838 -1121.414)" fill="#6677d6"/>
    <path id="Trazado_188674" data-name="Trazado 188674" d="M622.506,1469.907a33.947,33.947,0,0,1-.409,5.945,3.56,3.56,0,0,1-2.617,3.036,8.2,8.2,0,0,1-4.65.167,3.622,3.622,0,0,1-3.044-3.162,30.671,30.671,0,0,1-.681-6.415,50.212,50.212,0,0,1,.665-5.361,2.993,2.993,0,0,1,1.859-2.248,7.406,7.406,0,0,1,6.267-.115,3.622,3.622,0,0,1,2.1,2.7A21.311,21.311,0,0,1,622.506,1469.907Z" transform="translate(1838 -1121.414)" fill="#6677d6"/>
    <path id="Trazado_188675" data-name="Trazado 188675" d="M586.269,1498.1c0,1.326-.011,2.652.006,3.978.005.368-.117.5-.486.5a5.308,5.308,0,0,0-1.311.138,1.543,1.543,0,0,1-1.42-.3,15.387,15.387,0,0,1-4.15-4.76c-.472-.786-.871-1.616-1.314-2.421-.143-.258-.181-.414.187-.5,1.355-.328,2.727-.559,4.1-.788,1.237-.207,2.492-.228,3.737-.346.568-.054.676.165.662.681C586.245,1495.549,586.269,1496.823,586.269,1498.1Z" transform="translate(1838 -1121.414)" fill="#6677d6"/>
    <path id="Trazado_188676" data-name="Trazado 188676" d="M588.581,1493.613a41.833,41.833,0,0,1,7.586,1.087c.319.07.42.182.25.539a22.015,22.015,0,0,1-3.782,5.731,10.4,10.4,0,0,1-2.037,1.686c-.562.352-1.146.037-1.7-.028-1.078-.128-1.072-.176-1.072-1.287v-7.008C587.824,1493.594,587.824,1493.594,588.581,1493.613Z" transform="translate(1838 -1121.414)" fill="#6677d6"/>
    <path id="Trazado_188678" data-name="Trazado 188678" d="M580.26,1503.886c-.217-.067-.422-.117-.619-.192a24.877,24.877,0,0,1-6.546-3.654c-.881-.684-1.708-1.428-2.523-2.187-.261-.244-.249-.36.076-.514a49.751,49.751,0,0,1,4.76-1.929c.377-.133.541-.047.713.323a22.122,22.122,0,0,0,4.628,6.8,6.587,6.587,0,0,0,.6.524c.319.24.238.371-.094.479S580.59,1503.769,580.26,1503.886Z" transform="translate(1838 -1121.414)" fill="#6677d6"/>
    <path id="Trazado_188679" data-name="Trazado 188679" d="M593.709,1503.878a10.366,10.366,0,0,1-1.146-.46c-.269-.142.013-.264.1-.343a16.986,16.986,0,0,0,2.1-2.178,24.927,24.927,0,0,0,3.141-5.15c.168-.355.313-.478.706-.34a48.492,48.492,0,0,1,4.759,1.936c.263.125.367.215.1.476a25.723,25.723,0,0,1-9.112,5.883c-.132.05-.266.093-.4.135C593.906,1503.853,593.852,1503.854,593.709,1503.878Z" transform="translate(1838 -1121.414)" fill="#6677d6"/>
    <path id="Trazado_188681" data-name="Trazado 188681" d="M586.268,1442.541c0,1.328-.006,2.655.005,3.983,0,.3-.048.427-.406.425a37.307,37.307,0,0,1-8.112-1.114c-.279-.064-.468-.122-.292-.48a23.708,23.708,0,0,1,3.829-5.892,14.987,14.987,0,0,1,1.838-1.6c.412-.317.818-.053,1.223-.025.491.034.977.142,1.469.173.383.023.455.212.452.551C586.26,1439.886,586.268,1441.214,586.268,1442.541Z" transform="translate(1838 -1121.414)" fill="#6677d6"/>
    <path id="Trazado_188682" data-name="Trazado 188682" d="M587.824,1442.475c0-1.292.015-2.584-.008-3.876-.007-.4.119-.591.52-.617a13.724,13.724,0,0,0,1.988-.263.876.876,0,0,1,.722.256,16.027,16.027,0,0,1,4.284,5.069c.431.751.8,1.538,1.21,2.3.148.273.115.417-.2.482a47.032,47.032,0,0,1-5.73.987c-.742.062-1.484.053-2.221.125-.505.048-.585-.142-.575-.587C587.842,1445.06,587.824,1443.767,587.824,1442.475Z" transform="translate(1838 -1121.414)" fill="#6677d6"/>
    <path id="Trazado_188683" data-name="Trazado 188683" d="M578.394,1433.83a38.48,38.48,0,0,1,17.244-.007A15.414,15.414,0,0,1,578.394,1433.83Z" transform="translate(1838 -1121.414)" fill="#6677d6"/>
    <path id="Trazado_188684" data-name="Trazado 188684" d="M581.429,1437.178a20.617,20.617,0,0,0-1.753,1.759,23.569,23.569,0,0,0-3.6,5.782c-.186.415-.383.552-.842.386a48.471,48.471,0,0,1-4.65-1.914c-.262-.127-.5-.22-.165-.549a25.979,25.979,0,0,1,8.868-5.869C579.987,1436.5,580.438,1436.6,581.429,1437.178Z" transform="translate(1838 -1121.414)" fill="#6677d6"/>
    <path id="Trazado_188685" data-name="Trazado 188685" d="M592.57,1437.161a2.822,2.822,0,0,1,2.627-.235,27.824,27.824,0,0,1,8.456,5.756c.228.225.19.325-.068.449a45.592,45.592,0,0,1-5,2.038c-.313.107-.438-.043-.556-.3a24.767,24.767,0,0,0-3.609-5.848A18.182,18.182,0,0,0,592.57,1437.161Z" transform="translate(1838 -1121.414)" fill="#6677d6"/>
    <path id="Trazado_188686" data-name="Trazado 188686" d="M597.771,1434.39c.885.3,1.785.562,2.654.9a39.012,39.012,0,0,1,8.027,4.279c.389.272.422.381,0,.657-.887.582-1.761,1.182-2.685,1.706a.547.547,0,0,1-.783-.1,27.7,27.7,0,0,0-7.693-5.663c-.316-.157-.64-.3-.967-.434-.254-.1-.37-.211-.072-.414.394-.267.78-.548,1.169-.822A.457.457,0,0,1,597.771,1434.39Z" transform="translate(1838 -1121.414)" fill="#6677d6"/>
    <path id="Trazado_188687" data-name="Trazado 188687" d="M578.085,1435.563a26.5,26.5,0,0,0-6.086,3.6,24.724,24.724,0,0,0-2.916,2.627.6.6,0,0,1-.868.124c-.9-.524-1.769-1.1-2.636-1.686-.378-.252-.418-.383-.02-.646.989-.653,1.973-1.313,3-1.9a38.628,38.628,0,0,1,7.327-3.184.848.848,0,0,1,.916.154C577.182,1434.974,577.608,1435.229,578.085,1435.563Z" transform="translate(1838 -1121.414)" fill="#6677d6"/>
  </g>
</svg>
