<svg xmlns="http://www.w3.org/2000/svg" width="313.332" height="146.996" viewBox="0 0 313.332 146.996">
  <g id="Grupo_120597" data-name="Grupo 120597" transform="translate(-2371.168 9467.631)">
    <path id="Trazado_174204" data-name="Trazado 174204" d="M422.6,1469.044s14.307-11.024,13.1-28.662c-1.5-21.913-28.314-34.983-34.009-44.274-10.734-17.513-26.484-45.961-56.9-49.551s-32.753-20.357-54.585-21.548c-26.462-1.443-33.577,16.673-63.479,16.681s-44.451,8.158-54.761,31.792-24.094,40.238-35.869,49.232c-21.386,16.337-17.074,46.291,8.895,46.429C145.093,1469.121,422.6,1469.044,422.6,1469.044Z" transform="translate(2248.722 -10792.559)" fill="#effaf6"/>
    <g id="Grupo_116485" data-name="Grupo 116485" transform="translate(2464.795 -9370.69)">
      <g id="Grupo_116479" data-name="Grupo 116479" transform="translate(4.872 15.349)">
        <path id="Trazado_174205" data-name="Trazado 174205" d="M362.756,1606.112c-1.051-.538-2.028-1.068-2.895-1.582-8.586-5.088-22.648-20.787-19.005-27.794s10.483-1.794,16.943,1.163,25.273,15.729,25.273,15.729l2.358,11.933C377.875,1605.771,370.313,1606.055,362.756,1606.112Z" transform="translate(-340.266 -1573.244)" fill="#7dd1c6"/>
        <path id="Trazado_174206" data-name="Trazado 174206" d="M379.788,1606.4c-3.788-2.845-8.816-6.558-14.082-10.419l-7.395,5.85-.337-.6,7.161-5.665c-3.015-2.21-6.093-4.458-9.045-6.609l-9.413,3.717c-.153-.2-.307-.387-.455-.583l9.19-3.63c-3.84-2.8-7.437-5.41-10.359-7.531l.065.182-3.948,1.966c-.072-.234-.13-.463-.187-.692l3.6-1.794c-1.376-1-2.585-1.872-3.588-2.6a5.522,5.522,0,0,1,.251-.591.33.33,0,0,0,.03-.054c2.2,1.592,5.407,3.92,9.138,6.634l-1.043-9.522c.209.068.422.143.636.22l1.071,9.786c2.929,2.129,6.14,4.467,9.4,6.85l-1.458-12.347c.21.1.427.218.653.334l1.477,12.506c7.3,5.333,14.749,10.814,19.722,14.564Z" transform="translate(-340.659 -1573.909)" fill="#37a0ab"/>
      </g>
      <g id="Grupo_116480" data-name="Grupo 116480" transform="translate(91.616 33.034)">
        <path id="Trazado_174207" data-name="Trazado 174207" d="M532.093,1627.145l2.765-7.227s13.391-5.324,17.837-6.239,9.375-3.214,10.958,1.817c1.094,3.48-3.674,8.338-8.715,11.649Z" transform="translate(-532.093 -1612.354)" fill="#7dd1c6"/>
        <path id="Trazado_174208" data-name="Trazado 174208" d="M559.553,1620.464l5.487,3.71c-.115.1-.232.2-.353.3l-5.621-3.8c-2.116.929-4.324,1.9-6.488,2.86l3.079,3.644H555.1l-2.928-3.465c-2.772,1.229-5.452,2.423-7.762,3.465h-1.112c3.431-1.556,7.869-3.527,12.228-5.447l2.28-7.773c.157-.039.308-.081.453-.115L556,1621.522c2.341-1.03,4.644-2.04,6.744-2.958l1.73-6.1c.145-.017.288-.032.43-.045l-1.684,5.931c2.675-1.171,4.977-2.174,6.551-2.861a.176.176,0,0,0,.014.04,3.444,3.444,0,0,1,.1.416c-.718.313-1.585.689-2.571,1.12l2.113,1.692c-.061.138-.123.274-.193.413l-2.315-1.853.061-.107C564.885,1618.128,562.307,1619.256,559.553,1620.464Z" transform="translate(-538.229 -1612.392)" fill="#37a0ab"/>
      </g>
      <g id="Grupo_116481" data-name="Grupo 116481" transform="translate(69.213 17.168)">
        <path id="Trazado_174209" data-name="Trazado 174209" d="M484.134,1605.317l-1.583-7.576s8.385-11.719,11.631-14.893,6.148-7.773,10.2-4.4c2.8,2.336,1.42,9-1.029,14.512Z" transform="translate(-482.551 -1577.268)" fill="#2b6d87"/>
        <path id="Trazado_174210" data-name="Trazado 174210" d="M505.515,1589.536l6.622.153c-.042.148-.087.3-.133.446l-6.782-.155c-1.278,1.925-2.61,3.937-3.912,5.913l4.562,1.4-.472.3-4.337-1.333c-1.668,2.534-3.276,4.987-4.655,7.114l-.936.6c2.044-3.165,4.711-7.223,7.34-11.195l-2.285-7.771c.11-.119.216-.234.319-.341l2.257,7.672c1.411-2.133,2.8-4.226,4.072-6.135l-1.84-6.063c.112-.093.225-.184.338-.271l1.791,5.9c1.616-2.432,3.01-4.521,3.964-5.949a.239.239,0,0,0,.031.026,3.707,3.707,0,0,1,.308.3c-.436.652-.961,1.438-1.558,2.333l2.692.28c.023.149.045.3.061.452l-2.95-.307-.006-.122C508.738,1584.687,507.179,1587.03,505.515,1589.536Z" transform="translate(-489.63 -1578.67)" fill="#37a0ab"/>
      </g>
      <g id="Grupo_116482" data-name="Grupo 116482" transform="translate(70.757 23.619)">
        <path id="Trazado_174211" data-name="Trazado 174211" d="M518.754,1610.127c-3.063,2.06-6.056,3.955-8.769,5.612h-24.02c3.36-3.476,15.539-15.808,24.149-21.053,8.433-5.135,21.012-2.452,21.012-2.452S526.585,1604.863,518.754,1610.127Z" transform="translate(-485.965 -1591.534)" fill="#ffba51"/>
        <path id="Trazado_174212" data-name="Trazado 174212" d="M526.388,1612.512l-.879.563-8.478-3.119c-4.661,2.9-8.646,5.084-10.588,5.472l-.118-.837c1.533-.305,4.451-1.819,8-3.938l-2.025-9.2.621-.523,2.054,9.327c5.291-3.2,11.826-7.626,17.252-11.4l-.311-7.158c.239-.017.477-.033.712-.045l.291,6.721c3.831-2.675,7.03-4.971,8.724-6.194.411.07.641.12.641.12s-.074.2-.217.567c-2.567,1.858-8.645,6.221-15.143,10.627l6.848,3.3q-.292.318-.592.628l-6.907-3.325.071-.208c-2.829,1.91-5.717,3.813-8.414,5.51Z" transform="translate(-497.118 -1591.6)" fill="#ffd66c"/>
      </g>
      <g id="Grupo_116483" data-name="Grupo 116483" transform="translate(53.534 0)">
        <path id="Trazado_174213" data-name="Trazado 174213" d="M465.221,1585.193c-1.144.079-2.289.149-3.433.224l-5.52-1.175-8.39-10.708s18.141-31.29,26.031-33.671,9.406,2.992,5.674,12.971C476.976,1559.813,469.489,1576.053,465.221,1585.193Z" transform="translate(-447.879 -1539.302)" fill="#7dd1c6"/>
        <path id="Trazado_174214" data-name="Trazado 174214" d="M477.957,1577.571,468.752,1575c-1.381,2.982-2.661,6-3.779,8.982l-.436-.557a143.493,143.493,0,0,1,5.968-13.469l-6.029-8.3.37-.566,5.979,8.232c1.8-3.556,3.686-7,5.542-10.228l-4.588-7.941c.136-.181.271-.359.406-.537l4.541,7.858q1.11-1.916,2.192-3.711l-3.57-8.1c.147-.174.293-.345.44-.514l3.515,7.97c2.31-3.815,4.46-7.15,6.193-9.76l-1.641-4.5c.2-.051.4-.095.6-.133l1.462,4.006c1.047-1.565,1.917-2.832,2.554-3.746a3.391,3.391,0,0,1,.537.332c-1.229,1.762-3.424,4.97-6.067,9.128l6.7.751c-.066.223-.136.453-.209.682l-6.911-.775c-2.71,4.29-5.847,9.512-8.886,15.163l9.08,1.836c-.1.218-.195.435-.293.653l-9.13-1.847c-1.461,2.741-2.895,5.575-4.24,8.446l9.2,2.566Z" transform="translate(-456.971 -1539.539)" fill="#37a0ab"/>
      </g>
      <path id="Trazado_174215" data-name="Trazado 174215" d="M510.871,1606.376a40.851,40.851,0,0,0,4.943-3.064.289.289,0,0,0,.035.029s.009-.024.02-.067c.938-.67,1.955-1.444,3-2.323,1.7,2.428,5.577,3.793,4.965.262-.459-2.647-2.99-1.585-4.281-.848a40.883,40.883,0,0,0,5.312-5.554c1.174.815,6.227,2.082,5.3-1.106-.772-2.644-3.81-.331-4.946.653a30.206,30.206,0,0,0,4.018-7.01c1.592,1.285,6.28,1.379,4.967-2.152-1.079-2.9-3.671.084-4.69,1.433a25.371,25.371,0,0,0,1-3.456c1.137-.316,3.283-5.817,1.017-7.018-2.313-1.227-2.923,6-1.366,6.947a26.229,26.229,0,0,1-2.732,7.182c.473-1.916,1.313-6.239-.764-6.1-2.608.173-2.419,4.769.333,6.858a35.043,35.043,0,0,1-5.038,6.512c.526-1.451,1.773-5.45-.467-5.408-2.613.05-1.341,4.859.069,5.815a46.2,46.2,0,0,1-5.535,4.712c.433-1.733,1.366-6.191-.629-5.707-2.3.558-1.36,4.531.114,6.075a39.834,39.834,0,0,1-4.8,2.963Z" transform="translate(-428.766 -1559.413)" fill="#2b6d87"/>
      <path id="Trazado_174216" data-name="Trazado 174216" d="M330.641,1602.393c-2.631,1.167-.272,5.147,2.406,5.707a21.458,21.458,0,0,0,2.139,2.838c-2.678-1.771-5.709-.039-4.352,2.292,1.456,2.506,5.008-.493,5.581-1a33.465,33.465,0,0,0,5.488,4.281c-1.549-.193-5.215.207-3.837,2.048,1.428,1.907,4.617-.542,4.594-1.581a55.418,55.418,0,0,0,13.8,5.8l.086-.4a54.186,54.186,0,0,1-8.259-2.935c1.059-.753,2.17-5.115-.734-5.933-3.178-.9-1.228,3.911-.136,5.537a42.8,42.8,0,0,1-8.582-5.2c1.257-.3,3.281-4.517.817-6.166s-1.98,3.963-1.465,5.636a23.8,23.8,0,0,1-4.9-5.533C333.225,1604.379,333.261,1601.228,330.641,1602.393Z" transform="translate(-329.493 -1573.728)" fill="#2b6d87"/>
      <g id="Grupo_116484" data-name="Grupo 116484" transform="translate(32.614 10.105)">
        <path id="Trazado_174217" data-name="Trazado 174217" d="M426.1,1597.366c-3.74,0-7.483.066-11.227.159-2-1.943-15.819-15.149-12.83-35.877,23.812,6.836,27.922,35.107,27.922,35.107l-2.081.611Z" transform="translate(-401.617 -1561.648)" fill="#ffba51"/>
      </g>
      <path id="Trazado_174218" data-name="Trazado 174218" d="M397.181,1597.638a48.179,48.179,0,0,1-5.147-3.571l-.035.027-.022-.072c-.978-.772-2.04-1.657-3.138-2.655-1.688,2.432-5.639,3.6-5.093-.076.41-2.751,3.033-1.454,4.377-.588a48.7,48.7,0,0,1-5.585-6.214c-1.187.773-6.347,1.748-5.464-1.539.73-2.724,3.9-.078,5.095,1.037a35.889,35.889,0,0,1-4.293-7.654c-1.6,1.237-6.416,1.006-5.15-2.615,1.039-2.971,3.771.349,4.85,1.837a29.2,29.2,0,0,1-1.109-3.705c-1.175-.411-3.508-6.347-1.209-7.449,2.346-1.125,3.144,6.51,1.567,7.4a30.534,30.534,0,0,0,2.973,7.745c-.531-2.048-1.5-6.652.642-6.362,2.682.366,2.6,5.183-.182,7.187a42.025,42.025,0,0,0,5.328,7.2c-.575-1.564-1.949-5.855.353-5.653,2.684.238,1.491,5.2.066,6.108a54.643,54.643,0,0,0,5.8,5.346c-.486-1.854-1.547-6.606.51-5.956,2.374.749,1.5,4.861.027,6.38a46.078,46.078,0,0,0,5,3.453Z" transform="translate(-353.061 -1552.989)" fill="#2b6d87"/>
      <path id="Trazado_174219" data-name="Trazado 174219" d="M410.473,1577.754a143.905,143.905,0,0,1-8.093-15.527c.025-.193.049-.384.076-.579.188.053.369.113.555.168.874,1.948,2.583,5.609,4.851,9.8l1.9-6.922c.218.122.435.245.648.373l-2.048,7.464a101.9,101.9,0,0,0,7.123,11.3l3.414-11.694c.192.215.38.432.565.65l-3.435,11.769a34.9,34.9,0,0,0,8.159,8.14l-.341.745c-4.677-3.028-9.175-8.927-12.88-14.9l-7.091.757c-.085-.271-.169-.547-.251-.824Z" transform="translate(-369.421 -1551.543)" fill="#ffd66c"/>
    </g>
    <path id="Trazado_174220" data-name="Trazado 174220" d="M461.837,1331.712c-4.991-1.957-8.806.042-7.608,1.715.787,1.1,7.859,3.717,16.664,1.756,1.49-.332,3.091.29,4.447.665a11.705,11.705,0,0,0,5.642.523,19.511,19.511,0,0,0,4.264-1.681c1.5-.733,2.622-.324,4.153.215a17.193,17.193,0,0,0,6.3,1.26c1.361-.053,3.431-.382,3.828-1.937.534-2.1-2.436-3.294-4.074-3.229-1.692.067-3.189,1.189-4.631-.169-1.62-1.52-2.318-3.788-4.284-5a5.8,5.8,0,0,0-6.375.2c-1.346,1.042-1.879,3.319-3.791,3.467-1.949.15-3.8-1.163-5.776-.753-1.384.288-2.46,1.524-3.585,2.3A4.87,4.87,0,0,1,461.837,1331.712Z" transform="translate(2067.093 -10792.582)" fill="#6677d6"/>
    <path id="Trazado_174221" data-name="Trazado 174221" d="M720.6,1502.112c-2.434.716-3.366,2.429-2.072,4.618,1.518,2.569,3.338,3.529,6.326,3.594a6.884,6.884,0,0,0,3.512-.7c.85-.482,1.5-1.292,2.377-1.742,2.485-1.276,5.246-.189,7.7.6,3.235,1.039,5.77,1.815,8.811,0a5.844,5.844,0,0,1,4.219-.647c1.342.253,2.775,1.135,4.135,1.131,2.4-.005,3.56-2.774,1.414-4.146a5.174,5.174,0,0,0-4.386-.554,8.443,8.443,0,0,1-6.9-1.142c-1.85-1.389-3.758-3.171-6.184-3.412a9.608,9.608,0,0,0-3.638.13c-.934.314-1.116,1-1.765,1.628-1.445,1.406-3.633.676-5.391.364A18.352,18.352,0,0,0,720.6,1502.112Z" transform="translate(1922.509 -10888.247)" fill="#6677d6"/>
    <g id="Grupo_116490" data-name="Grupo 116490" transform="translate(2479.195 -9410.33)">
      <path id="Trazado_174222" data-name="Trazado 174222" d="M382.579,1461.847a10.624,10.624,0,1,1-11.036-10.2A10.624,10.624,0,0,1,382.579,1461.847Z" transform="translate(-361.339 -1451.642)" fill="#ffba51"/>
      <g id="Grupo_116486" data-name="Grupo 116486" transform="translate(0.803 0.095)">
        <path id="Trazado_174223" data-name="Trazado 174223" d="M378.5,1451.852a10.486,10.486,0,0,0-2.709.736l11.673,17.221a10.611,10.611,0,0,0,1.683-2.25Z" transform="translate(-370.057 -1451.852)" fill="#ffba51" opacity="0.4" style="mix-blend-mode: color-dodge;isolation: isolate"/>
        <path id="Trazado_174224" data-name="Trazado 174224" d="M367.472,1454.987a10.665,10.665,0,0,0-4.357,5.08l9.926,14.644c.105,0,.208.008.314,0a10.553,10.553,0,0,0,6.017-2.171Z" transform="translate(-363.115 -1453.569)" fill="#ffba51" opacity="0.4" style="mix-blend-mode: color-dodge;isolation: isolate"/>
      </g>
      <g id="Grupo_116487" data-name="Grupo 116487" transform="translate(1.439 1.439)">
        <path id="Trazado_174225" data-name="Trazado 174225" d="M373.7,1473.195a9.187,9.187,0,1,1,.37-.007C373.945,1473.193,373.821,1473.195,373.7,1473.195Zm.013-17.646c-.112,0-.226,0-.34.007a8.459,8.459,0,1,0,.34-.007Z" transform="translate(-364.521 -1454.825)" fill="#f48e39"/>
      </g>
      <g id="Grupo_116488" data-name="Grupo 116488" transform="translate(7.176 4.642)">
        <path id="Trazado_174226" data-name="Trazado 174226" d="M380.367,1473.432c-1.42,0-2.908-.64-3.153-1.954a.329.329,0,1,1,.646-.121c.191,1.025,1.611,1.517,2.872,1.4a2.524,2.524,0,0,0,2.572-2.474c0-2.173-1.292-2.4-2.787-2.662-1.329-.233-2.836-.5-3.022-2.41a2.861,2.861,0,0,1,1.65-2.886,3.58,3.58,0,0,1,3.873.314.329.329,0,1,1-.437.491,2.905,2.905,0,0,0-3.138-.219,2.2,2.2,0,0,0-1.293,2.236c.131,1.347,1.028,1.571,2.481,1.827,1.485.26,3.331.584,3.331,3.31a3.179,3.179,0,0,1-3.169,3.129C380.653,1473.425,380.51,1473.432,380.367,1473.432Z" transform="translate(-377.208 -1461.907)" fill="#f48e39"/>
      </g>
      <g id="Grupo_116489" data-name="Grupo 116489" transform="translate(10.031 3.593)">
        <path id="Trazado_174227" data-name="Trazado 174227" d="M384.373,1473.473a.328.328,0,0,1-.328-.316l-.523-13.227a.329.329,0,1,1,.657-.026l.523,13.228A.332.332,0,0,1,384.373,1473.473Z" transform="translate(-383.522 -1459.588)" fill="#f48e39"/>
      </g>
    </g>
    <g id="Grupo_116494" data-name="Grupo 116494" transform="translate(2436.268 -9460.926)">
      <g id="Grupo_116492" data-name="Grupo 116492" transform="translate(0 29.589)">
        <g id="Grupo_116491" data-name="Grupo 116491" transform="translate(14.763)">
          <path id="Trazado_174228" data-name="Trazado 174228" d="M319.385,1414.668h-1.9V1409.3a2.214,2.214,0,0,0-2.212-2.211H303.164a2.214,2.214,0,0,0-2.212,2.211v5.372h-1.9V1409.3a4.112,4.112,0,0,1,4.107-4.107h12.113a4.112,4.112,0,0,1,4.108,4.107Z" transform="translate(-299.057 -1405.189)" fill="#9a4138"/>
        </g>
        <rect id="Rectángulo_42687" data-name="Rectángulo 42687" width="4.013" height="2.222" transform="translate(13.655 5.793)" fill="#ffba51"/>
        <rect id="Rectángulo_42688" data-name="Rectángulo 42688" width="4.013" height="2.222" transform="translate(32.136 5.793)" fill="#ffba51"/>
        <path id="Trazado_174229" data-name="Trazado 174229" d="M311.379,1449.793a3.488,3.488,0,0,1-3.189,3.723H269.6a3.487,3.487,0,0,1-3.189-3.723v-25.86a3.486,3.486,0,0,1,3.189-3.722h38.59a3.487,3.487,0,0,1,3.189,3.722Z" transform="translate(-266.41 -1413.418)" fill="#9a4138"/>
        <path id="Trazado_174230" data-name="Trazado 174230" d="M320.057,1449.793a3.488,3.488,0,0,1-3.189,3.723H278.276a3.487,3.487,0,0,1-3.188-3.723v-25.86a3.486,3.486,0,0,1,3.188-3.722h38.591a3.487,3.487,0,0,1,3.189,3.722Z" transform="translate(-271.164 -1413.418)" fill="#bf5a44"/>
        <path id="Trazado_174231" data-name="Trazado 174231" d="M316.867,1420.211H278.276a3.486,3.486,0,0,0-3.188,3.722v10.773a3.486,3.486,0,0,0,3.188,3.721h38.591a3.486,3.486,0,0,0,3.189-3.721v-10.773A3.487,3.487,0,0,0,316.867,1420.211Z" transform="translate(-271.164 -1413.418)" fill="#9a4138"/>
        <path id="Trazado_174232" data-name="Trazado 174232" d="M316.867,1420.211H278.276a3.486,3.486,0,0,0-3.188,3.722v9.209a3.487,3.487,0,0,0,3.188,3.722h38.591a3.488,3.488,0,0,0,3.189-3.722v-9.209A3.487,3.487,0,0,0,316.867,1420.211Z" transform="translate(-271.164 -1413.418)" fill="#bf5a44"/>
        <rect id="Rectángulo_42689" data-name="Rectángulo 42689" width="6.623" height="4.568" transform="translate(22.254 21.475)" fill="#f48e39"/>
        <rect id="Rectángulo_42690" data-name="Rectángulo 42690" width="6.623" height="4.568" transform="translate(23.097 21.475)" fill="#ffba51"/>
      </g>
      <g id="Grupo_116493" data-name="Grupo 116493" transform="translate(26.35 0)">
        <path id="Trazado_174233" data-name="Trazado 174233" d="M380.27,1348.949a2.149,2.149,0,0,1,.124-1.019c.213-.117.231.936.467.866.355-.1.257-2.007.471-2.069.1-.029.239,1.15.239,1.15s.149-1.287.331-1.287c.367,0,.333,1.438.333,1.438s.18-.969.255-.731c.254.8.077,2.942-.728,3.145C380.568,1350.744,380.31,1349.578,380.27,1348.949Z" transform="translate(-355.128 -1343.499)" fill="#fcad95"/>
        <path id="Trazado_174234" data-name="Trazado 174234" d="M380.208,1354.05l-.2,1.227,2.124.189.059-1.227Z" transform="translate(-354.988 -1347.586)" fill="#f7eacf"/>
        <path id="Trazado_174235" data-name="Trazado 174235" d="M325.686,1408.674s-1.029,2.072.123,2.919,2.326.579,2.285.168-.823-2.889-.823-2.889Z" transform="translate(-325 -1377.508)" fill="#fcad95"/>
        <path id="Trazado_174236" data-name="Trazado 174236" d="M325.413,1406.758l-.09,1.24,2.132,0-.053-1.227Z" transform="translate(-325.033 -1376.459)" fill="#f7eacf"/>
        <path id="Trazado_174237" data-name="Trazado 174237" d="M358.685,1453.616a10.8,10.8,0,0,1,.044-2.709l-1.41-2.149c-.766.272-2.289.879-2.078,1.289.55,1.066,1.79,3.474,2.493,4.839C357.881,1455.175,359.242,1454.757,358.685,1453.616Z" transform="translate(-341.411 -1399.467)" fill="#00003a"/>
        <path id="Trazado_174238" data-name="Trazado 174238" d="M366.155,1418.318c1.091-2.1,5.923.524,4.466,2.571-2.251,3.165-7.552,10.292-9.33,12.885-.726,1.057-3.22-.811-3.152-1.647C358.236,1430.934,364.315,1421.86,366.155,1418.318Z" transform="translate(-343.008 -1382.368)" fill="#213c53"/>
        <path id="Trazado_174239" data-name="Trazado 174239" d="M361.408,1411.354l-14.818-3.694-2.237,5.892,16.356,2.923a2.591,2.591,0,0,0,.7-5.121Z" transform="translate(-335.456 -1376.953)" fill="#213c53"/>
        <path id="Trazado_174240" data-name="Trazado 174240" d="M364.048,1355.246c-.044.105-.925,3-1.326,4.11-.345.955-.695,1.908-1.073,2.85a31.888,31.888,0,0,1-2.918-1.36c-.923-.473-1.837-.965-2.745-1.468a13.071,13.071,0,0,0-2.515-1.357,2.1,2.1,0,0,0-2.53,2.667c.292.856,1.022,1.183,1.783,1.549q1.576.76,3.173,1.473a25.9,25.9,0,0,0,5.755,2.122,2.171,2.171,0,0,0,2.749-1.572,53.647,53.647,0,0,0,1.277-5.783c.14-.718.625-2.885.623-3.027C365.6,1355.423,364.751,1355.329,364.048,1355.246Z" transform="translate(-339.006 -1348.241)" fill="#6677d6"/>
        <path id="Trazado_174241" data-name="Trazado 174241" d="M370.107,1465.824c-.406.02-1.342-1.341-1.638-1.79l-2.549-.274c-.225.8-.539,2.565-.187,2.6,3.8.333,2.263,1.937,5.423,1.042C371.471,1467.307,372.456,1465.707,370.107,1465.824Z" transform="translate(-347.082 -1407.685)" fill="#00003a"/>
        <path id="Trazado_174242" data-name="Trazado 174242" d="M361.451,1429.458c-.078-2.2,4.626-3.755,5.151-.253.553,3.69.206,11.779.1,14.924-.04,1.282-2.886,1.74-3.281,1C362.862,1444.069,361.59,1433.405,361.451,1429.458Z" transform="translate(-344.823 -1387.625)" fill="#214f64"/>
        <path id="Trazado_174243" data-name="Trazado 174243" d="M338.855,1412.541l11.493,8.523a2.582,2.582,0,0,0,2.985-4.2l-10.865-9.207Z" transform="translate(-332.445 -1376.953)" fill="#214f64"/>
        <path id="Trazado_174244" data-name="Trazado 174244" d="M336.205,1403.259c-.442,2.879.686,4.167,2.323,4.63,2.977.844,6.813-1.656,6.813-1.656l1.852-2.593.171-3.035-9.278-2.461A36.834,36.834,0,0,0,336.205,1403.259Z" transform="translate(-330.941 -1371.741)" fill="#214f64"/>
        <path id="Trazado_174245" data-name="Trazado 174245" d="M340.85,1359.94c3.222.088,6.15,1.017,6.125,3.307s.982,14.738,1.146,19.615a13.26,13.26,0,0,1-2.893,1.147l-1.192-3.184-1.266,3.442c-5.772.324-8.2-1.231-8.2-1.231l1.159-6.1s-1.221-12.336-1.156-13.83C334.663,1361.031,337.627,1359.85,340.85,1359.94Z" transform="translate(-330.098 -1350.809)" fill="#6677d6"/>
        <path id="Trazado_174246" data-name="Trazado 174246" d="M324.9,1383.212q1.146.039,2.293.1c.29-3,.509-6.02.914-9.005,0,.018,0,.036-.005.054a20.651,20.651,0,0,1,4.168-8.171,2.075,2.075,0,0,0-3.051-2.8,9.33,9.33,0,0,0-1.275,1.831,26.865,26.865,0,0,0-1.3,2.359,18.078,18.078,0,0,0-1.84,5.638,36.239,36.239,0,0,0-.073,5.159C324.771,1379.989,324.831,1381.6,324.9,1383.212Z" transform="translate(-324.68 -1352.391)" fill="#6677d6"/>
        <path id="Trazado_174247" data-name="Trazado 174247" d="M343.883,1359.942l3.7,11.167.927-11.114A11.515,11.515,0,0,0,343.883,1359.942Z" transform="translate(-335.2 -1350.689)" fill="#f7eacf"/>
        <path id="Trazado_174248" data-name="Trazado 174248" d="M346.627,1354.516l2.426.082.426,1.882c-.2.24-.437.468-.688.712l-.414.016a7.236,7.236,0,0,0-1.7-.663Z" transform="translate(-336.703 -1347.841)" fill="#fca38b"/>
        <path id="Trazado_174249" data-name="Trazado 174249" d="M348.646,1355.936a2.868,2.868,0,0,0,1.03-.089l-.261-1.15-2.127.167S347.469,1355.608,348.646,1355.936Z" transform="translate(-337.065 -1347.94)" fill="#f78376"/>
        <path id="Trazado_174250" data-name="Trazado 174250" d="M349.245,1345.281l.207,2.77c.023,1.286-.6,2.372-1.827,2.394a2.627,2.627,0,0,1-2.623-2.314l-.046-2.536Z" transform="translate(-335.787 -1342.782)" fill="#fcad95"/>
        <path id="Trazado_174251" data-name="Trazado 174251" d="M342.914,1344.638c.463.1.806-1.036,1.117-1.594s.737,0,1.374,0,1.647-.845,2.221.723c.272-1.31.874-1.965.046-3.281-.636-1.01-1.939-.847-3.641-.271-.711.24-1.171-.288-1.91.776C341.4,1342.03,341.97,1344.438,342.914,1344.638Z" transform="translate(-334.056 -1339.755)" fill="#213c53"/>
        <path id="Trazado_174252" data-name="Trazado 174252" d="M345.064,1349.377a.621.621,0,1,1-.9-.381A.7.7,0,0,1,345.064,1349.377Z" transform="translate(-335.202 -1344.784)" fill="#fcad95"/>
        <path id="Trazado_174253" data-name="Trazado 174253" d="M348.942,1362.57l-.256,6.167,1.532,3.852.5-3.506-.965-6.666Z" transform="translate(-337.831 -1352.169)" fill="#c6412a"/>
        <path id="Trazado_174254" data-name="Trazado 174254" d="M348.821,1360.493s-.252.8-.085.978.972.271,1.126.086.2-1-.053-1.114S349.046,1360.173,348.821,1360.493Z" transform="translate(-337.827 -1351.011)" fill="#dd6441"/>
        <path id="Trazado_174255" data-name="Trazado 174255" d="M344.959,1357.943l-.85.84,2.273,1.115.577-.862Z" transform="translate(-335.323 -1349.718)" fill="#f7eacf"/>
        <path id="Trazado_174256" data-name="Trazado 174256" d="M351.713,1358.5l-1.3.839.371.937,1.466-.936Z" transform="translate(-338.776 -1350.026)" fill="#f7eacf"/>
        <path id="Trazado_174257" data-name="Trazado 174257" d="M342.942,1359.366c-.517.19-1.324.442-1.324.442l.065,4.241,1.1-.184-.549,1.222a33.537,33.537,0,0,0,4.114,5.831C345.272,1367.323,342.942,1359.366,342.942,1359.366Z" transform="translate(-333.959 -1350.498)" fill="#4e2e8e"/>
        <path id="Trazado_174258" data-name="Trazado 174258" d="M353.014,1359.87l-.941,11.324,2.148-5.383-1.045-1.452,1.19-.334.306-3.314S353.5,1360.12,353.014,1359.87Z" transform="translate(-339.686 -1350.774)" fill="#4e2e8e"/>
      </g>
    </g>
    <g id="Grupo_116504" data-name="Grupo 116504" transform="translate(2555.818 -9455.189)">
      <g id="Grupo_116495" data-name="Grupo 116495" transform="translate(0 42.875)">
        <path id="Trazado_174259" data-name="Trazado 174259" d="M559.958,1448.851s.072-1.468-.332-1.584a7.555,7.555,0,0,0-2.527.881c-.49.248-6.045-.222-11.578.01-5.909.248-11.031,1.166-11.539.96a7.576,7.576,0,0,0-2.591-.667c-.393.149-.2,1.607-.2,1.607a63.171,63.171,0,0,0-.321,9c.312,2.683,1.627,7.849,1.627,7.849s-.737,1.472.078,1.852,2.552-1.09,2.552-1.09,9.641-.6,11.184-.669,11.2-.27,11.2-.27,1.853,1.321,2.633.872-.077-1.852-.077-1.852.878-5.257.965-7.958A63.2,63.2,0,0,0,559.958,1448.851Z" transform="translate(-530.783 -1447.254)" fill="#c8e8de"/>
        <path id="Trazado_174260" data-name="Trazado 174260" d="M559.958,1448.851s.072-1.468-.332-1.584a2.2,2.2,0,0,0-.968.2,63.571,63.571,0,0,1,.95,8.58c-.069,2.7-.849,7.953-.849,7.953s.786,1.406.078,1.852-2.4-.882-2.4-.882-8.8.169-10.2.227-10.184.627-10.184.627-1.575,1.465-2.319,1.081-.078-1.853-.078-1.853-1.217-5.169-1.511-7.853a63.422,63.422,0,0,1,.228-8.629,2.185,2.185,0,0,0-.981-.123c-.393.149-.2,1.607-.2,1.607a63.173,63.173,0,0,0-.321,9c.312,2.683,1.627,7.848,1.627,7.848s-.737,1.472.078,1.852,2.552-1.09,2.552-1.09,9.641-.6,11.184-.669,11.2-.27,11.2-.27,1.853,1.321,2.633.872-.077-1.852-.077-1.852.878-5.257.965-7.958A63.194,63.194,0,0,0,559.958,1448.851Z" transform="translate(-530.783 -1447.254)" fill="#a6cfc9"/>
        <path id="Trazado_174261" data-name="Trazado 174261" d="M561.236,1469.858a.294.294,0,0,1-.281-.208c-1.674-5.516-7.263-7.5-9.707-7.6a.293.293,0,0,1-.281-.305.3.3,0,0,1,.3-.281,11.893,11.893,0,0,1,10.245,8.018.293.293,0,0,1-.2.366A.3.3,0,0,1,561.236,1469.858Z" transform="translate(-541.839 -1455.037)" fill="#a6cfc9"/>
        <path id="Trazado_174262" data-name="Trazado 174262" d="M564.429,1463.06a.294.294,0,0,1-.2-.509c.127-.117,3.13-2.868,6.267-3.374a.293.293,0,1,1,.094.579c-2.964.479-5.932,3.2-5.962,3.226A.293.293,0,0,1,564.429,1463.06Z" transform="translate(-549.054 -1453.784)" fill="#a6cfc9"/>
      </g>
      <g id="Grupo_116496" data-name="Grupo 116496" transform="translate(26.506 28.511)">
        <path id="Trazado_174263" data-name="Trazado 174263" d="M624.782,1417.546c-4.139-.355-7.349,1.965-9.479,5.588-1.482-3.933-4.251-6.764-8.389-7.119-5.954-.511-11.238,4.405-11.8,10.981-.761,8.888,6.463,21.2,15.57,27.58,9.939-4.077,23.1-15.314,23.859-24.2C635.105,1423.8,630.735,1418.057,624.782,1417.546Z" transform="translate(-592.499 -1415.758)" fill="#cc2338"/>
        <rect id="Rectángulo_42691" data-name="Rectángulo 42691" width="1.3" height="2.772" transform="translate(29.447 2.85) rotate(-85.102)" fill="#cc2338"/>
        <rect id="Rectángulo_42692" data-name="Rectángulo 42692" width="1.3" height="2.773" transform="matrix(0.085, -0.996, 0.996, 0.085, 11.542, 1.315)" fill="#cc2338"/>
        <path id="Trazado_174264" data-name="Trazado 174264" d="M619.109,1417.058c-4.138-.355-7.349,1.965-9.478,5.588-1.481-3.932-4.251-6.765-8.389-7.119-5.955-.51-11.238,4.406-11.8,10.981-.762,8.888,9.035,21.425,18.141,27.8,10.06-4.732,20.525-15.534,21.286-24.422C629.432,1423.312,625.062,1417.569,619.109,1417.058Z" transform="translate(-589.399 -1415.49)" fill="#fb4439"/>
        <path id="Trazado_174265" data-name="Trazado 174265" d="M619.008,1449.6l-1.586-1.386a.491.491,0,0,0-.416-.115.5.5,0,0,0-.35.253l-1.794,3.319-.889-14.045a.5.5,0,0,0-.985-.069l-3.715,18.042-2.534-8.485a.5.5,0,0,0-.9-.119l-2.021,3.275-.782-1.779a.5.5,0,0,0-.414-.3l-8.658-.742q.24.52.506,1.043l7.773.666,1.046,2.375a.5.5,0,0,0,.88.061l1.934-3.136,2.781,9.315a.5.5,0,0,0,.5.355.525.525,0,0,0,.075-.009.5.5,0,0,0,.39-.387l3.366-16.34.765,12.068a.5.5,0,0,0,.935.206l2.322-4.3,1.239,1.083a.505.505,0,0,0,.285.121l10.712.918q.368-.467.712-.937Z" transform="translate(-591.9 -1427.359)" fill="#fff"/>
      </g>
      <g id="Grupo_116497" data-name="Grupo 116497" transform="translate(5.919 23.814)">
        <rect id="Rectángulo_42693" data-name="Rectángulo 42693" width="2.179" height="6.711" transform="translate(2.266)" fill="#c8e8de"/>
        <rect id="Rectángulo_42694" data-name="Rectángulo 42694" width="6.711" height="2.178" transform="translate(0 2.266)" fill="#c8e8de"/>
      </g>
      <g id="Grupo_116498" data-name="Grupo 116498" transform="translate(40.451 10.741)">
        <rect id="Rectángulo_42695" data-name="Rectángulo 42695" width="2.949" height="9.086" transform="translate(3.068)" fill="#c8e8de"/>
        <rect id="Rectángulo_42696" data-name="Rectángulo 42696" width="9.086" height="2.949" transform="translate(0 3.068)" fill="#c8e8de"/>
      </g>
      <g id="Grupo_116499" data-name="Grupo 116499" transform="translate(53.362 19.81)">
        <rect id="Rectángulo_42697" data-name="Rectángulo 42697" width="1.476" height="4.548" transform="translate(1.537)" fill="#c8e8de"/>
        <rect id="Rectángulo_42698" data-name="Rectángulo 42698" width="4.549" height="1.476" transform="translate(0 1.536)" fill="#c8e8de"/>
      </g>
      <g id="Grupo_116503" data-name="Grupo 116503" transform="translate(6.783 0)">
        <g id="Grupo_116500" data-name="Grupo 116500" transform="translate(12.638 59.818)">
          <path id="Trazado_174266" data-name="Trazado 174266" d="M576.032,1487.5c.752,0,1.014-.377,1.663-.522.449-.1.858.085,1.169-.293.34-.415-.129-1.651-.129-1.651l-1.63.129a3.514,3.514,0,0,1-2.124,1.309,1.681,1.681,0,0,0-1.25.732C573.779,1487.481,575.211,1487.5,576.032,1487.5Z" transform="translate(-573.73 -1484.895)" fill="#214f64"/>
          <path id="Trazado_174267" data-name="Trazado 174267" d="M582.822,1487.995l.139.981h.505l.378-1.249Z" transform="translate(-578.711 -1486.369)" fill="#214f64"/>
          <path id="Trazado_174268" data-name="Trazado 174268" d="M580.282,1484.972a1.645,1.645,0,0,1-.025-.25l-1.641.084a18.641,18.641,0,0,1-2.121,1.5c.222.243.84.136,1.588-.03C578.935,1485.678,579.8,1484.965,580.282,1484.972Z" transform="translate(-575.245 -1484.723)" fill="#fca887"/>
        </g>
        <g id="Grupo_116501" data-name="Grupo 116501" transform="translate(21.733 58.907)">
          <path id="Trazado_174269" data-name="Trazado 174269" d="M596.394,1486.212c.818-.135,1.032-.59,1.714-.866.469-.19.945-.061,1.217-.528.3-.51-.437-1.769-.437-1.769l-1.748.43a3.865,3.865,0,0,1-2.074,1.8,1.848,1.848,0,0,0-1.224,1.017C593.946,1486.591,595.5,1486.358,596.394,1486.212Z" transform="translate(-593.843 -1482.894)" fill="#214f64"/>
          <path id="Trazado_174270" data-name="Trazado 174270" d="M603.443,1486.394l.327,1.042.547-.092.188-1.423Z" transform="translate(-599.102 -1484.467)" fill="#214f64"/>
          <path id="Trazado_174271" data-name="Trazado 174271" d="M600.426,1482.972a1.885,1.885,0,0,1-.072-.265l-1.767.385a20.368,20.368,0,0,1-2.037,2c.286.222.94,0,1.721-.316C599.088,1483.982,599.9,1483.052,600.426,1482.972Z" transform="translate(-595.326 -1482.707)" fill="#fca887"/>
        </g>
        <path id="Trazado_174272" data-name="Trazado 174272" d="M580.556,1449.677a2.5,2.5,0,0,1,3.26.516,1.868,1.868,0,0,1,.455,1.376c-.162,1.388-1.547,11.507-1.807,13.817l-2.933.118c-.005-1.533,0-12.424,0-14.135A1.936,1.936,0,0,1,580.556,1449.677Z" transform="translate(-564.269 -1405.494)" fill="#2b6d87"/>
        <path id="Trazado_174273" data-name="Trazado 174273" d="M579.053,1420.354l6.366.991s-1.326,13.8-1.454,14.513a2.438,2.438,0,0,1-4.7-.177C578.847,1429.712,579.053,1420.354,579.053,1420.354Z" transform="translate(-563.981 -1389.643)" fill="#2b6d87"/>
        <path id="Trazado_174274" data-name="Trazado 174274" d="M591.549,1451.307a2.442,2.442,0,0,1,3.242-.28,1.883,1.883,0,0,1,.765,1.227c.176,1.385,1.723,10.693,2.025,13l-2.828.845c-.371-1.485-3.221-11.09-3.636-12.75A2.152,2.152,0,0,1,591.549,1451.307Z" transform="translate(-570.57 -1406.179)" fill="#37a0ab"/>
        <path id="Trazado_174275" data-name="Trazado 174275" d="M587.2,1419.208s5.67-1.278,6.542.744c.161,4.392-.045,11.649-.239,15.335a2.354,2.354,0,0,1-2.592,1.871,2.067,2.067,0,0,1-1.987-1.667C588.483,1431.4,587.2,1419.208,587.2,1419.208Z" transform="translate(-568.473 -1388.797)" fill="#37a0ab"/>
        <path id="Trazado_174276" data-name="Trazado 174276" d="M583.114,1414.945l-4-2.062.955-6.167,8.339.269a15.732,15.732,0,0,1,.939,6.3C589.235,1414.9,583.114,1414.945,583.114,1414.945Z" transform="translate(-564.041 -1382.173)" fill="#37a0ab"/>
        <path id="Trazado_174277" data-name="Trazado 174277" d="M592.563,1356.832c-.261-.89.479-2.847-1.682-3.969s-4.732.187-4.855,1.631c-.159,1.843-1.425,2.22-1.354,3.858.052,1.165,1.026,1.7.908,2.606s-1.04,2.393-.193,4.206,1.651,2.289,1.755,3.239,1.068,3.3,2.978,3.418,2.313-1.1,3.752-1.218,3.835-1.126,3.284-3.475-2.125-1.875-2.214-3.39,1.516-2.012.832-3.815S593.186,1358.961,592.563,1356.832Z" transform="translate(-567.085 -1352.441)" fill="#213c53"/>
        <path id="Trazado_174278" data-name="Trazado 174278" d="M553.348,1374.515c.853-.7,2.664.725,3.433,1.1a11.9,11.9,0,0,0,3.364,1.44,47.1,47.1,0,0,0,6.115-3.857,1.823,1.823,0,0,1,2.712.881c.56,1.551-.972,2.294-2.064,2.931a45.531,45.531,0,0,1-4.705,2.47,3.7,3.7,0,0,1-2.486.447c-1.53-.427-2.54-2.036-3.822-2.936C555.211,1376.51,552.017,1375.612,553.348,1374.515Z" transform="translate(-549.751 -1363.644)" fill="#6677d6"/>
        <g id="Grupo_116502" data-name="Grupo 116502" transform="translate(0 2.814)">
          <rect id="Rectángulo_42699" data-name="Rectángulo 42699" width="5.132" height="15.814" transform="translate(5.341)" fill="#37a0ab"/>
          <rect id="Rectángulo_42700" data-name="Rectángulo 42700" width="15.814" height="5.133" transform="translate(0 5.34)" fill="#37a0ab"/>
        </g>
        <path id="Trazado_174279" data-name="Trazado 174279" d="M569.976,1382.247c.163.114,1.233,1.841.421,2.309s-1.928-.568-2.177-.773C567.544,1383.227,568.472,1381.2,569.976,1382.247Z" transform="translate(-557.95 -1368.607)" fill="#fca38b"/>
        <path id="Trazado_174280" data-name="Trazado 174280" d="M586.142,1372.122c-2.73-.149-3.22.141-3.374.264,0,0-.368.823-1.51,3.62a6.613,6.613,0,0,0-.324,3.919c.16,1.759-.281,8.155-.158,8.709.334.688,7.946.49,8.922,0a36.767,36.767,0,0,1-.781-6.385c.251-.836.506-1.629.854-2.667.921-2.751,1.816-4.895,1.764-5.512A13.885,13.885,0,0,0,586.142,1372.122Z" transform="translate(-564.939 -1363.199)" fill="#4e2e8e"/>
        <path id="Trazado_174281" data-name="Trazado 174281" d="M588.66,1371.989c.442.016,1,.043,1.735.083a7.134,7.134,0,0,1,2.014.443,4.3,4.3,0,0,1-3.257,1.146C588.393,1373.52,588.435,1372.669,588.66,1371.989Z" transform="translate(-569.192 -1363.149)" fill="#f7eacf"/>
        <path id="Trazado_174282" data-name="Trazado 174282" d="M592.388,1369.6c-.408.39-1.967.321-2.251-.166l.552-2.435,1.63.206Z" transform="translate(-570.08 -1360.418)" fill="#fca38b"/>
        <path id="Trazado_174283" data-name="Trazado 174283" d="M591.513,1368.129a1.453,1.453,0,0,1-.7-.033l.247-1.093,1.63.206A1.848,1.848,0,0,1,591.513,1368.129Z" transform="translate(-570.449 -1360.418)" fill="#f78376"/>
        <path id="Trazado_174284" data-name="Trazado 174284" d="M588.86,1357.476l-.353,2.73c-.094,1.272.458,2.382,1.674,2.47a2.6,2.6,0,0,0,2.724-2.146l.184-2.507Z" transform="translate(-569.182 -1355.199)" fill="#fcad95"/>
        <path id="Trazado_174285" data-name="Trazado 174285" d="M595.634,1359.522s-1.918-.228-2.477-1.32a3.708,3.708,0,0,1-.532-1.6l3.116-.139Z" transform="translate(-571.442 -1354.641)" fill="#213c53"/>
        <path id="Trazado_174286" data-name="Trazado 174286" d="M588.283,1358.395a3.993,3.993,0,0,0,2.238-1.819c.475-1.233-1.7-.559-1.7-.559Z" transform="translate(-569.064 -1354.299)" fill="#213c53"/>
        <path id="Trazado_174287" data-name="Trazado 174287" d="M596.786,1362.743a.615.615,0,1,0,.909-.329A.692.692,0,0,0,596.786,1362.743Z" transform="translate(-573.647 -1357.863)" fill="#fcad95"/>
        <path id="Trazado_174288" data-name="Trazado 174288" d="M572.545,1379.637c.142.107,2.311,1.452,3.309,1.945.841.417,2.361,1.325,3.346,1.021.674-.208,1.338-1.2,1.732-1.729,1.046-1.4,1.934-2.917,2.863-4.4a1.809,1.809,0,0,1,3.182,1.68,19.8,19.8,0,0,1-3.276,4.492c-1.348,1.549-3.09,3.18-5.3,2.787-2.184-.388-4.164-1.853-5.888-3.168-.342-.265-.778-.558-1.2-.875C571.736,1380.816,572.152,1380.232,572.545,1379.637Z" transform="translate(-559.77 -1365.156)" fill="#6677d6"/>
      </g>
    </g>
    <path id="Trazado_174289" data-name="Trazado 174289" d="M169.191,1539.118a2.827,2.827,0,0,0,.138-1.295c-.222-2.2-2.4-1.961-3.522-2.424a19.514,19.514,0,0,1-4.822-3.519c-2-1.72-3.212-.71-4.993,1.224-2,2.171-3.6,1.5-5.724.426-1.852-.937-3.714-1.591-5.354.578-1.319,1.746-3.063,1.188-3.961,2.492-.26.377-1.761,4.127,8.15,2.414a18.9,18.9,0,0,1,8.2.75C164.652,1541.816,168.569,1540.762,169.191,1539.118Z" transform="translate(2238.711 -10905.444)" fill="#c8e8de"/>
    <path id="Trazado_174290" data-name="Trazado 174290" d="M413.713,1372.47a2.825,2.825,0,0,1-.138-1.294c.222-2.2,2.4-1.961,3.522-2.425a19.5,19.5,0,0,0,4.822-3.52c2-1.72,3.212-.71,4.992,1.224,2,2.172,3.6,1.505,5.724.427,1.852-.937,3.714-1.592,5.354.578,1.32,1.746,3.064,1.188,3.961,2.492.261.378,1.762,4.128-8.15,2.414a18.909,18.909,0,0,0-8.2.75C418.251,1375.167,414.335,1374.114,413.713,1372.47Z" transform="translate(2089.252 -10814.154)" fill="#6677d6"/>
    <g id="Grupo_116513" data-name="Grupo 116513" transform="translate(2385.611 -9392.923)">
      <path id="Trazado_174291" data-name="Trazado 174291" d="M438.831,1642.777c0,1.165-63.676,2.109-142.222,2.109s-142.222-.944-142.222-2.109,63.676-2.108,142.222-2.108S438.831,1641.612,438.831,1642.777Z" transform="translate(-154.387 -1572.599)" fill="#c8e8de"/>
      <g id="Grupo_116512" data-name="Grupo 116512" transform="translate(41.628)">
        <g id="Grupo_116507" data-name="Grupo 116507" transform="translate(39.196 16.714)">
          <path id="Trazado_174292" data-name="Trazado 174292" d="M455.615,1531.277l-60.909,7.246-61.585-7.63.007-3.794,122.493.383Z" transform="translate(-333.122 -1527.099)" fill="#6677d6"/>
          <g id="Grupo_116505" data-name="Grupo 116505" transform="translate(66.732 1.253)">
            <path id="Trazado_174293" data-name="Trazado 174293" d="M535.873,1530.624l-55.159,2.83-.022-.753,55.16-2.829Z" transform="translate(-480.693 -1529.871)" fill="#4e2e8e"/>
          </g>
          <g id="Grupo_116506" data-name="Grupo 116506" transform="translate(1.267 1.994)">
            <path id="Trazado_174294" data-name="Trazado 174294" d="M390.989,1534.314l-55.066-2.051.015-.754L391,1533.562Z" transform="translate(-335.923 -1531.508)" fill="#4e2e8e"/>
          </g>
        </g>
        <g id="Grupo_116510" data-name="Grupo 116510">
          <g id="Grupo_116508" data-name="Grupo 116508" transform="translate(124.357)">
            <path id="Trazado_174295" data-name="Trazado 174295" d="M604.616,1516.728a5.41,5.41,0,1,1-10.821,0v-4.367a5.41,5.41,0,1,1,10.821,0Z" transform="translate(-561.079 -1499.348)" fill="#213c53"/>
            <path id="Trazado_174296" data-name="Trazado 174296" d="M598.38,1492.455c0,6.2-14.529,11.219-17.078,11.219H542.7c-2.546,0-17.076-5.024-17.076-11.219Z" transform="translate(-523.735 -1491.407)" fill="#4e2e8e"/>
            <path id="Trazado_174297" data-name="Trazado 174297" d="M597.98,1491.905a2,2,0,0,1-2.167,1.767h-72.2a1.8,1.8,0,1,1,0-3.534h72.2A2,2,0,0,1,597.98,1491.905Z" transform="translate(-521.447 -1490.138)" fill="#214f64"/>
          </g>
          <g id="Grupo_116509" data-name="Grupo 116509" transform="translate(0 0.478)">
            <path id="Trazado_174298" data-name="Trazado 174298" d="M329.925,1515.671a5.411,5.411,0,0,1-10.821,0V1511.3a5.411,5.411,0,1,1,10.821,0Z" transform="translate(-286.247 -1499.246)" fill="#213c53"/>
            <path id="Trazado_174299" data-name="Trazado 174299" d="M323.379,1492.028c0,6.194-14.53,11.218-17.077,11.218H267.7c-2.545,0-17.075-5.024-17.075-11.218Z" transform="translate(-248.733 -1491.651)" fill="#4e2e8e"/>
            <path id="Trazado_174300" data-name="Trazado 174300" d="M322.978,1492.963a2,2,0,0,1-2.167,1.767h-72.2a1.8,1.8,0,1,1,0-3.535h72.2A2,2,0,0,1,322.978,1492.963Z" transform="translate(-246.444 -1491.195)" fill="#214f64"/>
          </g>
        </g>
        <path id="Trazado_174301" data-name="Trazado 174301" d="M466.065,1563.026c0,5.311-5.3,9.615-11.837,9.615s-11.838-4.3-11.838-9.615v-39.187c0-5.311,5.3-9.616,11.838-9.616s11.837,4.3,11.837,9.616Z" transform="translate(-353.784 -1503.331)" fill="#4e2e8e"/>
        <g id="Grupo_116511" data-name="Grupo 116511" transform="translate(99.249 23.86)">
          <rect id="Rectángulo_42701" data-name="Rectángulo 42701" width="2.393" height="38.756" fill="#2b6d87"/>
        </g>
        <path id="Trazado_174302" data-name="Trazado 174302" d="M386.071,1631.06c1.035-2.882,4.334-10.222,11.54-11.78h51.828c7.2,1.558,10.506,8.9,11.541,11.78Z" transform="translate(-322.932 -1560.882)" fill="#213c53"/>
        <path id="Trazado_174303" data-name="Trazado 174303" d="M467.775,1534.935a3.751,3.751,0,1,1-3.751-3.752A3.751,3.751,0,0,1,467.775,1534.935Z" transform="translate(-363.579 -1512.622)" fill="#c8e8de"/>
      </g>
    </g>
    <g id="Grupo_116516" data-name="Grupo 116516" transform="translate(2608.667 -9385.411)">
      <path id="Trazado_174304" data-name="Trazado 174304" d="M650.963,1534.886a9.643,9.643,0,0,0-.453-2.785c-.406-.876-1.35-.739-1.949-.224s-1.263,1.469-.686,2.211c.314.4,1.213,1.275,1.213,1.275Z" transform="translate(-647.653 -1520.29)" fill="#fca38b"/>
      <path id="Trazado_174305" data-name="Trazado 174305" d="M652.1,1534.277c.334.209,3.513,2.295,4.751,3.032.138.081.276.162.418.241.179.1.165.053.32-.048.1-.067.2-.137.3-.206.221-.152.436-.306.653-.461,1.191-.856,2.358-1.744,3.519-2.639.882-.68,1.8-1.69,3.022-1.317a1.938,1.938,0,0,1,1.275,2.4,2.082,2.082,0,0,1-.929,1.14q-.952.627-1.912,1.243c-1.13.724-2.261,1.447-3.416,2.129-.528.312-1.059.615-1.606.891-1.111.559-1.976.051-2.906-.609-1.182-.842-4.342-3.594-4.761-3.976Z" transform="translate(-649.391 -1521.02)" fill="#fca38b"/>
      <path id="Trazado_174306" data-name="Trazado 174306" d="M674.464,1528.617c1.547-.711,3.71,3.673,1.543,5.526s-4.518,3.495-4.518,3.495l-2.31-4.531A17.129,17.129,0,0,1,674.464,1528.617Z" transform="translate(-659.445 -1518.686)" fill="#4e2e8e"/>
      <path id="Trazado_174307" data-name="Trazado 174307" d="M668.675,1617.311l-2.9,8.714,2.453.848,4.117-9.562Z" transform="translate(-657.578 -1567.315)" fill="#fca38b"/>
      <path id="Trazado_174308" data-name="Trazado 174308" d="M658.479,1635.286a11.631,11.631,0,0,0,2.885-.462l2.508,1.177c-.171.859-.586,2.578-1.058,2.416-1.221-.424-3.981-1.38-5.547-1.922C656.937,1636.384,657.176,1634.868,658.479,1635.286Z" transform="translate(-652.847 -1576.909)" fill="#213c53"/>
      <path id="Trazado_174309" data-name="Trazado 174309" d="M725.662,1591.9l9.092-2.59-.984-2.4-9.1,1.841Z" transform="translate(-689.845 -1550.66)" fill="#fca38b"/>
      <path id="Trazado_174310" data-name="Trazado 174310" d="M674.683,1601.724c.969-2.118-4.118-4.184-4.824-1.813-1.095,3.665-3.187,10.517-4.123,13.469-.382,1.2,3.16,1.982,3.769,1.422C670.373,1614,673.047,1605.3,674.683,1601.724Z" transform="translate(-657.543 -1557.205)" fill="#4e2e8e"/>
      <path id="Trazado_174311" data-name="Trazado 174311" d="M675.132,1583.619l5.537-13.1,7.07,2.971-8.514,13.159a2.552,2.552,0,0,1-4.093-3.029Z" transform="translate(-662.488 -1541.682)" fill="#4e2e8e"/>
      <path id="Trazado_174312" data-name="Trazado 174312" d="M746.727,1588.7c-.174-.36-1.68-.58-2.206-.626l-.85-2.5c.582-.571,1.9-1.311,2.106-1.03.739,1.018,2.251,1.932,2.806,4.323C748.655,1589.177,747.735,1590.784,746.727,1588.7Z" transform="translate(-700.251 -1549.328)" fill="#213c53"/>
      <path id="Trazado_174313" data-name="Trazado 174313" d="M708.813,1589.833c-2.076.624-2.037,5.5,1.4,4.884a82.682,82.682,0,0,0,11.889-3.361c1.184-.444.036-4.678-.762-4.458C720.188,1587.214,712.536,1588.713,708.813,1589.833Z" transform="translate(-680.387 -1550.65)" fill="#4e2e8e"/>
      <path id="Trazado_174314" data-name="Trazado 174314" d="M699.633,1564.057l4.5,14.99a2.543,2.543,0,0,1-4.786,1.682l-6.449-14.792Z" transform="translate(-672.439 -1538.142)" fill="#4e2e8e"/>
      <path id="Trazado_174315" data-name="Trazado 174315" d="M695.975,1564.53l-5.335,3.955-6.072-1.6-.343-5.711,8.549-2.9A18.01,18.01,0,0,1,695.975,1564.53Z" transform="translate(-667.687 -1534.973)" fill="#4e2e8e"/>
      <g id="Grupo_116514" data-name="Grupo 116514" transform="translate(25.136 27.476)">
        <path id="Trazado_174316" data-name="Trazado 174316" d="M707.948,1580.632l-.038-.144c-.568-2.146-4.63-12.781-4.67-12.888l.231-.089c.04.105,3.947,10.337,4.641,12.776,1.832-.721,11.507-2.51,11.929-2.588l.044.243c-.106.02-10.612,1.963-12,2.626Z" transform="translate(-703.239 -1567.511)" fill="#effaf6"/>
      </g>
      <path id="Trazado_174317" data-name="Trazado 174317" d="M683.132,1524.891c-3.1.683-5.769,2.126-5.319,4.341s2.039,14.716,2.4,16.883c5.539,2.476,12.665-2.232,12.665-2.232l-1.629-3.471s-1.1-12.178-1.444-13.613C689.33,1524.8,686.24,1524.2,683.132,1524.891Z" transform="translate(-664.148 -1516.537)" fill="#6677d6"/>
      <path id="Trazado_174318" data-name="Trazado 174318" d="M714.29,1551.791a7.856,7.856,0,0,0-2.4,1.7c-.53.806,1.224,1.445,1.978,1.683s1.817-2.041,1.817-2.041Z" transform="translate(-682.787 -1531.423)" fill="#fca38b"/>
      <path id="Trazado_174319" data-name="Trazado 174319" d="M705.7,1539.092c0-.395.1-4.2.074-5.636,0-.161-.008-.321-.014-.482-.009-.206-.042-.168-.21-.248-.109-.049-.222-.1-.333-.146-.244-.107-.489-.209-.735-.312-1.353-.561-2.724-1.085-4.1-1.6-1.043-.392-2.383-.636-2.711-1.874a1.938,1.938,0,0,1,1.365-2.346,2.086,2.086,0,0,1,1.458.189q1.034.48,2.064.971c1.21.578,2.421,1.161,3.609,1.782.544.285,1.081.575,1.6.9,1.059.65,1.083,1.653,1.012,2.79-.092,1.449-.767,5.584-.871,6.142Z" transform="translate(-675.021 -1517.507)" fill="#fca38b"/>
      <g id="Grupo_116515" data-name="Grupo 116515" transform="translate(14.119 0)">
        <path id="Trazado_174320" data-name="Trazado 174320" d="M687.625,1521.24l-2.213.5-.059,1.8c.227.185.483.353.758.534l.381-.059a6.69,6.69,0,0,1,1.441-.907Z" transform="translate(-682.424 -1514.687)" fill="#fca38b"/>
        <path id="Trazado_174321" data-name="Trazado 174321" d="M686.364,1523.083a2.7,2.7,0,0,1-.962.1l.037-1.1,1.981-.22S687.386,1522.575,686.364,1523.083Z" transform="translate(-682.451 -1515.027)" fill="#f78376"/>
        <path id="Trazado_174322" data-name="Trazado 174322" d="M681.582,1513.573l.3,2.579c.2,1.183.966,2.071,2.1,1.876a2.453,2.453,0,0,0,2-2.584l-.4-2.334Z" transform="translate(-680.358 -1510.233)" fill="#fcad95"/>
        <path id="Trazado_174323" data-name="Trazado 174323" d="M684.162,1511.93c.063.123.154.166.225.27.29.447.671-.322.852-.714.344-.746-.011-1.154-.217-1.86-.083-.287.259-1.006.218-1.3a2.021,2.021,0,0,0-.64-1.146,1.144,1.144,0,0,0-1.081-.4c-.3.1-.461.379-.711.542-.185.119-.416-.046-.6-.114a5.77,5.77,0,0,0-.684-.231,1.037,1.037,0,0,0-1.19.259c-.189.287-.1.644-.457.818-.314.148-.669.105-.89.418a.661.661,0,0,0,.151.877c.091.092.563.329.637.427.1.133,1.02.371,1.362.661.138.118,1.47-.36,1.81-.373a1.2,1.2,0,0,1,1,.6C684.168,1511.056,683.955,1511.532,684.162,1511.93Z" transform="translate(-678.876 -1506.749)" fill="#5c1837"/>
        <path id="Trazado_174324" data-name="Trazado 174324" d="M689.642,1516.347a.58.58,0,1,0,.756-.507A.653.653,0,0,0,689.642,1516.347Z" transform="translate(-684.75 -1511.717)" fill="#fcad95"/>
      </g>
      <path id="Trazado_174325" data-name="Trazado 174325" d="M695.692,1527.28c-.1-1.7.808-2.658,3.524-1.793a18.524,18.524,0,0,1,4.14,1.793l-1.515,4.852S695.9,1530.831,695.692,1527.28Z" transform="translate(-673.964 -1516.836)" fill="#4e2e8e"/>
      <path id="Trazado_174326" data-name="Trazado 174326" d="M686.329,1512.284l-5.265.612-.2-.949,5.389-.486Z" transform="translate(-665.847 -1509.33)" fill="#37a0ab"/>
      <path id="Trazado_174327" data-name="Trazado 174327" d="M683.558,1525.737s-.774,2.45,1.047,2.388,3.109-3.505,3.109-3.505S684.862,1524.646,683.558,1525.737Z" transform="translate(-667.232 -1516.538)" fill="#fca38b"/>
    </g>
    <g id="Grupo_116524" data-name="Grupo 116524" transform="translate(2413.683 -9415.768)">
      <path id="Trazado_174328" data-name="Trazado 174328" d="M246.4,1522.338c.995-.837,1.187-2.415.683-4.046-.438-1.41.852-2.6.624-4.1a5.808,5.808,0,0,0-.951-2.808c-.681-1.079-2.949-2.016-4.058-.869-.394.408-.971.171-1.381.494-.367.289-1.058,1.264-1.228,3.408-.09,1.14.1,1.466-.543,2.4-1.27,1.838-.667,3.027-.629,3.868.043.975-.412,1.507.133,2.619Z" transform="translate(-228.667 -1478.171)" fill="#bf5a44"/>
      <path id="Trazado_174329" data-name="Trazado 174329" d="M228.361,1501.913s-.62-1.81,0-2.424,2.033-.634,2.013,0a13.183,13.183,0,0,1-.7,2.424Z" transform="translate(-222.83 -1472.16)" fill="#fca38b"/>
      <path id="Trazado_174330" data-name="Trazado 174330" d="M267.58,1501.437s.62-1.809,0-2.423-2.034-.633-2.013,0a13.262,13.262,0,0,0,.7,2.423Z" transform="translate(-243.363 -1471.899)" fill="#fca38b"/>
      <path id="Trazado_174331" data-name="Trazado 174331" d="M227.892,1504.506l-.215,1.719h1.889l.184-1.643Z" transform="translate(-222.606 -1475.164)" fill="#f7eacf"/>
      <path id="Trazado_174332" data-name="Trazado 174332" d="M268.048,1503.514l.215,1.72h-1.888l-.185-1.643Z" transform="translate(-243.704 -1474.621)" fill="#f7eacf"/>
      <g id="Grupo_116517" data-name="Grupo 116517" transform="translate(22.272 90.435)">
        <path id="Trazado_174333" data-name="Trazado 174333" d="M269.033,1642.775c-.849-.009-1.138-.437-1.868-.608-.505-.119-.967.084-1.314-.346-.38-.47.166-1.857.166-1.857l1.835.163a3.947,3.947,0,0,0,2.376,1.5,1.892,1.892,0,0,1,1.4.841C271.569,1642.779,269.956,1642.786,269.033,1642.775Z" transform="translate(-265.716 -1639.803)" fill="#214f64"/>
        <path id="Trazado_174334" data-name="Trazado 174334" d="M267.176,1643.3l-.17,1.1-.569-.007-.41-1.411Z" transform="translate(-265.887 -1641.46)" fill="#214f64"/>
        <path id="Trazado_174335" data-name="Trazado 174335" d="M266.3,1639.889a2.017,2.017,0,0,0,.03-.281l1.849.116a20.784,20.784,0,0,0,2.37,1.711c-.253.27-.949.143-1.789-.052C267.808,1640.7,266.84,1639.888,266.3,1639.889Z" transform="translate(-266.036 -1639.608)" fill="#fca887"/>
      </g>
      <g id="Grupo_116518" data-name="Grupo 116518" transform="translate(6.091 90)">
        <path id="Trazado_174336" data-name="Trazado 174336" d="M234.874,1638.868l.243,1.6-.957.14-.108-1.965Z" transform="translate(-232.19 -1638.646)" fill="#214f64"/>
        <path id="Trazado_174337" data-name="Trazado 174337" d="M230.973,1638.8l-.82,2.129a2.531,2.531,0,0,0,1.325.505,3.065,3.065,0,0,0,1.342-.451l-.241-2.033Z" transform="translate(-230.054 -1638.73)" fill="#fca887"/>
        <path id="Trazado_174338" data-name="Trazado 174338" d="M230.49,1640.889a4.749,4.749,0,0,0-.556,1.564c-.009.8.678.831,1.438.833a1.425,1.425,0,0,0,1.3-.813,3.207,3.207,0,0,0-.1-1.483s-.188,1.55-1.574,1.311C230.084,1642.145,230.49,1640.889,230.49,1640.889Z" transform="translate(-229.934 -1639.875)" fill="#214f64"/>
      </g>
      <g id="Grupo_116519" data-name="Grupo 116519" transform="translate(14.364 61.775)">
        <path id="Trazado_174339" data-name="Trazado 174339" d="M261.123,1606.288a2.514,2.514,0,0,0-3.066,1.036,1.753,1.753,0,0,0-.226,1.367c.37,1.276,2.674,10.661,3.444,12.73.086.232,2.818.117,2.725-.391,0,0-1.441-11.531-1.7-13.135A1.986,1.986,0,0,0,261.123,1606.288Z" transform="translate(-253.458 -1592.598)" fill="#6677d6"/>
        <path id="Trazado_174340" data-name="Trazado 174340" d="M254.521,1576.228l-6.291,1.733s4.232,13.825,4.464,14.469a2.126,2.126,0,0,0,2.739,1.151,2.1,2.1,0,0,0,1.578-2.047C256.51,1587.643,254.521,1576.228,254.521,1576.228Z" transform="translate(-248.23 -1576.228)" fill="#6677d6"/>
      </g>
      <g id="Grupo_116520" data-name="Grupo 116520" transform="translate(6.554 61.116)">
        <path id="Trazado_174341" data-name="Trazado 174341" d="M234.23,1605.372a2.207,2.207,0,0,1,2.845.979,1.876,1.876,0,0,1,.211,1.371c-.343,1.292-3.335,12.658-3.335,12.658-.55.439-3.1.254-2.988-.479.261-1.666,1.769-11.143,2.009-12.765A2.457,2.457,0,0,1,234.23,1605.372Z" transform="translate(-230.959 -1591.427)" fill="#6677d6"/>
        <path id="Trazado_174342" data-name="Trazado 174342" d="M237.7,1574.772l6.31,1.706s-4.029,13.944-4.255,14.59a2.116,2.116,0,0,1-2.7,1.124c-.912-.3-1.694-1.039-1.58-1.893C236,1586.416,237.7,1574.772,237.7,1574.772Z" transform="translate(-233.428 -1574.772)" fill="#6677d6"/>
      </g>
      <path id="Trazado_174343" data-name="Trazado 174343" d="M240.366,1567.229c0-3.943.9-5.695.9-5.695l8.046-1.154a51.635,51.635,0,0,1,.976,7.237l-4.453,2.88Z" transform="translate(-229.558 -1505.772)" fill="#6677d6"/>
      <path id="Trazado_174344" data-name="Trazado 174344" d="M261.532,1505.634q-1.093.066-2.187.1c.014.119.03.236.043.352q.121,1.138.2,2.283a21.279,21.279,0,0,1-.034,3.859,7.5,7.5,0,0,1-.642,1.122c-.488.742-1.035,1.446-1.593,2.135-.976,1.205-2.006,2.369-3.053,3.513a1.8,1.8,0,0,0,1.2,3c1.373.074,2.272-1.613,2.992-2.55a38.885,38.885,0,0,0,3.022-4.41,6.046,6.046,0,0,0,1-2.939,25.328,25.328,0,0,0-.673-5.233C261.747,1506.6,261.666,1506.117,261.532,1505.634Z" transform="translate(-236.914 -1475.782)" fill="#6677d6"/>
      <path id="Trazado_174345" data-name="Trazado 174345" d="M245.056,1531.294c2.7.045,3.127.1,3.268.217,0,0,.675,1.823,1.534,4.337a6.547,6.547,0,0,1-.413,2.753c-.91,1.768-.273,7.133-.327,7.287-2.06,2.408-7.467.151-8.381-.35l.5-2.563c-.359-4.313-.777-9.761-.642-10.441A9.52,9.52,0,0,1,245.056,1531.294Z" transform="translate(-229.666 -1489.838)" fill="#f7eacf"/>
      <path id="Trazado_174346" data-name="Trazado 174346" d="M233.648,1518.977a.883.883,0,0,1,.247.172,25.64,25.64,0,0,1-2.925-3.189,11.351,11.351,0,0,1-2.046-3.064c-.506-2.119-.139-4.145-.077-6.276q-1.112.033-2.225.058a27.9,27.9,0,0,0-.556,3.045,12.711,12.711,0,0,0-.009,3.766,8.842,8.842,0,0,0,1.32,2.913,36.8,36.8,0,0,0,2.433,3.421,9.569,9.569,0,0,0,2.127,2.281,1.8,1.8,0,0,0,2.668-.871A1.862,1.862,0,0,0,233.648,1518.977Z" transform="translate(-221.643 -1476.322)" fill="#6677d6"/>
      <path id="Trazado_174347" data-name="Trazado 174347" d="M248.152,1532.387a1.589,1.589,0,0,0,1.4-.813l-.042-.7a11.813,11.813,0,0,0-3.564.3l.575.835A3.065,3.065,0,0,0,248.152,1532.387Z" transform="translate(-232.613 -1489.598)" fill="#fca38b"/>
      <path id="Trazado_174348" data-name="Trazado 174348" d="M247.483,1528.737l2.418.019-.361-2.492-1.76.072Z" transform="translate(-233.457 -1487.083)" fill="#fca38b"/>
      <path id="Trazado_174349" data-name="Trazado 174349" d="M249.309,1527.357a1.654,1.654,0,0,0,.751.025l-.16-1.119-1.76.072A1.9,1.9,0,0,0,249.309,1527.357Z" transform="translate(-233.816 -1487.083)" fill="#f78376"/>
      <path id="Trazado_174350" data-name="Trazado 174350" d="M249.7,1517.053v2.693c-.013,1.287-.648,2.35-1.852,2.337a2.32,2.32,0,0,1-2.5-2.39l.026-2.535Z" transform="translate(-232.287 -1482.037)" fill="#fcad95"/>
      <path id="Trazado_174351" data-name="Trazado 174351" d="M243.982,1516.23c.525.424,2.093-.76,2.864-1.375.605.435,1.763,1.406,2.24,1.3.23-.052.147-1.34.052-1.751-.319-1.385-2.493-1.32-2.493-1.32s-1.716-.162-2.371.981C244.061,1514.438,243.681,1515.987,243.982,1516.23Z" transform="translate(-231.477 -1479.858)" fill="#bf5a44"/>
      <path id="Trazado_174352" data-name="Trazado 174352" d="M240.1,1531.132a15.9,15.9,0,0,1,1.47,7.666c-.461,3.7-.686,9.262-.686,9.262s-3.777-.073-5.642-2.047l2.428-5.342s-1.11-7.491-.93-8.275S238.528,1531.633,240.1,1531.132Z" transform="translate(-226.749 -1489.75)" fill="#6677d6"/>
      <path id="Trazado_174353" data-name="Trazado 174353" d="M253.844,1530.339s1.717-.131,2.707-.283a30.344,30.344,0,0,1,1.3,4.178,15.622,15.622,0,0,1-.5,4.874c-.192.974,1.132,7.22,1.132,7.22a7.776,7.776,0,0,1-3.108,1.252s-.014-7.744-.094-9.951A34.547,34.547,0,0,0,253.844,1530.339Z" transform="translate(-236.941 -1489.16)" fill="#6677d6"/>
      <path id="Trazado_174354" data-name="Trazado 174354" d="M245.185,1530.143l-1.323.792s-.736.7-.1,2.569l1.318-.01-.806,1.175s.663,3.476,1.732,4.627C246.455,1533.163,245.185,1530.143,245.185,1530.143Z" transform="translate(-231.277 -1489.208)" fill="#6677d6"/>
      <path id="Trazado_174355" data-name="Trazado 174355" d="M252.473,1529.873l1.938,9.09s.982-3.732.792-4.774L254.3,1533l.6-.314c.343-.864-1.055-2.54-1.055-2.54Z" transform="translate(-236.19 -1489.06)" fill="#6677d6"/>
      <g id="Grupo_116523" data-name="Grupo 116523" transform="translate(0 0)">
        <path id="Trazado_174356" data-name="Trazado 174356" d="M245.715,1448.889a15.232,15.232,0,1,1-19.98-8.049A15.232,15.232,0,0,1,245.715,1448.889Z" transform="translate(-216.465 -1439.619)" fill="#6677d6"/>
        <path id="Trazado_174357" data-name="Trazado 174357" d="M246.181,1451.448a13.635,13.635,0,1,1-17.885-7.206A13.635,13.635,0,0,1,246.181,1451.448Z" transform="translate(-218.4 -1441.553)" fill="#214f64"/>
        <path id="Trazado_174358" data-name="Trazado 174358" d="M246.4,1452.654a12.883,12.883,0,1,1-16.9-6.809A12.883,12.883,0,0,1,246.4,1452.654Z" transform="translate(-219.311 -1442.464)" fill="#f7eacf"/>
        <path id="Trazado_174359" data-name="Trazado 174359" d="M246.818,1454.95A11.451,11.451,0,1,1,231.8,1448.9,11.45,11.45,0,0,1,246.818,1454.95Z" transform="translate(-221.046 -1444.199)" fill="#fffff3"/>
        <g id="Grupo_116521" data-name="Grupo 116521" transform="translate(8.021 11.167)">
          <path id="Trazado_174360" data-name="Trazado 174360" d="M234.431,1477.418a.23.23,0,0,1-.18-.372L244.27,1464.4a.229.229,0,0,1,.359.284l-10.018,12.646A.228.228,0,0,1,234.431,1477.418Z" transform="translate(-234.202 -1464.314)" fill="#ff3f31"/>
        </g>
        <path id="Trazado_174361" data-name="Trazado 174361" d="M249.2,1471.669l-.241-2.224,11.616-.954.1.56Z" transform="translate(-234.266 -1455.436)" fill="#214f64"/>
        <path id="Trazado_174362" data-name="Trazado 174362" d="M246.96,1464.1l-1.656.714-2.5-7.654.522-.224Z" transform="translate(-230.891 -1449.104)" fill="#214f64"/>
        <path id="Trazado_174363" data-name="Trazado 174363" d="M249.791,1471.222a1.724,1.724,0,1,1-1.724-1.725A1.723,1.723,0,0,1,249.791,1471.222Z" transform="translate(-232.832 -1455.986)" fill="#214f64"/>
        <path id="Trazado_174364" data-name="Trazado 174364" d="M249.946,1472.1a1,1,0,1,1-1-1A1,1,0,0,1,249.946,1472.1Z" transform="translate(-233.712 -1456.866)" fill="#ffba51"/>
        <g id="Grupo_116522" data-name="Grupo 116522" transform="translate(2.313 2.313)">
          <path id="Trazado_174365" data-name="Trazado 174365" d="M236.328,1449.17l-.5-.87-.41.237.5.871C236.054,1449.327,236.188,1449.247,236.328,1449.17Z" transform="translate(-229.159 -1446.688)" fill="#214f64"/>
          <path id="Trazado_174366" data-name="Trazado 174366" d="M250.107,1445.739v-1.005h-.473v1.005C249.792,1445.736,249.95,1445.736,250.107,1445.739Z" transform="translate(-236.948 -1444.734)" fill="#214f64"/>
          <path id="Trazado_174367" data-name="Trazado 174367" d="M226.256,1459.073l-.872-.5-.237.41.874.5Q226.134,1459.275,226.256,1459.073Z" transform="translate(-223.534 -1452.313)" fill="#214f64"/>
          <path id="Trazado_174368" data-name="Trazado 174368" d="M263.289,1449.41l.5-.872-.409-.237-.5.873C263.017,1449.25,263.153,1449.328,263.289,1449.41Z" transform="translate(-244.203 -1446.688)" fill="#214f64"/>
          <path id="Trazado_174369" data-name="Trazado 174369" d="M272.954,1459.481l.87-.5-.236-.41-.872.5C272.8,1459.207,272.878,1459.342,272.954,1459.481Z" transform="translate(-249.592 -1452.313)" fill="#214f64"/>
          <path id="Trazado_174370" data-name="Trazado 174370" d="M222.586,1472.787H221.58v.473h1.005Q222.581,1473.024,222.586,1472.787Z" transform="translate(-221.58 -1460.101)" fill="#214f64"/>
          <path id="Trazado_174371" data-name="Trazado 174371" d="M272.716,1486.442l.872.5.236-.409-.872-.5C272.875,1486.17,272.8,1486.307,272.716,1486.442Z" transform="translate(-249.592 -1467.357)" fill="#214f64"/>
          <path id="Trazado_174372" data-name="Trazado 174372" d="M262.882,1496.108l.5.87.409-.236-.5-.872C263.156,1495.951,263.021,1496.031,262.882,1496.108Z" transform="translate(-244.205 -1472.746)" fill="#214f64"/>
          <path id="Trazado_174373" data-name="Trazado 174373" d="M226.017,1486.037l-.87.5.237.409.871-.5C226.174,1486.31,226.093,1486.175,226.017,1486.037Z" transform="translate(-223.534 -1467.36)" fill="#214f64"/>
          <path id="Trazado_174374" data-name="Trazado 174374" d="M276.511,1472.787c0,.159,0,.316,0,.473h1.006v-.473Z" transform="translate(-251.671 -1460.101)" fill="#214f64"/>
          <path id="Trazado_174375" data-name="Trazado 174375" d="M235.92,1495.869l-.5.872.41.236.5-.873C236.191,1496.029,236.055,1495.95,235.92,1495.869Z" transform="translate(-229.159 -1472.746)" fill="#214f64"/>
          <path id="Trazado_174376" data-name="Trazado 174376" d="M249.634,1499.662v1.006h.473v-1C249.949,1499.666,249.792,1499.666,249.634,1499.662Z" transform="translate(-236.948 -1474.823)" fill="#214f64"/>
        </g>
      </g>
    </g>
    <g id="Grupo_116527" data-name="Grupo 116527" transform="translate(2509.358 -9412.723)">
      <path id="Trazado_174377" data-name="Trazado 174377" d="M432.815,1493.115c-3.031,0-4.881,1.382-4.769,1.673s1.939.424,2.582.3,1.985-.355,1.985-.355Z" transform="translate(-428.041 -1471.969)" fill="#fca38b"/>
      <path id="Trazado_174378" data-name="Trazado 174378" d="M447.838,1473.464c-1.175-.25-2.356.781-2.814,2.261,0,0-2.1,6.226-2.2,6.329-.035.038-6.307-.159-6.439-.2-.334.781-.791,2.068-1.14,2.85.15.077,6.565,1.744,8.7,1.182a3.375,3.375,0,0,0,2.157-1.795c.554-.868,3.163-7.432,3.17-7.465C449.529,1475.452,449.013,1473.712,447.838,1473.464Z" transform="translate(-431.989 -1461.183)" fill="#dd6441"/>
      <path id="Trazado_174379" data-name="Trazado 174379" d="M502.769,1493.853c3.031,0,4.881,1.381,4.769,1.674s-1.94.423-2.582.3-1.985-.355-1.985-.355Z" transform="translate(-468.977 -1472.373)" fill="#fca38b"/>
      <path id="Trazado_174380" data-name="Trazado 174380" d="M476.458,1474.2c1.174-.251,2.356.781,2.814,2.26,0,0,2.1,6.226,2.2,6.331.035.038,6.307-.161,6.439-.2.334.781.79,2.068,1.14,2.85-.15.078-6.565,1.745-8.7,1.182a3.371,3.371,0,0,1-2.157-1.794c-.555-.868-3.163-7.431-3.17-7.465C474.767,1476.191,475.284,1474.451,476.458,1474.2Z" transform="translate(-453.741 -1461.588)" fill="#dd6441"/>
      <path id="Trazado_174381" data-name="Trazado 174381" d="M453.921,1506.775l.294,7.015s-15.557.209-16.293.183a2.288,2.288,0,0,1-2.081-2.428,2.255,2.255,0,0,1,1.579-2.289C441.572,1508.489,453.921,1506.775,453.921,1506.775Z" transform="translate(-432.314 -1479.452)" fill="#4e2e8e"/>
      <path id="Trazado_174382" data-name="Trazado 174382" d="M468.442,1512.249c0-5.441-1.039-6.49-1.039-6.49l-8.658-1.241a31.092,31.092,0,0,1-1.29,4.447l5.275,3.775Z" transform="translate(-444.155 -1478.215)" fill="#4e2e8e"/>
      <path id="Trazado_174383" data-name="Trazado 174383" d="M465.459,1503.485l-1.9,6.76s15.093,2.3,15.815,2.445a2.287,2.287,0,0,0,2.582-1.885,2.254,2.254,0,0,0-1.011-2.592C477.085,1506.515,465.459,1503.485,465.459,1503.485Z" transform="translate(-447.5 -1477.65)" fill="#4e2e8e"/>
      <g id="Grupo_116525" data-name="Grupo 116525" transform="translate(19.666 31.227)">
        <path id="Trazado_174384" data-name="Trazado 174384" d="M475.234,1517.964c-.237-.752-.763-.77-1.135-1.366-.26-.412-.163-.993-.7-1.165-.586-.19-1.868.73-1.868.73l.66,1.581a2.328,2.328,0,0,1,1.944,1.238c.369.836.924.606.924.606C475.361,1519.44,475.491,1518.782,475.234,1517.964Z" transform="translate(-471.532 -1515.407)" fill="#fca887"/>
      </g>
      <path id="Trazado_174385" data-name="Trazado 174385" d="M472.938,1447.179c-.147.754-.095,1.521.586,1.878s1.25-.143,1.877-.586c.844-.6.095-1.522-.586-1.878S473.136,1446.164,472.938,1447.179Z" transform="translate(-452.599 -1446.353)" fill="#5c1837"/>
      <path id="Trazado_174386" data-name="Trazado 174386" d="M435.63,1516.045a2.955,2.955,0,0,1,1.246-3.252,1.639,1.639,0,0,1,1.35-.233c1.215.4,11.88.931,13.836,1.76.221.095,1.68,3.445,1.192,3.344,0,0-14.607-.076-16.15-.362A1.787,1.787,0,0,1,435.63,1516.045Z" transform="translate(-432.138 -1482.588)" fill="#6677d6"/>
      <g id="Grupo_116526" data-name="Grupo 116526" transform="translate(16.657 33.332)">
        <path id="Trazado_174387" data-name="Trazado 174387" d="M465.014,1522.62c.237-.752.763-.769,1.135-1.365.26-.412.163-.993.7-1.165.586-.19,1.868.73,1.868.73l-.66,1.581a2.327,2.327,0,0,0-1.943,1.238c-.369.836-.925.606-.925.606C464.887,1524.1,464.756,1523.438,465.014,1522.62Z" transform="translate(-464.876 -1520.063)" fill="#fca887"/>
      </g>
      <path id="Trazado_174388" data-name="Trazado 174388" d="M486.325,1517.021a2.956,2.956,0,0,0-.69-3.414,1.638,1.638,0,0,0-1.292-.453c-1.264.193-10.522,2.646-12.589,3.138-.232.056-.393,2.97.1,2.951,0,0,11.237-1.2,12.805-1.227A1.788,1.788,0,0,0,486.325,1517.021Z" transform="translate(-451.865 -1482.939)" fill="#6677d6"/>
      <path id="Trazado_174389" data-name="Trazado 174389" d="M464.154,1472.763c-2.9.048-4.04.31-4.191.439a13.109,13.109,0,0,1-.788,4.667c-.291.849.444,2.962.444,2.962.979,1.9-.416,7.546-.357,7.711,2.217,2.592,8.642,1.212,9.626.672l-.431-3.676c.387-4.641.865-11.059.719-11.792A12.7,12.7,0,0,0,464.154,1472.763Z" transform="translate(-445.059 -1460.819)" fill="#c6412a"/>
      <path id="Trazado_174390" data-name="Trazado 174390" d="M468.561,1474.322c-.818-.047-1.458-1.623-1.458-1.623a11.041,11.041,0,0,1,3.835.2S469.257,1474.361,468.561,1474.322Z" transform="translate(-449.439 -1460.738)" fill="#fca38b"/>
      <path id="Trazado_174391" data-name="Trazado 174391" d="M462.179,1457.831c-1-.447-1.095-1.409-.441-2.453.566-.9-.136-1.746.212-2.687a4.659,4.659,0,0,1,1.575-1.937,3.169,3.169,0,0,1,3.43-.49c.39.224.563.548.979.718.37.152,1.495.2,1.525,1.509.015.7-.213.913.408,1.446,1.224,1.046.5,1.824.4,2.347-.115.6.333.9-.327,1.627Z" transform="translate(-446.272 -1448.324)" fill="#5c1837"/>
      <path id="Trazado_174392" data-name="Trazado 174392" d="M470.775,1470.466l-2.6.02.388-2.682,1.894.078Z" transform="translate(-450.025 -1458.104)" fill="#fca38b"/>
      <path id="Trazado_174393" data-name="Trazado 174393" d="M469.458,1468.981a1.767,1.767,0,0,1-.809.027l.173-1.2,1.894.078A2.047,2.047,0,0,1,469.458,1468.981Z" transform="translate(-450.286 -1458.104)" fill="#f78376"/>
      <path id="Trazado_174394" data-name="Trazado 174394" d="M465.863,1457.893v2.9c.014,1.384.7,2.528,1.992,2.513a2.5,2.5,0,0,0,2.692-2.572l-.028-2.727Z" transform="translate(-448.76 -1452.675)" fill="#fcad95"/>
      <path id="Trazado_174395" data-name="Trazado 174395" d="M470.7,1457.008c-.565.457-2.252-.818-3.081-1.479-.653.468-1.9,1.513-2.411,1.4-.248-.055-.159-1.441-.057-1.883.344-1.49,2.682-1.42,2.682-1.42s1.847-.175,2.552,1.057C470.618,1455.08,471.027,1456.746,470.7,1457.008Z" transform="translate(-448.315 -1450.33)" fill="#5c1837"/>
    </g>
    <g id="Grupo_116529" data-name="Grupo 116529" transform="translate(2421.26 -9436.456)">
      <g id="Grupo_116528" data-name="Grupo 116528" transform="translate(0)">
        <path id="Trazado_174396" data-name="Trazado 174396" d="M247.5,1405.483l-.924-.552a6.519,6.519,0,0,0,.683-1.583l1.033.292a7.77,7.77,0,0,0,.289-1.983l-1.068-.015a6.674,6.674,0,0,0-.206-1.712l1.041-.262a7.679,7.679,0,0,0-.741-1.865l-.937.524a6.594,6.594,0,0,0-1.036-1.4l.771-.737-.014-.014a7.724,7.724,0,0,0-1.553-1.226l-.553.923a6.525,6.525,0,0,0-1.582-.686l.292-1.031a7.663,7.663,0,0,0-1.983-.292l-.016,1.068a6.68,6.68,0,0,0-1.712.2l-.262-1.041a7.717,7.717,0,0,0-1.865.738l.526.941a6.556,6.556,0,0,0-1.4,1.037l-.735-.776-.018.018a7.8,7.8,0,0,0-1.239,1.575l.925.549a6.589,6.589,0,0,0-.681,1.583l-1.033-.289a7.69,7.69,0,0,0-.285,1.983l1.069.013a6.6,6.6,0,0,0,.209,1.713l-1.041.264a7.659,7.659,0,0,0,.744,1.862l.938-.525a6.6,6.6,0,0,0,1.031,1.389s-.766.742-.766.742a7.706,7.706,0,0,0,1.571,1.239l.55-.923a6.518,6.518,0,0,0,1.582.681l-.289,1.032a7.734,7.734,0,0,0,1.984.286l.012-1.066a6.711,6.711,0,0,0,1.712-.209l.263,1.04a7.633,7.633,0,0,0,1.863-.742l-.525-.937a6.54,6.54,0,0,0,1.4-1.036l.737.771A7.792,7.792,0,0,0,247.5,1405.483Zm-3.694-.959a4.16,4.16,0,1,1,.07-5.884A4.159,4.159,0,0,1,243.808,1404.524Z" transform="translate(-233.22 -1393.867)" fill="#c8e8de"/>
        <path id="Trazado_174397" data-name="Trazado 174397" d="M247.105,1407.725a1.624,1.624,0,1,0,2.3.026A1.622,1.622,0,0,0,247.105,1407.725Z" transform="translate(-240.558 -1401.205)" fill="#c8e8de"/>
        <rect id="Rectángulo_42702" data-name="Rectángulo 42702" width="4.464" height="1.061" transform="translate(7.443 7.121) rotate(-52.302)" fill="#c8e8de"/>
        <rect id="Rectángulo_42703" data-name="Rectángulo 42703" width="1.06" height="4.464" transform="translate(2.535 7.444) rotate(-82.391)" fill="#c8e8de"/>
        <rect id="Rectángulo_42704" data-name="Rectángulo 42704" width="1.06" height="4.465" transform="translate(7.502 8.457) rotate(-22.348)" fill="#c8e8de"/>
      </g>
    </g>
    <g id="Grupo_116530" data-name="Grupo 116530" transform="translate(2484.086 -9440.343)">
      <path id="Trazado_174398" data-name="Trazado 174398" d="M372.186,1389.36l.645.076a3.971,3.971,0,0,1,.259-1.009l-.6-.242a4.665,4.665,0,0,1,.6-1.055l.516.388a4.023,4.023,0,0,1,.73-.744l-.4-.51a4.686,4.686,0,0,1,1.043-.619l.255.6a4.01,4.01,0,0,1,1.012-.286l-.1-.638a4.725,4.725,0,0,1,1.209-.014l-.077.645a3.973,3.973,0,0,1,1.01.256l.241-.6a4.68,4.68,0,0,1,1.056.594l-.388.516a4.021,4.021,0,0,1,.743.73l.51-.4a4.659,4.659,0,0,1,.62,1.042l-.6.255a3.975,3.975,0,0,1,.287,1.013l.639-.1a4.735,4.735,0,0,1,.013,1.227l-.645-.08a3.943,3.943,0,0,1-.259,1.009l.6.244a4.638,4.638,0,0,1-.6,1.053l-.516-.387a3.957,3.957,0,0,1-.731.741l.4.511a4.6,4.6,0,0,1-1.044.616l-.255-.6a4.007,4.007,0,0,1-1.007.284s.093.637.093.637a4.61,4.61,0,0,1-1.209.012l.077-.644a3.971,3.971,0,0,1-1.008-.259l-.243.6a4.718,4.718,0,0,1-1.054-.6l.388-.515a4.014,4.014,0,0,1-.743-.733l-.511.4a4.653,4.653,0,0,1-.617-1.043l.6-.255a4.014,4.014,0,0,1-.285-1.01l-.636.1A4.666,4.666,0,0,1,372.186,1389.36Zm2.121.9a2.514,2.514,0,1,0,2.14-2.839A2.514,2.514,0,0,0,374.307,1390.264Z" transform="translate(-372.154 -1385.273)" fill="#c8e8de"/>
      <path id="Trazado_174399" data-name="Trazado 174399" d="M379.872,1395.1a2.1,2.1,0,1,0-2.08-1.811A2.118,2.118,0,0,0,379.872,1395.1Zm0-3.907a1.806,1.806,0,1,1-.253.018A1.857,1.857,0,0,1,379.877,1391.188Z" transform="translate(-375.232 -1388.351)" fill="#c8e8de"/>
    </g>
    <g id="Grupo_116531" data-name="Grupo 116531" transform="translate(2446.23 -9455.907)">
      <path id="Trazado_174400" data-name="Trazado 174400" d="M302.739,1364.5l.028,2.944a1.423,1.423,0,0,0,1.3-1.382C304.1,1364.91,303.5,1364.665,302.739,1364.5Z" transform="translate(-296.273 -1358.326)" fill="#c8e8de"/>
      <path id="Trazado_174401" data-name="Trazado 174401" d="M299.947,1358.017a1.3,1.3,0,0,0-.8,1.3c.049.731.5.917,1.23,1.078l-.023-2.508A1.862,1.862,0,0,0,299.947,1358.017Z" transform="translate(-294.302 -1354.704)" fill="#c8e8de"/>
      <path id="Trazado_174402" data-name="Trazado 174402" d="M296.8,1353.7a5.084,5.084,0,0,0-.588-.029,5,5,0,0,0-.492,9.962,5.112,5.112,0,0,0,.587.029,5,5,0,0,0,.492-9.962Zm-.315,8.2.006.62a.2.2,0,0,1-.193.2l-.023,0a.193.193,0,0,1-.172-.191l-.006-.6a2.65,2.65,0,0,1-.322-.008,1.659,1.659,0,0,1-1.61-1.194.194.194,0,0,1,.383-.06c.09.575.836.884,1.546.878l-.029-3.06c-.749-.157-1.551-.376-1.623-1.451a1.69,1.69,0,0,1,1.025-1.674,2.244,2.244,0,0,1,.566-.177l0-.471a.194.194,0,1,1,.388,0l0,.436a1.9,1.9,0,0,1,1.326.469.194.194,0,0,1-.266.282,1.5,1.5,0,0,0-1.056-.365l.026,2.639c.831.179,1.764.478,1.719,1.972A1.82,1.82,0,0,1,296.485,1361.9Z" transform="translate(-289.987 -1352.399)" fill="#c8e8de"/>
      <path id="Trazado_174403" data-name="Trazado 174403" d="M300.986,1357.064a6.273,6.273,0,1,0-6.213,6.333A6.272,6.272,0,0,0,300.986,1357.064Zm-6.22,5.484a5.7,5.7,0,0,1-.639-.031,5.423,5.423,0,0,1,.535-10.814,5.652,5.652,0,0,1,.638.031,5.423,5.423,0,0,1-.534,10.814Z" transform="translate(-288.44 -1350.852)" fill="#c8e8de"/>
    </g>
    <path id="Trazado_174404" data-name="Trazado 174404" d="M277.875,1388.743a3.747,3.747,0,0,1,.2-1.467l.987.133a2.911,2.911,0,0,1,.39-.671l-.606-.795a3.881,3.881,0,0,1,1.179-.9l.606.794a2.879,2.879,0,0,1,.749-.2l.133-.986a3.7,3.7,0,0,1,1.468.2l-.133.989a2.878,2.878,0,0,1,.671.39l.8-.606a3.9,3.9,0,0,1,.9,1.178l-.8.605a2.874,2.874,0,0,1,.2.75l.988.134a4.034,4.034,0,0,1-.026.743,3.953,3.953,0,0,1-.174.724l-.988-.134a2.891,2.891,0,0,1-.389.671l.606.8a3.923,3.923,0,0,1-1.178.9l-.605-.8a2.875,2.875,0,0,1-.751.2l-.132.988a3.975,3.975,0,0,1-.745-.026,3.822,3.822,0,0,1-.725-.174l.134-.988a2.882,2.882,0,0,1-.67-.39l-.795.605a3.889,3.889,0,0,1-.9-1.178l.8-.605a2.876,2.876,0,0,1-.2-.75Zm3.629,1.5a1.742,1.742,0,1,0-1.493-1.959A1.741,1.741,0,0,0,281.5,1390.245Z" transform="translate(2163.582 -10825.274)" fill="#c8e8de"/>
  </g>
</svg>
