<svg xmlns="http://www.w3.org/2000/svg" width="94.977" height="125.884" viewBox="0 0 94.977 125.884">
  <g id="Grupo_117177" data-name="Grupo 117177" transform="translate(14828.561 13527.734)">
    <g id="Grupo_117138" data-name="Grupo 117138" transform="translate(-15786.894 -13626)">
      <path id="Trazado_163579" data-name="Trazado 163579" d="M816.213,985.9V969.48l37.065-21.4,37.065,21.4V985.9h7.284l3.226,26.383-37.065,21.4-37.065-21.4L808.929,985.9Z" transform="translate(152.457 -809.528)" fill="#c6412a"/>
      <path id="Trazado_163581" data-name="Trazado 163581" d="M853.278,862.029l44.348,25.6v51.209l-44.348,25.6-44.348-25.6V887.633Z" transform="translate(152.457 -762.475)" fill="#c6412a"/>
      <path id="Trazado_163582" data-name="Trazado 163582" d="M862.066,880.587l37.065,21.4v42.8l-37.065,21.4L825,944.785v-42.8Z" transform="translate(143.669 -772.623)" fill="#fff"/>
      <path id="Trazado_163583" data-name="Trazado 163583" d="M1007.868,996.118V953.585l-3.226-35.06v51.209Z" transform="translate(45.442 -793.367)" fill="#c6412a"/>
      <path id="Trazado_163600" data-name="Trazado 163600" d="M897.627,987.513l3.226,26.383-37.065,21.4-37.065-21.4L808.93,987.513l45.4,26.383Z" transform="translate(152.456 -811.146)" fill="#030403" opacity="0.2" style="mix-blend-mode: multiply;isolation: isolate"/>
      <path id="Trazado_163601" data-name="Trazado 163601" d="M1007.868,996.118V953.585l-3.226-35.06v51.209Z" transform="translate(45.442 -793.367)" fill="#030403" opacity="0.1" style="mix-blend-mode: multiply;isolation: isolate"/>
      <g id="Grupo_114247" data-name="Grupo 114247" transform="translate(956.793 97.498)">
        <path id="Trazado_163611" data-name="Trazado 163611" d="M216.2,1534.511v-.012h-.012Z" transform="translate(-214.651 -1448.651)" fill="#c6412a"/>
        <path id="Trazado_163615" data-name="Trazado 163615" d="M484.174,1188.316v.012h.012Z" transform="translate(-416.773 -1187.549)" fill="#c6412a"/>
        <path id="Trazado_163617" data-name="Trazado 163617" d="M240.055,1195.331h.012v-.012Z" transform="translate(-232.651 -1192.831)" fill="#c6412a"/>
        <path id="Trazado_163619" data-name="Trazado 163619" d="M247.069,1503.818v-.012h-.012Z" transform="translate(-237.932 -1425.502)" fill="#c6412a"/>
        <path id="Trazado_163636" data-name="Trazado 163636" d="M460.541,1431.179l-.892,1.541,7.908,7.908c.964.964,1.235,2.256.606,2.885l-3.727,3.727c-.63.63-1.922.358-2.886-.606l-6.308-6.307-.892,1.54,5.984,5.984a4.629,4.629,0,0,0,3.2,1.444,2.942,2.942,0,0,0,2.118-.839l3.727-3.728c1.321-1.321,1.056-3.657-.605-5.319Z" transform="translate(-394.278 -1370.724)" fill="#c6412a"/>
        <path id="Trazado_163637" data-name="Trazado 163637" d="M380.859,1394.294c-.371.508-.7.994-.981,1.452l18.3,18.3.892-1.541Z" transform="translate(-338.11 -1342.904)" fill="#c6412a"/>
        <path id="Trazado_163638" data-name="Trazado 163638" d="M408.3,1366.855l16.616,16.616.892-1.541-16.048-16.048C409.29,1366.175,408.8,1366.5,408.3,1366.855Z" transform="translate(-359.548 -1321.476)" fill="#c6412a"/>
        <path id="Trazado_163639" data-name="Trazado 163639" d="M469.079,1446.572a1.663,1.663,0,0,1,.417.641l-3.35,3.351a1.67,1.67,0,0,1-.641-.417l-6.632-6.632-.892,1.541,6.308,6.307c.964.964,2.256,1.236,2.886.606l3.727-3.727c.63-.63.358-1.922-.606-2.886l-7.908-7.908-.892,1.541Z" transform="translate(-397.016 -1375.451)" fill="#c6412a"/>
        <path id="Trazado_163640" data-name="Trazado 163640" d="M384.939,1388.74q-.589.705-1.068,1.365l18.214,18.214.892-1.541Z" transform="translate(-341.121 -1338.715)" fill="#c6412a"/>
        <path id="Trazado_163641" data-name="Trazado 163641" d="M402.715,1370.9l17.1,17.1.892-1.54-16.616-16.617C403.636,1370.164,403.177,1370.517,402.715,1370.9Z" transform="translate(-355.334 -1324.459)" fill="#c6412a"/>
        <path id="Trazado_163642" data-name="Trazado 163642" d="M378.182,1275.917l-.037-.037c-.777-.777-.974-1.841-.439-2.376l3.966-3.966c.535-.535,1.6-.339,2.377.438l13.227,13.227c.777.777.974,1.84.438,2.376l-3.966,3.966c-.535.535-1.6.339-2.376-.438l-.05-.05-.995.252c-.012,0-.339.09-.9.292l.723.724a4.04,4.04,0,0,0,2.8,1.243h0a2.815,2.815,0,0,0,2.013-.806l3.966-3.966a2.9,2.9,0,0,0,.749-2.626,4.232,4.232,0,0,0-1.187-2.184l-13.227-13.227a4.038,4.038,0,0,0-2.8-1.243,2.816,2.816,0,0,0-2.013.8l-3.965,3.966a2.9,2.9,0,0,0-.749,2.626,4.23,4.23,0,0,0,1.187,2.183l.6.6c.246-.6.373-.964.377-.979Z" transform="translate(-334.946 -1247.284)" fill="#c6412a"/>
        <path id="Trazado_163643" data-name="Trazado 163643" d="M399.027,1294.823l3.966-3.966c.535-.535.339-1.6-.438-2.376l-13.227-13.227c-.777-.777-1.841-.974-2.377-.439l-3.966,3.967c-.535.535-.339,1.6.438,2.376l.037.038.617-1.814,13.649,13.648-13.087-13.088a1.07,1.07,0,0,1-.168-.213l3.425-3.426a1.069,1.069,0,0,1,.214.168l13.227,13.227a1.076,1.076,0,0,1,.168.213l-3.425,3.426a1.082,1.082,0,0,1-.214-.167l.675.675-1.942.491.05.05C397.428,1295.162,398.492,1295.359,399.027,1294.823Z" transform="translate(-340.226 -1252.563)" fill="#c6412a"/>
        <path id="Trazado_163644" data-name="Trazado 163644" d="M302.877,1362.2c.522-.521,1.543-.349,2.314.377l1.105-.231c.01,0,.318-.072.849-.253l-.673-.673a4.039,4.039,0,0,0-2.8-1.243,2.821,2.821,0,0,0-2.015.806l-.252.252.944,1.489Z" transform="translate(-278.925 -1317.171)" fill="#c6412a"/>
        <path id="Trazado_163645" data-name="Trazado 163645" d="M359.626,1417.926a1.718,1.718,0,0,1,.341,2.275L356,1424.172a.955.955,0,0,1-.163.128l.921,1.454a2.7,2.7,0,0,0,.458-.366l3.971-3.97a2.905,2.905,0,0,0,.75-2.626,4.226,4.226,0,0,0-1.186-2.185l-.8-.8a5.85,5.85,0,0,0-.177.748Z" transform="translate(-319.975 -1359.132)" fill="#c6412a"/>
        <path id="Trazado_163646" data-name="Trazado 163646" d="M298.683,1385.023,285.456,1371.8c-.777-.778-.973-1.843-.436-2.378l3.446-3.446-.944-1.489L283.8,1368.2a2.9,2.9,0,0,0-.75,2.626,4.224,4.224,0,0,0,1.186,2.185l13.227,13.227a4.037,4.037,0,0,0,2.8,1.243h0a2.89,2.89,0,0,0,1.556-.441l-.921-1.454A1.9,1.9,0,0,1,298.683,1385.023Z" transform="translate(-265.038 -1320.42)" fill="#c6412a"/>
        <path id="Trazado_163647" data-name="Trazado 163647" d="M305.773,1367.479l-.525.525.944,1.489.529-.529a1.093,1.093,0,0,1,.214.168l11.795,11.794-.034-.034-12.616-12.616,2.008-.42C307.316,1367.131,306.295,1366.958,305.773,1367.479Z" transform="translate(-281.821 -1322.452)" fill="#c6412a"/>
        <path id="Trazado_163648" data-name="Trazado 163648" d="M354.243,1425.634a.934.934,0,0,1,.077.11l-3.433,3.433a1.062,1.062,0,0,1-.214-.168l-.358-.358,1.356,2.14a.97.97,0,0,0,.163-.128l3.971-3.971a1.719,1.719,0,0,0-.341-2.276l-.238,2.209Z" transform="translate(-315.812 -1365.623)" fill="#c6412a"/>
        <path id="Trazado_163649" data-name="Trazado 163649" d="M291.952,1375.15a1.08,1.08,0,0,1-.168-.214l2.9-2.9-.944-1.489-3.446,3.446c-.536.536-.341,1.6.436,2.378l13.227,13.227a1.9,1.9,0,0,0,2.215.564l-1.356-2.139Z" transform="translate(-270.318 -1324.989)" fill="#c6412a"/>
        <path id="Trazado_163650" data-name="Trazado 163650" d="M334.725,1319a29.361,29.361,0,0,0,5.7-8.734l-1.314-1.314a28.357,28.357,0,0,1-5.605,8.831,23.407,23.407,0,0,1-8.76,5.675l1.343,1.343A25.574,25.574,0,0,0,334.725,1319Z" transform="translate(-296.529 -1278.536)" fill="#c6412a"/>
        <path id="Trazado_163651" data-name="Trazado 163651" d="M370.567,1361.744l1.216-1.217h0l4.791-4.791,1.217-1.216.852.851a23.585,23.585,0,0,1,4.27-2.091l-1.333-1.334a26.461,26.461,0,0,0-8.666,5.769,24.363,24.363,0,0,0-5.872,8.563l1.363,1.363a15.894,15.894,0,0,1,1.792-3.837l-.846-.845Z" transform="translate(-328.427 -1310.965)" fill="#c6412a"/>
        <path id="Trazado_163652" data-name="Trazado 163652" d="M391.128,1367.367l-4.791,4.79.462.462c.551-.659,1.174-1.347,1.884-2.057.556-.556,1.12-1.064,1.679-1.528l-.451-.451Z" transform="translate(-342.981 -1322.595)" fill="#c6412a"/>
        <path id="Trazado_163653" data-name="Trazado 163653" d="M381.387,1388.076l1.217-1.216h0Z" transform="translate(-339.247 -1337.297)" fill="#c6412a"/>
        <path id="Trazado_163654" data-name="Trazado 163654" d="M376.437,1393.026l.846.845c.285-.458.611-.944.981-1.451l-.61-.61Z" transform="translate(-335.514 -1341.03)" fill="#c6412a"/>
        <path id="Trazado_163655" data-name="Trazado 163655" d="M405.83,1363.633l.608.608c.5-.358.987-.681,1.461-.972l-.852-.852Z" transform="translate(-357.683 -1318.861)" fill="#c6412a"/>
        <path id="Trazado_163656" data-name="Trazado 163656" d="M382.6,1386.859l-1.216,1.217.61.61q.481-.658,1.068-1.365Z" transform="translate(-339.247 -1337.296)" fill="#c6412a"/>
        <path id="Trazado_163657" data-name="Trazado 163657" d="M400.88,1368.583l.451.451c.462-.382.921-.736,1.373-1.06l-.608-.607Z" transform="translate(-353.95 -1322.595)" fill="#c6412a"/>
        <path id="Trazado_163658" data-name="Trazado 163658" d="M444.034,1349.989l-.14-.14.139.14Z" transform="translate(-386.392 -1309.383)" fill="#c6412a"/>
        <path id="Trazado_163659" data-name="Trazado 163659" d="M385.205,1303.056l10.367,10.367a15.77,15.77,0,0,0-1.807.627l1.334,1.333c.556-.2.883-.289.895-.292l.995-.252L383.85,1301.7l-.273.8c0,.014-.131.379-.377.979l1.314,1.314C384.975,1303.734,385.205,1303.056,385.205,1303.056Z" transform="translate(-340.614 -1273.067)" fill="#c6412a"/>
        <path id="Trazado_163660" data-name="Trazado 163660" d="M400.253,1308.109h0l-.139-.139-13.649-13.647-.617,1.814,13.139,13.139,1.942-.491Z" transform="translate(-342.611 -1267.502)" fill="#c6412a"/>
        <path id="Trazado_163661" data-name="Trazado 163661" d="M361.533,1424.556l-1.433-1.433,1.523,1.535A1.221,1.221,0,0,0,361.533,1424.556Z" transform="translate(-323.192 -1364.648)" fill="#c6412a"/>
        <path id="Trazado_163662" data-name="Trazado 163662" d="M328.624,1380.276l-10.367-10.367a12.987,12.987,0,0,0,1.839-.594l-1.343-1.343c-.531.18-.838.25-.849.253l-1.105.231c.021.02.043.039.064.06l13.227,13.227c.033.033.064.067.1.1l.147-1.367a5.825,5.825,0,0,1,.177-.748l-1.363-1.363A9.013,9.013,0,0,0,328.624,1380.276Z" transform="translate(-290.533 -1323.051)" fill="#c6412a"/>
        <path id="Trazado_163663" data-name="Trazado 163663" d="M321.244,1382.976l.034.034,1.433,1.433a1.2,1.2,0,0,1,.091.1l.983.99.238-2.208c-.031-.034-.062-.069-.1-.1L310.7,1370c-.021-.021-.043-.04-.064-.059l-2.008.42Z" transform="translate(-284.37 -1324.536)" fill="#c6412a"/>
        <path id="Trazado_163664" data-name="Trazado 163664" d="M338.846,1323.03a25.571,25.571,0,0,1-8.634,5.8l9.051,9.051a24.366,24.366,0,0,1,5.872-8.563,26.465,26.465,0,0,1,8.666-5.769l-9.253-9.253A29.358,29.358,0,0,1,338.846,1323.03Zm5.072,5.073a27.087,27.087,0,0,0-5.976,8.46l-6.413-6.412a27.724,27.724,0,0,0,8.532-5.9,30.48,30.48,0,0,0,5.79-8.646l6.635,6.635A28.285,28.285,0,0,0,343.919,1328.1Z" transform="translate(-300.65 -1282.568)" fill="#c6412a"/>
        <path id="Trazado_163665" data-name="Trazado 163665" d="M389.237,1307.218s-.23.679-.693,1.74l9.253,9.253a15.781,15.781,0,0,1,1.807-.625Z" transform="translate(-344.646 -1277.229)" fill="#c6412a"/>
        <path id="Trazado_163666" data-name="Trazado 163666" d="M322.729,1374.03,333.1,1384.4a8.992,8.992,0,0,1,.523-1.91l-9.051-9.051A12.976,12.976,0,0,1,322.729,1374.03Z" transform="translate(-295.006 -1327.173)" fill="#c6412a"/>
      </g>
    </g>
  </g>
</svg>
