<svg xmlns="http://www.w3.org/2000/svg" width="91.924" height="124.596" viewBox="0 0 91.924 124.596">
  <g id="Grupo_117178" data-name="Grupo 117178" transform="translate(14453.504 13526.446)">
    <g id="Grupo_117139" data-name="Grupo 117139" transform="translate(-15930.876 -13948.991)">
      <path id="Trazado_163577" data-name="Trazado 163577" d="M1413.036,996.118V953.585l3.226-35.06v51.209Z" transform="translate(64.336 -470.377)" fill="#3f2572"/>
      <g id="Grupo_114641" data-name="Grupo 114641" transform="translate(11679.333 12451)">
        <path id="Trazado_163573" data-name="Trazado 163573" d="M1497.676,985.9V969.48l-37.064-21.4-37.065,21.4V985.9h-7.284l-3.226,26.383,37.064,21.4,37.065-21.4L1504.96,985.9Z" transform="translate(-11614.997 -12937.537)" fill="#4e2e8e"/>
        <path id="Trazado_163574" data-name="Trazado 163574" d="M1497.675,985.9V969.48l-37.064-21.4-37.065,21.4V985.9h-7.284l-3.226,26.383,37.065,21.4,37.065-21.4,17.794-26.383Z" transform="translate(-11614.997 -12937.537)" fill="#030403" opacity="0.2" style="mix-blend-mode: multiply;isolation: isolate"/>
        <path id="Trazado_163575" data-name="Trazado 163575" d="M1464.5,862.029l-44.348,25.6v51.209l44.348,25.6,44.349-25.6V887.633Z" transform="translate(-11618.891 -12890.483)" fill="#4e2e8e"/>
        <path id="Trazado_163576" data-name="Trazado 163576" d="M1473.292,880.587l-37.065,21.4v42.8l37.065,21.4,37.065-21.4v-42.8Z" transform="translate(-11627.678 -12900.632)" fill="#fff"/>
        <g id="Grupo_114249" data-name="Grupo 114249" transform="translate(-10183.471 -12001.307)">
          <path id="Trazado_163667" data-name="Trazado 163667" d="M290.167,751.323c.006.138.01.276.01.415v-.255A1.391,1.391,0,0,0,290.167,751.323Z" transform="translate(-272.702 -742.598)" fill="#4e2e8e"/>
          <path id="Trazado_163668" data-name="Trazado 163668" d="M362.308,937.4v2.271h-1.731a6.488,6.488,0,0,1-6.325,5.261H336.783a8.954,8.954,0,0,1-5.956,2.374h23.3a8.822,8.822,0,0,0,8.955-8.813A1.072,1.072,0,0,0,362.308,937.4Z" transform="translate(-306.471 -897.133)" fill="#4e2e8e"/>
          <path id="Trazado_163669" data-name="Trazado 163669" d="M276.223,934.939v0Z" transform="translate(-261.122 -894.825)" fill="#4e2e8e"/>
          <path id="Trazado_163670" data-name="Trazado 163670" d="M285.634,951.109h-.316a6.55,6.55,0,0,1-6.45-5.132,6.407,6.407,0,0,1-.143-1.139,1.2,1.2,0,0,1-2.334.091,9.543,9.543,0,0,0,.431,2.538,8.9,8.9,0,0,0,8.368,6.016h.428A1.188,1.188,0,0,1,285.634,951.109Z" transform="translate(-261.261 -903.314)" fill="#4e2e8e"/>
          <path id="Trazado_163671" data-name="Trazado 163671" d="M189.625,707.854a6.489,6.489,0,0,1,6.213-5.259l-.07,0a1.192,1.192,0,0,1-.16-2.363l-.128,0a8.917,8.917,0,0,0-8.356,8.8,1.113,1.113,0,0,0,1.187,1.156v-2.333Z" transform="translate(-187.123 -700.163)" fill="#4e2e8e"/>
          <path id="Trazado_163672" data-name="Trazado 163672" d="M257.367,702.271c3.344,0,6.72-.139,10.061.014a6.49,6.49,0,0,1,5.983,6.454V740h2.373V710.274a13.547,13.547,0,0,0-.459-4.361,8.9,8.9,0,0,0-8.366-6.016H248.218c-3.226,0-6.482-.127-9.708,0a8.826,8.826,0,0,1,5.886,2.371Z" transform="translate(-229.8 -699.841)" fill="#4e2e8e"/>
          <path id="Trazado_163673" data-name="Trazado 163673" d="M339.643,939.359h-1.09v-2.334a1.132,1.132,0,0,0-1.187,1.139,6.521,6.521,0,0,1-6.44,6.457h5.939A8.9,8.9,0,0,0,339.643,939.359Z" transform="translate(-306.554 -896.825)" fill="#4e2e8e"/>
          <path id="Trazado_163674" data-name="Trazado 163674" d="M329.337,981.836h-4.074a1.187,1.187,0,0,0-.017,2.373,8.953,8.953,0,0,0,5.956-2.373Z" transform="translate(-300.89 -934.041)" fill="#4e2e8e"/>
          <path id="Trazado_163675" data-name="Trazado 163675" d="M237.36,700.169a1.343,1.343,0,0,0-.177.01l.225-.008Z" transform="translate(-228.698 -700.114)" fill="#4e2e8e"/>
          <path id="Trazado_163676" data-name="Trazado 163676" d="M244.424,714.173h-5.771l-.11,0a6.542,6.542,0,0,1,6.273,5.259h1.3v.039a1.133,1.133,0,0,1,1.177,1A9.121,9.121,0,0,0,244.424,714.173Z" transform="translate(-229.829 -711.744)" fill="#4e2e8e"/>
          <path id="Trazado_163677" data-name="Trazado 163677" d="M276.223,937.743a1.322,1.322,0,0,0,.029.277c-.025-.5-.028-1-.029-1.5Z" transform="translate(-261.122 -896.405)" fill="#4e2e8e"/>
          <path id="Trazado_163678" data-name="Trazado 163678" d="M290.105,931.8c0,.706-.047,1.47-.011,2.21a1.371,1.371,0,0,0,.011-.168Z" transform="translate(-272.631 -892.481)" fill="#4e2e8e"/>
          <path id="Trazado_163679" data-name="Trazado 163679" d="M278.585,779.239c-.035-.74.011-1.5.011-2.211V746.855c0-.139,0-.277-.01-.415a1.133,1.133,0,0,0-1.177-1v2.334h-1.187v30.051c0,.5,0,1,.029,1.5A1.2,1.2,0,0,0,278.585,779.239Z" transform="translate(-261.122 -737.715)" fill="#4e2e8e"/>
          <path id="Trazado_163680" data-name="Trazado 163680" d="M232.549,702.553l.07,0,.11,0H238.5a8.827,8.827,0,0,0-5.886-2.371l-.225.008A1.192,1.192,0,0,0,232.549,702.553Z" transform="translate(-223.904 -700.124)" fill="#4e2e8e"/>
          <path id="Trazado_163681" data-name="Trazado 163681" d="M207.927,745.217H195.44a6.608,6.608,0,0,0-.128,1.195,1.133,1.133,0,0,1-1.187,1.139v.039H208.04v-1.184A6.376,6.376,0,0,0,207.927,745.217Z" transform="translate(-192.938 -737.526)" fill="#4e2e8e"/>
          <path id="Trazado_163682" data-name="Trazado 163682" d="M195.312,746.412a6.608,6.608,0,0,1,.128-1.195h-1.315v2.334A1.133,1.133,0,0,0,195.312,746.412Z" transform="translate(-192.938 -737.526)" fill="#4e2e8e"/>
          <path id="Trazado_163683" data-name="Trazado 163683" d="M275.557,745.217a6.377,6.377,0,0,1,.113,1.188v-.01a1.115,1.115,0,0,1,1.187-1.14v-.038Z" transform="translate(-260.568 -737.526)" fill="#4e2e8e"/>
          <path id="Trazado_163684" data-name="Trazado 163684" d="M277.41,745.444a1.114,1.114,0,0,0-1.187,1.139v1.195h1.187Z" transform="translate(-261.122 -737.715)" fill="#4e2e8e"/>
          <path id="Trazado_163685" data-name="Trazado 163685" d="M387.533,937.971v-1.178H375.922v.039a1.113,1.113,0,0,1,1.187,1.156,9.091,9.091,0,0,1-.1,1.178h21.017a6.621,6.621,0,0,0,.128-1.2,1.18,1.18,0,0,1,1.6-1.076v-.1h-9.853v1.195A1.187,1.187,0,0,1,387.533,937.971Z" transform="translate(-343.923 -896.632)" fill="#4e2e8e"/>
          <path id="Trazado_163686" data-name="Trazado 163686" d="M506.479,938.165a6.639,6.639,0,0,1-.128,1.2h1.731v-2.271A1.179,1.179,0,0,0,506.479,938.165Z" transform="translate(-452.245 -896.826)" fill="#4e2e8e"/>
          <path id="Trazado_163687" data-name="Trazado 163687" d="M444.428,937.971a1.187,1.187,0,0,0,2.373.017v-1.195h-2.373Z" transform="translate(-400.818 -896.632)" fill="#4e2e8e"/>
          <path id="Trazado_163688" data-name="Trazado 163688" d="M377.012,939.358a9.093,9.093,0,0,0,.1-1.178,1.113,1.113,0,0,0-1.187-1.156v2.333Z" transform="translate(-343.923 -896.825)" fill="#4e2e8e"/>
          <path id="Trazado_163689" data-name="Trazado 163689" d="M317.144,773.414h16.1a1.187,1.187,0,0,0,.017-2.373h-16.1A1.187,1.187,0,0,0,317.144,773.414Z" transform="translate(-294.16 -758.973)" fill="#4e2e8e"/>
          <path id="Trazado_163690" data-name="Trazado 163690" d="M317.144,808.99h16.1a1.187,1.187,0,0,0,.017-2.373h-16.1A1.187,1.187,0,0,0,317.144,808.99Z" transform="translate(-294.16 -788.52)" fill="#4e2e8e"/>
          <path id="Trazado_163691" data-name="Trazado 163691" d="M317.144,844.565h16.1a1.187,1.187,0,0,0,.017-2.373h-16.1A1.187,1.187,0,0,0,317.144,844.565Z" transform="translate(-294.16 -818.065)" fill="#4e2e8e"/>
          <path id="Trazado_163692" data-name="Trazado 163692" d="M333.258,877.768h-16.1a1.187,1.187,0,0,0-.017,2.373h16.1A1.187,1.187,0,0,0,333.258,877.768Z" transform="translate(-294.16 -847.611)" fill="#4e2e8e"/>
        </g>
      </g>
    </g>
  </g>
</svg>
