<svg xmlns="http://www.w3.org/2000/svg" width="327.077" height="152.155" viewBox="0 0 327.077 152.155">
  <g id="Grupo_120599" data-name="Grupo 120599" transform="translate(-3192 9467.631)">
    <path id="Trazado_174405" data-name="Trazado 174405" d="M-1050.243,857.132c10.468-.81,20.977.047,31.446-.781-.288,3.345-.593,6.689-.849,10.036-.045.584-.544,1.441.624,1.591s1.081-.635,1.145-1.417c.283-3.409.61-6.814.92-10.22q9.545.014,19.089.038c.729,0,1.506-.211,2.171.3-.257,3.227-.53,6.454-.754,9.685-.044.643-.5,1.6.823,1.617,1.078.016.932-.768.989-1.43q.437-5.118.87-10.235l14.346.045c.023,3.371.1,6.744.042,10.115-.022,1.27.3,1.722,1.652,1.718q19.3-.073,38.6,0c1.367,0,1.66-.457,1.638-1.718-.059-3.246.02-6.494.044-9.739a102.491,102.491,0,0,0,10.256.366c1.2-.073,2.3.01,3.038,1.12.036,1.018.027,2.065,1.386,2.281.235,1.657-.616,2.842-1.707,3.925a1.574,1.574,0,0,0-1.289.929c-1.478.938-1.478.938-.978,1.8,1.453.731,6.329-.422,7.268-1.707.544-.745.333-1.247-.463-1.589a12.033,12.033,0,0,1-.474-3.266c.325-.136.739-.109.934-.493.194-.13.569-.282.557-.388-.307-2.558,1.4-2.317,3.033-2.24a26.7,26.7,0,0,0,3.146,0c1.164-.083,1.5.422,1.48,1.516-.011.641-.454,1.553.64,1.86l.573.438a10.281,10.281,0,0,1-.51,3.5c-.928.357-.879.931-.347,1.6.824,1.034,5.791,2.464,7.021,1.977.765-.3,1.272-.749.163-1.334l-1.009-.874a1.984,1.984,0,0,0-1.292-.937,4.114,4.114,0,0,1-1.632-3.951c.94-.968.474-2.309.9-3.412,6.046-.249,12.076.266,18.112.435,6.763.191,13.525.607,20.269,1.145,2.239.178,4.461.283,6.7.291,1.078.751.081,2.617,1.664,3.094q-.2.476-.405.953c-1.192.339-2.395.644-3.571,1.032-.51.169-1.19.408-1.1,1.081s.687.964,1.383.978c1.678.031,3.355.078,5.032.122.684.019,1.3-.145,1.375-.921.07-.731.5-1.68-.745-1.94l-.158-1.435c.912-.535.45-1.475.651-2.22,3.664-.109,7.254.734,10.9.823-.081.544-.74,1.1.023,1.628.538.374,1.028.16,1.539-.1.815-.405,1.65-.77,2.478-1.15,3.029.609,6.073,1.156,9.081,1.855,1.211.28,3.077.374,3.069,1.891-.006,1.358-1.814,1.489-2.981,1.788-5.916,1.52-11.983,2.037-18.035,2.7-7.42.818-14.877,1.072-22.3,1.794-2.289.224-4.6.163-6.9.35-4.22.344-8.478.222-12.71.471-7.473.44-14.955.532-22.429.832-3.8.153-7.61.056-11.405.283-8.114.485-16.239.155-24.352.405-23.5.726-47.011.3-70.513.2-7.046-.028-14.123.138-21.157-.327-5.123-.339-10.24-.053-15.347-.336-7.1-.4-14.2-.5-21.3-.746-7.529-.264-15.055-.665-22.574-1.123-6.7-.408-13.408-.837-20.086-1.518-6.85-.7-13.749-1.175-20.437-2.986-1.2-.325-3.077-.386-3.035-1.926.036-1.331,1.837-1.488,3.013-1.763a100.921,100.921,0,0,1,14.713-2.3,8.928,8.928,0,0,0,3.055-.665c1.106.189,2.141,1.358,3.343.241a103.191,103.191,0,0,1,10.57-1.086l.987.376c-.618.4-.546,1.192-1.076,1.739a1.5,1.5,0,0,0,.965,2.387c1.81.075,3.626.019,5.439.012a1.111,1.111,0,0,0,1.167-.763c.221-.729-.375-1.015-.881-1.216-.749-.3-1.552-.461-2.317-.726-.912-.314-1.936-.454-2.471-1.427a1.693,1.693,0,0,0,1.374-.7c5.958-.1,11.9-.607,17.847-.865,6.761-.294,13.514-.727,20.286-.677-.3,1.6.9,1.766,1.974,2.04a4,4,0,0,1-1.658,3.864,1.817,1.817,0,0,0-1.3.862l-.958.749c-1.33,1.231.111,1.386.7,1.417a10.934,10.934,0,0,0,5.827-1.525c.823-.449,1.031-1.275-.122-1.8l-.183-3.531c1.439-.274.95-1.594,1.325-2.445a63.312,63.312,0,0,0,8.471-.372c.073,1.4-.061,2.956,2.094,2.8-.059,1.148.18,2.337-.463,3.405-.648.415-.529.895-.124,1.4.762.951,5.62,2.082,6.686,1.539.629-.321,1.173-.693.185-1.268l-1-.721a1.98,1.98,0,0,0-1.531-.931,4.834,4.834,0,0,1-1.6-3.729C-1050.3,859.32-1050.365,858.171-1050.243,857.132Z" transform="translate(4345.992 -10189.946)" fill="#d5e4fa"/>
    <path id="Trazado_174406" data-name="Trazado 174406" d="M-1037.035,904.136q-.434,5.118-.87,10.235c-.056.662.089,1.445-.989,1.43-1.325-.017-.867-.975-.823-1.617.224-3.23.5-6.457.754-9.683a7.518,7.518,0,0,0,.171-3.5c-.135-.749-.74-.541-1.19-.543q-9.37-.019-18.739,0c-.462,0-1.053-.166-1.173.576l-.327,3.13c-.311,3.406-.638,6.811-.922,10.22-.064.782.014,1.568-1.145,1.417s-.67-1.007-.624-1.591c.256-3.348.562-6.692.849-10.037q1.413-16.528,2.831-33.055a9.955,9.955,0,0,1,.269-1.259l1.309,4.421c-.127,1.2-.268,2.406-.375,3.61-.044.5-.3,1.153.605,1.184l-.194,1.841c-.907.136-.731.9-.781,1.46-.433,4.94-.743,9.893-1.292,14.817-.219,1.96.482,2.368,2.157,2.023a28.239,28.239,0,0,0,5.984.047l9.156-.028c.663.045,1.328.123,1.992.128,2.3.014,2.3,0,2.094-2.342.48-5.018.946-10.04,1.452-15.056.088-.868-.271-1.12-1.043-1.045l.077-1.858c1.364.15,1.266-.846,1.341-1.708.366-4.222.705-8.446,1.109-12.664.383-4.013.413-4.009-3.568-4.008-.624,0-1.248,0-1.872,0l-.38-1.7c1.688,0,3.376-.017,5.062.022.846.019,1.2-.263,1.275-1.164q.65-7.929,1.419-15.848c.11-1.126-.158-1.585-1.378-1.516-1.744.1-3.5.023-5.248.025-2.9,0-3.6.679-3.826,3.676a17.4,17.4,0,0,0,1.724,8.532,3.005,3.005,0,0,1,.081,3.019,8.817,8.817,0,0,1-4.9,1.985,41.654,41.654,0,0,1-13.674-.651c-1.483-.659-1.641-2.284-1.929-3.438-.707-2.852-2.714-4.846-4.08-7.246a35.351,35.351,0,0,1-2.24-4.3,5.057,5.057,0,0,1,1.214-5.824c3.1-3.215,6.963-5.2,11.038-6.852a7.767,7.767,0,0,1-.393,1.212,10.43,10.43,0,0,1-4,3.736c-1.908,1.248-2.022,2.051-.758,3.934.2.307.4.62.6.929a5.19,5.19,0,0,1-.864.339c-1.754.361-2.265,1.214-1.754,3.06.618,2.223,1.749,4.245,2.276,6.482.116.488.136,1.093.795,1.045.5-.038.543-.61.646-1.009a19.036,19.036,0,0,0,.427-8.478,17.132,17.132,0,0,0,10.365,3.776c2.583-.006,3.894-1.664,3.4-4.191a22.064,22.064,0,0,0-1.569-4.4c-.828-1.93-1.75-3.861-1.52-6.066a4.252,4.252,0,0,1,2.847.462,6.2,6.2,0,0,0,7.218.141c2.553-1.591,3.3-3.984,3.049-6.939-.174-2.057-.959-4.1-.184-6.249.28-.777-.33-1.622-1.111-2.21-1.557-1.175-2.511.07-3.625.77-1.577.987-2.891,2.734-5.14,1.788l-.257-.324-.1-1.988c.164-3.825.263-7.654.527-11.473a2.792,2.792,0,0,0-1.821-3.2c-2.922-2.285-5.83-4.591-8.777-6.842a2.77,2.77,0,0,1-1.362-2.464,3.25,3.25,0,0,1,2.215-1.533c3.833-1.068,7.653-2.184,11.482-3.257.676-.189,1.327-.314,1.566-1.114.394-1.3.823-2.6,1.236-3.9.974-2.616,2.016-5.208,2.892-7.856.46-1.394,1.192-2.129,2.686-1.981a4.865,4.865,0,0,1,1.486,1.649c2.043,3.054,4.159,6.062,6.113,9.172.834,1.33,1.765,2.013,3.33,1.639,3.737.139,7.476.33,11.215.394,1.581.027,2.489.61,2.65,2.213q-4.116,5.334-8.225,10.669c-.4.519-1.068.948-.76,1.779q1.736,6.009,3.471,12.017a3.806,3.806,0,0,1-1.862,4.865,2.439,2.439,0,0,0-1.206,1.793c-.954.224-1.536-.87-2.475-.7,1.028-.776.166-1.7.194-2.547.091-.612.268-1.27-.558-1.528-1.69-.527-3.243-1.483-5.064-1.593l.015.008c-.131-.4-.463-.371-.784-.364l.024.017c-.156-.353-.476-.355-.79-.364a23.221,23.221,0,0,0-2.226-.918c-1.15-.347-3.072,1.128-2.975,2.2.218,2.4.153,4.757.993,7.158,1.289,3.682.97,7.61.454,11.462a13.087,13.087,0,0,1-6.495,8.164c1.97,0,3.445-.019,4.92.008.77.014,1.112-.253,1.15-1.073.109-2.362.292-4.723.446-7.083,1.886-.727,2.046-.536,1.821,1.979q-1.657,18.436-3.287,36.874C-1035.094,881.035-1036.055,892.586-1037.035,904.136Z" transform="translate(4389.257 -10237.762)" fill="#6677d6"/>
    <path id="Trazado_174407" data-name="Trazado 174407" d="M-957.311,869.017c-1.835.964-2.475.793-3.4-1.04q-2.689-5.357-5.3-10.751a2.377,2.377,0,0,0-2.073-1.538c-3.955-.527-7.886-1.217-11.825-1.855a2.283,2.283,0,0,1-2.082-1.363c-.366-1.04.192-1.769.909-2.462,2.877-2.781,5.71-5.608,8.6-8.37a2.422,2.422,0,0,0,.807-2.467c-.723-4.052-1.337-8.123-1.954-12.192a1.9,1.9,0,0,1,2.827-2.112c1.14.5,2.234,1.1,3.348,1.657a32.2,32.2,0,0,1,3.564,2.044c3.565,2.673,7.039,3.03,10.739.192a34.092,34.092,0,0,1,4.471-2.34c.743-.408,1.711-.5,2.138-1.4a11.548,11.548,0,0,0-.971-1.552c-.3-.349-.274-1.28-1.062-.89a1.284,1.284,0,0,0-.7,1.693c.123.343.189.707.281,1.062-1.419,1.289-2.916.7-4.41.183,1.43-.393,1.441-1.547.618-2.191-1.7-1.328-1.861-3.14-2.17-4.965a3.513,3.513,0,0,0-.382-1.4c-1.43-2.326-.8-3.992,1.786-4.87.641-.217,1.306-.369,1.96-.551,1.833-.128,3.64-.1,5.122,1.214a10.99,10.99,0,0,1,2.412,3.745,5.8,5.8,0,0,0,5.985,3.585c2.673.645,3.5,1.428,3.528,3.352.031,2.065-2.109,4.829-4.263,5.435a10.2,10.2,0,0,1-1.66.191c-.408-.377-.809-.765-1.231-1.128-.929-.8-1.533-1.193-1.772.612-.471,3.563-1.186,7.094-1.813,10.636-.308,1.733.551,3.661-1.076,5.2-.508.482.269,1.1.768,1.466a1.042,1.042,0,0,0,1.51-.028c.563-.577,1.117-1.167,1.674-1.75,2.142,2.167,4.275,4.341,6.431,6.493a2.065,2.065,0,0,1,.785,2.145,2.175,2.175,0,0,1-1.988,1.46c-2.146.324-4.3.61-6.448.91-2.029.269-4.053.565-6.087.793-.892.1-1.223.695-1.572,1.381C-953.278,861.179-955.3,865.1-957.311,869.017Z" transform="translate(4438.493 -10215.246)" fill="#ffef0f"/>
    <path id="Trazado_174408" data-name="Trazado 174408" d="M-1113.7,824.767a4.729,4.729,0,0,1-1.489-.077c-3.221-1.278-4.968.76-6.72,2.878-2.218,2.684-4.43,5.375-6.714,8-1.2,1.378-2.95.756-3.47-1.2-1.021-3.845-2.087-7.682-2.944-11.563a2.6,2.6,0,0,0-2.134-2.206c-3.952-1.114-7.894-2.265-11.833-3.423-.885-.261-1.943-.441-2.1-1.582s.677-1.844,1.515-2.382q5.741-3.686,11.54-7.28a3.663,3.663,0,0,0,1.805-3.027q.66-6.1,1.535-12.183c.28-1.955,2.411-2.689,4.056-1.4q5,3.909,9.877,7.962a2.61,2.61,0,0,0,2.539.627c4.234-.972,8.49-1.86,12.741-2.756a7.3,7.3,0,0,1,1.494-.08c2.141.013,2.792.957,1.786,2.819q-3.065,5.674-6.309,11.252a2.2,2.2,0,0,0-.113,2.553c1.828,3.116,3.587,6.276,5.369,9.42.632,1.115,1.732,2.217.879,3.581-.867,1.388-2.389.651-3.639.735a3.687,3.687,0,0,1-1.083-.269c-1.228-1.894-2.978-2.8-3.851-1.752A4.328,4.328,0,0,1-1113.7,824.767Z" transform="translate(4343.118 -10228.116)" fill="#d2e1f1"/>
    <path id="Trazado_174409" data-name="Trazado 174409" d="M-942.852,832.948a5.8,5.8,0,0,1-5.985-3.585,10.991,10.991,0,0,0-2.412-3.745c-1.482-1.311-3.288-1.342-5.122-1.214a18.309,18.309,0,0,0-2.048-.036,75.435,75.435,0,0,1-9.045.69c.279-.491,1.217-.4,1.114-1.381-1.9.8-1.43-.224-1-1.226.2-.482.735-.989.066-1.466a1.6,1.6,0,0,0-1.92,0,2.953,2.953,0,0,0-1.312,2.711c.03.613.117,1.223.18,1.835-3.1-.122-3.632-1.158-2.082-3.8,1.859-3.173,3.589-6.42,5.452-9.589a2.855,2.855,0,0,0,.031-3.266c-1.977-3.318-3.853-6.7-5.764-10.054-.216-.379-.435-.759-.615-1.156-.721-1.6-.15-2.628,1.621-2.561,3.681.139,7.2,1.272,10.8,1.93,1.463.268,2.911.62,4.357.975a1.959,1.959,0,0,0,1.826-.656c3.186-2.589,6.376-5.175,9.619-7.689,2.317-1.8,3.976-1.058,4.489,1.846.659,3.729,1.1,7.485,1.464,11.251a4.046,4.046,0,0,0,2.154,3.4c3.8,2.251,7.509,4.674,11.208,7.1.738.482,1.7,1.025,1.557,2.149-.149,1.2-1.181,1.492-2.153,1.775-3.942,1.151-7.875,2.329-11.831,3.427a2.41,2.41,0,0,0-2.021,1.862C-941.062,825.968-941.97,829.455-942.852,832.948Z" transform="translate(4443.281 -10228.113)" fill="#d2e1f1"/>
    <path id="Trazado_174410" data-name="Trazado 174410" d="M-1005.82,832.3c.655-.274,1.209-.543,1.079-1.477a113.857,113.857,0,0,1-.759-13.24,2.677,2.677,0,0,0-1.442-2.537c-3.294-2.026-6.529-4.152-9.786-6.24-.853-.546-1.721-1.081-1.578-2.312s1.143-1.525,2.073-1.891q3.128-1.234,6.26-2.456c1.588-.561,3.165-1.156,4.766-1.672a2.236,2.236,0,0,0,1.611-1.829c.936-3.814,1.957-7.607,2.964-11.4.236-.893.374-1.888,1.516-2.156,1.172-.274,1.86.41,2.514,1.231q3.677,4.618,7.388,9.207c.455.563.818,1.233,1.776,1.147,2.486-.221,4.979-.475,7.471-.5,2.451-.024,4.956-.857,7.362.3a2.452,2.452,0,0,1-.28,2.777c-2.264,3.36-4.443,6.778-6.709,10.137a2.184,2.184,0,0,0-.274,2.371c1.24,2.922,2.345,5.9,3.524,8.851.171.427.047,1.1,1.057.754,2.273-.785,3.676.271,3.847,2.692.053.745.025,1.5.034,2.243a2.778,2.778,0,0,1-1.987.8c-.429-1.289-1.22-1.838-2.545-1.211a3.467,3.467,0,0,1-2.547-.045c-3.656-1.01-7.316-2.007-10.972-3.019a2.353,2.353,0,0,0-2.444.272c-2.373,2.019-4.8,3.972-7.207,5.954-.363.3-.742.485-.673,1.172.267,2.644-.513,3.5-3.14,3.9-.931.144-2.035-.36-2.777.633A3.768,3.768,0,0,1-1005.82,832.3Z" transform="translate(4418.055 -10230.179)" fill="#ffef0f"/>
    <path id="Trazado_174411" data-name="Trazado 174411" d="M-1096.315,807.009l-6.676-8.25-.466-.394.036-.013c-.193-2.509.208-2.921,2.741-3,3.737-.119,7.471-.3,11.207-.405a2.965,2.965,0,0,0,2.731-1.547c2.024-3.288,4.186-6.492,6.251-9.755a2.605,2.605,0,0,1,2.575-1.486l1.144.859c1.347,3.656,2.8,7.277,4,10.982.649,2.007,1.647,3.227,3.842,3.205q4.86,1.342,9.719,2.684c1.031.283,2.117.486,2.348,1.8.213,1.2-.619,1.779-1.419,2.412-2.2,1.741-4.371,3.518-6.551,5.28-1.267,1.04-2.9,1.672-3.665,3.276.219,4.05.253,8.122.745,12.139.211,1.73,1.145,3.377.651,5.218-.626.479-1.327.269-2.012.219a22.9,22.9,0,0,0-3.035-3.182c-3.088-2.217-6.321-4.233-9.47-6.368a1.6,1.6,0,0,0-1.7-.2c-3.01,1.2-6.2,2.06-9.007,3.609-1.406.774-3.155,2.131-2.878,4.391a2.378,2.378,0,0,1-2.059.1c.593-.9-.055-1.677-.292-2.458a7.907,7.907,0,0,1-.022-5.034c.707-2.095,1.143-4.28,1.7-6.428C-1095.083,812.06-1093.094,809.39-1096.315,807.009Z" transform="translate(4370.009 -10231.804)" fill="#ffef0f"/>
    <path id="Trazado_174412" data-name="Trazado 174412" d="M-1129.361,852.548c-1.248-.2-2.827.856-3.676-.837-.757-1.511.452-2.569,1.1-3.707,1.159-2.041,2.4-4.036,3.607-6.049a8.252,8.252,0,0,1,.82.743c.723.845,1.383,1.048,2.332.2.968-.863.494-1.448-.081-2.182-.455-.582-1.259-1.378-1.122-1.851.634-2.168-.937-3.563-1.547-5.283l-.4-.912a32.211,32.211,0,0,0-2.823-6.189c-.2-.518-.41-1.032-.593-1.556a1.874,1.874,0,0,1,2.14-2.641c1.1.161,2.184.41,3.274.621q4.843,1.1,9.686,2.193c.505.114.993.161,1.237-.452,3.068-2.758,6.149-5.5,9.2-8.283.774-.707,1.528-1.359,2.644-.957,1.07.386,1.139,1.347,1.237,2.312.407,3.973.9,7.939,1.25,11.917a2.469,2.469,0,0,0,1.5,2.126c3.387,1.883,6.747,3.817,10.124,5.716.9.508,1.756,1.024,1.663,2.246-.088,1.136-.975,1.511-1.843,1.894-3.543,1.567-7.072,3.163-10.636,4.682a2.669,2.669,0,0,0-1.855,2.267c-.635,3.748-1.455,7.465-2.239,11.186-.2.961-.33,2.046-1.5,2.409-1.275.4-1.949-.515-2.666-1.308q-2.64-2.924-5.284-5.84c-.9-1.018-1.819-2.03-2.712-3.061a1.565,1.565,0,0,0-1.564-.685C-1121.841,851.752-1125.6,852.132-1129.361,852.548Z" transform="translate(4353.185 -10213.103)" fill="#ffef0f"/>
    <path id="Trazado_174413" data-name="Trazado 174413" d="M-978.212,812.259a2.777,2.777,0,0,0,1.987-.8c.72-.39.835.166.984.64a27.388,27.388,0,0,1,1.2,13.111,11.019,11.019,0,0,1-5.926,7.978c-4.4,2.419-5.927,5.929-4.94,10.852,1.164,5.8,2.634,11.567,2.731,17.536.016.973.188,2.034-.74,2.773-1.411.055-1.841-1.262-2.7-1.963-1.571-1.28-2.978-2.85-5.325-2.329a6.673,6.673,0,0,0-2.836,2.195l-.369.433.085,0c-2.586,1.28-4.321.868-6.065-1.453-.257-.341-.4-.774-.848-.937-.824-2.082-1.425-4.188-.657-6.432.183.031.366.064.549.092a2.134,2.134,0,0,0,2.293-.863c.58-.939-.462-1.256-.931-1.727-1.419-1.419-.386-1.661.934-1.685-.344-.806-1.031-.6-1.474-.865a25.475,25.475,0,0,0,.033-12.9c-.109-.407-.022-1.062-.809-.915a4.747,4.747,0,0,0-3.629,5.951c.477,1.535,1.156,3.008,1.732,4.513a2.3,2.3,0,0,1,.158,2.124l-1.533,1.226a.841.841,0,0,1-1.156-.573,75.364,75.364,0,0,1-3.992-9.636,6.342,6.342,0,0,1,1.547-6.559,31.947,31.947,0,0,1,9.223-6.58c.985-.475,2.113-1.2,3.316-.358.638,1.422,1.344,3.111,3,3.176,1.635.062,2.209-1.724,2.969-2.969a.547.547,0,0,0,.034-.18c.99-.912,1.868-.247,2.7.253a4.94,4.94,0,0,0,3.754.655c4.106-.89,6.143-4.033,5.494-8.331C-977.695,815.895-978.483,814.151-978.212,812.259Z" transform="translate(4422.876 -10215.338)" fill="#6677d6"/>
    <path id="Trazado_174414" data-name="Trazado 174414" d="M-993.815,823.474a3.78,3.78,0,0,0,.125,2.462c-.96.444-1.944.84-2.875,1.336a11.842,11.842,0,0,1-12.3-.387c-1.048-.616-2.115-1.2-3.294-1.865,0,1.094.009,1.955,0,2.817-.053,4.241.427,8.494-.245,12.723-2.095.206-4.188.535-6.289.6-4.111.119-8.253.217-11.8-2.447a3.188,3.188,0,0,1-.128-1.655c.283-3.725.452-7.465.892-11.171.225-1.887-.2-2.975-2.026-3.726a11.278,11.278,0,0,1-6.365-7.175,22.882,22.882,0,0,1-.6-14.3c.939-.166,1.521.928,2.475.7.731,1.819.122,3.789.64,5.642.268.954.311,1.974.588,2.925,1.3,4.439,5.427,6.242,9.6,4.247.623-.3,1.256-.97,2.009-.208,1.833,2.753,4.4,2.727,6-.063,1.036-.893,2.018-.191,2.924.2a17.469,17.469,0,0,1,5.9,4.5c1.009,1.1,2.018,2.21,3.014,3.327a7.3,7.3,0,0,0,8.766,2.184C-995.865,823.792-994.929,823.155-993.815,823.474Z" transform="translate(4406.051 -10221.353)" fill="#4e2e8e"/>
    <path id="Trazado_174415" data-name="Trazado 174415" d="M-972.777,802.006c-2.406-1.156-4.91-.322-7.362-.3-2.492.023-4.985.278-7.471.5-.957.086-1.32-.583-1.776-1.147q-3.712-4.587-7.388-9.208c-.654-.821-1.342-1.5-2.514-1.231-1.142.267-1.28,1.262-1.516,2.156-1.007,3.8-2.029,7.59-2.964,11.4a2.236,2.236,0,0,1-1.611,1.829c-1.6.516-3.179,1.111-4.766,1.672.505-1.664.928-3.36,1.545-4.981a2.64,2.64,0,0,0-.538-2.919q-4.038-4.766-8.045-9.561c-.513-.613-1.166-1.27-.643-2.151a2.314,2.314,0,0,1,2.179-1.176c3.934.047,7.89-.229,11.8.1,2.9.246,4.607-.939,6.21-3.049,2.027-2.67,4.222-5.215,6.392-7.773,1.394-1.643,3.57-1.1,4.311,1.068q1.957,5.749,3.807,11.534a3,3,0,0,0,1.976,2.192c4.205,1.553,8.35,3.262,12.536,4.862,1,.382,1.822.845,1.965,1.988.16,1.273-.795,1.735-1.716,2.151A28.693,28.693,0,0,1-972.777,802.006Z" transform="translate(4418.227 -10235.714)" fill="#d2e1f1"/>
    <path id="Trazado_174416" data-name="Trazado 174416" d="M-1071.327,813.516c.685.05,1.386.26,2.012-.219.461-.006.658.252.7.685.253,2.409.59,4.815.749,7.23a12.286,12.286,0,0,1-4.694,10.876,12.69,12.69,0,0,0-5.131,8.853.831.831,0,0,0-.6.835q.012,2.785.008,5.572a.853.853,0,0,0,.629.817c.61,1.749,1.281,3.482,1.8,5.258.166.569.737,1.486-.474,1.8a12.9,12.9,0,0,0-10.158-2.392c-2.61.407-5.241.513-6.994-2.1-.569-.565-.427-1.131-.213-1.854a41.354,41.354,0,0,0,1.858-10.09,6.2,6.2,0,0,0-1.611-4.621c-5.727-6.406-6.349-14.23-6.04-22.293a2.38,2.38,0,0,0,2.06-.1c.326.174.341.476.336.795a34.618,34.618,0,0,0,1.484,8.774,7.687,7.687,0,0,0,4.466,5.375c.549.557,1.245.413,1.924.455.709.044,1.43-.633,2.123.031,1.691,2.6,3.869,2.59,5.631-.02,1.1-.623,2.215.365,3.315-.044,3.975.341,5.979-1.029,7.119-4.868.909-1.212.9-4.915-.011-6.113A3.791,3.791,0,0,1-1071.327,813.516Z" transform="translate(4372.22 -10215.089)" fill="#6677d6"/>
    <path id="Trazado_174417" data-name="Trazado 174417" d="M-1044.289,828.628l.38,1.7a4.59,4.59,0,0,0,.028.551c1.02,5.937,3.421,11.643,2.963,17.825l-.077,1.858a8.984,8.984,0,0,0-.278,1.251c-.3,3.768-.605,7.538-.864,11.311-.056.84-.033,1.636-1.072,1.876l-1.818-.047c-.964-.787-.674-1.937-.766-2.93-.357-3.819-.619-7.645-.917-11.468l.136-1.84a3.244,3.244,0,0,0-.662-3.734,37.534,37.534,0,0,1-4.49-6.881c-.767-1.513-1.466-3.06-2.37-4.957-.687,5.459-.338,10.528-.732,15.557l-.288,1.84c-.688,4.547-1.433,9.087-2.029,13.647-.174,1.331-.911,1.6-1.962,1.664-1.322.078-1.056-.918-1.086-1.683q-.268-6.8-.522-13.61l.194-1.841a5.857,5.857,0,0,0-.23-4.795l-1.31-4.421c-1.062-4.2-2.17-8.388-1.7-12.79a41.694,41.694,0,0,0,13.674.649,8.818,8.818,0,0,0,4.9-1.985Q-1044.735,827-1044.289,828.628Z" transform="translate(4392.353 -10207.409)" fill="#4e2e8e"/>
    <path id="Trazado_174418" data-name="Trazado 174418" d="M-1094.653,836.672c1.754,2.614,4.385,2.508,6.994,2.1a12.905,12.905,0,0,1,10.158,2.392q-.07,11.01-.141,22.022c-.009,1.679,0,3.355-.006,5.032-.122,1.039-.055,2.188-1.452,2.478q-1.075.15-2.15.3c-2.155.161-2.021-1.4-2.095-2.8a159.077,159.077,0,0,0-3.01-26.155,122.862,122.862,0,0,0-5.461,26.528c-.375.851.114,2.171-1.323,2.445-.766-.013-1.535-.022-2.3-.033-1.076-.274-2.271-.435-1.974-2.04.365-4.039.634-8.091,1.117-12.116C-1095.491,850.133-1095.074,843.4-1094.653,836.672Z" transform="translate(4373.396 -10201.034)" fill="#4e2e8e"/>
    <path id="Trazado_174419" data-name="Trazado 174419" d="M-1129.1,839.574c3.758-.416,7.52-.8,11.269-1.278a1.565,1.565,0,0,1,1.564.685c.893,1.031,1.808,2.043,2.712,3.061.24,1.909.388,3.837.737,5.73.909,4.934-.842,9.614-1.292,14.417-.233,2.473-.638,4.932-.967,7.4a1.684,1.684,0,0,1-1.367.7l-.832-.006-.987-.376c-.3-7.118.3-14.3-1.422-21.863a16.158,16.158,0,0,1-.971,2.367c-3.26,5.007-6.564,9.985-9.827,14.991a1.408,1.408,0,0,1-1.519.792,1.365,1.365,0,0,1-1.311-.685c-.754-.641-.372-1.316-.094-2.021q3.135-7.969,6.243-15.945c.2-.206.458-.5.25-.724-.305-.336-.435.12-.626.271-1.535.493-1.509-.76-1.552-1.572C-1129.184,843.539-1129.1,841.556-1129.1,839.574Z" transform="translate(4352.919 -10200.128)" fill="#6677d6"/>
    <path id="Trazado_174420" data-name="Trazado 174420" d="M-1075.32,786.094a2.605,2.605,0,0,0-2.575,1.486c-2.065,3.263-4.227,6.467-6.251,9.755a2.965,2.965,0,0,1-2.731,1.547c-3.735.1-7.47.286-11.207.405-2.532.08-2.933.491-2.74,3-2.429-.291-4.383-1.716-6.39-2.894-1.375-.806-1.025-2.462.626-3.188,2.958-1.3,5.983-2.446,8.982-3.653a13.009,13.009,0,0,1,2.439-.92c2.822-.508,3.811-2.44,4.469-4.976.859-3.3,2-6.539,3.149-9.758a2.353,2.353,0,0,1,4.172-.762c2.666,3.111,5.262,6.279,7.878,9.433A1.6,1.6,0,0,1-1075.32,786.094Z" transform="translate(4367.412 -10235.738)" fill="#d2e1f1"/>
    <path id="Trazado_174421" data-name="Trazado 174421" d="M-966.255,853.293c2.012-3.922,4.033-7.839,6.032-11.767.349-.687.681-1.28,1.572-1.381,2.034-.228,4.058-.524,6.087-.793-.113,1.494-.189,2.991-.343,4.482-.354,3.465.044,6.46,2.386,9.522,2.688,3.513,4.339,7.818,6.462,11.767a.99.99,0,0,1-.188,1.322l-1.381.9a1.157,1.157,0,0,1-1.447-.513c-3.951-5.553-8.361-10.78-12-16.594a6.963,6.963,0,0,0-1.068,5.854c1.233,4.546.632,9.314,1.156,13.96-.2.745.261,1.685-.651,2.22l-1.808.13c-1.585-.477-.588-2.343-1.666-3.094C-963.663,863.873-965.082,858.607-966.255,853.293Z" transform="translate(4447.437 -10199.521)" fill="#6677d6"/>
    <path id="Trazado_174422" data-name="Trazado 174422" d="M-1063.631,823.088c-.2-.31-.4-.623-.6-.929-1.264-1.883-1.15-2.686.758-3.934a10.432,10.432,0,0,0,4-3.736,7.778,7.778,0,0,0,.393-1.212c.76-1.885.4-3.8.135-5.7a11.088,11.088,0,0,1-.074-3.534c.521-2.823,2.135-4.145,4.987-3.832,1.807.2,3.773-.416,5.4.881.086.108.17.216.257.322.737,1.631.031,3.074-.6,4.525l-.25.435a1.014,1.014,0,0,1-.078.2c-2.329.934-3,2.689-2.5,5.032a3.473,3.473,0,0,0,.371,2.049c-.23,2.206.693,4.136,1.521,6.066a22.06,22.06,0,0,1,1.569,4.4c.49,2.526-.821,4.184-3.4,4.191a17.132,17.132,0,0,1-10.365-3.776Z" transform="translate(4391.678 -10221.638)" fill="#cc3371"/>
    <path id="Trazado_174423" data-name="Trazado 174423" d="M-1078.56,796.9c-2.195.022-3.193-1.2-3.842-3.205-1.2-3.7-2.653-7.326-4-10.982,5.054-.006,10.109,0,15.163-.022.9,0,1.807-.031,2.26.926.482,1.017-.109,1.7-.735,2.481C-1072.635,789.719-1075.885,793.073-1078.56,796.9Z" transform="translate(4379.637 -10231.497)" fill="#d2e1f1"/>
    <path id="Trazado_174424" data-name="Trazado 174424" d="M-997.74,842.511c2.346-.521,3.754,1.05,5.325,2.329.859.7,1.289,2.018,2.7,1.963.8,4.033-.009,8.041-.191,12.056-.1,2.289-.344,4.569-.522,6.853-.427,1.1.039,2.443-.9,3.412l-2.393.019-.573-.438C-995.023,859.919-994.829,851.011-997.74,842.511Z" transform="translate(4429.67 -10197.797)" fill="#4e2e8e"/>
    <path id="Trazado_174425" data-name="Trazado 174425" d="M-1022.673,814.565c-1.6,2.789-4.169,2.816-6,.063.46-.139,1-.13,1.364-.716a3.489,3.489,0,0,1-1.952-2.741c-.546-2.226-.185-4.529-.906-6.787-.535-1.675,1.477-3.892,3.531-4.645a5.409,5.409,0,0,1,5.394,1.757,3.736,3.736,0,0,1,.318,4.946,4.328,4.328,0,0,0-.352,2.16c-.175,2.09-.505,4.1-2.617,5.356Z" transform="translate(4411.32 -10221.987)" fill="#fbd046"/>
    <path id="Trazado_174426" data-name="Trazado 174426" d="M-951.7,824.386c-.427.9-1.4.989-2.138,1.4a34.08,34.08,0,0,0-4.471,2.34c-3.7,2.838-7.174,2.481-10.739-.192a32.193,32.193,0,0,0-3.563-2.044c-.976-3.973.338-7.751,1.023-11.579.1-.571-.025-1.281.591-1.693a3.841,3.841,0,0,0,2.084.365c.394.511.177,1.084.147,1.632-.125,2.243-.338,4.485-.374,6.73a4.274,4.274,0,0,0,1.386,3.72,6.4,6.4,0,0,0,7.312.422c.579-.352,1.117-.843,1.886-.6,1.492.515,2.989,1.106,4.408-.183Z" transform="translate(4443.654 -10214.609)" fill="#4e2e8e"/>
    <path id="Trazado_174427" data-name="Trazado 174427" d="M-955.238,838.379c-.557.583-1.111,1.173-1.674,1.751a1.042,1.042,0,0,1-1.51.028c-.5-.366-1.276-.984-.768-1.466,1.627-1.542.768-3.47,1.076-5.2.627-3.542,1.342-7.072,1.813-10.636.239-1.805.843-1.414,1.772-.612.422.363.823.751,1.231,1.128,4.913,6.3,3.956,5.786.144,12.142C-953.758,836.521-954.539,837.427-955.238,838.379Zm-.918-8.61a8.842,8.842,0,0,0,.1,3.285C-955.443,831.65-954.318,830.671-956.156,829.77Z" transform="translate(4451.331 -10209.557)" fill="#4e2e8e"/>
    <path id="Trazado_174428" data-name="Trazado 174428" d="M-1130.754,822.444a32.248,32.248,0,0,1,2.824,6.187c-1.328,1.375-1.258,1.99.4,3.152v-2.239c.61,1.719,2.181,3.115,1.547,5.283-.138.472.666,1.269,1.121,1.851.576.734,1.05,1.319.081,2.182-.949.846-1.609.643-2.332-.2a8.264,8.264,0,0,0-.82-.743c-1.749-2.17-3.49-4.335-5.064-6.647a4.673,4.673,0,0,1-.178-5.531A16.989,16.989,0,0,1-1130.754,822.444Z" transform="translate(4352.782 -10209.063)" fill="#4e2e8e"/>
    <path id="Trazado_174429" data-name="Trazado 174429" d="M-1125.988,812.4a4.329,4.329,0,0,0,2.742-1.35c.873-1.045,2.623-.142,3.851,1.752.36,1.084-.211,1.966-.626,2.885a6.091,6.091,0,0,1-3.218.818c-.38-.051-.859.01-.931.435-.3,1.79-2.117,2.811-2.289,4.648-.927-.009-1.264-.693-1.494-1.4a19.851,19.851,0,0,0-1.334-4.008c-.369-.644,1.175-2.833,2.184-3A1.462,1.462,0,0,0-1125.988,812.4Z" transform="translate(4355.406 -10215.744)" fill="#c6412a"/>
    <path id="Trazado_174431" data-name="Trazado 174431" d="M-1127.5,819.751c.172-1.836,1.993-2.858,2.289-4.648.072-.425.551-.486.931-.435a6.092,6.092,0,0,0,3.218-.818,7.7,7.7,0,0,1-1.52,6.944c-.8.92-.765,1.776.38,2.425-1.5.729-3,1.156-4.527.077C-1125.563,821.8-1126.767,820.828-1127.5,819.751Z" transform="translate(4356.446 -10213.912)" fill="#fbd046"/>
    <g id="Grupo_119887" data-name="Grupo 119887" transform="translate(4343.118 -10238.287)">
      <path id="Trazado_174430" data-name="Trazado 174430" d="M-1044.73,777.887c-.413,1.3-.842,2.594-1.236,3.9-.239.8-.89.924-1.566,1.114-3.829,1.073-7.649,2.188-11.482,3.257a3.25,3.25,0,0,0-2.215,1.533,7.04,7.04,0,0,0-.956-.857,2.051,2.051,0,0,1-.946-2.26c.149-1,.96-1.242,1.766-1.4,3.836-.755,7.657-1.625,11.524-2.173C-1047.585,780.676-1045.611,780.288-1044.73,777.887Z" transform="translate(49.629 4.08)" fill="#b0c0d2"/>
      <path id="Trazado_174432" data-name="Trazado 174432" d="M-1036.886,784.591c-1.566.374-2.5-.31-3.33-1.64-1.954-3.11-4.07-6.118-6.113-9.172a4.866,4.866,0,0,0-1.486-1.649c1.309-2.043,2.98-1.966,4.211.244C-1041.345,776.436-1039.125,780.518-1036.886,784.591Z" transform="translate(58.294)" fill="#b0c0d2"/>
      <path id="Trazado_174433" data-name="Trazado 174433" d="M-1037.682,793.678c-.308-.831.361-1.259.76-1.779q4.1-5.343,8.225-10.669a8.757,8.757,0,0,1,1.669.161c1.707.5,2.095,2.123.728,3.254q-4.163,3.447-8.438,6.761C-1035.714,792.167-1036.46,793.234-1037.682,793.678Z" transform="translate(63.968 5.968)" fill="#b0c0d2"/>
      <path id="Trazado_174434" data-name="Trazado 174434" d="M-1054.8,790.1a2.792,2.792,0,0,1,1.821,3.2c-.264,3.819-.363,7.648-.527,11.473-3.083.057-3.357-.341-2.916-3.43.479-3.346.814-6.714,1.2-10.074C-1055.179,790.834-1055.2,790.4-1054.8,790.1Z" transform="translate(53.343 10.974)" fill="#b0c0d2"/>
    </g>
    <path id="Trazado_174435" data-name="Trazado 174435" d="M-952.058,857.574l1.381-.9a2.2,2.2,0,0,0,.372.646c2.78,2.334,2.783,2.329-.175,4.167-.827.38-1.663.745-2.478,1.15-.512.257-1,.471-1.539.1-.763-.53-.1-1.084-.023-1.628a9.268,9.268,0,0,0,1.362-1.485C-952.766,858.956-951.474,858.75-952.058,857.574Z" transform="translate(4453.867 -10189.748)" fill="#cc3371"/>
    <path id="Trazado_174436" data-name="Trazado 174436" d="M-1132.636,855.684a1.366,1.366,0,0,0,1.312.685c-.271.57-.069.843.4,1.306,1.056,1.034,2.515,1.808,2.764,3.493-1.2,1.117-2.237-.052-3.343-.241-.785-.382-1.575-.756-2.354-1.148-.548-.275-1.239-.476-1.058-1.314.156-.723.294-1.649,1.15-1.727C-1132.964,856.665-1132.978,856.058-1132.636,855.684Z" transform="translate(4352.247 -10190.305)" fill="#cc3371"/>
    <path id="Trazado_174437" data-name="Trazado 174437" d="M-969.62,814.947a3.839,3.839,0,0,1-2.083-.365c.1-.2.192-.4.286-.593-.062-.61-.15-1.22-.18-1.833a2.952,2.952,0,0,1,1.312-2.711,1.6,1.6,0,0,1,1.92,0c.669.477.139.984-.066,1.466-.429,1-.895,2.026,1,1.226.1.981-.835.89-1.114,1.381C-969.357,813.652-969.6,814.217-969.62,814.947Z" transform="translate(4444.362 -10216.577)" fill="#fbd046"/>
    <path id="Trazado_174438" data-name="Trazado 174438" d="M-1125.971,819.99c1.528,1.079,3.03.652,4.527-.077,1.732-.131,2.531,1.208,3.527,2.239-.244.615-.732.568-1.237.454q-4.843-1.094-9.686-2.193A2.5,2.5,0,0,1-1125.971,819.99Z" transform="translate(4355.689 -10210.606)" fill="#1b878a"/>
    <path id="Trazado_174439" data-name="Trazado 174439" d="M-1081.113,802.831c.765-1.6,2.4-2.235,3.665-3.276-.178.787.513,1.506.127,2.332C-1078.209,803.794-1079.677,803.212-1081.113,802.831Z" transform="translate(4382.622 -10221.979)" fill="#d5e4fa"/>
    <path id="Trazado_174440" data-name="Trazado 174440" d="M-1098.894,798.04c3.221,2.381,1.233,5.051.427,7.656Q-1098.68,801.869-1098.894,798.04Z" transform="translate(4372.588 -10222.834)" fill="#d5e4fa"/>
    <path id="Trazado_174441" data-name="Trazado 174441" d="M-1085.317,837.641a.853.853,0,0,1-.629-.817q0-2.785-.008-5.572a.831.831,0,0,1,.6-.835Q-1085.337,834.028-1085.317,837.641Z" transform="translate(4379.89 -10204.563)" fill="#0c3b5e"/>
    <path id="Trazado_174442" data-name="Trazado 174442" d="M-1103.46,792.514l.466.394Z" transform="translate(4370.011 -10225.952)" fill="#d5e4fa"/>
    <path id="Trazado_174443" data-name="Trazado 174443" d="M-1039.49,861.744c-.5-4.152,1.092-7.687,2.906-11.3,1.154-2.3,2.428-3.258,4.942-2.963.785.092,2.033.776,2.543-.663l2.447-.026c.063.665.516.754,1.065.751q8.337-.066,16.674-.117a2.088,2.088,0,0,0,3.069,0c3.063-.505,4.264,1.377,5.652,3.742a17.978,17.978,0,0,1,2.681,10.953c-.024,3.246-.1,6.493-.044,9.739.022,1.261-.271,1.722-1.638,1.718q-19.3-.075-38.6,0c-1.356,0-1.674-.447-1.652-1.718C-1039.39,868.488-1039.466,865.115-1039.49,861.744Zm12.428-9.081c-.748.114-1.193-.293-1.722-.781-.982-.907-2.015-1.054-2.766.388.674.407,1.644.322,1.837,1.3-1.047.546-2.032-.014-3.087-.009a1.983,1.983,0,0,0,2.067,1.219,5.8,5.8,0,0,0,3.865-1.982c.307-.1.58-.241.613-.6.005-.053-.169-.183-.241-.171A.663.663,0,0,0-1027.061,852.664Z" transform="translate(4406.058 -10195.325)" fill="#fbd046"/>
    <path id="Trazado_174444" data-name="Trazado 174444" d="M-997.058,845.015c-.08,1.636-.881,3.072-1.311,4.61a29.6,29.6,0,0,0-.616,7.912c-.023,3.434-.233,6.866-.363,10.3-.2.383-.609.357-.934.493l-2.357-.091c-1.359-.216-1.35-1.262-1.386-2.281l-.014-.723.009-.388c-.145-4.8-.324-9.6-.422-14.4a33.637,33.637,0,0,1,.482-7.823c.449.161.592.594.848.935C-1001.379,845.883-999.644,846.294-997.058,845.015Z" transform="translate(4425.868 -10197.674)" fill="#4e2e8e"/>
    <path id="Trazado_174445" data-name="Trazado 174445" d="M-1042.086,854.314a7.516,7.516,0,0,1-.17,3.5c-.665-.516-1.442-.3-2.171-.305q-9.545-.038-19.089-.038.164-1.565.327-3.13Q-1052.64,854.33-1042.086,854.314Z" transform="translate(4392.552 -10191.078)" fill="#fefefe"/>
    <path id="Trazado_174446" data-name="Trazado 174446" d="M-1122.71,858.736l.832.006c.529.975,1.554,1.114,2.465,1.428.765.264,1.568.429,2.317.726.505.2,1.1.486.881,1.216a1.111,1.111,0,0,1-1.167.763c-1.813.006-3.629.062-5.439-.013a1.5,1.5,0,0,1-.965-2.387C-1123.256,859.928-1123.328,859.136-1122.71,858.736Z" transform="translate(4358.359 -10188.583)" fill="#cc3371"/>
    <path id="Trazado_174447" data-name="Trazado 174447" d="M-959.382,861.441c1.24.26.815,1.209.745,1.94-.073.776-.691.94-1.375.921-1.677-.044-3.354-.091-5.032-.122-.7-.014-1.294-.291-1.383-.978s.591-.912,1.1-1.081c1.177-.388,2.379-.693,3.568-1.032C-960.961,861.148-960.227,861.677-959.382,861.441Z" transform="translate(4447.335 -10187.255)" fill="#cc3371"/>
    <path id="Trazado_174448" data-name="Trazado 174448" d="M-1002.687,859l2.357.091a12.037,12.037,0,0,0,.474,3.266c.044,1.215-.762,1.613-1.733,2.04-1.043.458-1.226-.361-1.722-.82a5.99,5.99,0,0,0-1.083-.652C-1003.3,861.84-1002.453,860.655-1002.687,859Z" transform="translate(4425.915 -10188.435)" fill="#fbd046"/>
    <path id="Trazado_174449" data-name="Trazado 174449" d="M-994.988,859.506l2.393-.019a4.112,4.112,0,0,0,1.633,3.951,2.37,2.37,0,0,0-1.5,1.306c-.163.391-.308.663-.8.435-1-.463-2.187-.73-2.237-2.171A10.279,10.279,0,0,0-994.988,859.506Z" transform="translate(4430.935 -10188.159)" fill="#fbd046"/>
    <path id="Trazado_174450" data-name="Trazado 174450" d="M-1095.572,858.61c.77.011,1.538.02,2.3.033q.089,1.767.182,3.531c.053.937-.493,1.361-1.276,1.761-1.71.876-1.807-1.2-2.867-1.461A4,4,0,0,0-1095.572,858.61Z" transform="translate(4373.527 -10188.654)" fill="#fbd046"/>
    <path id="Trazado_174451" data-name="Trazado 174451" d="M-1086.93,858.727q1.074-.152,2.149-.3a4.834,4.834,0,0,0,1.6,3.731c-2.067,2.243-2.739,2.24-4.216-.022C-1086.75,861.064-1086.989,859.875-1086.93,858.727Z" transform="translate(4379.078 -10188.76)" fill="#fbd046"/>
    <path id="Trazado_174452" data-name="Trazado 174452" d="M-1096.217,861.188c1.061.263,1.158,2.337,2.867,1.461.784-.4,1.33-.824,1.276-1.762,1.153.529.945,1.355.122,1.8a10.934,10.934,0,0,1-5.827,1.525c-.588-.031-2.029-.186-.7-1.417a1.155,1.155,0,0,0,1.9.562c.69-.851-.72-.77-.943-1.311A1.816,1.816,0,0,1-1096.217,861.188Z" transform="translate(4372.514 -10187.368)" fill="#cc3371"/>
    <path id="Trazado_174453" data-name="Trazado 174453" d="M-995.236,861.738c.05,1.441,1.234,1.708,2.237,2.171.491.229.637-.044.8-.435a2.37,2.37,0,0,1,1.5-1.306,1.981,1.981,0,0,1,1.289.935c-.358.479-1.233.43-1.269,1.223a.476.476,0,0,0,.466.482c.773.1,1.511.108,1.813-.829,1.109.585.6,1.031-.163,1.334-1.23.487-6.2-.943-7.021-1.977C-996.115,862.669-996.164,862.095-995.236,861.738Z" transform="translate(4430.673 -10186.889)" fill="#cc3371"/>
    <path id="Trazado_174454" data-name="Trazado 174454" d="M-1087.228,860.794c1.477,2.262,2.149,2.265,4.216.022a1.98,1.98,0,0,1,1.531.931c-.16.529-1.744.424-.734,1.362a1.111,1.111,0,0,0,1.733-.641c.989.576.444.948-.184,1.269-1.066.543-5.924-.588-6.686-1.539C-1087.757,861.689-1087.876,861.209-1087.228,860.794Z" transform="translate(4378.914 -10187.422)" fill="#cc3371"/>
    <path id="Trazado_174455" data-name="Trazado 174455" d="M-1003.576,861.712a6,6,0,0,1,1.083.652c.5.458.679,1.278,1.722.82.972-.427,1.777-.825,1.733-2.04.8.343,1.007.845.463,1.589-.938,1.284-5.814,2.437-7.268,1.708.659-.773,1.859.228,2.483-.7-.3-.71-.968-.812-1.5-1.1A1.574,1.574,0,0,1-1003.576,861.712Z" transform="translate(4425.097 -10187.225)" fill="#cc3371"/>
    <path id="Trazado_174456" data-name="Trazado 174456" d="M-1004.757,862.1c.537.288,1.206.389,1.5,1.1-.624.929-1.824-.072-2.483.7C-1006.235,863.04-1006.235,863.04-1004.757,862.1Z" transform="translate(4424.989 -10186.684)" fill="#fbd046"/>
    <path id="Trazado_174457" data-name="Trazado 174457" d="M-961.07,861.832c-.845.236-1.578-.293-2.376-.352.138-.318.272-.635.408-.953l1.81-.13C-961.176,860.876-961.123,861.353-961.07,861.832Z" transform="translate(4449.022 -10187.646)" fill="#fbd046"/>
    <path id="Trazado_174458" data-name="Trazado 174458" d="M-990.306,863.487c-.3.937-1.04.934-1.813.829a.476.476,0,0,1-.466-.482c.036-.793.91-.745,1.269-1.223Z" transform="translate(4432.579 -10186.396)" fill="#fbd046"/>
    <path id="Trazado_174459" data-name="Trazado 174459" d="M-1082.334,862.124a1.111,1.111,0,0,1-1.733.641c-1.01-.938.574-.834.734-1.362Z" transform="translate(4380.766 -10187.078)" fill="#fbd046"/>
    <path id="Trazado_174460" data-name="Trazado 174460" d="M-1097.718,861.631c.224.541,1.633.46.943,1.311a1.155,1.155,0,0,1-1.9-.562Z" transform="translate(4372.711 -10186.949)" fill="#fbd046"/>
    <path id="Trazado_174461" data-name="Trazado 174461" d="M-1049.8,851.251l1.805.807c.207,2.345.207,2.356-2.1,2.342-.663,0-1.328-.083-1.991-.128.1-.9-.471-1.88.325-2.7A2.555,2.555,0,0,0-1049.8,851.251Z" transform="translate(4398.945 -10192.807)" fill="#cc3371"/>
    <path id="Trazado_174462" data-name="Trazado 174462" d="M-1061.8,854.066c.288-2.631,1.284-3.114,3.654-1.725.842.494,1.829.821,2.328,1.772A28.223,28.223,0,0,1-1061.8,854.066Z" transform="translate(4393.522 -10192.62)" fill="#cc3371"/>
    <path id="Trazado_174463" data-name="Trazado 174463" d="M-1042.2,854.519q-10.555.017-21.1.03c.122-.741.713-.576,1.175-.576q9.37-.014,18.739,0C-1042.944,853.978-1042.338,853.77-1042.2,854.519Z" transform="translate(4392.669 -10191.283)" fill="#cc3371"/>
    <path id="Trazado_174464" data-name="Trazado 174464" d="M-1036.882,800.174a24.706,24.706,0,0,1-5.622-3.121c1.821.109,3.374,1.065,5.064,1.593C-1036.614,798.9-1036.791,799.562-1036.882,800.174Z" transform="translate(4404.409 -10223.391)" fill="#d5e4fa"/>
    <path id="Trazado_174465" data-name="Trazado 174465" d="M-1042.211,797.19a.634.634,0,0,1-.784-.364C-1042.674,796.82-1042.343,796.789-1042.211,797.19Z" transform="translate(4404.132 -10223.521)" fill="#d5e4fa"/>
    <path id="Trazado_174466" data-name="Trazado 174466" d="M-1042.7,796.967a.746.746,0,0,1-.79-.363C-1043.171,796.612-1042.851,796.613-1042.7,796.967Z" transform="translate(4403.856 -10223.645)" fill="#d5e4fa"/>
    <path id="Trazado_174467" data-name="Trazado 174467" d="M-1000.374,823.438c1.973-1,2.019-1.161.5-2.9-.838-.96-.615-2.214-1.045-3.277.166-.183.344-.357.5-.552,2.376-3.029,2.583-3.064,5.718-.965a1.77,1.77,0,0,0,1.267.124,8.139,8.139,0,0,1-1.627,4.824c-.942,1.172-.745,2.156.7,2.778a.54.54,0,0,1-.034.18c-.76,1.245-1.334,3.032-2.969,2.969C-999.03,826.549-999.736,824.86-1000.374,823.438Z" transform="translate(4427.875 -10213.67)" fill="#fbd046"/>
    <path id="Trazado_174468" data-name="Trazado 174468" d="M-1004.751,834.5a2.477,2.477,0,0,0,2.515,1.222c.443.269,1.129.061,1.474.867-1.32.023-2.353.266-.934,1.685.469.471,1.511.788.931,1.727a2.134,2.134,0,0,1-2.293.863c-.183-.028-.366-.061-.549-.092-2-1.093-2.021-3.238-2.678-5.045Z" transform="translate(4424.847 -10202.257)" fill="#fbd046"/>
    <path id="Trazado_174469" data-name="Trazado 174469" d="M-999.42,843.877c-.045.21.066.554-.369.433Z" transform="translate(4428.514 -10196.968)" fill="#0c3b5e"/>
    <path id="Trazado_174470" data-name="Trazado 174470" d="M-1029.447,859.092l-2.445.026c-1.125-.222-1.48-.865-1.679-2.041-1.816-10.723-1.01-21.408.275-32.092,3.549,2.666,7.692,2.567,11.8,2.448,2.1-.061,4.194-.39,6.289-.6a17.138,17.138,0,0,1-.308,5.591c-1.223,6.561.837,12.444,3.515,18.229.386.832,1,1.625.488,2.625-.131.146-.263.289-.394.433l-1.483.863-1.009.148a1.7,1.7,0,0,1-1.744-1.117c-1.092-2.1-2.25-4.17-3.348-6.271a30.541,30.541,0,0,1-3.526-10.578c-.3-2.5-.9-4.957-1.444-7.818-.937,2.4-1.836,4.372-2.47,6.431a19.2,19.2,0,0,0-1.219,4.21c-.446,5.805-.167,11.609-.048,17.409C-1028.171,858.081-1028.349,858.794-1029.447,859.092Z" transform="translate(4408.853 -10207.629)" fill="#6677d6"/>
    <path id="Trazado_174471" data-name="Trazado 174471" d="M-1092.238,819.183c-1.111-2.361-.586-3.318,1.826-4.034a7.624,7.624,0,0,0,2.8-1.8c1.05-.97,2.151-1,2.608.318a4.815,4.815,0,0,0,1.614,1.98c1.406,1.317,1.1,3.029.508,4.676a2.19,2.19,0,0,0-1.539,1.89,3.234,3.234,0,0,1-1.258,2.226c-1.508,1.057-1.1,1.744.413,2.234-1.763,2.611-3.94,2.619-5.633.02,1.1-.192,2.212-.79,1.341-1.893a8.613,8.613,0,0,1-1.555-4.643C-1091.209,819.409-1091.38,818.958-1092.238,819.183Z" transform="translate(4376.03 -10214.589)" fill="#fbd046"/>
    <path id="Trazado_174472" data-name="Trazado 174472" d="M-1091.463,816.848c.859-.225,1.029.225,1.125.978a8.611,8.611,0,0,0,1.555,4.643c.871,1.1-.239,1.7-1.341,1.893-.692-.665-1.413.013-2.121-.031-.679-.042-1.375.1-1.924-.455a12.525,12.525,0,0,1,1.3-1.534c.521-.455.867-.745.211-1.4a.968.968,0,0,1,.244-1.583C-1091.139,818.8-1091.6,817.743-1091.463,816.848Z" transform="translate(4375.254 -10212.254)" fill="#cc3371"/>
    <path id="Trazado_174473" data-name="Trazado 174473" d="M-1087.491,823.908c-1.513-.49-1.921-1.176-.413-2.234a3.235,3.235,0,0,0,1.258-2.226,2.19,2.19,0,0,1,1.539-1.89c-.177,1.533,1.026,3.09-.131,4.663-.138.186.685,1.078,1.062,1.643C-1085.276,824.272-1086.393,823.285-1087.491,823.908Z" transform="translate(4378.255 -10211.82)" fill="#cc3371"/>
    <path id="Trazado_174474" data-name="Trazado 174474" d="M-1081.308,820.682q-.007-3.055-.011-6.112C-1080.407,815.767-1080.4,819.469-1081.308,820.682Z" transform="translate(4382.505 -10213.506)" fill="#0c3b5e"/>
    <path id="Trazado_174475" data-name="Trazado 174475" d="M-1057.984,840.284q4.128.009,8.253.016-.068.92-.136,1.84l-8.4-.014Q-1058.129,841.2-1057.984,840.284Z" transform="translate(4395.511 -10198.995)" fill="#fbd046"/>
    <path id="Trazado_174476" data-name="Trazado 174476" d="M-1049.954,851.577a2.555,2.555,0,0,1-1.957.325c.047-.41.092-.818.138-1.228l1.818.047Z" transform="translate(4399.101 -10193.133)" fill="#fbd046"/>
    <path id="Trazado_174477" data-name="Trazado 174477" d="M-1129.776,844.05c.191-.15.321-.607.626-.271.208.229-.049.518-.25.724Z" transform="translate(4355.161 -10197.091)" fill="#fefefe"/>
    <path id="Trazado_174478" data-name="Trazado 174478" d="M-1054.028,804.256c-.2,1.99-.728,3.82-2.5,5.032C-1057.033,806.945-1056.357,805.19-1054.028,804.256Z" transform="translate(4396.407 -10219.326)" fill="#fbd046"/>
    <path id="Trazado_174479" data-name="Trazado 174479" d="M-1054.686,803.851l-.25.435Z" transform="translate(4397.394 -10219.555)" fill="#fbd046"/>
    <path id="Trazado_174480" data-name="Trazado 174480" d="M-992.828,817.2a1.77,1.77,0,0,1-1.267-.124c-3.135-2.1-3.341-2.063-5.718.965-.153.2-.332.369-.5.552-1.184.522-1.721.2-1.691-1.156a5.3,5.3,0,0,1,6.051-5.484,3.363,3.363,0,0,0,.742-.009c1.478-.174,2.741.135,3.431,1.6C-991.069,815.056-991.87,816.159-992.828,817.2Z" transform="translate(4427.265 -10215.011)" fill="#cc3371"/>
    <path id="Trazado_174481" data-name="Trazado 174481" d="M-1021.695,844.052l1.007-.149c-.048.979.61,1.6,1.23,2.628.117-1.23,1.413-1.2,1.469-2.2l.3-.385,1.472,1.83c-.566.643-1.613.552-2.063,1.4-.318.6-.513,1.147.138,1.619.6.438,1.028.06,1.416-.374a3.92,3.92,0,0,0,.773-2.224,2.5,2.5,0,0,1,.014,2.852,2.088,2.088,0,0,1-3.069,0Z" transform="translate(4416.152 -10196.953)" fill="#cc3371"/>
    <path id="Trazado_174482" data-name="Trazado 174482" d="M-1017.078,845.527a3.921,3.921,0,0,1-.773,2.224c-.388.433-.815.812-1.416.374-.651-.472-.455-1.015-.138-1.619.451-.853,1.5-.762,2.063-1.4Z" transform="translate(4417.278 -10196.277)" fill="#fbd046"/>
    <path id="Trazado_174483" data-name="Trazado 174483" d="M-1019.573,843.341q.413.462.823.924l-.3.382a1.554,1.554,0,0,1-.757-1.1C-1019.731,843.477-1019.652,843.408-1019.573,843.341Z" transform="translate(4417.216 -10197.271)" fill="#cc3371"/>
    <path id="Trazado_174484" data-name="Trazado 174484" d="M-1004.146,856.83l-.009.388a1.62,1.62,0,0,1-.117-.28C-1004.279,856.914-1004.19,856.868-1004.146,856.83Z" transform="translate(4425.983 -10189.658)" fill="#d5e4fa"/>
    <path id="Trazado_174485" data-name="Trazado 174485" d="M-1020.1,843.507c.131-.144.263-.288.394-.433.1.139.2.279.3.418-.08.067-.158.136-.234.2Z" transform="translate(4417.051 -10197.421)" fill="#cc3371"/>
    <path id="Trazado_174486" data-name="Trazado 174486" d="M-1029.314,851.214a5.8,5.8,0,0,1-3.865,1.982,1.982,1.982,0,0,1-2.066-1.219c1.054,0,2.04.555,3.087.01-.193-.982-1.163-.9-1.837-1.3.751-1.442,1.783-1.3,2.766-.388.529.488.974.895,1.722.781A.557.557,0,0,1-1029.314,851.214Z" transform="translate(4408.505 -10193.736)" fill="#cc3371"/>
    <path id="Trazado_174487" data-name="Trazado 174487" d="M-1031.578,850.772a.663.663,0,0,1,.566-.632c.072-.013.246.117.241.171-.033.36-.307.5-.613.6A.555.555,0,0,0-1031.578,850.772Z" transform="translate(4410.575 -10193.434)" fill="#cc3371"/>
    <path id="Trazado_174488" data-name="Trazado 174488" d="M-1019.565,843.351l.46.188a1.547,1.547,0,0,0,.756,1.1c-.058,1-1.353.971-1.471,2.2-.62-1.026-1.278-1.649-1.23-2.628Z" transform="translate(4416.515 -10197.265)" fill="#fbd046"/>
  </g>
</svg>
