<svg xmlns="http://www.w3.org/2000/svg" width="307.624" height="145.806" viewBox="0 0 307.624 145.806">
  <g id="Grupo_120598" data-name="Grupo 120598" transform="translate(-2781 9467.631)">
    <path id="Trazado_173948" data-name="Trazado 173948" d="M355.721,1166.516H55a3.462,3.462,0,0,1-3.451-3.451h0A3.462,3.462,0,0,1,55,1159.614H355.721a3.462,3.462,0,0,1,3.451,3.451h0A3.462,3.462,0,0,1,355.721,1166.516Z" transform="translate(2729.452 -10488.342)" fill="#2499a0"/>
    <g id="Grupo_116310" data-name="Grupo 116310" transform="translate(2781 -9394.74)">
      <g id="Grupo_116309" data-name="Grupo 116309">
        <g id="Grupo_116302" data-name="Grupo 116302">
          <path id="Trazado_173949" data-name="Trazado 173949" d="M112.213,1107.306h0a1.191,1.191,0,0,0,.1-.764l-6.212-30.414a1.17,1.17,0,0,0-.938-.917h0a1.224,1.224,0,0,0-.195-.018c-.819-.059-2.37,0-2.37,0l1.337,2.133,5.853,28.89h0l-.9,2.749s2.493-.126,3.3-1.6c.009-.016.019-.032.027-.049Z" transform="translate(-62.691 -1075.168)" fill="#dadee1"/>
          <path id="Trazado_173950" data-name="Trazado 173950" d="M97.74,1108.974H59.6a2,2,0,0,1-1.956-1.6l-6.055-29.888a1.907,1.907,0,0,1,1.869-2.286H91.4a1.168,1.168,0,0,1,1.146.937l6.363,31.407A1.193,1.193,0,0,1,97.74,1108.974Z" transform="translate(-51.548 -1075.175)" fill="#fff"/>
          <path id="Trazado_173951" data-name="Trazado 173951" d="M81.667,1124.162H74.858a1.505,1.505,0,0,1-1.488-1.738l2.873-17.746h8.568l-.976,19.484Z" transform="translate(-56.308 -1081.61)" fill="#fff"/>
          <path id="Trazado_173952" data-name="Trazado 173952" d="M92.277,1121.288H88.986a2.087,2.087,0,0,1-2.061-2.41l2.027-12.193a1.738,1.738,0,0,0-1.717-2.008h-.02l-2.7,16.611-.138.893a1.717,1.717,0,0,0,1.7,1.981h8.7v-.378A2.5,2.5,0,0,0,92.277,1121.288Z" transform="translate(-58.71 -1081.61)" fill="#e8eaea"/>
        </g>
        <g id="Grupo_116305" data-name="Grupo 116305" transform="translate(17.955 10.82)">
          <g id="Grupo_116304" data-name="Grupo 116304">
            <g id="Grupo_116303" data-name="Grupo 116303">
              <path id="Trazado_173953" data-name="Trazado 173953" d="M78.386,1089.009a3.869,3.869,0,1,0,3.869,3.869A3.868,3.868,0,0,1,78.386,1089.009Z" transform="translate(-74.517 -1089.009)" fill="#e8eaea"/>
            </g>
          </g>
        </g>
        <g id="Grupo_116308" data-name="Grupo 116308" transform="translate(2.374 42.561)">
          <path id="Trazado_173954" data-name="Trazado 173954" d="M57.485,1135.414h44.371a2.908,2.908,0,0,0,2.9-2.9h0a2.909,2.909,0,0,0-2.9-2.9H57.485a2.909,2.909,0,0,0-2.9,2.9h0A2.909,2.909,0,0,0,57.485,1135.414Z" transform="translate(-54.585 -1129.614)" fill="#6b3c27"/>
          <g id="Grupo_116307" data-name="Grupo 116307" transform="translate(8.408 0.94)">
            <g id="Grupo_116306" data-name="Grupo 116306">
              <path id="Trazado_173955" data-name="Trazado 173955" d="M104.787,1157.674h0a2.075,2.075,0,0,0,2.068-2.069v-22.72a2.075,2.075,0,0,0-2.068-2.068h0a2.075,2.075,0,0,0-2.068,2.068v22.72A2.075,2.075,0,0,0,104.787,1157.674Z" transform="translate(-73.5 -1130.817)" fill="#6b3c27"/>
              <path id="Trazado_173956" data-name="Trazado 173956" d="M67.409,1157.674h0a2.075,2.075,0,0,0,2.068-2.069v-22.72a2.075,2.075,0,0,0-2.068-2.068h0a2.075,2.075,0,0,0-2.068,2.068v22.72A2.075,2.075,0,0,0,67.409,1157.674Z" transform="translate(-65.341 -1130.817)" fill="#6b3c27"/>
            </g>
          </g>
        </g>
      </g>
      <rect id="Rectángulo_42371" data-name="Rectángulo 42371" width="4.136" height="2.623" transform="translate(10.782 48.361)" fill="#4c2618"/>
      <rect id="Rectángulo_42372" data-name="Rectángulo 42372" width="4.136" height="2.623" transform="translate(40.001 48.361)" fill="#4c2618"/>
    </g>
    <g id="Grupo_116311" data-name="Grupo 116311" transform="translate(2842.971 -9436.081)" opacity="0.25">
      <path id="Trazado_173957" data-name="Trazado 173957" d="M154.443,1045.417l-23.619-3.706.726-3.107Z" transform="translate(-130.824 -1025.846)" fill="#fff"/>
      <path id="Trazado_173958" data-name="Trazado 173958" d="M154.113,1023.9c-.149.349,10.547,10.309,10.547,10.309l-8.742-11.925Z" transform="translate(-135.907 -1022.284)" fill="#fff"/>
      <path id="Trazado_173959" data-name="Trazado 173959" d="M146.123,1061.569l11.612-2.864-11.13,4.658Z" transform="translate(-134.164 -1030.234)" fill="#fff"/>
    </g>
    <g id="Grupo_116313" data-name="Grupo 116313" transform="translate(2970.186 -9393.604)">
      <g id="Grupo_116312" data-name="Grupo 116312" transform="translate(6.766)">
        <rect id="Rectángulo_42373" data-name="Rectángulo 42373" width="40.994" height="21.027" fill="#e2aa6d"/>
        <rect id="Rectángulo_42374" data-name="Rectángulo 42374" width="7.744" height="8.405" transform="translate(15.806)" fill="#fff" opacity="0.5"/>
      </g>
      <rect id="Rectángulo_42375" data-name="Rectángulo 42375" width="8.119" height="21.027" transform="translate(0)" fill="#af7138"/>
    </g>
    <g id="Grupo_116316" data-name="Grupo 116316" transform="translate(2983.082 -9421.686)">
      <rect id="Rectángulo_42376" data-name="Rectángulo 42376" width="14.826" height="35.054" transform="translate(0)" fill="#d8a271"/>
      <rect id="Rectángulo_42377" data-name="Rectángulo 42377" width="35.029" height="35.054" transform="translate(14.633)" fill="#f4c79a"/>
      <rect id="Rectángulo_42378" data-name="Rectángulo 42378" width="11.014" height="6.121" transform="translate(36.616 2.111)" fill="#fff"/>
      <g id="Grupo_116314" data-name="Grupo 116314" transform="translate(38.383 3.625)" opacity="0.25">
        <rect id="Rectángulo_42379" data-name="Rectángulo 42379" width="0.602" height="3.087" fill="#5d5d5d"/>
        <rect id="Rectángulo_42380" data-name="Rectángulo 42380" width="0.602" height="3.087" transform="translate(1.146 0.001)" fill="#5d5d5d"/>
        <rect id="Rectángulo_42381" data-name="Rectángulo 42381" width="0.602" height="3.087" transform="translate(2.292 0.002)" fill="#5d5d5d"/>
        <rect id="Rectángulo_42382" data-name="Rectángulo 42382" width="0.602" height="3.087" transform="translate(3.438 0.002)" fill="#5d5d5d"/>
        <rect id="Rectángulo_42383" data-name="Rectángulo 42383" width="0.602" height="3.087" transform="translate(4.585 0.003)" fill="#5d5d5d"/>
        <rect id="Rectángulo_42384" data-name="Rectángulo 42384" width="0.602" height="3.087" transform="translate(5.731 0.004)" fill="#5d5d5d"/>
        <rect id="Rectángulo_42385" data-name="Rectángulo 42385" width="0.602" height="3.087" transform="translate(6.877 0.005)" fill="#5d5d5d"/>
      </g>
      <rect id="Rectángulo_42386" data-name="Rectángulo 42386" width="4.519" height="4.337" transform="translate(29.899)" fill="#fff" opacity="0.5"/>
      <rect id="Rectángulo_42387" data-name="Rectángulo 42387" width="4.519" height="4.337" transform="translate(30.276 30.717)" fill="#fff" opacity="0.5"/>
      <rect id="Rectángulo_42388" data-name="Rectángulo 42388" width="49.662" height="3.921" transform="translate(0 15.567)" fill="#fff" opacity="0.5"/>
      <g id="Grupo_116315" data-name="Grupo 116315" transform="translate(17.391 30.707)" opacity="0.25">
        <rect id="Rectángulo_42389" data-name="Rectángulo 42389" width="2.58" height="2.58" fill="#5d5d5d"/>
        <rect id="Rectángulo_42390" data-name="Rectángulo 42390" width="2.58" height="2.58" transform="translate(3.508 0.002)" fill="#5d5d5d"/>
        <rect id="Rectángulo_42391" data-name="Rectángulo 42391" width="2.581" height="2.581" transform="translate(7.015 0.005)" fill="#5d5d5d"/>
      </g>
    </g>
    <g id="Grupo_116319" data-name="Grupo 116319" transform="translate(3014.131 -9399.078)">
      <rect id="Rectángulo_42392" data-name="Rectángulo 42392" width="13.883" height="32.824" transform="translate(0)" fill="#d8a271"/>
      <rect id="Rectángulo_42393" data-name="Rectángulo 42393" width="32.8" height="32.824" transform="translate(13.702)" fill="#f4c79a"/>
      <rect id="Rectángulo_42394" data-name="Rectángulo 42394" width="10.313" height="5.732" transform="translate(34.286 1.976)" fill="#fff"/>
      <g id="Grupo_116317" data-name="Grupo 116317" transform="translate(35.941 3.395)" opacity="0.25">
        <rect id="Rectángulo_42395" data-name="Rectángulo 42395" width="0.564" height="2.891" fill="#5d5d5d"/>
        <rect id="Rectángulo_42396" data-name="Rectángulo 42396" width="0.564" height="2.891" transform="translate(1.073 0.001)" fill="#5d5d5d"/>
        <rect id="Rectángulo_42397" data-name="Rectángulo 42397" width="0.564" height="2.891" transform="translate(2.146 0.002)" fill="#5d5d5d"/>
        <rect id="Rectángulo_42398" data-name="Rectángulo 42398" width="0.564" height="2.891" transform="translate(3.22 0.002)" fill="#5d5d5d"/>
        <rect id="Rectángulo_42399" data-name="Rectángulo 42399" width="0.564" height="2.891" transform="translate(4.293 0.003)" fill="#5d5d5d"/>
        <rect id="Rectángulo_42400" data-name="Rectángulo 42400" width="0.564" height="2.891" transform="translate(5.366 0.004)" fill="#5d5d5d"/>
        <rect id="Rectángulo_42401" data-name="Rectángulo 42401" width="0.564" height="2.891" transform="translate(6.439 0.005)" fill="#5d5d5d"/>
      </g>
      <rect id="Rectángulo_42402" data-name="Rectángulo 42402" width="4.232" height="4.061" transform="translate(27.997)" fill="#fff" opacity="0.5"/>
      <rect id="Rectángulo_42403" data-name="Rectángulo 42403" width="4.232" height="4.061" transform="translate(28.349 28.763)" fill="#fff" opacity="0.5"/>
      <rect id="Rectángulo_42404" data-name="Rectángulo 42404" width="46.502" height="3.672" transform="translate(0 14.576)" fill="#fff" opacity="0.5"/>
      <g id="Grupo_116318" data-name="Grupo 116318" transform="translate(16.284 28.753)" opacity="0.25">
        <rect id="Rectángulo_42405" data-name="Rectángulo 42405" width="2.416" height="2.416" fill="#5d5d5d"/>
        <rect id="Rectángulo_42406" data-name="Rectángulo 42406" width="2.416" height="2.416" transform="translate(3.284 0.002)" fill="#5d5d5d"/>
        <rect id="Rectángulo_42407" data-name="Rectángulo 42407" width="2.416" height="2.416" transform="translate(6.569 0.005)" fill="#5d5d5d"/>
      </g>
    </g>
    <g id="Grupo_116322" data-name="Grupo 116322" transform="translate(2848.127 -9359.562)">
      <rect id="Rectángulo_42408" data-name="Rectángulo 42408" width="13.883" height="32.824" transform="translate(0)" fill="#d8a271"/>
      <rect id="Rectángulo_42409" data-name="Rectángulo 42409" width="32.8" height="32.824" transform="translate(13.702)" fill="#f4c79a"/>
      <rect id="Rectángulo_42410" data-name="Rectángulo 42410" width="10.313" height="5.732" transform="translate(34.286 1.976)" fill="#fff"/>
      <g id="Grupo_116320" data-name="Grupo 116320" transform="translate(35.941 3.395)" opacity="0.25">
        <rect id="Rectángulo_42411" data-name="Rectángulo 42411" width="0.564" height="2.891" fill="#5d5d5d"/>
        <rect id="Rectángulo_42412" data-name="Rectángulo 42412" width="0.564" height="2.891" transform="translate(1.073 0.001)" fill="#5d5d5d"/>
        <rect id="Rectángulo_42413" data-name="Rectángulo 42413" width="0.564" height="2.891" transform="translate(2.146 0.002)" fill="#5d5d5d"/>
        <rect id="Rectángulo_42414" data-name="Rectángulo 42414" width="0.564" height="2.891" transform="translate(3.22 0.002)" fill="#5d5d5d"/>
        <rect id="Rectángulo_42415" data-name="Rectángulo 42415" width="0.564" height="2.891" transform="translate(4.293 0.003)" fill="#5d5d5d"/>
        <rect id="Rectángulo_42416" data-name="Rectángulo 42416" width="0.564" height="2.891" transform="translate(5.366 0.004)" fill="#5d5d5d"/>
        <rect id="Rectángulo_42417" data-name="Rectángulo 42417" width="0.564" height="2.891" transform="translate(6.439 0.005)" fill="#5d5d5d"/>
      </g>
      <rect id="Rectángulo_42418" data-name="Rectángulo 42418" width="4.232" height="4.061" transform="translate(27.997)" fill="#fff" opacity="0.5"/>
      <rect id="Rectángulo_42419" data-name="Rectángulo 42419" width="4.232" height="4.061" transform="translate(28.349 28.763)" fill="#fff" opacity="0.5"/>
      <rect id="Rectángulo_42420" data-name="Rectángulo 42420" width="46.502" height="3.672" transform="translate(0 14.576)" fill="#fff" opacity="0.5"/>
      <g id="Grupo_116321" data-name="Grupo 116321" transform="translate(16.284 28.753)" opacity="0.25">
        <rect id="Rectángulo_42421" data-name="Rectángulo 42421" width="2.416" height="2.416" fill="#5d5d5d"/>
        <rect id="Rectángulo_42422" data-name="Rectángulo 42422" width="2.416" height="2.416" transform="translate(3.284 0.002)" fill="#5d5d5d"/>
        <rect id="Rectángulo_42423" data-name="Rectángulo 42423" width="2.416" height="2.416" transform="translate(6.569 0.005)" fill="#5d5d5d"/>
      </g>
    </g>
    <g id="Grupo_116325" data-name="Grupo 116325" transform="translate(2938.271 -9410.196)">
      <rect id="Rectángulo_42424" data-name="Rectángulo 42424" width="14.121" height="33.386" fill="#bc8044"/>
      <rect id="Rectángulo_42425" data-name="Rectángulo 42425" width="33.362" height="33.386" transform="translate(13.937)" fill="#e2aa6d"/>
      <rect id="Rectángulo_42426" data-name="Rectángulo 42426" width="10.49" height="5.83" transform="translate(34.873 2.01)" fill="#fff"/>
      <g id="Grupo_116323" data-name="Grupo 116323" transform="translate(36.556 3.453)" opacity="0.25">
        <rect id="Rectángulo_42427" data-name="Rectángulo 42427" width="0.574" height="2.94" fill="#5d5d5d"/>
        <rect id="Rectángulo_42428" data-name="Rectángulo 42428" width="0.574" height="2.94" transform="translate(1.092 0.001)" fill="#5d5d5d"/>
        <rect id="Rectángulo_42429" data-name="Rectángulo 42429" width="0.574" height="2.94" transform="translate(2.183 0.002)" fill="#5d5d5d"/>
        <rect id="Rectángulo_42430" data-name="Rectángulo 42430" width="0.574" height="2.94" transform="translate(3.275 0.002)" fill="#5d5d5d"/>
        <rect id="Rectángulo_42431" data-name="Rectángulo 42431" width="0.574" height="2.94" transform="translate(4.366 0.003)" fill="#5d5d5d"/>
        <rect id="Rectángulo_42432" data-name="Rectángulo 42432" width="0.574" height="2.94" transform="translate(5.458 0.004)" fill="#5d5d5d"/>
        <rect id="Rectángulo_42433" data-name="Rectángulo 42433" width="0.574" height="2.94" transform="translate(6.549 0.005)" fill="#5d5d5d"/>
      </g>
      <rect id="Rectángulo_42434" data-name="Rectángulo 42434" width="4.304" height="4.131" transform="translate(28.476)" fill="#fff" opacity="0.5"/>
      <rect id="Rectángulo_42435" data-name="Rectángulo 42435" width="4.304" height="4.131" transform="translate(28.835 29.255)" fill="#fff" opacity="0.5"/>
      <rect id="Rectángulo_42436" data-name="Rectángulo 42436" width="47.299" height="3.734" transform="translate(0 14.826)" fill="#fff" opacity="0.5"/>
      <g id="Grupo_116324" data-name="Grupo 116324" transform="translate(16.563 29.246)" opacity="0.25">
        <rect id="Rectángulo_42437" data-name="Rectángulo 42437" width="2.458" height="2.458" fill="#5d5d5d"/>
        <rect id="Rectángulo_42438" data-name="Rectángulo 42438" width="2.458" height="2.458" transform="translate(3.341 0.002)" fill="#5d5d5d"/>
        <rect id="Rectángulo_42439" data-name="Rectángulo 42439" width="2.458" height="2.458" transform="translate(6.681 0.005)" fill="#5d5d5d"/>
      </g>
    </g>
    <g id="Grupo_116328" data-name="Grupo 116328" transform="translate(2992.867 -9386.624)">
      <rect id="Rectángulo_42440" data-name="Rectángulo 42440" width="18.178" height="34.782" transform="translate(0)" fill="#995e28"/>
      <rect id="Rectángulo_42441" data-name="Rectángulo 42441" width="42.947" height="34.782" transform="translate(17.94)" fill="#bc8044"/>
      <rect id="Rectángulo_42442" data-name="Rectángulo 42442" width="13.504" height="7.505" transform="translate(44.891 2.588)" fill="#fff"/>
      <g id="Grupo_116326" data-name="Grupo 116326" transform="translate(47.059 4.445)" opacity="0.25">
        <rect id="Rectángulo_42443" data-name="Rectángulo 42443" width="0.738" height="3.785" fill="#5d5d5d"/>
        <rect id="Rectángulo_42444" data-name="Rectángulo 42444" width="0.738" height="3.785" transform="translate(1.405 0.001)" fill="#5d5d5d"/>
        <rect id="Rectángulo_42445" data-name="Rectángulo 42445" width="0.738" height="3.785" transform="translate(2.81 0.002)" fill="#5d5d5d"/>
        <rect id="Rectángulo_42446" data-name="Rectángulo 42446" width="0.738" height="3.785" transform="translate(4.215 0.003)" fill="#5d5d5d"/>
        <rect id="Rectángulo_42447" data-name="Rectángulo 42447" width="0.738" height="3.785" transform="translate(5.621 0.004)" fill="#5d5d5d"/>
        <rect id="Rectángulo_42448" data-name="Rectángulo 42448" width="0.738" height="3.785" transform="translate(7.026 0.005)" fill="#5d5d5d"/>
        <rect id="Rectángulo_42449" data-name="Rectángulo 42449" width="0.738" height="3.785" transform="translate(8.431 0.006)" fill="#5d5d5d"/>
      </g>
      <rect id="Rectángulo_42450" data-name="Rectángulo 42450" width="4.318" height="5.318" transform="translate(37.879)" fill="#fff" opacity="0.5"/>
      <rect id="Rectángulo_42451" data-name="Rectángulo 42451" width="5.541" height="7.745" transform="translate(37.119 27.036)" fill="#fff" opacity="0.5"/>
      <rect id="Rectángulo_42452" data-name="Rectángulo 42452" width="60.887" height="4.451" transform="translate(0 14.827)" fill="#fff" opacity="0.5"/>
      <g id="Grupo_116327" data-name="Grupo 116327" transform="translate(21.321 27.024)" opacity="0.25">
        <rect id="Rectángulo_42453" data-name="Rectángulo 42453" width="3.164" height="3.164" fill="#5d5d5d"/>
        <rect id="Rectángulo_42454" data-name="Rectángulo 42454" width="3.164" height="3.164" transform="translate(4.3 0.003)" fill="#5d5d5d"/>
        <rect id="Rectángulo_42455" data-name="Rectángulo 42455" width="3.164" height="3.164" transform="translate(8.601 0.006)" fill="#5d5d5d"/>
      </g>
    </g>
    <g id="Grupo_116331" data-name="Grupo 116331" transform="translate(2947.639 -9434.891)">
      <rect id="Rectángulo_42456" data-name="Rectángulo 42456" width="12.906" height="24.694" fill="#995e28"/>
      <rect id="Rectángulo_42457" data-name="Rectángulo 42457" width="30.491" height="24.694" transform="translate(12.737)" fill="#bc8044"/>
      <rect id="Rectángulo_42458" data-name="Rectángulo 42458" width="9.587" height="5.328" transform="translate(31.872 1.837)" fill="#fff"/>
      <g id="Grupo_116329" data-name="Grupo 116329" transform="translate(33.41 3.155)" opacity="0.25">
        <rect id="Rectángulo_42459" data-name="Rectángulo 42459" width="0.524" height="2.687" fill="#5d5d5d"/>
        <rect id="Rectángulo_42460" data-name="Rectángulo 42460" width="0.524" height="2.687" transform="translate(0.998 0.001)" fill="#5d5d5d"/>
        <rect id="Rectángulo_42461" data-name="Rectángulo 42461" width="0.524" height="2.687" transform="translate(1.995 0.002)" fill="#5d5d5d"/>
        <rect id="Rectángulo_42462" data-name="Rectángulo 42462" width="0.524" height="2.687" transform="translate(2.993 0.002)" fill="#5d5d5d"/>
        <rect id="Rectángulo_42463" data-name="Rectángulo 42463" width="0.524" height="2.687" transform="translate(3.991 0.003)" fill="#5d5d5d"/>
        <rect id="Rectángulo_42464" data-name="Rectángulo 42464" width="0.524" height="2.687" transform="translate(4.988 0.004)" fill="#5d5d5d"/>
        <rect id="Rectángulo_42465" data-name="Rectángulo 42465" width="0.524" height="2.687" transform="translate(5.986 0.004)" fill="#5d5d5d"/>
      </g>
      <rect id="Rectángulo_42466" data-name="Rectángulo 42466" width="3.934" height="3.775" transform="translate(26.025)" fill="#fff" opacity="0.5"/>
      <rect id="Rectángulo_42467" data-name="Rectángulo 42467" width="3.934" height="5.499" transform="translate(26.353 19.195)" fill="#fff" opacity="0.5"/>
      <rect id="Rectángulo_42468" data-name="Rectángulo 42468" width="43.228" height="3.413" transform="translate(0 10.274)" fill="#fff" opacity="0.5"/>
      <g id="Grupo_116330" data-name="Grupo 116330" transform="translate(15.137 19.187)" opacity="0.25">
        <rect id="Rectángulo_42469" data-name="Rectángulo 42469" width="2.246" height="2.246" fill="#5d5d5d"/>
        <rect id="Rectángulo_42470" data-name="Rectángulo 42470" width="2.246" height="2.246" transform="translate(3.053 0.002)" fill="#5d5d5d"/>
        <rect id="Rectángulo_42471" data-name="Rectángulo 42471" width="2.246" height="2.246" transform="translate(6.106 0.004)" fill="#5d5d5d"/>
      </g>
    </g>
    <rect id="Rectángulo_42472" data-name="Rectángulo 42472" width="54.519" height="23.451" transform="translate(3019.691 -9351.842)" fill="#f4c79a"/>
    <g id="Grupo_116334" data-name="Grupo 116334" transform="translate(2990.184 -9364.09)">
      <rect id="Rectángulo_42473" data-name="Rectángulo 42473" width="15.099" height="35.699" fill="#bc8044"/>
      <rect id="Rectángulo_42474" data-name="Rectángulo 42474" width="35.673" height="35.699" transform="translate(14.902)" fill="#e2aa6d"/>
      <rect id="Rectángulo_42475" data-name="Rectángulo 42475" width="11.217" height="6.234" transform="translate(37.289 2.149)" fill="#fff"/>
      <g id="Grupo_116332" data-name="Grupo 116332" transform="translate(39.089 3.692)" opacity="0.25">
        <rect id="Rectángulo_42476" data-name="Rectángulo 42476" width="0.613" height="3.144" fill="#5d5d5d"/>
        <rect id="Rectángulo_42477" data-name="Rectángulo 42477" width="0.613" height="3.144" transform="translate(1.167 0.001)" fill="#5d5d5d"/>
        <rect id="Rectángulo_42478" data-name="Rectángulo 42478" width="0.613" height="3.144" transform="translate(2.334 0.002)" fill="#5d5d5d"/>
        <rect id="Rectángulo_42479" data-name="Rectángulo 42479" width="0.613" height="3.144" transform="translate(3.502 0.002)" fill="#5d5d5d"/>
        <rect id="Rectángulo_42480" data-name="Rectángulo 42480" width="0.613" height="3.144" transform="translate(4.669 0.003)" fill="#5d5d5d"/>
        <rect id="Rectángulo_42481" data-name="Rectángulo 42481" width="0.613" height="3.144" transform="translate(5.836 0.004)" fill="#5d5d5d"/>
        <rect id="Rectángulo_42482" data-name="Rectángulo 42482" width="0.613" height="3.144" transform="translate(7.003 0.005)" fill="#5d5d5d"/>
      </g>
      <rect id="Rectángulo_42483" data-name="Rectángulo 42483" width="4.602" height="4.417" transform="translate(30.449)" fill="#fff" opacity="0.5"/>
      <rect id="Rectángulo_42484" data-name="Rectángulo 42484" width="4.602" height="4.417" transform="translate(30.833 31.282)" fill="#fff" opacity="0.5"/>
      <rect id="Rectángulo_42485" data-name="Rectángulo 42485" width="50.576" height="3.993" transform="translate(0 15.853)" fill="#fff" opacity="0.5"/>
      <g id="Grupo_116333" data-name="Grupo 116333" transform="translate(17.71 31.272)" opacity="0.25">
        <rect id="Rectángulo_42486" data-name="Rectángulo 42486" width="2.628" height="2.628" fill="#5d5d5d"/>
        <rect id="Rectángulo_42487" data-name="Rectángulo 42487" width="2.628" height="2.628" transform="translate(3.572 0.002)" fill="#5d5d5d"/>
        <rect id="Rectángulo_42488" data-name="Rectángulo 42488" width="2.628" height="2.628" transform="translate(7.144 0.005)" fill="#5d5d5d"/>
      </g>
    </g>
    <g id="Grupo_116336" data-name="Grupo 116336" transform="translate(3009.863 -9423.539)">
      <rect id="Rectángulo_42489" data-name="Rectángulo 42489" width="10.346" height="24.461" transform="translate(0)" fill="#bc8044"/>
      <rect id="Rectángulo_42490" data-name="Rectángulo 42490" width="24.444" height="24.461" transform="translate(10.211)" fill="#e2aa6d"/>
      <rect id="Rectángulo_42491" data-name="Rectángulo 42491" width="4.26" height="3.027" transform="translate(20.864)" fill="#fff" opacity="0.5"/>
      <rect id="Rectángulo_42492" data-name="Rectángulo 42492" width="3.998" height="3.026" transform="translate(21.127 21.435)" fill="#fff" opacity="0.5"/>
      <rect id="Rectángulo_42493" data-name="Rectángulo 42493" width="34.655" height="3.894" transform="translate(0 10.862)" fill="#fff" opacity="0.5"/>
      <g id="Grupo_116335" data-name="Grupo 116335" transform="translate(12.135 21.428)" opacity="0.25">
        <rect id="Rectángulo_42494" data-name="Rectángulo 42494" width="1.801" height="1.801" fill="#5d5d5d"/>
        <rect id="Rectángulo_42495" data-name="Rectángulo 42495" width="1.801" height="1.801" transform="translate(2.448 0.002)" fill="#5d5d5d"/>
        <rect id="Rectángulo_42496" data-name="Rectángulo 42496" width="1.801" height="1.801" transform="translate(4.895 0.003)" fill="#5d5d5d"/>
      </g>
    </g>
    <g id="Grupo_116339" data-name="Grupo 116339" transform="translate(2930.068 -9376.811)">
      <rect id="Rectángulo_42497" data-name="Rectángulo 42497" width="20.48" height="48.42" fill="#d8a271"/>
      <rect id="Rectángulo_42498" data-name="Rectángulo 42498" width="48.385" height="48.42" transform="translate(20.212)" fill="#f4c79a"/>
      <rect id="Rectángulo_42499" data-name="Rectángulo 42499" width="15.214" height="8.455" transform="translate(50.576 2.915)" fill="#fff"/>
      <g id="Grupo_116337" data-name="Grupo 116337" transform="translate(53.018 5.007)" opacity="0.25">
        <rect id="Rectángulo_42500" data-name="Rectángulo 42500" width="0.832" height="4.264" fill="#5d5d5d"/>
        <rect id="Rectángulo_42501" data-name="Rectángulo 42501" width="0.832" height="4.264" transform="translate(1.583 0.001)" fill="#5d5d5d"/>
        <rect id="Rectángulo_42502" data-name="Rectángulo 42502" width="0.832" height="4.264" transform="translate(3.166 0.002)" fill="#5d5d5d"/>
        <rect id="Rectángulo_42503" data-name="Rectángulo 42503" width="0.832" height="4.264" transform="translate(4.749 0.003)" fill="#5d5d5d"/>
        <rect id="Rectángulo_42504" data-name="Rectángulo 42504" width="0.832" height="4.264" transform="translate(6.332 0.004)" fill="#5d5d5d"/>
        <rect id="Rectángulo_42505" data-name="Rectángulo 42505" width="0.832" height="4.264" transform="translate(7.916 0.006)" fill="#5d5d5d"/>
        <rect id="Rectángulo_42506" data-name="Rectángulo 42506" width="0.832" height="4.264" transform="translate(9.499 0.007)" fill="#5d5d5d"/>
      </g>
      <rect id="Rectángulo_42507" data-name="Rectángulo 42507" width="6.242" height="5.991" transform="translate(41.299)" fill="#fff" opacity="0.5"/>
      <rect id="Rectángulo_42508" data-name="Rectángulo 42508" width="6.242" height="5.991" transform="translate(41.82 42.429)" fill="#fff" opacity="0.5"/>
      <rect id="Rectángulo_42509" data-name="Rectángulo 42509" width="68.598" height="4.831" transform="translate(0 22.087)" fill="#fff" opacity="0.5"/>
      <g id="Grupo_116338" data-name="Grupo 116338" transform="translate(24.021 42.415)" opacity="0.25">
        <rect id="Rectángulo_42510" data-name="Rectángulo 42510" width="3.564" height="3.564" fill="#5d5d5d"/>
        <rect id="Rectángulo_42511" data-name="Rectángulo 42511" width="3.564" height="3.564" transform="translate(4.845 0.004)" fill="#5d5d5d"/>
        <rect id="Rectángulo_42512" data-name="Rectángulo 42512" width="3.564" height="3.564" transform="translate(9.69 0.007)" fill="#5d5d5d"/>
      </g>
    </g>
    <g id="Grupo_116341" data-name="Grupo 116341" transform="translate(3050.557 -9373.568)">
      <g id="Grupo_116340" data-name="Grupo 116340" transform="translate(2.81)">
        <rect id="Rectángulo_42513" data-name="Rectángulo 42513" width="19.067" height="10.918" fill="#e2aa6d"/>
        <rect id="Rectángulo_42514" data-name="Rectángulo 42514" width="3.09" height="4.364" transform="translate(7.352)" fill="#fff" opacity="0.5"/>
      </g>
      <rect id="Rectángulo_42515" data-name="Rectángulo 42515" width="4.216" height="10.918" fill="#af7138"/>
    </g>
    <g id="Grupo_116343" data-name="Grupo 116343" transform="translate(3044.905 -9362.795)">
      <g id="Grupo_116342" data-name="Grupo 116342" transform="translate(3.513)">
        <rect id="Rectángulo_42516" data-name="Rectángulo 42516" width="21.285" height="10.918" fill="#e2aa6d"/>
        <rect id="Rectángulo_42517" data-name="Rectángulo 42517" width="4.021" height="4.364" transform="translate(8.207)" fill="#fff" opacity="0.5"/>
      </g>
      <rect id="Rectángulo_42518" data-name="Rectángulo 42518" width="4.216" height="10.918" fill="#af7138"/>
    </g>
    <g id="Grupo_116345" data-name="Grupo 116345" transform="translate(2998.925 -9432.61)">
      <g id="Grupo_116344" data-name="Grupo 116344" transform="translate(2.81)">
        <rect id="Rectángulo_42519" data-name="Rectángulo 42519" width="19.067" height="10.918" fill="#e2aa6d"/>
        <rect id="Rectángulo_42520" data-name="Rectángulo 42520" width="3.09" height="4.364" transform="translate(7.352)" fill="#fff" opacity="0.5"/>
      </g>
      <rect id="Rectángulo_42521" data-name="Rectángulo 42521" width="4.216" height="10.918" transform="translate(0)" fill="#af7138"/>
    </g>
    <g id="Grupo_116347" data-name="Grupo 116347" transform="translate(3003.185 -9443.535)">
      <g id="Grupo_116346" data-name="Grupo 116346" transform="translate(2.81)">
        <rect id="Rectángulo_42522" data-name="Rectángulo 42522" width="19.067" height="10.918" fill="#e2aa6d"/>
        <rect id="Rectángulo_42523" data-name="Rectángulo 42523" width="3.09" height="4.364" transform="translate(7.352)" fill="#fff" opacity="0.5"/>
      </g>
      <rect id="Rectángulo_42524" data-name="Rectángulo 42524" width="4.216" height="10.918" transform="translate(0)" fill="#af7138"/>
    </g>
    <g id="Grupo_116349" data-name="Grupo 116349" transform="translate(2982.572 -9454.225)">
      <g id="Grupo_116348" data-name="Grupo 116348" transform="translate(2.532 0)">
        <rect id="Rectángulo_42525" data-name="Rectángulo 42525" width="19.067" height="10.918" transform="translate(0 8.279) rotate(-25.734)" fill="#e2aa6d"/>
        <rect id="Rectángulo_42526" data-name="Rectángulo 42526" width="3.09" height="4.364" transform="translate(6.623 5.087) rotate(-25.734)" fill="#fff" opacity="0.5"/>
      </g>
      <rect id="Rectángulo_42527" data-name="Rectángulo 42527" width="4.216" height="10.918" transform="matrix(0.901, -0.434, 0.434, 0.901, 0, 9.499)" fill="#af7138"/>
    </g>
    <g id="Grupo_116351" data-name="Grupo 116351" transform="translate(2944.723 -9392.839)">
      <g id="Grupo_116350" data-name="Grupo 116350" transform="translate(4.069)">
        <rect id="Rectángulo_42528" data-name="Rectángulo 42528" width="27.994" height="16.029" fill="#bc8044"/>
        <rect id="Rectángulo_42529" data-name="Rectángulo 42529" width="3.939" height="6.407" transform="translate(11.666)" fill="#fff" opacity="0.5"/>
      </g>
      <rect id="Rectángulo_42530" data-name="Rectángulo 42530" width="4.069" height="16.029" transform="translate(0)" fill="#995e28"/>
    </g>
    <g id="Grupo_116353" data-name="Grupo 116353" transform="translate(3023.89 -9341.958)">
      <g id="Grupo_116352" data-name="Grupo 116352" transform="translate(4.069)">
        <rect id="Rectángulo_42531" data-name="Rectángulo 42531" width="27.994" height="16.029" fill="#bc8044"/>
        <rect id="Rectángulo_42532" data-name="Rectángulo 42532" width="3.939" height="6.407" transform="translate(11.666)" fill="#fff" opacity="0.5"/>
      </g>
      <rect id="Rectángulo_42533" data-name="Rectángulo 42533" width="4.069" height="16.029" transform="translate(0)" fill="#995e28"/>
    </g>
    <path id="Trazado_173960" data-name="Trazado 173960" d="M143.6,1111.5a3.548,3.548,0,0,1,3.551,3.546h0a3.549,3.549,0,0,1-3.546,3.552l-11.43.008a3.547,3.547,0,0,1-3.551-3.546h0a3.547,3.547,0,0,1,3.546-3.551Z" transform="translate(2712.628 -10477.838)" fill="#e29276"/>
    <path id="Trazado_173961" data-name="Trazado 173961" d="M202.563,982.906a24.547,24.547,0,0,0-16.957,29.578c3.261,10.588,5.817,14.063,9.262,16.924a38.811,38.811,0,0,1,4.915,4.88,36.576,36.576,0,0,1,7.168,13.325l.255.876.149-.044c6.123-1.78,11.071-6.344,11.859-12,12.736-3.972,19.286-17.9,15.545-30.77L233,999.632A24.556,24.556,0,0,0,202.563,982.906Z" transform="translate(2700.353 -10449.555)" fill="#431e01"/>
    <path id="Trazado_173962" data-name="Trazado 173962" d="M219.695,1076.866a7.034,7.034,0,0,1-2.411.27l-23.126-1.354a2.988,2.988,0,0,1-2.786-3.311,3.043,3.043,0,0,1,3.239-2.649l20.515,1.2h.014a.9.9,0,0,0,.915-.818l2.018-19.863s.325-3.258,1.89-3.78a2.986,2.986,0,0,1,3.78,1.89s.958,24.11-.465,25.962A7.012,7.012,0,0,1,219.695,1076.866Z" transform="translate(2698.934 -10463.629)" fill="#f6b396"/>
    <path id="Trazado_173963" data-name="Trazado 173963" d="M190.406,1078.326c.5,1.688-.161,3.369-1.467,3.753h0c-1.306.384-2.767-.675-3.264-2.364l-.4-1.349c-.5-1.689.161-3.369,1.467-3.753h0c1.306-.384,2.767.675,3.264,2.363Z" transform="translate(2700.296 -10469.771)" fill="#f7b497"/>
    <path id="Trazado_173964" data-name="Trazado 173964" d="M195.589,1075.315a4.981,4.981,0,0,1-3.375,6.182c-4.228,1.242-5.961-.573-6.736-3.212s1.29-5.57,3.929-6.344A4.981,4.981,0,0,1,195.589,1075.315Z" transform="translate(2700.253 -10469.159)" fill="#f6b396"/>
    <path id="Trazado_173965" data-name="Trazado 173965" d="M199.42,1076.474a1.461,1.461,0,0,1-.99,1.814h0a1.461,1.461,0,0,1-1.814-.99l-1.131-3.849a1.461,1.461,0,0,1,.99-1.814h0a1.46,1.46,0,0,1,1.813.99Z" transform="translate(2698.045 -10469.124)" fill="#f6b396"/>
    <g id="Grupo_116355" data-name="Grupo 116355" transform="translate(2874.386 -9416.394)">
      <g id="Grupo_116354" data-name="Grupo 116354">
        <path id="Trazado_173966" data-name="Trazado 173966" d="M180.07,1047.581l-7.628,2.24,12.107,24.867,7.58-2.226Z" transform="translate(-171.324 -1047.493)" fill="#ef4826"/>
        <path id="Trazado_173967" data-name="Trazado 173967" d="M194.967,1070.109a1.645,1.645,0,0,1-.719,2.211h0a1.643,1.643,0,0,1-2.211-.719l-11.075-21.743a1.645,1.645,0,0,1,.719-2.212h0a1.644,1.644,0,0,1,2.211.719Z" transform="translate(-173.145 -1047.468)" fill="#ef4826"/>
        <path id="Trazado_173968" data-name="Trazado 173968" d="M185.2,1072.979a1.645,1.645,0,0,1-.719,2.211h0a1.644,1.644,0,0,1-2.211-.719l-11.075-21.743a1.645,1.645,0,0,1,.719-2.212h0a1.645,1.645,0,0,1,2.211.719Z" transform="translate(-171.012 -1048.095)" fill="#b52b15"/>
        <path id="Trazado_173969" data-name="Trazado 173969" d="M183.2,1050.958l-5.811,1.707,8.009,15.674,5.894-1.731Z" transform="translate(-172.403 -1048.23)" fill="#fff"/>
      </g>
    </g>
    <path id="Trazado_173970" data-name="Trazado 173970" d="M194.368,1074.813a1.1,1.1,0,0,1-.746,1.365l-1.276.375a1.1,1.1,0,0,1-1.366-.746h0a1.1,1.1,0,0,1,.746-1.366l1.276-.374a1.1,1.1,0,0,1,1.366.746Z" transform="translate(2699.026 -10469.658)" fill="#b52b15"/>
    <path id="Trazado_173971" data-name="Trazado 173971" d="M194.105,1071.81a1.594,1.594,0,0,0-1.054,2.06,1.655,1.655,0,0,0,2.039.973l3.006-.881-.287-1.193a1.965,1.965,0,0,0-2.439-1.331Z" transform="translate(2698.584 -10469.077)" fill="#f6b396"/>
    <g id="Grupo_116356" data-name="Grupo 116356" transform="translate(2880.235 -9414.705)">
      <path id="Trazado_173972" data-name="Trazado 173972" d="M182.845,1049.9a.38.38,0,1,1-.471-.258A.381.381,0,0,1,182.845,1049.9Z" transform="translate(-179.28 -1049.628)" fill="#b52b15"/>
      <path id="Trazado_173973" data-name="Trazado 173973" d="M181.079,1050.268a.381.381,0,0,1-.258.472l-1.84.54a.38.38,0,0,1-.472-.258h0a.38.38,0,0,1,.258-.472l1.839-.541a.381.381,0,0,1,.473.259Z" transform="translate(-178.493 -1049.708)" fill="#b52b15"/>
    </g>
    <path id="Trazado_173974" data-name="Trazado 173974" d="M219.963,1105.311l-26.648-13.856a8.967,8.967,0,0,0-7.268-.448l-37.914,14.126,3.273,8.106,37.056-13.807,11.531,8.239a26.972,26.972,0,0,0,18.518,4.951q.315-.034.628-.073l-7.458-2.641Z" transform="translate(2708.369 -10473.242)" fill="#4e2e8e"/>
    <path id="Trazado_173975" data-name="Trazado 173975" d="M152.34,1111.5a3.549,3.549,0,0,1,3.551,3.546h0a3.549,3.549,0,0,1-3.546,3.552l-11.43.008a3.549,3.549,0,0,1-3.551-3.546h0a3.548,3.548,0,0,1,3.546-3.551Z" transform="translate(2710.719 -10477.838)" fill="#f6b396"/>
    <path id="Trazado_173976" data-name="Trazado 173976" d="M232.735,1090.933c-1.458-2.8-5.624-2.655-8.417-4.12-.17-.006.148,3.566.038,3.436-2.893-3.436-5.218-.643-9.112,6.513l-12.591-6.1a8.968,8.968,0,0,0-7.268-.447L155,1105.26l3.052,8.189,36.1-13.451a7.282,7.282,0,0,1,6.8.912l11.216,8.068a15.3,15.3,0,0,0,12.8,2.454c6.87-1.811,9.166-5.324,9.142-10.484C234.1,1098.376,233.848,1093.066,232.735,1090.933Z" transform="translate(2706.869 -10472.45)" fill="#6677d6"/>
    <path id="Trazado_173977" data-name="Trazado 173977" d="M239.028,1045.019l-9.606,1.156a5.264,5.264,0,0,0-4.6,5.855l.593,4.928-1.985,3.833a5.482,5.482,0,0,0,3.839,7.9l.073.014h0a8.989,8.989,0,0,1,5.049,5.9c.025.124-1.593.679-1.47.721.279.094.761.748,1.106,3.043a13.493,13.493,0,0,1-1.207,7.847h0l17.97,2.205-3.4-34.577-.51-4.238a5.257,5.257,0,0,0-5.854-4.6Z" transform="translate(2692.066 -10463.318)" fill="#fff"/>
    <path id="Trazado_173978" data-name="Trazado 173978" d="M197.852,1061.97l7.032,5.344.083-2.944-7.573-5.754h0A2.394,2.394,0,0,0,197.852,1061.97Z" transform="translate(2697.722 -10466.295)" fill="#f6b396"/>
    <path id="Trazado_173979" data-name="Trazado 173979" d="M246.728,1047.248s7.658,7.457,4.7,41.677l-16.53-4.792,11.218-8.969,1.911-20.815Z" transform="translate(2689.428 -10463.814)" fill="#fff"/>
    <path id="Trazado_173980" data-name="Trazado 173980" d="M217.016,999.32l-27.1,7.878.741,2.55,5.877,20.215,16.075-1.474,10.87-6.93Z" transform="translate(2699.248 -10453.352)" fill="#f6b396"/>
    <path id="Trazado_173981" data-name="Trazado 173981" d="M203.853,1030.8a2.443,2.443,0,1,1-3.069-1.822A2.527,2.527,0,0,1,203.853,1030.8Z" transform="translate(2697.252 -10459.807)" fill="#431e01"/>
    <path id="Trazado_173982" data-name="Trazado 173982" d="M219.787,1026.168a2.444,2.444,0,1,1-3.069-1.822A2.527,2.527,0,0,1,219.787,1026.168Z" transform="translate(2693.774 -10458.795)" fill="#431e01"/>
    <path id="Trazado_173983" data-name="Trazado 173983" d="M200.008,1024.709l-1.938.827a1.027,1.027,0,0,0-.517,1.358l2.885-1.231a.524.524,0,0,0-.334-.99A1,1,0,0,0,200.008,1024.709Z" transform="translate(2697.6 -10458.881)" fill="#4e402d" opacity="0.5"/>
    <path id="Trazado_173984" data-name="Trazado 173984" d="M214.65,1018.511l2.05-.488a1.027,1.027,0,0,1,1.223.784l-3.051.727a.524.524,0,0,1-.321-.994C214.583,1018.529,214.616,1018.519,214.65,1018.511Z" transform="translate(2693.943 -10457.429)" fill="#4e402d" opacity="0.5"/>
    <path id="Trazado_173985" data-name="Trazado 173985" d="M229.7,1083.179a9.93,9.93,0,0,1-4.564-1.112l-20.24-11.508c-1.793-.928-1.271-1.464-.343-3.258h0c.928-1.794,1.341-3.424,3.135-2.5l20.809,10.766a2.619,2.619,0,0,0,3.8-1.986l.82-16.321a3.656,3.656,0,0,1,3.859-3.442h0a3.657,3.657,0,0,1,3.443,3.859l-.839,16.594a9.936,9.936,0,0,1-9.879,8.9Z" transform="translate(2696.239 -10465.248)" fill="#f6b396"/>
    <path id="Trazado_173986" data-name="Trazado 173986" d="M224.514,1034.269l.074-9.708-8.248,2.4,1.345,4.628-19.358,3.737.043.148c2.256,7.759,10.341,10.985,18.47,8.621l4.132-1.2,1.18,2.866Z" transform="translate(2697.412 -10458.861)" fill="#f6b396"/>
    <path id="Trazado_173987" data-name="Trazado 173987" d="M211.428,984.449l-26.382,19.9s10.247,13.012,42.394-5.319Z" transform="translate(2700.311 -10450.105)" fill="#431e01"/>
    <g id="Grupo_116357" data-name="Grupo 116357" transform="translate(2901.424 -9429.445)">
      <path id="Trazado_173988" data-name="Trazado 173988" d="M207.1,1030.961l-1.5,6.933,2.358-.686-.208-6.436Z" transform="translate(-205.599 -1030.772)" fill="#f9cdbd"/>
    </g>
    <path id="Trazado_173989" data-name="Trazado 173989" d="M220.159,999.345l3.053,19.188s-21.013.661-32.856-8.486Z" transform="translate(2699.152 -10453.357)" fill="#431e01"/>
    <path id="Trazado_173990" data-name="Trazado 173990" d="M227.805,1047.79a2.544,2.544,0,0,0,3.134,1.765h0a2.543,2.543,0,0,0,1.765-3.134l-2.171-7.773a2.543,2.543,0,0,0-3.134-1.765h0a2.542,2.542,0,0,0-1.765,3.133Z" transform="translate(2691.472 -10461.53)" fill="#f6b396"/>
    <path id="Trazado_173991" data-name="Trazado 173991" d="M188.049,1013.591l5.015-.6s-1.555,4.071.628,11.578Z" transform="translate(2699.656 -10456.336)" fill="#431e01"/>
    <path id="Trazado_173992" data-name="Trazado 173992" d="M230.09,1053.28a17.473,17.473,0,0,0,1.638-14.9l-5.564-20.7,16.948-8.245,5.123,17.607a20.743,20.743,0,0,1-10.4,24.12C234.988,1052.666,230.09,1053.28,230.09,1053.28Z" transform="translate(2691.336 -10455.56)" fill="#431e01"/>
    <path id="Trazado_173993" data-name="Trazado 173993" d="M232.654,1022.633l2.827,9.005a4.719,4.719,0,1,0-2.827-9.005Z" transform="translate(2689.919 -10458.393)" fill="#f6b396"/>
    <path id="Trazado_173994" data-name="Trazado 173994" d="M208.128,1060a2.288,2.288,0,0,0-2.043,2.5l.275,2.745a2.288,2.288,0,0,0,2.5,2.043Z" transform="translate(2695.721 -10466.597)" fill="#f6b396"/>
    <path id="Trazado_173995" data-name="Trazado 173995" d="M218.153,1036.883l-8.942,3.34a4.773,4.773,0,1,0,8.942-3.34Z" transform="translate(2695.036 -10461.551)" fill="#fff"/>
    <path id="Trazado_173996" data-name="Trazado 173996" d="M208.35,1030.712l.673-.217,1.7,5.959-2.164.693Z" transform="translate(2695.224 -10460.156)" fill="#d87d64" opacity="0.5"/>
    <g id="Grupo_116360" data-name="Grupo 116360" transform="translate(2893.818 -9360.976)">
      <rect id="Rectángulo_42534" data-name="Rectángulo 42534" width="15.099" height="35.699" fill="#bc8044"/>
      <rect id="Rectángulo_42535" data-name="Rectángulo 42535" width="35.673" height="35.699" transform="translate(14.902)" fill="#e2aa6d"/>
      <rect id="Rectángulo_42536" data-name="Rectángulo 42536" width="11.217" height="6.234" transform="translate(37.289 2.149)" fill="#fff"/>
      <g id="Grupo_116358" data-name="Grupo 116358" transform="translate(39.089 3.692)" opacity="0.25">
        <rect id="Rectángulo_42537" data-name="Rectángulo 42537" width="0.613" height="3.144" fill="#5d5d5d"/>
        <rect id="Rectángulo_42538" data-name="Rectángulo 42538" width="0.613" height="3.144" transform="translate(1.167 0.001)" fill="#5d5d5d"/>
        <rect id="Rectángulo_42539" data-name="Rectángulo 42539" width="0.613" height="3.144" transform="translate(2.334 0.002)" fill="#5d5d5d"/>
        <rect id="Rectángulo_42540" data-name="Rectángulo 42540" width="0.613" height="3.144" transform="translate(3.502 0.002)" fill="#5d5d5d"/>
        <rect id="Rectángulo_42541" data-name="Rectángulo 42541" width="0.613" height="3.144" transform="translate(4.669 0.003)" fill="#5d5d5d"/>
        <rect id="Rectángulo_42542" data-name="Rectángulo 42542" width="0.613" height="3.144" transform="translate(5.836 0.004)" fill="#5d5d5d"/>
        <rect id="Rectángulo_42543" data-name="Rectángulo 42543" width="0.613" height="3.144" transform="translate(7.003 0.005)" fill="#5d5d5d"/>
      </g>
      <rect id="Rectángulo_42544" data-name="Rectángulo 42544" width="4.602" height="4.417" transform="translate(30.449)" fill="#fff" opacity="0.5"/>
      <rect id="Rectángulo_42545" data-name="Rectángulo 42545" width="4.602" height="4.417" transform="translate(30.833 31.282)" fill="#fff" opacity="0.5"/>
      <rect id="Rectángulo_42546" data-name="Rectángulo 42546" width="50.576" height="3.993" transform="translate(0 15.853)" fill="#fff" opacity="0.5"/>
      <g id="Grupo_116359" data-name="Grupo 116359" transform="translate(17.71 31.272)" opacity="0.25">
        <rect id="Rectángulo_42547" data-name="Rectángulo 42547" width="2.628" height="2.628" fill="#5d5d5d"/>
        <rect id="Rectángulo_42548" data-name="Rectángulo 42548" width="2.628" height="2.628" transform="translate(3.572 0.003)" fill="#5d5d5d"/>
        <rect id="Rectángulo_42549" data-name="Rectángulo 42549" width="2.628" height="2.628" transform="translate(7.144 0.005)" fill="#5d5d5d"/>
      </g>
    </g>
    <g id="Grupo_116362" data-name="Grupo 116362" transform="translate(2871.945 -9386.725)">
      <path id="Trazado_173997" data-name="Trazado 173997" d="M177.4,1101.406h-8.247l.232,3.145.559,7.572.476,3.952h7.63l.476-3.952.559-7.572.232-3.145Z" transform="translate(-168.165 -1088.911)" fill="#a06d57"/>
      <rect id="Rectángulo_42550" data-name="Rectángulo 42550" width="12.136" height="1.572" transform="translate(0 11.71)" fill="#fff"/>
      <g id="Grupo_116361" data-name="Grupo 116361" transform="translate(5.346)">
        <path id="Trazado_173998" data-name="Trazado 173998" d="M175.922,1097.283l-1.122-.338v-8.578l1.122.338Z" transform="translate(-174.744 -1086.065)" fill="#895336"/>
        <path id="Trazado_173999" data-name="Trazado 173999" d="M175.225,1088.835l-.5-1.068,4.887-2.345.5,1.068Z" transform="translate(-174.728 -1085.422)" fill="#895336"/>
      </g>
      <path id="Trazado_174000" data-name="Trazado 174000" d="M174.112,1094.354a5.514,5.514,0,0,0-5.513,5.513h11.026A5.513,5.513,0,0,0,174.112,1094.354Z" transform="translate(-168.044 -1087.371)" fill="#fff"/>
      <circle id="Elipse_12645" data-name="Elipse 12645" cx="2.39" cy="2.39" r="2.39" transform="translate(2.844 18.527) rotate(-22.335)" fill="#895336"/>
      <path id="Trazado_174001" data-name="Trazado 174001" d="M170.65,1119.165h7.63l.434-3.6h-8.5Z" transform="translate(-168.397 -1092.001)" fill="#6b3c27"/>
      <path id="Trazado_174002" data-name="Trazado 174002" d="M179.314,1102.412H169.151l.205,2.783h9.752Z" transform="translate(-168.165 -1089.13)" fill="#6b3c27"/>
    </g>
    <path id="Trazado_174003" data-name="Trazado 174003" d="M247.856,1050.864l.772-1.667-.007,0a20.807,20.807,0,0,1-1.677,3.255q-.478.757-1.023,1.475a21.044,21.044,0,0,1-3.223,3.388,21.338,21.338,0,0,1-3.759,2.526,17.9,17.9,0,0,1-3.792,1.353c-.883.224-1.723.395-2.4.517-.931.169-1.556.248-1.556.248a13.435,13.435,0,0,0,1.559.012,20.9,20.9,0,0,0,2.243-.217,21.394,21.394,0,0,0,7.142-2.4,20.16,20.16,0,0,0,3.788-2.71c.443-.4.881-.833,1.309-1.3a18.08,18.08,0,0,0,1.566-1.747A20.737,20.737,0,0,0,247.856,1050.864Z" transform="translate(2690.239 -10464.239)" fill="#020100" opacity="0.1"/>
    <path id="Trazado_174004" data-name="Trazado 174004" d="M195.633,1075.592l2.436.19.559-1.074Z" transform="translate(2698 -10469.809)" fill="#020100" opacity="0.1"/>
    <g id="Grupo_116364" data-name="Grupo 116364" transform="translate(2972.086 -9350.041)">
      <rect id="Rectángulo_42551" data-name="Rectángulo 42551" width="10.346" height="24.461" transform="translate(0)" fill="#bc8044"/>
      <rect id="Rectángulo_42552" data-name="Rectángulo 42552" width="24.444" height="24.461" transform="translate(10.211)" fill="#e2aa6d"/>
      <rect id="Rectángulo_42553" data-name="Rectángulo 42553" width="4.26" height="3.027" transform="translate(20.864)" fill="#fff" opacity="0.5"/>
      <rect id="Rectángulo_42554" data-name="Rectángulo 42554" width="3.998" height="3.026" transform="translate(21.127 21.435)" fill="#fff" opacity="0.5"/>
      <rect id="Rectángulo_42555" data-name="Rectángulo 42555" width="34.655" height="3.894" transform="translate(0 10.862)" fill="#fff" opacity="0.5"/>
      <g id="Grupo_116363" data-name="Grupo 116363" transform="translate(12.135 21.428)" opacity="0.25">
        <rect id="Rectángulo_42556" data-name="Rectángulo 42556" width="1.801" height="1.801" fill="#5d5d5d"/>
        <rect id="Rectángulo_42557" data-name="Rectángulo 42557" width="1.801" height="1.801" transform="translate(2.448 0.002)" fill="#5d5d5d"/>
        <rect id="Rectángulo_42558" data-name="Rectángulo 42558" width="1.801" height="1.801" transform="translate(4.895 0.004)" fill="#5d5d5d"/>
      </g>
    </g>
    <path id="Trazado_174005" data-name="Trazado 174005" d="M207.764,1069.691c0,2.7-1.25,3.789-3.955,3.789s-4.683-1.638-4.683-4.344,2.3-4.445,3.74-4.344A5.029,5.029,0,0,1,207.764,1069.691Z" transform="translate(2697.238 -10467.643)" fill="#f6b396"/>
    <g id="Grupo_116365" data-name="Grupo 116365" transform="translate(2901.558 -9393.349)">
      <path id="Trazado_174006" data-name="Trazado 174006" d="M205.77,1076.949h0l.693.041Z" transform="translate(-205.77 -1076.949)" fill="#431e01"/>
      <path id="Trazado_174007" data-name="Trazado 174007" d="M206.463,1076.989l-.693-.041,9.682,6.555,4.214.247-11.751-6.677Z" transform="translate(-205.77 -1076.949)" fill="#d87d64" opacity="0.5"/>
    </g>
  </g>
</svg>
