<svg xmlns="http://www.w3.org/2000/svg" width="123.991" height="123.991" viewBox="0 0 123.991 123.991">
  <g id="Grupo_120632" data-name="Grupo 120632" transform="translate(-3150.757 4139.257)">
    <path id="Trazado_188362" data-name="Trazado 188362" d="M10645-3120.29q3.045,0,6.076.3t6.018.892q2.988.6,5.9,1.479t5.728,2.05q2.814,1.166,5.5,2.6t5.219,3.127q2.533,1.693,4.887,3.625t4.508,4.085q2.153,2.156,4.086,4.508t3.624,4.887q1.692,2.532,3.128,5.218t2.6,5.5q1.165,2.814,2.05,5.729t1.478,5.9q.595,2.988.894,6.019t.3,6.076q0,3.045-.3,6.076t-.894,6.019q-.593,2.986-1.478,5.9t-2.05,5.729q-1.166,2.814-2.6,5.5t-3.128,5.218q-1.692,2.532-3.624,4.887t-4.086,4.508q-2.153,2.154-4.508,4.085t-4.887,3.625q-2.533,1.692-5.219,3.127t-5.5,2.6q-2.814,1.167-5.728,2.05t-5.9,1.479q-2.987.593-6.018.892t-6.076.3q-3.047,0-6.077-.3t-6.018-.892q-2.988-.6-5.9-1.479t-5.728-2.05q-2.815-1.165-5.5-2.6t-5.219-3.127q-2.533-1.693-4.887-3.625t-4.508-4.085q-2.155-2.156-4.086-4.508t-3.624-4.887q-1.692-2.532-3.128-5.218t-2.6-5.5q-1.165-2.814-2.05-5.729t-1.478-5.9q-.595-2.986-.894-6.019t-.3-6.076q0-3.045.3-6.076t.894-6.019q.593-2.987,1.478-5.9t2.05-5.729q1.166-2.814,2.6-5.5t3.128-5.218q1.692-2.532,3.624-4.887t4.086-4.508q2.153-2.153,4.508-4.085t4.887-3.625q2.533-1.692,5.219-3.127t5.5-2.6q2.814-1.167,5.728-2.05t5.9-1.479q2.985-.593,6.018-.892T10645-3120.29Z" transform="translate(-7432.243 -1018.967)" fill="#6677d6"/>
    <text id="_3" data-name="3" transform="translate(3196.384 -4056.967)" fill="#fff" font-size="60" font-family="Roboto-Black, Roboto" font-weight="800"><tspan x="0" y="0">3</tspan></text>
  </g>
</svg>
