<svg xmlns="http://www.w3.org/2000/svg" width="481.728" height="446.857" viewBox="0 0 481.728 446.857">
  <g id="Grupo_120593" data-name="Grupo 120593" transform="translate(-2380.277 10903)">
    <g id="Grupo_117115" data-name="Grupo 117115" transform="translate(2033.253 -11999.62)">
      <path id="Trazado_180016" data-name="Trazado 180016" d="M629.646,1431.573l-.264-1.222h3.14l.623,2.885a2.944,2.944,0,0,1-1.158.786,4.269,4.269,0,0,1-1.689.338,4.547,4.547,0,0,1-2.078-.476,4.167,4.167,0,0,1-1.56-1.365,5.325,5.325,0,0,1-.841-1.93,3.863,3.863,0,0,1,.039-2.011,2.353,2.353,0,0,1,1.094-1.35,3.265,3.265,0,0,1,1.652-.36,4.043,4.043,0,0,1,2.226.565,3.448,3.448,0,0,1,1.31,1.565l-1.4.273a2.077,2.077,0,0,0-.756-.843,2.039,2.039,0,0,0-1.117-.308,1.582,1.582,0,0,0-1.387.608,2.259,2.259,0,0,0-.175,1.8,3.54,3.54,0,0,0,.988,1.934,2.37,2.37,0,0,0,1.637.644,2.221,2.221,0,0,0,.878-.18,2.349,2.349,0,0,0,.7-.438l-.2-.917Zm3.5-4.574h2.662a5.51,5.51,0,0,1,1.4.138,3.163,3.163,0,0,1,1.231.666,4.232,4.232,0,0,1,.943,1.171,6.24,6.24,0,0,1,.6,1.708,4.627,4.627,0,0,1,.11,1.538,2.464,2.464,0,0,1-.5,1.278,1.923,1.923,0,0,1-.9.577,4.024,4.024,0,0,1-1.256.153h-2.741L633.15,1427Zm1.728,1.222,1.033,4.786H637a3.767,3.767,0,0,0,.864-.069,1.018,1.018,0,0,0,.522-.3,1.2,1.2,0,0,0,.23-.7,4.66,4.66,0,0,0-.138-1.324,4.926,4.926,0,0,0-.426-1.286,2.229,2.229,0,0,0-.564-.7,1.776,1.776,0,0,0-.747-.34,6.881,6.881,0,0,0-1.208-.069Zm7.125,6.008-1.56-7.229h2.341a8.86,8.86,0,0,1,1.757.108,2.523,2.523,0,0,1,1.193.708,2.8,2.8,0,0,1,.723,1.409,2.21,2.21,0,0,1,0,1.119,1.476,1.476,0,0,1-.459.713,1.653,1.653,0,0,1-.682.342,7.9,7.9,0,0,1-1.489.1h-.949l.588,2.726Zm.167-6.008.445,2.06h.8a3.481,3.481,0,0,0,1.125-.114.694.694,0,0,0,.377-.357.872.872,0,0,0,.043-.563,1.2,1.2,0,0,0-.371-.653,1.309,1.309,0,0,0-.656-.323,7.443,7.443,0,0,0-1.057-.049Zm6.568,6.008L647.177,1427h3.075a5.7,5.7,0,0,1,1.727.2,2.244,2.244,0,0,1,.991.691,2.58,2.58,0,0,1,.562,1.14,1.669,1.669,0,0,1-.186,1.344,1.784,1.784,0,0,1-1.281.668,4.515,4.515,0,0,1,.908.606,11.254,11.254,0,0,1,1.082,1.175l1.186,1.41H653.5l-1.388-1.578a13.768,13.768,0,0,0-1-1.06,1.509,1.509,0,0,0-.5-.3,2.65,2.65,0,0,0-.756-.081h-.3l.652,3.019Zm.564-4.17h1.08a5.309,5.309,0,0,0,1.292-.089.58.58,0,0,0,.343-.307.848.848,0,0,0,.031-.543,1.1,1.1,0,0,0-.323-.591,1.139,1.139,0,0,0-.61-.282q-.185-.025-1.071-.025H648.9Z" transform="translate(-154.121 -251.122)" fill="#ede4f1" fill-rule="evenodd"/>
      <g id="Grupo_117112" data-name="Grupo 117112" transform="translate(347.023 1096.62)">
        <path id="Trazado_180017" data-name="Trazado 180017" d="M684.421,1228.127c6.9,9.143,10.208,21.885,8,34.864-3.246,19.119-17.368,32.443-33.226,32.74v0l-.034,0a29.205,29.205,0,0,1-4.819-.319c-31.23-2.764-54.722-18.044-114.656,2.552l0,0a63.785,63.785,0,0,1-37.206,2.468c-39.073-9.043-64.7-51.987-57.246-95.916,5.3-31.2,25.863-54.507,51.335-62.152v-.006c18.85-6.037,49.885-2.943,79.155-13.7,25.39-9.333,43.82-37.112,70.531-31.224q1.059.186,2.12.431c22.5,5.208,37.389,29.2,33.249,53.592q-.4,2.335-1,4.557h0q-11.361,41.752,3.795,72.113Z" transform="translate(-435.332 -1096.62)" fill="#4e2e8e" fill-rule="evenodd"/>
        <path id="Trazado_180018" data-name="Trazado 180018" d="M684.134,1278.733a38.563,38.563,0,0,1,6.77,29.486c-2.746,16.17-14.689,27.438-28.1,27.689v0l-.029,0a24.672,24.672,0,0,1-4.077-.269c-26.412-2.336-46.279-15.26-96.967,2.158h0a53.956,53.956,0,0,1-31.468,2.087c-33.044-7.648-54.72-43.967-48.413-81.121,4.479-26.39,21.873-46.1,43.415-52.564v-.005c15.943-5.106,42.19-2.49,66.945-11.588,21.473-7.893,37.061-31.387,59.651-26.407q.9.156,1.794.363c19.031,4.405,31.621,24.7,28.118,45.326q-.334,1.974-.847,3.854h0q-9.609,35.312,3.208,60.989Z" transform="translate(-456.984 -1138.32)" fill="#d7cce5" fill-rule="evenodd"/>
        <path id="Trazado_180019" data-name="Trazado 180019" d="M692.487,1311.1a31.528,31.528,0,0,1,5.535,24.108c-2.245,13.22-12.009,22.434-22.975,22.639v0h-.024a20.166,20.166,0,0,1-3.332-.221c-21.594-1.911-37.838-12.476-79.281,1.765l0,0a44.1,44.1,0,0,1-25.727,1.706c-27.018-6.253-44.74-35.947-39.582-66.323,3.662-21.577,17.882-37.69,35.495-42.977v0c13.036-4.174,34.5-2.036,54.735-9.475,17.558-6.453,30.3-25.662,48.772-21.59q.731.128,1.466.3c15.561,3.6,25.854,20.193,22.99,37.058-.181,1.076-.415,2.127-.691,3.152h0q-7.858,28.871,2.623,49.865Z" transform="translate(-483.717 -1169.293)" fill="#cec2df" fill-rule="evenodd"/>
        <path id="Trazado_180020" data-name="Trazado 180020" d="M606.9,1448.018q-16.512,21.643-14.41,49.709a1.518,1.518,0,0,1-1.164.03q-.1-3.586-.054-7.337a8.8,8.8,0,0,1-3.26-7.02,7.267,7.267,0,0,1,.286-1.82l2.4,1.533-2.187-2.283c.757-2.473,2.069-5.576,1.718-9.254a9.808,9.808,0,0,1,.018-2.05l3.525,2.127-3.4-2.943a16.468,16.468,0,0,1,3.1-6.441l1.939,2.483-1.537-3.022c.085-.112.171-.223.257-.334a19.582,19.582,0,0,0,2.764-5.267l1.549.626-1.285-1.252a17.277,17.277,0,0,1,1.537-2.847c2.154-3.211,7.482-6.923,11.89-8.215a5.982,5.982,0,0,0-1.671,4.023l-2.013,2.261,2.018-1.632c.081,1.773.657,3.577.547,5.58l-4.53,2.734,4.4-1.623c-.04.2-.087.406-.143.612-.965,3.513-4.245,7.215-5.941,10.854l-4.415,1.424,4.1-.7c-.074.179-.141.358-.2.538a9.129,9.129,0,0,0,.089,5.7l-6.7,4.431,6.968-3.406a10.789,10.789,0,0,1,.4,2.41c.118,5.076-8.1,8.627-9.878,11.019A66.984,66.984,0,0,1,606.9,1448.018Z" transform="translate(-520.073 -1301.217)" fill="#fff" fill-rule="evenodd"/>
        <path id="Trazado_180021" data-name="Trazado 180021" d="M986.509,1399.953q-24.275,28.06-23.758,66.416a2.081,2.081,0,0,1-1.587-.057q.166-4.886.541-9.987a11.984,11.984,0,0,1-3.849-9.821,9.9,9.9,0,0,1,.539-2.451l3.139,2.286-2.782-3.291c1.236-3.3,3.28-7.41,3.11-12.445a13.386,13.386,0,0,1,.2-2.786l4.616,3.188-4.379-4.286a22.461,22.461,0,0,1,4.755-8.5l2.431,3.54-1.839-4.239c.125-.146.251-.291.378-.434a26.741,26.741,0,0,0,4.2-6.934l2.054.981-1.642-1.812a23.608,23.608,0,0,1,2.326-3.744c3.2-4.189,10.758-8.793,16.862-10.181a8.155,8.155,0,0,0-2.61,5.334l-2.926,2.906,2.882-2.05c-.038,2.418.6,4.92.276,7.636l-6.39,3.341,6.113-1.841q-.1.407-.245.82c-1.607,4.7-6.378,9.461-8.99,14.27l-6.124,1.568,5.634-.608c-.114.24-.221.477-.322.715-1.2,2.844-.827,5.375-.357,7.759l-9.479,5.468,9.763-4.051a14.62,14.62,0,0,1,.347,3.312c-.262,6.917-11.743,11.059-14.359,14.165A91.3,91.3,0,0,1,986.509,1399.953Z" transform="translate(-737.61 -1272.367)" fill="#fff" fill-rule="evenodd"/>
        <path id="Trazado_180022" data-name="Trazado 180022" d="M521.648,1402.7q26.429,33.99,23.5,78.4a2.41,2.41,0,0,0,1.843.031q.106-5.674-.022-11.606a13.91,13.91,0,0,0,5.056-11.147,11.527,11.527,0,0,0-.478-2.873l-3.776,2.458,3.425-3.643c-1.232-3.9-3.352-8.787-2.849-14.611a15.586,15.586,0,0,0-.06-3.241l-5.543,3.416,5.335-4.7a26.068,26.068,0,0,0-5-10.143L540.055,1429l2.39-4.8c-.138-.176-.273-.351-.413-.525a30.968,30.968,0,0,1-4.448-8.29l-2.442,1.012,2.015-2a27.439,27.439,0,0,0-2.471-4.481c-3.454-5.048-11.931-10.842-18.923-12.82a9.46,9.46,0,0,1,2.7,6.339l3.213,3.546-3.215-2.552c-.1,2.806-.988,5.666-.784,8.832l7.2,4.259-6.971-2.5c.064.318.141.641.234.965,1.577,5.542,6.816,11.35,9.551,17.081l7,2.188-6.493-1.045q.176.423.331.848c1.222,3.368.634,6.279-.058,9.012l10.653,6.911-11.068-5.285a16.841,16.841,0,0,0-.6,3.817c-.114,8.03,12.94,13.526,15.78,17.284A105.927,105.927,0,0,0,521.648,1402.7Z" transform="translate(-477.575 -1273.366)" fill="#fff" fill-rule="evenodd"/>
        <path id="Trazado_180023" data-name="Trazado 180023" d="M728.3,1356.085l.887,20.592,22.464-2.365-2.659-18.227Z" transform="translate(-602.596 -1249.244)" fill="#9588c0" fill-rule="evenodd"/>
        <path id="Trazado_180024" data-name="Trazado 180024" d="M721.365,1374.1a8.992,8.992,0,0,1,3.744,2.537l-.887-20.592-1.01-.026Z" transform="translate(-598.515 -1249.208)" fill="#38308d" fill-rule="evenodd"/>
        <path id="Trazado_180025" data-name="Trazado 180025" d="M728.3,1356.085l2.612,8.26c.377.916.762,1.717,2.285,1.591l14.415-.914c1.286-.082,1.317-.731,1.327-1.611v-7.326Z" transform="translate(-602.597 -1249.244)" fill="#6251a1" fill-rule="evenodd"/>
        <path id="Trazado_180026" data-name="Trazado 180026" d="M753.152,1376.108l3.668-.237a.416.416,0,0,1,.435.329l.5,3.257a.341.341,0,0,1-.295.405l-3.814.386a.4.4,0,0,1-.434-.328l-.351-3.406A.343.343,0,0,1,753.152,1376.108Z" transform="translate(-617.038 -1260.882)" fill="#d7cce5" fill-rule="evenodd"/>
        <path id="Trazado_180027" data-name="Trazado 180027" d="M755.221,1378.338l.237,2.3,2.688-.272-.337-2.193Z" transform="translate(-618.43 -1262.236)" fill="#6251a1" fill-rule="evenodd"/>
        <path id="Trazado_180028" data-name="Trazado 180028" d="M738.77,1350.831a3.741,3.741,0,0,1,1.461-1.986,5.7,5.7,0,0,1,1.012-.588c.217-.562,1.519-1.036,3.112-1.1,1.685-.064,3.083.358,3.221.954.1.046.21.1.311.148a3.786,3.786,0,0,1,2.106,2.57h-.775a3.128,3.128,0,0,0-1.669-1.908c-.109-.056-.221-.107-.335-.155a5.565,5.565,0,0,1-2.77.7,5.3,5.3,0,0,1-2.893-.54,5.141,5.141,0,0,0-.882.512,3.107,3.107,0,0,0-1.1,1.386Z" transform="translate(-608.753 -1243.99)" fill="#38308d" fill-rule="evenodd"/>
        <path id="Trazado_180029" data-name="Trazado 180029" d="M675.14,1446.435q-1.817,3.786-7.107,1,5.677-24.078,4.607-43.059-.923,30.677-8.516,49.946-1.4.412-1.937-.286a43.285,43.285,0,0,0,3.349-6.9q-9.463,4.97-10.387-7.75,5.93,3.41,7.484,1.335.44-1.246-6.177-1.8a16.962,16.962,0,0,1,.143-4.913q6.137,4.554,7.185,1.254-5.238-1.674-6.258-3.32a31.977,31.977,0,0,0,2.226-9.381q5.5,5.418,6.064,2.578.109-2.3-4.842-3.214a21.5,21.5,0,0,0,1.535-12.173q3.894,6.539,4.488,3.823c-5.271-8.51,5.06-8.619,6.43-16.5,1.794,9.745,6.419,8.285,1.8,14.947,1.577-.154,2.692-.769,3.693-3.085,1.289,4.481,1.642,7.276.71,9.625a14.293,14.293,0,0,0-3.972,2.167,9.358,9.358,0,0,0,4.068-.666,6.607,6.607,0,0,1,.073,4.221,13.357,13.357,0,0,0-6.157.181,8.163,8.163,0,0,0,5.622.889,11.829,11.829,0,0,1,.273,4.388,10.244,10.244,0,0,1-5.3-.121,7.088,7.088,0,0,0,5.686,1.131,4.687,4.687,0,0,1-1.072,2.579,11.162,11.162,0,0,0-3.745-.686q3.725.907,4.623,2.677a5.479,5.479,0,0,0-.06,4.177,19.136,19.136,0,0,0-8.092,1.8,25.769,25.769,0,0,1,6.743-.136,16.424,16.424,0,0,1-3.016,4.236,25.2,25.2,0,0,0-3.468.232A7.338,7.338,0,0,0,675.14,1446.435Z" transform="translate(-559.566 -1273.359)" fill="#fff" fill-rule="evenodd"/>
        <rect id="Rectángulo_43251" data-name="Rectángulo 43251" width="37.034" height="103.294" transform="translate(191.424 105.766)" fill="#6677d6"/>
        <path id="Trazado_180030" data-name="Trazado 180030" d="M509.982,1538.769l11.976-1.995v26.857H509.982Z" transform="translate(-474.175 -1355.53)" fill="#fff" fill-rule="evenodd"/>
        <path id="Trazado_180031" data-name="Trazado 180031" d="M626.258,1487.311l11.976-1.995v48.365H626.258Z" transform="translate(-542.571 -1325.261)" fill="#fff" fill-rule="evenodd"/>
        <path id="Trazado_180032" data-name="Trazado 180032" d="M742.537,1426.211l11.977-2v73.845H742.537Z" transform="translate(-610.97 -1289.32)" fill="#fff" fill-rule="evenodd"/>
        <path id="Trazado_180033" data-name="Trazado 180033" d="M858.813,1355.472l11.977-2v103.294H858.813Z" transform="translate(-679.366 -1247.709)" fill="#fff" fill-rule="evenodd"/>
        <rect id="Rectángulo_43252" data-name="Rectángulo 43252" width="37.032" height="73.845" transform="translate(143.544 134.895)" fill="#6677d6"/>
        <rect id="Rectángulo_43253" data-name="Rectángulo 43253" width="37.034" height="48.366" transform="translate(95.663 160.055)" fill="#6677d6"/>
        <rect id="Rectángulo_43254" data-name="Rectángulo 43254" width="37.034" height="26.857" transform="translate(47.784 181.244)" fill="#6677d6"/>
        <path id="Trazado_180034" data-name="Trazado 180034" d="M822.147,1209.654c2.4,5.981,7.06,6.894,8.87.89q6,1.374,7.686,3.765,2.751,3.545,4.933,6.156a25.453,25.453,0,0,0-4.324,6.052,47.8,47.8,0,0,0-3.412-3.893q-3.31,5.329-11.2,21.941-5.743,5.069-17.626,2.349c2.516-13.8,5.36-19.79,5.943-27.1q-2.24,1.5-5.84,3.527a47.4,47.4,0,0,0-5.581-5.045q7.519-5.637,10.561-6.815A37.684,37.684,0,0,1,822.147,1209.654Z" transform="translate(-645.707 -1163.11)" fill="#6677d6" fill-rule="evenodd"/>
        <path id="Trazado_180035" data-name="Trazado 180035" d="M847.722,1173.713q-2.773-1.312-2.283-3.081,1.5-1.176,3.345,2.052a2.053,2.053,0,0,0-.165-1.174q-1.7-1.985-1.3-3.251a13.706,13.706,0,0,0,5.567-2.848c.217.2.413.385.59.568,1.428-2.258,1.517-4.614.043-7.522-1.731,4.126-10.631,2.725-10.311,7.774a1.417,1.417,0,0,0-2.15-.223,2.018,2.018,0,0,1,1.772,1.415,2.891,2.891,0,0,1-2.471,1.656q.318,2.663,3.7,3.526a3.434,3.434,0,0,1-.759,1.42q1,1.836,4.265,1.141Q848.331,1174.775,847.722,1173.713Z" transform="translate(-668.51 -1132.994)" fill="#1b2452" fill-rule="evenodd"/>
        <path id="Trazado_180036" data-name="Trazado 180036" d="M854.468,1183.647q.611,1.063-.156,1.452a11.182,11.182,0,0,1-2.485,4.686c2.39,5.586,6.785,6.442,8.632.917-.424-.68-.5-1.853-.811-3.618,3.066-.517,3.743-1.737,3.2-3.461q.31-4.866-1.463-5.9a4.156,4.156,0,0,0-1.167-1.816c-.177-.184-.373-.373-.59-.568a13.7,13.7,0,0,1-5.566,2.848q-.4,1.267,1.3,3.251a2.053,2.053,0,0,1,.165,1.174q-1.841-3.227-3.345-2.052Q851.7,1182.335,854.468,1183.647Z" transform="translate(-675.256 -1142.928)" fill="#fab688" fill-rule="evenodd"/>
        <path id="Trazado_180037" data-name="Trazado 180037" d="M867.26,1204.5c-.065-.415-.136-.878-.226-1.391a6.02,6.02,0,0,1-2.65-.524A3.441,3.441,0,0,0,867.26,1204.5Z" transform="translate(-682.642 -1158.95)" fill="#ed7d57" fill-rule="evenodd"/>
        <path id="Trazado_180038" data-name="Trazado 180038" d="M901,1231.592q-1.635-1.609-3.132-2.976a25.481,25.481,0,0,0-3.472,4.75,12.036,12.036,0,0,0,6.669,3.655q5.852-1.3,15.418-6.714,2.71.109,3.217-1.281a5.573,5.573,0,0,0,2.245-.408c.912-.591.279-1.751-.84-2.919,3.369-1.36,4.426-2.05,3.539-2.834-2.779,1.465-7.69,2.841-9.534,4.608Q904.167,1229.84,901,1231.592Z" transform="translate(-700.299 -1170.88)" fill="#fab688" fill-rule="evenodd"/>
        <path id="Trazado_180039" data-name="Trazado 180039" d="M817.04,1294.753q-.019,13.43,17.981,9.637a60.426,60.426,0,0,0,14.875-6.485q.444,7.229,16.706,13.884a3.919,3.919,0,0,0,2.218-2.552,102.555,102.555,0,0,1-15.55-18.158c-2.011-1.178-12.746.339-19.9,1.479Q827.848,1297,817.04,1294.753Z" transform="translate(-654.794 -1210.755)" fill="#1b2452" fill-rule="evenodd"/>
        <path id="Trazado_180040" data-name="Trazado 180040" d="M817.04,1300.611q-.019,13.429,17.981,9.636a60.418,60.418,0,0,0,14.875-6.485q.444,7.229,16.706,13.884a5.856,5.856,0,0,0,.911-.584q-14.454-7.286-17.527-15.358-23.559,12.791-29.962-.587Q818.586,1300.934,817.04,1300.611Z" transform="translate(-654.794 -1216.613)" fill="#071023" fill-rule="evenodd"/>
        <path id="Trazado_180041" data-name="Trazado 180041" d="M782.75,1323.631c-8.387,2.229-8.586,5.926-16.833,17.419q.907,2.211,3.964,2.609,9.474-10.453,17.677-15.262,7.274-10.314,11.783-16.746-12.151.7-12.368-10Q783.734,1316.767,782.75,1323.631Z" transform="translate(-624.722 -1217.224)" fill="#1b2452" fill-rule="evenodd"/>
        <path id="Trazado_180042" data-name="Trazado 180042" d="M951.5,1328.3c-2.833,3.867-4.953,6.76-6.336,7.808-1.492,1.131-2.169.2-3-1.644,5.339-3.495,1.262-2.879,2.743-4.421a14.377,14.377,0,0,0,6.08-4.067C952.446,1325.5,952.817,1326.376,951.5,1328.3Z" transform="translate(-728.398 -1231.46)" fill="#071023" fill-rule="evenodd"/>
        <path id="Trazado_180043" data-name="Trazado 180043" d="M762.922,1410.735c-3-3.032-5.224-5.317-5.983-6.734-.884-1.652.141-2.172,2.094-2.7,2.616,5.817,2.645,1.7,3.936,3.4a11.883,11.883,0,0,0,1.354,4,21.391,21.391,0,0,0,3.155,1.023c.424.394.6.745.538,1.018Z" transform="translate(-619.253 -1275.839)" fill="#071023" fill-rule="evenodd"/>
        <path id="Trazado_180044" data-name="Trazado 180044" d="M834.981,1338.646a25.853,25.853,0,0,1,1.929,1.965c4.12-2.751,2.089-2.814,2.138-3.635a4.349,4.349,0,0,1-2.236-.389,3.912,3.912,0,0,1-1.832,2.06Zm-68.817,27.59a5.881,5.881,0,0,1,1.093-2.166,4.3,4.3,0,0,1-2.954-2,7.5,7.5,0,0,1-1.517,1.437C764.96,1368.231,765.275,1365.811,766.164,1366.236Z" transform="translate(-622.88 -1237.774)" fill="#fab688" fill-rule="evenodd"/>
        <path id="Trazado_180045" data-name="Trazado 180045" d="M816.086,1252.549c-.111.052-.219.1-.33.149-.07.032-.143.062-.213.092q-.326,1.6-.648,3.364c.119.027.239.054.358.08q.4-1.832.833-3.685Zm28.314-27.187a10.8,10.8,0,0,1-.675,6.5,47.656,47.656,0,0,1,3.412,3.893c.078-.154.159-.307.241-.459q-1.376-1.735-2.743-3.787a14.061,14.061,0,0,0-.235-6.149Zm-21.227,2.149q-1.149.7-2.335,1.545c-.46,5.769-2.33,10.714-4.334,19.329.082.094.158.187.232.281s.148.193.215.291Q819.536,1238.569,823.173,1227.511Z" transform="translate(-653.532 -1172.349)" fill="#ea7924" fill-rule="evenodd"/>
        <path id="Trazado_180046" data-name="Trazado 180046" d="M790.582,1340.55c-5.932,3.444-10.443,9.11-16.044,16.563.134.025.273.046.414.064q9.474-10.453,17.677-15.262,7.275-10.314,11.783-16.746a17.717,17.717,0,0,1-6-.538A159.872,159.872,0,0,1,790.582,1340.55Z" transform="translate(-629.793 -1230.741)" fill="#071023" fill-rule="evenodd"/>
        <path id="Trazado_180047" data-name="Trazado 180047" d="M792.935,1292.967l4.415,20.132,21.723-6.193-5.756-17.5Z" transform="translate(-640.615 -1210.023)" fill="#9588c0" fill-rule="evenodd"/>
        <path id="Trazado_180048" data-name="Trazado 180048" d="M791.8,1316.327a9.006,9.006,0,0,1,4.124,1.856l-4.416-20.132-1,.148Z" transform="translate(-639.188 -1215.107)" fill="#38308d" fill-rule="evenodd"/>
        <path id="Trazado_180049" data-name="Trazado 180049" d="M792.935,1292.978l4,7.689c.527.837,1.045,1.56,2.522,1.174l14.044-3.38c1.253-.3,1.171-.947,1.03-1.815l-1.26-7.217Z" transform="translate(-640.615 -1210.035)" fill="#6251a1" fill-rule="evenodd"/>
        <path id="Trazado_180050" data-name="Trazado 180050" d="M820.995,1312.512l3.572-.864a.414.414,0,0,1,.484.25l1.052,3.123a.342.342,0,0,1-.219.45l-3.693,1.036a.4.4,0,0,1-.483-.25l-.932-3.294A.341.341,0,0,1,820.995,1312.512Z" transform="translate(-656.98 -1223.098)" fill="#d7cce5" fill-rule="evenodd"/>
        <path id="Trazado_180051" data-name="Trazado 180051" d="M823.322,1314.706l.628,2.223,2.6-.729-.708-2.1Z" transform="translate(-658.489 -1224.546)" fill="#6251a1" fill-rule="evenodd"/>
        <path id="Trazado_180052" data-name="Trazado 180052" d="M803.245,1289.45a3.746,3.746,0,0,1,1.1-2.207,5.717,5.717,0,0,1,.9-.753c.118-.592,1.32-1.283,2.877-1.616,1.649-.353,3.1-.179,3.336.386.114.027.224.057.333.091a3.789,3.789,0,0,1,2.516,2.17l-.764.133a3.122,3.122,0,0,0-1.971-1.592c-.118-.036-.237-.068-.359-.095a5.546,5.546,0,0,1-2.606,1.171,5.3,5.3,0,0,1-2.942-.035,5.084,5.084,0,0,0-.781.657,3.1,3.1,0,0,0-.849,1.554Z" transform="translate(-646.679 -1207.248)" fill="#38308d" fill-rule="evenodd"/>
        <path id="Trazado_180053" data-name="Trazado 180053" d="M802.509,1251.528c-2.9-7.617-2.677-11.428-4.321-13.292a27.123,27.123,0,0,0,3.49-1.887q-2.65-2.638-4.218-3.919a14.479,14.479,0,0,0-4.542,4.182c.07,3.529,1.944,9.567,7.078,16.206q-1.572,3.935.268,4.85a11.818,11.818,0,0,0,2.565-.812,16.482,16.482,0,0,0,2.2-1.184,5.742,5.742,0,0,0-1.216-2.849A7.941,7.941,0,0,0,802.509,1251.528Z" transform="translate(-640.605 -1176.507)" fill="#fab688" fill-rule="evenodd"/>
        <path id="Trazado_180054" data-name="Trazado 180054" d="M932.821,1138.182l-1.437-2.273c-.226-.339-.518-.27-.579.147l-.174,2.684-2.605.664c-.392.112-.417.409-.038.6l2.5.994-.172,2.683c-.015.407.261.523.556.221l1.718-2.068,2.5.994c.382.141.577-.087.382-.46l-1.437-2.273,1.718-2.069c.252-.321.1-.576-.32-.506Z" transform="translate(-719.897 -1119.604)" fill="#fff" fill-rule="evenodd"/>
        <path id="Trazado_180055" data-name="Trazado 180055" d="M923.533,1197.725l-1.931-3.054c-.306-.455-.7-.363-.78.2l-.234,3.607-3.5.892c-.527.15-.559.549-.051.8l3.356,1.336-.232,3.6c-.02.548.349.7.748.3l2.308-2.779,3.356,1.336c.516.188.777-.117.514-.619l-1.93-3.055,2.308-2.781c.338-.432.128-.773-.431-.68Z" transform="translate(-713.4 -1154.126)" fill="#fff" fill-rule="evenodd"/>
        <path id="Trazado_180056" data-name="Trazado 180056" d="M977.188,1157.885l-2.427-3.837c-.384-.571-.873-.455-.979.25l-.291,4.53-4.4,1.121c-.662.188-.7.688-.063,1.007l4.216,1.679-.292,4.527c-.026.688.44.884.938.374l2.9-3.49,4.216,1.678c.646.236.975-.146.646-.778l-2.426-3.837,2.9-3.493c.424-.542.163-.971-.542-.854Z" transform="translate(-743.928 -1130.187)" fill="#fff" fill-rule="evenodd"/>
        <path id="Trazado_180057" data-name="Trazado 180057" d="M491.255,1333.125c2.967-1.06,2.554,1.112,3.111,3.319a4.156,4.156,0,0,0-2.1,2.165c-.842-.618-1.47-.446-2.044-1.306-.952-1.133-2.154-3.331-.955-3.49a2.874,2.874,0,0,0,1.4,1.568,7.181,7.181,0,0,0-.306-1.437A5.349,5.349,0,0,0,489.22,1332q-1.667-.421-1.349-1Q489.932,1330.622,491.255,1333.125Z" transform="translate(-461.138 -1234.458)" fill="#fab688" fill-rule="evenodd"/>
        <path id="Trazado_180058" data-name="Trazado 180058" d="M455.4,1446.11c1.466,4.165,2.7,13.633,3.164,28.421.375,7.184-.656,16.734-1.984,29.286a11.587,11.587,0,0,1-4.7.671c-2.1-17.337-2.551-24.694-1.53-29.5a85.735,85.735,0,0,1-5.261-15.39,123.15,123.15,0,0,1-2.715,17.6q-3.747,10.469-11.18,27.452a7.994,7.994,0,0,1-4.62-.907c2.348-12.385,3.927-25.2,7.962-27.614-3.078-15.257-1.638-24.193,1.278-29.835Q447.529,1447.616,455.4,1446.11Z" transform="translate(-425.111 -1302.199)" fill="#1b2452" fill-rule="evenodd"/>
        <path id="Trazado_180059" data-name="Trazado 180059" d="M461.508,1360.541c.992,11.019-1.3,10.094-1.206,25.492a57.458,57.458,0,0,1-13.857.673c.349,1.48.628,2.8.835,3.8a4.445,4.445,0,0,0-4,1.555c-1.137-1.789-2.127-3.446-2.987-4.988-2.719-4.888-4.109-8.624-4.557-11.742-2.831-18.407,1.577-24.431,12.643-24.771.726,1.806,4.718,2.974,5.878,2.862.818-.475,1.2-1.778,1.858-2.994a20.432,20.432,0,0,1,8.588,3.98,49.465,49.465,0,0,1-3.97-7.675,4.59,4.59,0,0,1,2.782-2.752q17.688,15.066,12.509,18.885Q470.513,1365.092,461.508,1360.541Z" transform="translate(-430.011 -1242.121)" fill="#6677d6" fill-rule="evenodd"/>
        <path id="Trazado_180060" data-name="Trazado 180060" d="M459.258,1593.979c-3.782.263-7.026.539-8.454.269-1.667-.314-1.141-1.3-.393-2.863a5.762,5.762,0,0,0,4.451-.472,11.07,11.07,0,0,0,5.588,1.51c1.075.66.721,1.359-1.193,1.557Zm-30.718,1.287a22.839,22.839,0,0,1-4.889-1.6c-1.157-.73-.554-1.47.518-2.642a5.76,5.76,0,0,0,4.4.839c1.2,1.623,4.957.843,5.353,1.964C434.429,1595.916,429.552,1595.527,428.54,1595.267Z" transform="translate(-423.023 -1387.376)" fill="#071023" fill-rule="evenodd"/>
        <path id="Trazado_180061" data-name="Trazado 180061" d="M457.128,1397.749c-.9-3.822-2.265-8.7-4.064-11.79a41.138,41.138,0,0,0,.371-11.295,34.767,34.767,0,0,1,1.432,11.256,43.5,43.5,0,0,1,3.267,11.879c-.333-.015-.668-.031-1.006-.051Zm20.863-28.476a29.15,29.15,0,0,0-7.108-6.524,19.853,19.853,0,0,1,4.5,2.7Q476.581,1367.351,477.991,1369.273Z" transform="translate(-440.694 -1253.164)" fill="#ea7924" fill-rule="evenodd"/>
        <path id="Trazado_180062" data-name="Trazado 180062" d="M470.737,1342.521c-1.16.113-5.152-1.056-5.878-2.862a8.554,8.554,0,0,0,1.284-3.263q-.3-.513-.672-1.31-4.051-1.741-1.676-3.411a4.708,4.708,0,0,1,1.652,1.56,1.09,1.09,0,0,0,.82-.817,31.815,31.815,0,0,1-1.769-3.974c.84-1.975,3.542-2.758,7.277-2.99q.535,1.4,1.012,3c.759.468,1.1,2.685,1,5.336q.864,2.076-2.214,2.878a7.978,7.978,0,0,0,1.023,2.859C471.939,1340.743,471.555,1342.046,470.737,1342.521Z" transform="translate(-446.489 -1231.225)" fill="#fab688" fill-rule="evenodd"/>
        <path id="Trazado_180063" data-name="Trazado 180063" d="M466.939,1318.7c-3.735.232-6.437,1.014-7.277,2.99a31.873,31.873,0,0,0,1.769,3.974,1.09,1.09,0,0,1-.82.817,4.707,4.707,0,0,0-1.652-1.56q-2.376,1.67,1.676,3.411.372.8.672,1.31a6.727,6.727,0,0,1-4.825-2.423c-3.459-4.454-1.069-7.08.279-8.131-.286-5.019,7.654-2.069,10.756-5.114C469.308,1315.656,468.032,1318.444,466.939,1318.7Z" transform="translate(-441.652 -1224.475)" fill="#1b2452" fill-rule="evenodd"/>
        <path id="Trazado_180064" data-name="Trazado 180064" d="M463.272,1449.226q-.182-.82-.339-1.48c.339.02.674.036,1.006.051q.266,1.59.514,3.9a5.556,5.556,0,0,0-.686-.155c-.132-.641-.3-1.416-.489-2.282A.293.293,0,0,0,463.272,1449.226Z" transform="translate(-446.5 -1303.161)" fill="#2c2066" fill-rule="evenodd"/>
        <path id="Trazado_180065" data-name="Trazado 180065" d="M476.989,1352.414a10.689,10.689,0,0,0,2.86.113,9.641,9.641,0,0,0,.427,1.633A6.236,6.236,0,0,1,476.989,1352.414Z" transform="translate(-454.767 -1247.085)" fill="#ed7d57" fill-rule="evenodd"/>
        <path id="Trazado_180066" data-name="Trazado 180066" d="M430.7,1587.457a5.426,5.426,0,0,0-.21,2.032,5.721,5.721,0,0,1-3.678-.634,7.685,7.685,0,0,0,.67-1.978,8.746,8.746,0,0,0,3.219.579Zm22.264,1.6a11.862,11.862,0,0,0,.036-1.8,11.658,11.658,0,0,0,3.132-.449,4.182,4.182,0,0,0,.67,1.834A5.706,5.706,0,0,1,452.968,1589.054Z" transform="translate(-425.254 -1384.957)" fill="#f9b08c" fill-rule="evenodd"/>
        <path id="Trazado_180067" data-name="Trazado 180067" d="M437.014,1474.469l.887,20.592,22.463-2.364-2.661-18.227Z" transform="translate(-431.253 -1318.88)" fill="#9588c0" fill-rule="evenodd"/>
        <path id="Trazado_180068" data-name="Trazado 180068" d="M430.073,1492.486a9.016,9.016,0,0,1,3.745,2.537l-.887-20.591-1.01-.026Z" transform="translate(-427.17 -1318.844)" fill="#38308d" fill-rule="evenodd"/>
        <path id="Trazado_180069" data-name="Trazado 180069" d="M437.014,1474.469l2.612,8.26c.375.916.76,1.717,2.283,1.592l14.417-.913c1.285-.081,1.316-.732,1.327-1.612v-7.326Z" transform="translate(-431.253 -1318.881)" fill="#6251a1" fill-rule="evenodd"/>
        <path id="Trazado_180070" data-name="Trazado 180070" d="M461.863,1494.493l3.666-.237a.412.412,0,0,1,.435.329l.5,3.256a.343.343,0,0,1-.3.406l-3.814.385a.4.4,0,0,1-.434-.329l-.351-3.406A.34.34,0,0,1,461.863,1494.493Z" transform="translate(-445.694 -1330.52)" fill="#d7cce5" fill-rule="evenodd"/>
        <path id="Trazado_180071" data-name="Trazado 180071" d="M463.932,1496.721l.235,2.3,2.688-.271-.335-2.193Z" transform="translate(-447.087 -1331.872)" fill="#6251a1" fill-rule="evenodd"/>
        <path id="Trazado_180072" data-name="Trazado 180072" d="M447.477,1469.215a3.759,3.759,0,0,1,1.461-1.986,5.81,5.81,0,0,1,1.012-.589c.217-.562,1.521-1.035,3.112-1.1,1.685-.064,3.083.357,3.221.955.107.045.21.094.311.146a3.787,3.787,0,0,1,2.107,2.57h-.777a3.118,3.118,0,0,0-1.667-1.907c-.111-.056-.221-.108-.337-.156a5.549,5.549,0,0,1-2.77.7,5.294,5.294,0,0,1-2.891-.54,4.965,4.965,0,0,0-.882.512,3.087,3.087,0,0,0-1.1,1.386Z" transform="translate(-437.407 -1313.627)" fill="#38308d" fill-rule="evenodd"/>
        <path id="Trazado_180073" data-name="Trazado 180073" d="M458.448,1456.906a28.575,28.575,0,0,1,1.068,4.838c-.449,1.169-.833,1.619-1.282,1.832a5.828,5.828,0,0,1-3.8-.025c-.456-2.01.677-.633.905-.985a3.29,3.29,0,0,0,.511-1.363q-1.159-.881-.621-1.878c-.159-.37-.306-.7-.44-1a3.262,3.262,0,0,1,2.619-1.461C457.757,1456.866,458.1,1456.892,458.448,1456.906Z" transform="translate(-441.438 -1308.527)" fill="#fab688" fill-rule="evenodd"/>
        <path id="Trazado_180074" data-name="Trazado 180074" d="M537.827,1198.329a35.726,35.726,0,1,1-35.727,35.725A35.726,35.726,0,0,1,537.827,1198.329Z" transform="translate(-469.538 -1156.448)" fill="#2b2870" fill-rule="evenodd"/>
        <path id="Trazado_180075" data-name="Trazado 180075" d="M541.8,1205.091a32.941,32.941,0,1,1-32.943,32.941A32.941,32.941,0,0,1,541.8,1205.091Z" transform="translate(-473.515 -1160.425)" fill="#ffef0f" fill-rule="evenodd"/>
        <path id="Trazado_180076" data-name="Trazado 180076" d="M545.4,1211.1a2.612,2.612,0,1,1-2.61,2.612,2.612,2.612,0,0,1,2.61-2.612Zm-13.928,3.733a2.611,2.611,0,1,1-2.611,2.611,2.611,2.611,0,0,1,2.611-2.611Zm-10.2,10.2a2.612,2.612,0,1,1-2.612,2.611,2.612,2.612,0,0,1,2.612-2.611Zm-3.448,13.988a2.611,2.611,0,1,1-2.612,2.611,2.611,2.611,0,0,1,2.612-2.611Zm3.448,13.868a2.612,2.612,0,1,1-2.612,2.611,2.612,2.612,0,0,1,2.612-2.611Zm10.2,10.2a2.612,2.612,0,1,1-2.611,2.612,2.612,2.612,0,0,1,2.611-2.612Zm27.858,0a2.612,2.612,0,1,1-2.612,2.612,2.612,2.612,0,0,1,2.612-2.612Zm10.2-10.2a2.612,2.612,0,1,1-2.61,2.611,2.612,2.612,0,0,1,2.61-2.611Zm3.733-13.928a2.611,2.611,0,1,1-2.612,2.611,2.61,2.61,0,0,1,2.612-2.611Zm-3.733-13.928a2.612,2.612,0,1,1-2.61,2.611,2.612,2.612,0,0,1,2.61-2.611Zm-10.2-10.2a2.611,2.611,0,1,1-2.612,2.611,2.611,2.611,0,0,1,2.612-2.611ZM545.4,1266.81a2.611,2.611,0,1,1-2.61,2.611A2.611,2.611,0,0,1,545.4,1266.81Z" transform="translate(-477.252 -1163.958)" fill="#fff" fill-rule="evenodd"/>
        <path id="Trazado_180077" data-name="Trazado 180077" d="M585.087,1252.608q4.994-6.945-1.7-19.5-6.7,12.558-1.7,19.5a2.553,2.553,0,0,1,3.4,0Z" transform="translate(-515.096 -1176.904)" fill="#8071b3" fill-rule="evenodd"/>
        <path id="Trazado_180078" data-name="Trazado 180078" d="M594.321,1282.31q8.312,3.57,23.254-1.29-15.025-4.75-23.266-1.132a2.563,2.563,0,0,1,.011,2.422Z" transform="translate(-523.778 -1203.503)" fill="#8071b3" fill-rule="evenodd"/>
        <path id="Trazado_180079" data-name="Trazado 180079" d="M585.217,1278.89a2.553,2.553,0,1,1-2.552,2.552A2.552,2.552,0,0,1,585.217,1278.89Z" transform="translate(-516.929 -1203.836)" fill="#2b2870" fill-rule="evenodd"/>
      </g>
      <g id="Grupo_117113" data-name="Grupo 117113" transform="translate(630.023 1223.135)">
        <path id="Trazado_180080" data-name="Trazado 180080" d="M1257.532,1239.285a58.17,58.17,0,0,1,19.191-7.942v-8.807a5.119,5.119,0,0,1,5.1-5.105h14.667a5.119,5.119,0,0,1,5.1,5.1v8.808a58.162,58.162,0,0,1,19.194,7.942l6.221-6.222a5.119,5.119,0,0,1,7.218,0l2.561,2.561,5.249,5.25,2.561,2.561a5.117,5.117,0,0,1,0,7.219l-6.22,6.22a58.127,58.127,0,0,1,7.943,19.193h8.8a5.119,5.119,0,0,1,5.1,5.105v14.667a5.118,5.118,0,0,1-5.1,5.1h-8.8a58.141,58.141,0,0,1-7.944,19.193l6.221,6.221a5.119,5.119,0,0,1,0,7.219l-2.561,2.562-5.249,5.25-2.561,2.559a5.118,5.118,0,0,1-7.218,0l-6.221-6.22a58.18,58.18,0,0,1-19.194,7.942v8.806a5.117,5.117,0,0,1-5.1,5.1h-14.667a5.121,5.121,0,0,1-5.106-5.1l0-8.805a58.133,58.133,0,0,1-19.191-7.942l-6.222,6.22a5.12,5.12,0,0,1-7.22,0l-2.56-2.56-5.249-5.249-2.561-2.562a5.12,5.12,0,0,1,0-7.219l6.22-6.22a58.141,58.141,0,0,1-7.945-19.194h-8.8a5.121,5.121,0,0,1-5.106-5.1v-11.046l0-3.621a5.118,5.118,0,0,1,5.1-5.1h8.8a58.155,58.155,0,0,1,7.944-19.192l-6.222-6.221a5.118,5.118,0,0,1,0-7.219l2.561-2.561,5.249-5.25,2.56-2.561a5.12,5.12,0,0,1,7.219,0l6.223,6.222Zm124.221-26.117a5.084,5.084,0,0,0-5.557,4.528l-.5,4.894a27.172,27.172,0,0,0-9.314,4.188l-3.995-2.882a5.082,5.082,0,0,0-7.075,1.144l-4.53,6.276a5.084,5.084,0,0,0,1.144,7.077l3.99,2.881a27.4,27.4,0,0,0-1.035,10.16l-4.49,2.016a5.081,5.081,0,0,0-2.547,6.7l3.171,7.061a5.08,5.08,0,0,0,6.7,2.547l4.492-2.017a27.194,27.194,0,0,0,8.279,5.981l-.5,4.894a5.085,5.085,0,0,0,4.53,5.557l7.7.784a5.082,5.082,0,0,0,5.556-4.528l.5-4.894a27.192,27.192,0,0,0,9.315-4.188l3.992,2.882a5.082,5.082,0,0,0,7.076-1.144l4.53-6.276a5.085,5.085,0,0,0-1.144-7.078l-3.991-2.88a27.377,27.377,0,0,0,1.035-10.161l4.49-2.015a5.083,5.083,0,0,0,2.547-6.7l-3.171-7.062a5.081,5.081,0,0,0-6.7-2.547l-4.493,2.016a27.2,27.2,0,0,0-8.278-5.98l.5-4.893a5.083,5.083,0,0,0-4.53-5.556l-7.7-.785Zm.231,23.412a12.482,12.482,0,1,1-12.482,12.482,12.482,12.482,0,0,1,12.482-12.482Zm-8.621,55.489a5.083,5.083,0,0,0-4.348,5.7l.656,4.875a27.185,27.185,0,0,0-8.081,6.244l-4.556-1.872a5.082,5.082,0,0,0-6.614,2.762l-2.941,7.158a5.083,5.083,0,0,0,2.761,6.616l4.552,1.87a27.458,27.458,0,0,0,1.361,10.123l-3.9,3.006a5.085,5.085,0,0,0-.914,7.11l4.729,6.128a5.085,5.085,0,0,0,7.11.915l3.9-3.01a27.17,27.17,0,0,0,9.447,3.887l.655,4.875a5.083,5.083,0,0,0,5.7,4.348l7.671-1.032a5.085,5.085,0,0,0,4.348-5.7l-.657-4.875a27.172,27.172,0,0,0,8.082-6.244l4.556,1.87a5.082,5.082,0,0,0,6.614-2.762l2.941-7.159a5.082,5.082,0,0,0-2.761-6.614l-4.552-1.871a27.251,27.251,0,0,0-.205-5.125,27.577,27.577,0,0,0-1.155-5l3.895-3.007a5.084,5.084,0,0,0,.915-7.11l-4.728-6.128a5.084,5.084,0,0,0-7.111-.915l-3.9,3.009a27.174,27.174,0,0,0-9.445-3.885l-.655-4.875a5.084,5.084,0,0,0-5.7-4.348l-7.671,1.032Zm8.593,22.368a12.482,12.482,0,1,1-12.482,12.483,12.482,12.482,0,0,1,12.482-12.483Zm-92.8-68.22a42.29,42.29,0,1,0,29.9,12.387,42.158,42.158,0,0,0-29.9-12.387Zm21.734,20.555a30.74,30.74,0,1,0,9,21.734A30.641,30.641,0,0,0,1310.895,1266.772Z" transform="translate(-1218.087 -1161.022)" fill="#4e2e8e" fill-rule="evenodd"/>
        <path id="Trazado_180081" data-name="Trazado 180081" d="M1359.055,1555.363c45.873,0,83.063,4.881,83.063,10.9s-37.189,10.9-83.062,10.9-83.062-4.881-83.062-10.9S1313.181,1555.363,1359.055,1555.363Z" transform="translate(-1250.01 -1349.683)" fill="#d1c6e2" fill-rule="evenodd"/>
        <path id="Trazado_180082" data-name="Trazado 180082" d="M1521.406,1564.12c-8.234-.133-14.389-.231-17.233-1.129-3.068-.969-2.433-2.84-.672-5.833,7.762,3.57,5.694-.734,9.325-.187q3.825,3.08,11.331,4.129C1526.273,1562.66,1525.414,1564.05,1521.406,1564.12Z" transform="translate(-1374.619 -1350.542)" fill="#071023" fill-rule="evenodd"/>
        <path id="Trazado_180083" data-name="Trazado 180083" d="M1445.106,1293.333h-50.882a2.542,2.542,0,0,0-2.3,1.823l-9.052,34.474a1.361,1.361,0,0,0,1.344,1.823H1435.1a2.541,2.541,0,0,0,2.3-1.823l9.052-34.474A1.361,1.361,0,0,0,1445.106,1293.333Z" transform="translate(-1308.895 -1205.23)" fill="#ccced0" fill-rule="evenodd"/>
        <path id="Trazado_180084" data-name="Trazado 180084" d="M1344.229,1246.577l-6.146,23.4c-7.382-3.6-16.272-9.382-25.6-16.8a76.823,76.823,0,0,0-.932-7.983q1.123-2.226,2.461-4.758-12.91-.082-15.745-5.553a112.573,112.573,0,0,1,9.654-20.634q4.338-6.415,16.989-7.541c.986,11.31,18.333,10.73,14.254.995a33.882,33.882,0,0,1,15.994,9.364q5.641,13.893,6.878,19.393a33.921,33.921,0,0,1-11.6,5.552,25.545,25.545,0,0,0-.395,2.734h-3.511A2.541,2.541,0,0,0,1344.229,1246.577Z" transform="translate(-1262.29 -1157.479)" fill="#6677d6" fill-rule="evenodd"/>
        <path id="Trazado_180085" data-name="Trazado 180085" d="M1383.392,1316.712l6.146-23.4a2.541,2.541,0,0,1,2.3-1.823h50.882c1,0,2.789,1.295,2.492,2.288a1.333,1.333,0,0,0-1.4-1.459h-50.882a2.542,2.542,0,0,0-2.3,1.823l-9.052,34.474a1.434,1.434,0,0,0,.361,1.469c-.837-.541-1.636-1.586-1.449-2.3Z" transform="translate(-1307.6 -1204.212)" fill="#85868b" fill-rule="evenodd"/>
        <path id="Trazado_180086" data-name="Trazado 180086" d="M1365.115,1375.221H1416a2.058,2.058,0,0,0,.56-.081c-1.014,2.624-3.766,2.236-4.84,2.227h-60.327c-3.268-.138-3.183-2.431-3.226-4.641h14.494a2.968,2.968,0,0,0,1.474,2.141A1.433,1.433,0,0,0,1365.115,1375.221Z" transform="translate(-1289.796 -1248.998)" fill="#85868b" fill-rule="evenodd"/>
        <path id="Trazado_180087" data-name="Trazado 180087" d="M1394.915,1324.925c5.454,2.759,11.907,3.607,18.541,3.946a5.356,5.356,0,0,0-.171.732,4.356,4.356,0,0,0,4.375,5.177,5.76,5.76,0,0,0,5.533-4.765,4.875,4.875,0,0,0,.062-.844c6.887.185,13.542.563,19.045,2.717l-3.784,14.413H1389.3Z" transform="translate(-1312.475 -1222.646)" fill="#a9abb1" fill-rule="evenodd"/>
        <path id="Trazado_180088" data-name="Trazado 180088" d="M1450.207,1328.451a4.02,4.02,0,0,0-3.825,3.3,2.75,2.75,0,0,0,2.78,3.3,4.019,4.019,0,0,0,3.825-3.3A2.749,2.749,0,0,0,1450.207,1328.451Z" transform="translate(-1343.919 -1224.59)" fill="#8d8f94" fill-rule="evenodd"/>
        <path id="Trazado_180089" data-name="Trazado 180089" d="M1324.488,1347.735a53.6,53.6,0,0,0,2.189-9.632c6.851,2.654,14.688,5.213,24.595,9.127l-1.337,5.1Q1327.477,1353.057,1324.488,1347.735Z" transform="translate(-1276.744 -1229.911)" fill="#6677d6" fill-rule="evenodd"/>
        <path id="Trazado_180090" data-name="Trazado 180090" d="M1333.607,1311.658c-9.907-3.914-17.744-6.473-24.6-9.127a83.56,83.56,0,0,1-16.568-8.226,63.335,63.335,0,0,1,3.994-20.728q3.825,3.659,14.365,3.726-3.051,5.767-4.972,9.945c10.569,8.763,20.757,15.55,29.042,19.591Z" transform="translate(-1259.079 -1194.339)" fill="#fab688" fill-rule="evenodd"/>
        <path id="Trazado_180091" data-name="Trazado 180091" d="M1424.33,1275.009q1.144,4,2.12,7.394h-12.8a25.065,25.065,0,0,1,.393-2.734A32.344,32.344,0,0,0,1424.33,1275.009Z" transform="translate(-1325.9 -1195.128)" fill="#fab688" fill-rule="evenodd"/>
        <path id="Trazado_180092" data-name="Trazado 180092" d="M1471.465,1458.009q-11.353-41.171-8.119-57.842a66.813,66.813,0,0,1-12.959.578c.66-2.969,1.324-5.947,2-8.96-.077-4.094-2.169-7.13-9.585-9.309h21.088a6.519,6.519,0,0,0,3.376-.484c6.795,1.942,10.112,5.146,11.246,9.06.829,10.768-1.408,23.032.5,67.041A34.848,34.848,0,0,1,1471.465,1458.009Z" transform="translate(-1341.967 -1254.105)" fill="#071023" fill-rule="evenodd"/>
        <path id="Trazado_180093" data-name="Trazado 180093" d="M1489.065,1382.475h.328a6.515,6.515,0,0,0,3.376-.484c6.795,1.942,10.112,5.146,11.246,9.06.829,10.768-1.408,23.032.5,67.041a32.694,32.694,0,0,1-4.4.148c-3.911-15.3-13.21-52.823-2.734-68.995A40.914,40.914,0,0,0,1489.065,1382.475Z" transform="translate(-1367.473 -1254.105)" fill="#1b2452" fill-rule="evenodd"/>
        <path id="Trazado_180094" data-name="Trazado 180094" d="M1354.775,1176.3a17.647,17.647,0,0,0,2.884-4.442q-.406-1.162-.854-2.935-7.576-5.147-2.071-7.614,1.11.621,2.755,3.832a2.257,2.257,0,0,0,1.99-1.344,66.419,66.419,0,0,1-2.035-8.8c2.489-3.7,8.308-4.227,16.015-3.228q.536,3.076.88,6.517c1.363,1.255,1.187,5.909-.07,11.271q.941,4.575-5.648,4.993a9.529,9.529,0,0,0,.394,2.625h0v0a.185.185,0,0,0,.013.033C1373.038,1186.876,1355.871,1187.469,1354.775,1176.3Z" transform="translate(-1292.142 -1126.942)" fill="#fab688" fill-rule="evenodd"/>
        <path id="Trazado_180095" data-name="Trazado 180095" d="M1366.382,1140.754c-7.707-1-13.526-.471-16.015,3.228a66.479,66.479,0,0,0,2.035,8.8,2.256,2.256,0,0,1-1.99,1.344q-1.646-3.21-2.755-3.832-5.506,2.468,2.072,7.614.444,1.774.852,2.935c-4.542-1.017-8.344-5.082-8.88-6.84-5.3-10.446.612-14.858,3.775-16.467,1.4-10.345,16.417-1.2,23.944-6.189C1372.413,1135.478,1368.713,1140.661,1366.382,1140.754Z" transform="translate(-1285.064 -1115.929)" fill="#1b2452" fill-rule="evenodd"/>
        <path id="Trazado_180096" data-name="Trazado 180096" d="M1375.807,1202.786a44.313,44.313,0,0,0,5.709.133,7.837,7.837,0,0,0,.275,2.164Q1377.708,1204.977,1375.807,1202.786Z" transform="translate(-1305.036 -1155.313)" fill="#ed7d57" fill-rule="evenodd"/>
        <path id="Trazado_180097" data-name="Trazado 180097" d="M1367.617,1419.446h-45.909a2.993,2.993,0,0,0-2.983,2.983h0a2.993,2.993,0,0,0,2.983,2.984h45.909a2.991,2.991,0,0,0,2.983-2.984h0A2.991,2.991,0,0,0,1367.617,1419.446Z" transform="translate(-1273.568 -1274.754)" fill="#712c14" fill-rule="evenodd"/>
        <path id="Trazado_180098" data-name="Trazado 180098" d="M1325.96,1540.99a12.078,12.078,0,0,1,8.561-3.558h23.31a12.148,12.148,0,0,1,12.118,12.119v2.443h.934v3.026H1364v-3.026h.934v-2.443a7.135,7.135,0,0,0-7.106-7.108h-23.31a7.135,7.135,0,0,0-7.107,7.108v2.443h.934v3.026h-6.878v-3.026h.934v-2.443A12.08,12.08,0,0,1,1325.96,1540.99Z" transform="translate(-1275.08 -1339.798)" fill="#a14527" fill-rule="evenodd"/>
        <rect id="Rectángulo_43255" data-name="Rectángulo 43255" width="5.012" height="46.976" transform="translate(68.59 150.658)" fill="#a14527"/>
        <path id="Trazado_180099" data-name="Trazado 180099" d="M1330.559,1387.834c-8.878-3.188-10.086-12.031-6.18-25.391q4.811,3.938,24.332,3.3l-.305,1.157a.892.892,0,0,0-.025.157h-14.494c.043,2.21-.042,4.5,3.226,4.641h39.239c7.416,2.179,9.508,5.215,9.585,9.309-4.7,20.981-8.875,40.221-14.563,66.806q-2.877,1.614-7.875-.248-4-38.673,2.2-56.248C1354.716,1391.361,1343,1389.865,1330.559,1387.834Z" transform="translate(-1275.52 -1243.329)" fill="#1b2452" fill-rule="evenodd"/>
        <path id="Trazado_180100" data-name="Trazado 180100" d="M1330.559,1387.834c-8.878-3.188-10.086-12.031-6.18-25.391a9.588,9.588,0,0,0,2.711,1.468c-3.235,13.729.284,21.251,10.716,21.974a201.7,201.7,0,0,0,30.271,2.6q-5.294,34.333-1.815,59.873a17.337,17.337,0,0,1-2.764-.8q-4-38.673,2.2-56.248C1354.716,1391.361,1343,1389.865,1330.559,1387.834Z" transform="translate(-1275.52 -1243.329)" fill="#071023" fill-rule="evenodd"/>
        <path id="Trazado_180101" data-name="Trazado 180101" d="M1513.366,1551.612a7.558,7.558,0,0,0,1.077,2.335c-2.376.223-1.461,3.283-7.876.475a10.079,10.079,0,0,0,.46-2.919A35.206,35.206,0,0,0,1513.366,1551.612Z" transform="translate(-1377.121 -1347.555)" fill="#fab688" fill-rule="evenodd"/>
        <path id="Trazado_180102" data-name="Trazado 180102" d="M1420.108,1569.947c-4.371-1.8-5.027-4.74-7.431-5.863-2.42-1.13-2.7-3.144-.331-5.331,1.749,1.4,3.917,3.114,5.066,2.2.767-.607,3.369-.567,3.886.318,2.265,5.268,5.417,3.6,6.039,6C1427.41,1570.463,1422.86,1571.081,1420.108,1569.947Z" transform="translate(-1324.276 -1351.552)" fill="#071023" fill-rule="evenodd"/>
        <path id="Trazado_180103" data-name="Trazado 180103" d="M1421.855,1553.185a13.441,13.441,0,0,0,.575,4.217,3.836,3.836,0,0,0-2.525.35c-1.065.843-3-.569-4.675-1.892a11.585,11.585,0,0,0,.548-2.921A9.432,9.432,0,0,0,1421.855,1553.185Z" transform="translate(-1326.769 -1348.346)" fill="#fab688" fill-rule="evenodd"/>
        <path id="Trazado_180104" data-name="Trazado 180104" d="M1328.468,1268.216a60.373,60.373,0,0,0,3.587-8.249c-.678,4.024-.643,6.922-1.736,10.229a69.806,69.806,0,0,1,1.159,14.267q-2.247-1.686-4.538-3.506a76.8,76.8,0,0,0-.932-7.984q1.123-2.226,2.46-4.758Zm39.054.807a24.636,24.636,0,0,1-2.631.769q.493-7.682.646-12.7,1.478,7.407,1.985,11.929Zm-43.033,34.053a53.6,53.6,0,0,0,2.189-9.631c1.269.492,2.571.979,3.915,1.474a95.446,95.446,0,0,1-2.287,10.911A6.936,6.936,0,0,1,1324.488,1303.076Z" transform="translate(-1276.744 -1185.252)" fill="#4e2e8e" fill-rule="evenodd"/>
        <path id="Trazado_180105" data-name="Trazado 180105" d="M1546.723,1151.434c15.148-10.533,23.4-20.372,27.178-30.21l-15.609-13.81c-9.3,4.948-18.066,14.336-26.674,30.656Z" transform="translate(-1390.932 -1102.736)" fill="#b6a9d2" fill-rule="evenodd"/>
        <path id="Trazado_180106" data-name="Trazado 180106" d="M1557.373,1163.373c15.148-10.533,23.4-20.373,27.179-30.21l-4.625-4.092a96.644,96.644,0,0,1-28.989,28.607Z" transform="translate(-1401.582 -1114.675)" fill="#8071b3" fill-rule="evenodd"/>
        <path id="Trazado_180107" data-name="Trazado 180107" d="M1606.673,1115.478a40.973,40.973,0,0,0,2.444-18.489,40.977,40.977,0,0,0-18.053,4.677Z" transform="translate(-1423.704 -1096.988)" fill="#9588c0" fill-rule="evenodd"/>
        <path id="Trazado_180108" data-name="Trazado 180108" d="M1533.057,1178.275l12.526,11.083-2.28,1.455-11.412-10.1Z" transform="translate(-1391.082 -1141.8)" fill="#3f4979" fill-rule="evenodd"/>
        <path id="Trazado_180109" data-name="Trazado 180109" d="M1583.76,1132a7.149,7.149,0,1,1-10.09.616A7.148,7.148,0,0,1,1583.76,1132Z" transform="translate(-1413.124 -1115.302)" fill="#2c2066" fill-rule="evenodd"/>
        <path id="Trazado_180110" data-name="Trazado 180110" d="M1585.057,1136.534a4.858,4.858,0,1,1-6.858.419A4.86,4.86,0,0,1,1585.057,1136.534Z" transform="translate(-1415.938 -1118.117)" fill="#d7cce5" fill-rule="evenodd"/>
        <path id="Trazado_180111" data-name="Trazado 180111" d="M1585.023,1108.994l17.083,15.114q.684-1.442,1.237-2.883l-15.609-13.81Q1586.372,1108.139,1585.023,1108.994Z" transform="translate(-1420.373 -1102.736)" fill="#4a3f98" fill-rule="evenodd"/>
        <path id="Trazado_180112" data-name="Trazado 180112" d="M1620.167,1115.478a40.973,40.973,0,0,0,2.444-18.489,57.927,57.927,0,0,1-7.069,14.4Z" transform="translate(-1437.198 -1096.988)" fill="#6251a1" fill-rule="evenodd"/>
        <path id="Trazado_180113" data-name="Trazado 180113" d="M1618.1,1133.164l-4.625-4.091q-.806,1.239-1.683,2.489l5.071,4.485Q1617.547,1134.6,1618.1,1133.164Z" transform="translate(-1435.13 -1114.676)" fill="#2c2066" fill-rule="evenodd"/>
        <path id="Trazado_180114" data-name="Trazado 180114" d="M1554.995,1199l-3.66-3.239q-1.174.71-2.371,1.375l3.752,3.32Z" transform="translate(-1400.494 -1151.437)" fill="#1b2452" fill-rule="evenodd"/>
        <path id="Trazado_180115" data-name="Trazado 180115" d="M1519.423,1207.037a21.869,21.869,0,0,0,9.89-12.944l-4.244-3.755-4.242-3.754a21.873,21.873,0,0,0-11.645,11.393,22.521,22.521,0,0,1,3.4-.844,6.243,6.243,0,1,0,7.262,6.424A22.824,22.824,0,0,1,1519.423,1207.037Z" transform="translate(-1378.564 -1146.381)" fill="#4a3f98" fill-rule="evenodd"/>
        <path id="Trazado_180116" data-name="Trazado 180116" d="M1513.294,1197.078c.249-.05.5-.094.75-.131l3.208-.486-2.06,2.506a5.043,5.043,0,1,0,5.4,4.776l2.237-2.349-.093,3.243q-.011.379-.038.761c3.226-2.577,5.927-7.169,7.191-11.211l-6.456-5.711A24.559,24.559,0,0,0,1513.294,1197.078Z" transform="translate(-1380.21 -1147.424)" fill="#8071b3" fill-rule="evenodd"/>
        <path id="Trazado_180117" data-name="Trazado 180117" d="M1514.042,1207.653a11.245,11.245,0,0,0,6.973-3.709l3.748-3.936-.12,4.262c2.256-2.143,4.661-6.826,5.689-9.825l-5.148-4.554c-2.85,1.385-7.222,4.327-9.075,6.828l4.217-.638-3.45,4.2A11.242,11.242,0,0,0,1514.042,1207.653Z" transform="translate(-1381.242 -1148.204)" fill="#b6a9d2" fill-rule="evenodd"/>
        <path id="Trazado_180118" data-name="Trazado 180118" d="M1547.118,1154.528l.883,7.224a3.63,3.63,0,0,1-.638,2.155l-10.2,15.46c-.421.637-1.05.538-1.205-.073l-3.206-12.6a102.36,102.36,0,0,0,14.369-12.163Zm-19.788-17.508-7.277,0a3.63,3.63,0,0,0-2.061.9l-14.1,12.01c-.581.5-.406,1.107.219,1.188l12.9,1.647A102.4,102.4,0,0,1,1527.33,1137.02Z" transform="translate(-1375.449 -1119.057)" fill="#4a3f98" fill-rule="evenodd"/>
        <path id="Trazado_180119" data-name="Trazado 180119" d="M1569.837,1192.9a70.11,70.11,0,0,0,13.726-12.332l-.553-4.53a102.278,102.278,0,0,1-14.369,12.162Z" transform="translate(-1411.342 -1140.569)" fill="#2b2870" fill-rule="evenodd"/>
      </g>
      <g id="Grupo_117114" data-name="Grupo 117114" transform="translate(403.054 1357.764)">
        <path id="Trazado_180120" data-name="Trazado 180120" d="M2001.662,1190.363c20.578,0,18.23,35,33.086,45.672,19.663,14.121,53.491,7.129,53.491,31.364,0,42.546-43.879,57.96-91.693,57.96s-88.614-23.6-74.376-66.031S1953.847,1190.363,2001.662,1190.363Z" transform="translate(-1914.269 -1156.158)" fill="#ede4f1" fill-rule="evenodd"/>
        <path id="Trazado_180121" data-name="Trazado 180121" d="M2080.342,1134.124h78.994a9.913,9.913,0,0,1,10.013,11.212l-11.613,108.583a12.827,12.827,0,0,1-12.411,11.212h-78.994a9.911,9.911,0,0,1-10.013-11.212l11.612-108.583A12.829,12.829,0,0,1,2080.342,1134.124Z" transform="translate(-2001.059 -1120.52)" fill="#5a53a2" fill-rule="evenodd"/>
        <path id="Trazado_180122" data-name="Trazado 180122" d="M2085.516,1142.775h78.993a7.112,7.112,0,0,1,7.183,8.043L2160.08,1259.4a9.2,9.2,0,0,1-8.9,8.043h-78.993A7.112,7.112,0,0,1,2065,1259.4l11.613-108.583A9.2,9.2,0,0,1,2085.516,1142.775Z" transform="translate(-2006.571 -1126.002)" fill="#d7cce5" fill-rule="evenodd"/>
        <path id="Trazado_180123" data-name="Trazado 180123" d="M2097.089,1147.248l79.028-6.168-3.154,111.671-79.028,6.169Z" transform="translate(-2024.937 -1124.927)" fill="#fff" fill-rule="evenodd"/>
        <path id="Trazado_180124" data-name="Trazado 180124" d="M2112.673,1166.823l70.883-5.533-.257,9.07-70.882,5.533Z" transform="translate(-2036.648 -1137.735)" fill="#9588c0" fill-rule="evenodd"/>
        <path id="Trazado_180125" data-name="Trazado 180125" d="M2117.456,1219.725l9-.7-.251,8.928-9,.7Z" transform="translate(-2039.681 -1174.319)" fill="#9588c0" fill-rule="evenodd"/>
        <path id="Trazado_180126" data-name="Trazado 180126" d="M2158.828,1211.8l48.874-3.815a1.322,1.322,0,0,1,1.46,1.371h0a1.707,1.707,0,0,1-1.542,1.6l-48.875,3.815a1.319,1.319,0,0,1-1.458-1.371h0a1.706,1.706,0,0,1,1.542-1.605Zm-.149,5.3a1.705,1.705,0,0,0-1.542,1.6h0a1.32,1.32,0,0,0,1.458,1.371l29.355-2.291a1.706,1.706,0,0,0,1.542-1.605h0a1.32,1.32,0,0,0-1.458-1.371Z" transform="translate(-2064.985 -1167.319)" fill="#d7cce5" fill-rule="evenodd"/>
        <path id="Trazado_180127" data-name="Trazado 180127" d="M2116.339,1259.3l9-.7-.253,8.928-9,.7Z" transform="translate(-2038.973 -1199.396)" fill="#9588c0" fill-rule="evenodd"/>
        <path id="Trazado_180128" data-name="Trazado 180128" d="M2157.71,1251.369l48.874-3.815a1.319,1.319,0,0,1,1.458,1.371h0a1.705,1.705,0,0,1-1.542,1.6l-48.874,3.815a1.321,1.321,0,0,1-1.459-1.371h0a1.708,1.708,0,0,1,1.543-1.6Zm-.149,5.3a1.708,1.708,0,0,0-1.543,1.605h0a1.32,1.32,0,0,0,1.459,1.371l29.354-2.291a1.708,1.708,0,0,0,1.543-1.6h0a1.321,1.321,0,0,0-1.459-1.371Z" transform="translate(-2064.276 -1192.396)" fill="#d7cce5" fill-rule="evenodd"/>
        <path id="Trazado_180129" data-name="Trazado 180129" d="M2115.221,1298.874l9-.7-.252,8.928-9,.7Z" transform="translate(-2038.264 -1224.474)" fill="#9588c0" fill-rule="evenodd"/>
        <path id="Trazado_180130" data-name="Trazado 180130" d="M2156.593,1290.944l48.875-3.815a1.32,1.32,0,0,1,1.458,1.371h0a1.706,1.706,0,0,1-1.542,1.6l-48.875,3.815a1.32,1.32,0,0,1-1.458-1.371h0a1.707,1.707,0,0,1,1.542-1.605Zm-.149,5.3a1.705,1.705,0,0,0-1.542,1.605h0a1.319,1.319,0,0,0,1.458,1.37l29.355-2.291a1.7,1.7,0,0,0,1.542-1.6h0a1.32,1.32,0,0,0-1.458-1.371Z" transform="translate(-2063.569 -1217.474)" fill="#d7cce5" fill-rule="evenodd"/>
        <path id="Trazado_180131" data-name="Trazado 180131" d="M2114.1,1338.447l9-.7-.251,8.928-9,.7Z" transform="translate(-2037.557 -1249.551)" fill="#9588c0" fill-rule="evenodd"/>
        <path id="Trazado_180132" data-name="Trazado 180132" d="M2155.475,1330.517l48.874-3.815a1.322,1.322,0,0,1,1.459,1.371h0a1.708,1.708,0,0,1-1.544,1.6l-48.874,3.814a1.321,1.321,0,0,1-1.459-1.37h0a1.708,1.708,0,0,1,1.544-1.605Zm-.15,5.3a1.71,1.71,0,0,0-1.544,1.6h0a1.321,1.321,0,0,0,1.459,1.371l29.355-2.291a1.707,1.707,0,0,0,1.542-1.6h0a1.321,1.321,0,0,0-1.459-1.372Z" transform="translate(-2062.859 -1242.551)" fill="#d7cce5" fill-rule="evenodd"/>
        <path id="Trazado_180133" data-name="Trazado 180133" d="M2112.987,1378.022l9-.7-.252,8.927-9,.7Z" transform="translate(-2036.85 -1274.629)" fill="#9588c0" fill-rule="evenodd"/>
        <path id="Trazado_180134" data-name="Trazado 180134" d="M2154.357,1370.092l48.875-3.815a1.319,1.319,0,0,1,1.458,1.371h0a1.706,1.706,0,0,1-1.542,1.6l-48.874,3.815a1.321,1.321,0,0,1-1.459-1.371h0a1.706,1.706,0,0,1,1.542-1.6Zm-.149,5.3a1.707,1.707,0,0,0-1.542,1.605h0a1.32,1.32,0,0,0,1.459,1.37l29.354-2.291a1.709,1.709,0,0,0,1.543-1.605h0a1.321,1.321,0,0,0-1.459-1.371Z" transform="translate(-2062.152 -1267.629)" fill="#d7cce5" fill-rule="evenodd"/>
        <path id="Trazado_180135" data-name="Trazado 180135" d="M2111.87,1417.6l9-.7-.251,8.928-9,.7Z" transform="translate(-2036.141 -1299.706)" fill="#9588c0" fill-rule="evenodd"/>
        <path id="Trazado_180136" data-name="Trazado 180136" d="M2153.241,1409.666l48.875-3.815a1.32,1.32,0,0,1,1.459,1.371h0a1.707,1.707,0,0,1-1.542,1.605l-48.875,3.814a1.318,1.318,0,0,1-1.458-1.37h0a1.707,1.707,0,0,1,1.542-1.605Zm-.149,5.3a1.707,1.707,0,0,0-1.542,1.6h0a1.32,1.32,0,0,0,1.458,1.371l29.355-2.291a1.707,1.707,0,0,0,1.542-1.605h0a1.319,1.319,0,0,0-1.458-1.37Z" transform="translate(-2061.445 -1292.706)" fill="#d7cce5" fill-rule="evenodd"/>
        <path id="Trazado_180137" data-name="Trazado 180137" d="M2169.827,1105.645h13.891l.313-2.927a6.556,6.556,0,0,1,6.344-5.729h0a5.066,5.066,0,0,1,5.117,5.729l-.313,2.927h13.892a3.062,3.062,0,0,1,3.093,3.463l-.706,6.6a3.962,3.962,0,0,1-3.833,3.463H2168.38a3.061,3.061,0,0,1-3.091-3.463l.706-6.6a3.961,3.961,0,0,1,3.833-3.463Zm20.181-5.235a2.89,2.89,0,0,0-2.805,2.535,2.234,2.234,0,0,0,2.264,2.535,2.892,2.892,0,0,0,2.806-2.535A2.235,2.235,0,0,0,2190.008,1100.41Z" transform="translate(-2070.14 -1096.988)" fill="#2b2870" fill-rule="evenodd"/>
        <path id="Trazado_180138" data-name="Trazado 180138" d="M1940.222,1569.441c19.133,0,34.644,2.831,34.644,6.323s-15.511,6.322-34.644,6.322-34.646-2.831-34.646-6.322S1921.088,1569.441,1940.222,1569.441Z" transform="translate(-1905.577 -1396.373)" fill="#d1c6e2" fill-rule="evenodd"/>
        <path id="Trazado_180139" data-name="Trazado 180139" d="M1977.482,1191.5c.875.063,1.719-.976,1.964-1.287a11.18,11.18,0,0,0,1.765-3.349q-.272-.776-.572-1.961-5.059-3.438-1.382-5.086a6.557,6.557,0,0,1,1.839,2.56,1.51,1.51,0,0,0,1.331-.9,44.609,44.609,0,0,1-1.361-5.879c1.663-2.471,5.552-2.823,10.7-2.156q.359,2.056.588,4.354c.911.839.792,3.948-.045,7.531q.628,3.056-3.775,3.336c-.029.492.016,1.057.025,1.4.008.312.019.923.346,1.018l.543.135C1989.394,1198.506,1985.664,1199.906,1977.482,1191.5Z" transform="translate(-1951.142 -1145.249)" fill="#fab688" fill-rule="evenodd"/>
        <path id="Trazado_180140" data-name="Trazado 180140" d="M1985.5,1161.319c-5.148-.667-9.037-.315-10.7,2.157a44.336,44.336,0,0,0,1.36,5.878,1.509,1.509,0,0,1-1.331.9,6.58,6.58,0,0,0-1.839-2.56q-3.679,1.649,1.384,5.087.3,1.185.57,1.961c-3.035-.681-5.575-3.395-5.932-4.569-3.542-6.98.408-9.928,2.521-11,.933-6.912,11.007-.936,13.659-5.154C1990.736,1157.178,1987.057,1161.258,1985.5,1161.319Z" transform="translate(-1944.875 -1133.124)" fill="#071023" fill-rule="evenodd"/>
        <path id="Trazado_180141" data-name="Trazado 180141" d="M1998.418,1213.57a8.658,8.658,0,0,0,3.382.71,10.309,10.309,0,0,0,.024,1.39A5.328,5.328,0,0,1,1998.418,1213.57Z" transform="translate(-1964.409 -1170.864)" fill="#ed7d57" fill-rule="evenodd"/>
        <path id="Trazado_180142" data-name="Trazado 180142" d="M1949.324,1582.911c-3.2-1.127-3.455-2.774-5.179-3.579s-1.934-2.254-.237-3.822c1.254,1,2.807,2.233,3.631,1.58.551-.435,2.415-.406,2.785.227,1.625,3.776,3.885,2.58,4.331,4.3C1954.706,1583.9,1950.791,1583.427,1949.324,1582.911Z" transform="translate(-1929.123 -1400.219)" fill="#071023" fill-rule="evenodd"/>
        <path id="Trazado_180143" data-name="Trazado 180143" d="M2013.437,1576.942c-5.633-.09-9.843-.158-11.787-.772-2.1-.663-1.664-1.943-.459-3.989,5.31,2.441,3.894-.5,6.377-.129q2.618,2.107,7.75,2.824C2016.765,1575.943,2016.177,1576.894,2013.437,1576.942Z" transform="translate(-1965.526 -1398.007)" fill="#071023" fill-rule="evenodd"/>
        <path id="Trazado_180144" data-name="Trazado 180144" d="M1961.753,1222.708a38.162,38.162,0,0,0-7.573-1.484q-.606,9.265-9.665-.129c-5.816.488-6.955.563-10.182,1.61-6.982,6.67-7.624,14.367-11.274,23.164a24.832,24.832,0,0,1,8.6,1.646q.885-3.161,1.482-5.09-.168,17.4-.128,23.842c13.364,5.3,24.372,3.483,28.868-.644q.095-15.464.257-24.486a29.387,29.387,0,0,0,4.448,4.382c3.275-3.757,5.5-5.269,7.354-7.484A98.079,98.079,0,0,0,1961.753,1222.708Z" transform="translate(-1916.655 -1175.632)" fill="#6677d6" fill-rule="evenodd"/>
        <path id="Trazado_180145" data-name="Trazado 180145" d="M2067.442,1246.162q-10.531,4.376-14.746,7.231l-1.249-1.848c-1.16,1.163-2.487,2.3-4.1,3.959a22.178,22.178,0,0,0,4.968,3.939q7.316-.781,16.176-11.082a7.174,7.174,0,0,0,4.055-2,3.5,3.5,0,0,0-1.339-2.662q3.673-2.394,2.924-3.426Q2068.375,1243.837,2067.442,1246.162Z" transform="translate(-1995.412 -1187.787)" fill="#fab688" fill-rule="evenodd"/>
        <path id="Trazado_180146" data-name="Trazado 180146" d="M1972.311,1342.653c-.265,1,.829,6.893,1.01,9.964,1.777,10.968.254,25.243-.7,43.6-1.712,6.469-4.238,15.09-4.073,27.222-2.981.912-4.062,1.007-6.752.321-1.882-12.662-.6-22.8,1.1-27.485-1.088-7.238-2.714-15.34-5.079-27.027-2.665,12.736-6.233,22.186-7.776,28.353-.306,6.875-1.7,16.155-2.423,27.837a12.454,12.454,0,0,1-5.888.58c-2.98-10.739-2.48-22.425-1.217-35.056,1.344-15.184-.872-32.331,1.346-38.276a43.805,43.805,0,0,0,1.585-9.39Q1960.169,1348.862,1972.311,1342.653Z" transform="translate(-1927.085 -1252.662)" fill="#6677d6" fill-rule="evenodd"/>
        <path id="Trazado_180147" data-name="Trazado 180147" d="M1952.275,1277.255c-.716.107-1.393.2-2.029.286q-.051,7.674-.026,11.5a8.567,8.567,0,0,0,2.211.691c0-.328-.107-1.087-.11-1.411q-.068-5.868-.046-11.062ZM1984.949,1267a23.784,23.784,0,0,1-5.619-7.983,31.027,31.027,0,0,1,.239,5.15,28.731,28.731,0,0,0,4.223,4.118c.4-.46.786-.886,1.157-1.285Zm-32.117-9.976q-1.3,4.184-2.484,8.167-.032,3.363-.058,6.316c.574-.054,1.244-.09,2.041-.109Q1952.453,1263.235,1952.832,1257.028Z" transform="translate(-1933.862 -1198.402)" fill="#4e2e8e" fill-rule="evenodd"/>
        <path id="Trazado_180148" data-name="Trazado 180148" d="M1997.323,1267.982h14.712a1.023,1.023,0,0,1,1.031,1.225l-3.3,20.842a1.5,1.5,0,0,1-1.421,1.227h-14.711a1.023,1.023,0,0,1-1.032-1.227l3.3-20.842A1.5,1.5,0,0,1,1997.323,1267.982Z" transform="translate(-1960.713 -1205.344)" fill="#47459b" fill-rule="evenodd"/>
        <path id="Trazado_180149" data-name="Trazado 180149" d="M1925.624,1288.932a18.6,18.6,0,0,0-.38,8.071c1.587,2.305,7.995,1.016,24.494-1.741a4.546,4.546,0,0,0,3.672.837c1.727-.43,1.809-.881,3.744-2.706q.7-2.131-.289-3.254c-2.179,1.283-3.327,1.965-5.781,2.047q.981-2.523.3-3.256a4.86,4.86,0,0,0-1.636,3.028c-13.007-.565-16.437-.49-18.168.419q.282-1.226.5-2.154A22.985,22.985,0,0,0,1925.624,1288.932Z" transform="translate(-1917.864 -1218.617)" fill="#fab688" fill-rule="evenodd"/>
        <path id="Trazado_180150" data-name="Trazado 180150" d="M1967.755,1564.2a13.189,13.189,0,0,1,.058,2.972c4.441,1.931,3.687-.3,5.462-.354a7.758,7.758,0,0,1-.868-3.007,9.019,9.019,0,0,1-4.652.388Zm-20.695,2.035a8.449,8.449,0,0,1-.234,2.12c1.187.939,2.552,1.918,3.305,1.321a2.875,2.875,0,0,1,1.991-.217,21.711,21.711,0,0,1-.682-3.646A11.582,11.582,0,0,1,1947.06,1566.236Z" transform="translate(-1931.716 -1392.807)" fill="#fab688" fill-rule="evenodd"/>
        <path id="Trazado_180151" data-name="Trazado 180151" d="M1973.322,1369.855q-11.763,10.967-31.464.069c-2.218,5.945,0,23.091-1.346,38.276-1.263,12.631-1.763,24.317,1.217,35.055.243.03.476.053.7.073a11.579,11.579,0,0,0,4.381-.421c.258-.069.526-.146.807-.231.726-11.682,2.117-20.962,2.423-27.837,1.543-6.167,5.11-15.618,7.776-28.354,2.365,11.687,3.991,19.789,5.079,27.027-1.7,4.683-2.983,14.823-1.1,27.485.489.125.927.224,1.331.3a9.022,9.022,0,0,0,4.651-.388c.243-.07.5-.146.77-.229-.165-12.132,2.362-20.753,4.073-27.222C1973.575,1395.1,1975.1,1380.823,1973.322,1369.855Z" transform="translate(-1927.085 -1269.899)" fill="#1b2452" fill-rule="evenodd"/>
        <path id="Trazado_180152" data-name="Trazado 180152" d="M1961.543,1537.426a20.116,20.116,0,0,0,7.859.7q.077-.942.173-1.85a21.8,21.8,0,0,1-8.09-.524c.012.548.033,1.1.058,1.671Zm-20.906,2.178a19.168,19.168,0,0,0,8.268-.618q.09-.981.182-1.933a21.309,21.309,0,0,1-8.624.9q.078.827.174,1.648Zm7.865,4.11q.076-.972.155-1.918a21.522,21.522,0,0,1-7.626.633q.138.837.3,1.665a19.777,19.777,0,0,0,7.176-.379Zm20.762-3.578a21.672,21.672,0,0,1-7.562-.132q.063.832.146,1.683a19.859,19.859,0,0,0,7.333.3Q1969.213,1541.048,1969.264,1540.137Z" transform="translate(-1927.684 -1375.027)" fill="#c2b5d9" fill-rule="evenodd"/>
        <path id="Trazado_180153" data-name="Trazado 180153" d="M2119.532,1214.733a1,1,0,0,1,.395-1.309.9.9,0,0,1,1.282.254l2.027,3.574,7.521-8.271a.969.969,0,0,1,1.34-.144.929.929,0,0,1,0,1.324l-8.389,9.226a1.131,1.131,0,0,1-.266.234.9.9,0,0,1-1.282-.254Z" transform="translate(-2041.087 -1167.734)" fill="#231f20" fill-rule="evenodd"/>
        <path id="Trazado_180154" data-name="Trazado 180154" d="M2118.416,1254.308a1,1,0,0,1,.394-1.309.9.9,0,0,1,1.282.255l2.029,3.574,7.521-8.271a.966.966,0,0,1,1.338-.144.926.926,0,0,1,0,1.324l-8.388,9.226a1.085,1.085,0,0,1-.267.235.9.9,0,0,1-1.281-.254Z" transform="translate(-2040.379 -1192.811)" fill="#231f20" fill-rule="evenodd"/>
        <path id="Trazado_180155" data-name="Trazado 180155" d="M2116.181,1333.456a1,1,0,0,1,.393-1.309.9.9,0,0,1,1.282.255l2.029,3.574,7.521-8.271a.966.966,0,0,1,1.339-.143.927.927,0,0,1,0,1.324l-8.389,9.225a1.086,1.086,0,0,1-.266.235.9.9,0,0,1-1.282-.255Z" transform="translate(-2038.962 -1242.966)" fill="#231f20" fill-rule="evenodd"/>
        <path id="Trazado_180156" data-name="Trazado 180156" d="M2128.819,1440.412a20.941,20.941,0,0,1,6.91-2.86v-3.17a1.842,1.842,0,0,1,1.837-1.838h5.28a1.842,1.842,0,0,1,1.838,1.838v3.171a20.955,20.955,0,0,1,6.909,2.859l2.24-2.24a1.844,1.844,0,0,1,2.6,0l.921.922,1.889,1.889.922.922a1.845,1.845,0,0,1,0,2.6l-2.241,2.239a20.924,20.924,0,0,1,2.861,6.91h3.169a1.843,1.843,0,0,1,1.838,1.838v5.281a1.843,1.843,0,0,1-1.838,1.837h-3.169a20.924,20.924,0,0,1-2.861,6.91l2.241,2.24a1.845,1.845,0,0,1,0,2.6l-.922.922-1.89,1.89-.922.922a1.842,1.842,0,0,1-2.6,0l-2.24-2.24a20.952,20.952,0,0,1-6.909,2.859v3.171a1.842,1.842,0,0,1-1.838,1.837h-5.28a1.842,1.842,0,0,1-1.837-1.837v-3.171a20.939,20.939,0,0,1-6.91-2.859l-2.24,2.24a1.844,1.844,0,0,1-2.6,0l-.922-.922-1.889-1.89-.922-.922a1.845,1.845,0,0,1,0-2.6l2.24-2.239a20.94,20.94,0,0,1-2.86-6.911h-3.169a1.842,1.842,0,0,1-1.837-1.837v-5.281a1.843,1.843,0,0,1,1.837-1.838h3.169a20.92,20.92,0,0,1,2.86-6.909l-2.24-2.24a1.845,1.845,0,0,1,0-2.6l.922-.921,1.889-1.89.922-.922a1.844,1.844,0,0,1,2.6,0l2.24,2.24Zm44.722-9.4a1.829,1.829,0,0,0-2,1.631l-.18,1.763a9.771,9.771,0,0,0-3.354,1.507l-1.438-1.037a1.831,1.831,0,0,0-2.548.411l-1.63,2.26a1.829,1.829,0,0,0,.412,2.548l1.437,1.037a9.88,9.88,0,0,0-.373,3.658l-1.616.726a1.829,1.829,0,0,0-.917,2.412l1.141,2.542a1.83,1.83,0,0,0,2.413.917l1.617-.726a9.794,9.794,0,0,0,2.981,2.153l-.18,1.761a1.83,1.83,0,0,0,1.63,2l2.772.282a1.829,1.829,0,0,0,2-1.63l.18-1.762a9.755,9.755,0,0,0,3.353-1.508l1.438,1.037a1.83,1.83,0,0,0,2.549-.411l1.63-2.259a1.832,1.832,0,0,0-.411-2.549l-1.436-1.036a9.935,9.935,0,0,0,.372-3.658l1.616-.725a1.83,1.83,0,0,0,.917-2.413l-1.14-2.542a1.831,1.831,0,0,0-2.413-.917l-1.618.727a9.787,9.787,0,0,0-2.981-2.154l.18-1.761a1.829,1.829,0,0,0-1.63-2l-2.772-.283Zm.084,8.43a4.493,4.493,0,1,1-4.494,4.493,4.493,4.493,0,0,1,4.494-4.493Zm-3.1,19.977a1.829,1.829,0,0,0-1.565,2.052l.235,1.755a9.8,9.8,0,0,0-2.909,2.248l-1.64-.674a1.83,1.83,0,0,0-2.381.994l-1.06,2.578a1.829,1.829,0,0,0,.994,2.381l1.64.674a9.784,9.784,0,0,0,.073,1.845,9.886,9.886,0,0,0,.417,1.8l-1.4,1.082a1.83,1.83,0,0,0-.33,2.56l1.7,2.205a1.83,1.83,0,0,0,2.56.33l1.4-1.083a9.8,9.8,0,0,0,3.4,1.4l.235,1.755a1.831,1.831,0,0,0,2.052,1.565l2.761-.371a1.83,1.83,0,0,0,1.566-2.052l-.236-1.755a9.776,9.776,0,0,0,2.909-2.248l1.641.673a1.83,1.83,0,0,0,2.381-.994l1.059-2.578a1.828,1.828,0,0,0-.993-2.38l-1.639-.674a9.865,9.865,0,0,0-.49-3.644l1.4-1.083a1.829,1.829,0,0,0,.33-2.559l-1.7-2.206a1.83,1.83,0,0,0-2.56-.329l-1.4,1.083a9.8,9.8,0,0,0-3.4-1.4l-.236-1.755a1.831,1.831,0,0,0-2.051-1.566l-2.763.372Zm3.094,8.053a4.494,4.494,0,1,1-4.494,4.494,4.494,4.494,0,0,1,4.494-4.494Zm-33.409-24.561a15.226,15.226,0,1,0,10.766,4.46,15.176,15.176,0,0,0-10.766-4.46Zm7.825,7.4a11.068,11.068,0,1,0,3.24,7.825A11.031,11.031,0,0,0,2148.03,1450.307Z" transform="translate(-2038.043 -1308.645)" fill="#c6412a" fill-rule="evenodd"/>
        <path id="Trazado_180157" data-name="Trazado 180157" d="M2267.925,1454.036a4.494,4.494,0,1,0,4.493,4.494A4.493,4.493,0,0,0,2267.925,1454.036Z" transform="translate(-2132.343 -1323.243)" fill="#ede4f1" fill-rule="evenodd"/>
        <path id="Trazado_180158" data-name="Trazado 180158" d="M2267.9,1530.554a4.494,4.494,0,1,0,4.492,4.494A4.495,4.495,0,0,0,2267.9,1530.554Z" transform="translate(-2132.325 -1371.731)" fill="#ede4f1" fill-rule="evenodd"/>
        <path id="Trazado_180159" data-name="Trazado 180159" d="M2168.9,1489.5a15.224,15.224,0,1,0-10.766,4.46,15.18,15.18,0,0,0,10.766-4.46Zm.3-10.766a11.063,11.063,0,1,1-3.24-7.824A11.033,11.033,0,0,1,2169.2,1478.731Z" transform="translate(-2055.97 -1329.245)" fill="#ede4f1" fill-rule="evenodd"/>
      </g>
    </g>
  </g>
</svg>
