<svg xmlns="http://www.w3.org/2000/svg" width="149.607" height="170.12" viewBox="0 0 149.607 170.12">
  <g id="Grupo_120628" data-name="Grupo 120628" transform="translate(-2527.834 4436.46)">
    <g id="Grupo_120583" data-name="Grupo 120583" transform="translate(-37.85 -458)">
      <path id="Trazado_188782" data-name="Trazado 188782" d="M616.279-2257.209l3.258,38.74s.341,2.349-1.4,2.352c-2.873.007-14.3,0-14.3,0s2.162-.488,2.135-1.588c-.03-1.3-3.808-39.871-3.808-39.871Z" transform="translate(2063.632 -1689.508)" fill="#ce500a"/>
      <path id="Trazado_188783" data-name="Trazado 188783" d="M602.909-2216.82c.565,0,11.476.036,14.273,0,1.219-.014,1.433-1.083,1.443-1.775a3.463,3.463,0,0,0-.037-.576l-.085-1.007-.216-2.566-.191-2.268-.245-2.914-.206-2.459-2.316-27.528-14.115-.366s1.591,16.143,2.716,27.894c.126,1.309.246,2.564.356,3.736.036.374.07.74.1,1.1.1,1.111.2,2.133.283,3.034.043.475.084.916.12,1.321.144,1.584.228,2.6.229,2.789a1.559,1.559,0,0,1-.028.314C604.763-2216.86,603.122-2216.82,602.909-2216.82Z" transform="translate(2063.632 -1689.508)" fill="#ed8436"/>
      <path id="Trazado_188784" data-name="Trazado 188784" d="M650.559-2278.291l-7.936,31.879-1.087,4.366-3.7,14.848H569.167l13.624-51.093Z" transform="translate(2063.632 -1689.508)" fill="#f1903a"/>
      <path id="Trazado_188785" data-name="Trazado 188785" d="M650.559-2278.291l1.1.367L639.3-2226.089l-1.462-1.109Z" transform="translate(2063.632 -1689.508)" fill="#ed8436"/>
      <path id="Trazado_188786" data-name="Trazado 188786" d="M639.3-2226.089h-68.25l-1.885-1.108h68.672Z" transform="translate(2063.632 -1689.508)" fill="#ce500a"/>
      <rect id="Rectángulo_44456" data-name="Rectángulo 44456" width="14.777" height="0.702" transform="translate(2664.189 -3906.312)" fill="#f1903a"/>
      <path id="Trazado_188787" data-name="Trazado 188787" d="M572.494-2236.613l11.143-41h67.032v-.676H582.791L571.685-2236.7Z" transform="translate(2063.632 -1689.508)" fill="#f1903a"/>
      <path id="Trazado_188788" data-name="Trazado 188788" d="M604.313-2226.089l.076.537,13.9,2.808-.191-2.268-.091-1.077Z" transform="translate(2063.632 -1689.508)" fill="#ce500a"/>
      <path id="Trazado_188789" data-name="Trazado 188789" d="M602.91-2216.82c.565,0,11.475.036,14.272,0,1.219-.014,1.433-1.084,1.443-1.775l-13.831-2.6c.143,1.585.227,2.6.228,2.789a1.628,1.628,0,0,1-.027.314C604.763-2216.86,603.122-2216.82,602.91-2216.82Z" transform="translate(2063.632 -1689.508)" fill="#ce500a" opacity="0.4"/>
      <path id="Trazado_188790" data-name="Trazado 188790" d="M607.672-2237.541l30.167,10.343,3.7-14.848Z" transform="translate(2063.632 -1689.508)" fill="#ce500a" opacity="0.4"/>
      <path id="Trazado_188791" data-name="Trazado 188791" d="M650.559-2278.291H582.791l-11,41.063h68.89Z" transform="translate(2063.632 -1689.508)" fill="#9cb4df"/>
      <path id="Trazado_188792" data-name="Trazado 188792" d="M574.992-2239.008h63.451l7.186-28.625.551-2.2.47-1.872,1.1-4.391H585.215L584-2271.7l-.516,1.872-.605,2.2Z" transform="translate(2063.632 -1689.508)" fill="#7195ce"/>
      <path id="Trazado_188793" data-name="Trazado 188793" d="M591.319-2274.09l2.853.04.064-.247-2.853-.04Z" transform="translate(2063.632 -1689.508)" fill="#fad4b1"/>
      <path id="Trazado_188794" data-name="Trazado 188794" d="M591.948-2273.406l2.051.029.063-.248-2.051-.029Z" transform="translate(2063.632 -1689.508)" fill="#fad4b1"/>
      <path id="Trazado_188795" data-name="Trazado 188795" d="M589.592-2273.439l2.051.028.064-.248-2.051-.029Z" transform="translate(2063.632 -1689.508)" fill="#fad4b1"/>
      <path id="Trazado_188796" data-name="Trazado 188796" d="M587.887-2273.463l1.271.018.063-.248-1.271-.018Z" transform="translate(2063.632 -1689.508)" fill="#fad4b1"/>
      <path id="Trazado_188797" data-name="Trazado 188797" d="M589.029-2274.122l1.76.025.064-.248-1.76-.024Z" transform="translate(2063.632 -1689.508)" fill="#fad4b1"/>
      <path id="Trazado_188798" data-name="Trazado 188798" d="M586.624-2274.156l1.76.024.064-.247-1.76-.025Z" transform="translate(2063.632 -1689.508)" fill="#fad4b1"/>
      <path id="Trazado_188799" data-name="Trazado 188799" d="M583.709-2241.554l2.853.04.063-.248-2.853-.04Z" transform="translate(2063.632 -1689.508)" fill="#fad4b1"/>
      <path id="Trazado_188800" data-name="Trazado 188800" d="M584.338-2240.87l2.051.028.064-.248-2.051-.029Z" transform="translate(2063.632 -1689.508)" fill="#fad4b1"/>
      <path id="Trazado_188801" data-name="Trazado 188801" d="M581.981-2240.9l2.051.029.063-.248-2.051-.029Z" transform="translate(2063.632 -1689.508)" fill="#fad4b1"/>
      <path id="Trazado_188802" data-name="Trazado 188802" d="M580.277-2240.928l1.271.019.064-.248-1.271-.019Z" transform="translate(2063.632 -1689.508)" fill="#fad4b1"/>
      <path id="Trazado_188803" data-name="Trazado 188803" d="M581.42-2241.586l1.76.024.063-.248-1.76-.024Z" transform="translate(2063.632 -1689.508)" fill="#fad4b1"/>
      <path id="Trazado_188804" data-name="Trazado 188804" d="M579.015-2241.619l1.76.024.063-.248-1.76-.024Z" transform="translate(2063.632 -1689.508)" fill="#fad4b1"/>
      <path id="Trazado_188805" data-name="Trazado 188805" d="M635.9-2272.2l6.688-.017.132-.562-6.688.017Z" transform="translate(2063.632 -1689.508)" fill="#fad4b1"/>
      <path id="Trazado_188806" data-name="Trazado 188806" d="M637.416-2270.681l4.809-.012.132-.562-4.809.012Z" transform="translate(2063.632 -1689.508)" fill="#fad4b1"/>
      <path id="Trazado_188807" data-name="Trazado 188807" d="M631.892-2270.667l4.809-.012.132-.562-4.809.012Z" transform="translate(2063.632 -1689.508)" fill="#fad4b1"/>
      <path id="Trazado_188808" data-name="Trazado 188808" d="M627.895-2270.657l2.98-.007.132-.562-2.98.008Z" transform="translate(2063.632 -1689.508)" fill="#fad4b1"/>
      <path id="Trazado_188809" data-name="Trazado 188809" d="M630.528-2272.186l4.126-.01.132-.562-4.126.01Z" transform="translate(2063.632 -1689.508)" fill="#fad4b1"/>
      <path id="Trazado_188810" data-name="Trazado 188810" d="M624.892-2272.172l4.126-.01.132-.562-4.126.01Z" transform="translate(2063.632 -1689.508)" fill="#fad4b1"/>
      <path id="Trazado_188811" data-name="Trazado 188811" d="M635.769-2267.254l5.649-.014.132-.562-5.649.014Z" transform="translate(2063.632 -1689.508)" fill="#fad4b1"/>
      <path id="Trazado_188812" data-name="Trazado 188812" d="M631.588-2267.243l3.155-.008.132-.562-3.155.008Z" transform="translate(2063.632 -1689.508)" fill="#fad4b1"/>
      <path id="Trazado_188813" data-name="Trazado 188813" d="M625.318-2267.229l4.838-.011.132-.562-4.838.012Z" transform="translate(2063.632 -1689.508)" fill="#fad4b1"/>
      <path id="Trazado_188814" data-name="Trazado 188814" d="M634.383-2265.775l6.688-.017.132-.562-6.688.017Z" transform="translate(2063.632 -1689.508)" fill="#fad4b1"/>
      <path id="Trazado_188815" data-name="Trazado 188815" d="M635.9-2264.257l4.809-.012.132-.562-4.809.012Z" transform="translate(2063.632 -1689.508)" fill="#fad4b1"/>
      <path id="Trazado_188816" data-name="Trazado 188816" d="M630.38-2264.243l4.809-.012.132-.562-4.809.012Z" transform="translate(2063.632 -1689.508)" fill="#fad4b1"/>
      <path id="Trazado_188817" data-name="Trazado 188817" d="M626.383-2264.234l2.981-.008.132-.562-2.981.008Z" transform="translate(2063.632 -1689.508)" fill="#fad4b1"/>
      <path id="Trazado_188818" data-name="Trazado 188818" d="M629.016-2265.762l4.126-.01.132-.562-4.126.01Z" transform="translate(2063.632 -1689.508)" fill="#fad4b1"/>
      <path id="Trazado_188819" data-name="Trazado 188819" d="M623.38-2265.748l4.126-.01.132-.562-4.126.011Z" transform="translate(2063.632 -1689.508)" fill="#fad4b1"/>
      <path id="Trazado_188820" data-name="Trazado 188820" d="M634.114-2260.222l5.649-.014.132-.562-5.649.014Z" transform="translate(2063.632 -1689.508)" fill="#0a294c"/>
      <path id="Trazado_188821" data-name="Trazado 188821" d="M629.933-2260.211l3.155-.009.132-.561-3.155.007Z" transform="translate(2063.632 -1689.508)" fill="#0a294c"/>
      <path id="Trazado_188822" data-name="Trazado 188822" d="M623.663-2260.2l4.838-.012.132-.562-4.838.013Z" transform="translate(2063.632 -1689.508)" fill="#0a294c"/>
      <path id="Trazado_188823" data-name="Trazado 188823" d="M632.727-2258.742l6.688-.017.132-.562-6.688.017Z" transform="translate(2063.632 -1689.508)" fill="#0a294c"/>
      <path id="Trazado_188824" data-name="Trazado 188824" d="M634.249-2257.225l4.809-.012.132-.562-4.809.012Z" transform="translate(2063.632 -1689.508)" fill="#0a294c"/>
      <path id="Trazado_188825" data-name="Trazado 188825" d="M628.724-2257.211l4.809-.013.132-.562-4.809.012Z" transform="translate(2063.632 -1689.508)" fill="#0a294c"/>
      <path id="Trazado_188826" data-name="Trazado 188826" d="M624.727-2257.2l2.981-.007.132-.562-2.981.007Z" transform="translate(2063.632 -1689.508)" fill="#0a294c"/>
      <path id="Trazado_188827" data-name="Trazado 188827" d="M627.361-2258.73l4.126-.01.132-.562-4.126.011Z" transform="translate(2063.632 -1689.508)" fill="#0a294c"/>
      <path id="Trazado_188828" data-name="Trazado 188828" d="M621.724-2258.716l4.126-.01.132-.562-4.126.01Z" transform="translate(2063.632 -1689.508)" fill="#0a294c"/>
      <path id="Trazado_188829" data-name="Trazado 188829" d="M632.531-2253.494l5.649-.014.132-.561-5.65.014Z" transform="translate(2063.632 -1689.508)" fill="#fad4b1"/>
      <path id="Trazado_188830" data-name="Trazado 188830" d="M628.349-2253.484l3.155-.008.132-.562-3.155.008Z" transform="translate(2063.632 -1689.508)" fill="#fad4b1"/>
      <path id="Trazado_188831" data-name="Trazado 188831" d="M622.08-2253.468l4.838-.012.132-.562-4.838.012Z" transform="translate(2063.632 -1689.508)" fill="#fad4b1"/>
      <path id="Trazado_188832" data-name="Trazado 188832" d="M631.144-2252.015l6.688-.017.132-.562-6.688.017Z" transform="translate(2063.632 -1689.508)" fill="#fad4b1"/>
      <path id="Trazado_188833" data-name="Trazado 188833" d="M632.665-2250.5l4.809-.012.132-.562-4.809.012Z" transform="translate(2063.632 -1689.508)" fill="#fad4b1"/>
      <path id="Trazado_188834" data-name="Trazado 188834" d="M627.141-2250.484l4.809-.013.132-.561-4.809.012Z" transform="translate(2063.632 -1689.508)" fill="#fad4b1"/>
      <path id="Trazado_188835" data-name="Trazado 188835" d="M623.144-2250.474l2.981-.007.132-.562-2.981.007Z" transform="translate(2063.632 -1689.508)" fill="#fad4b1"/>
      <path id="Trazado_188836" data-name="Trazado 188836" d="M625.778-2252l4.126-.01.132-.562-4.126.01Z" transform="translate(2063.632 -1689.508)" fill="#fad4b1"/>
      <path id="Trazado_188837" data-name="Trazado 188837" d="M620.141-2251.989l4.126-.01.132-.562-4.126.01Z" transform="translate(2063.632 -1689.508)" fill="#fad4b1"/>
      <path id="Trazado_188838" data-name="Trazado 188838" d="M630.9-2246.585l5.649-.014.132-.562-5.649.014Z" transform="translate(2063.632 -1689.508)" fill="#0a294c"/>
      <path id="Trazado_188839" data-name="Trazado 188839" d="M626.722-2246.574l3.155-.008.132-.562-3.155.008Z" transform="translate(2063.632 -1689.508)" fill="#0a294c"/>
      <path id="Trazado_188840" data-name="Trazado 188840" d="M620.453-2246.56l4.838-.012.132-.562-4.838.012Z" transform="translate(2063.632 -1689.508)" fill="#0a294c"/>
      <path id="Trazado_188841" data-name="Trazado 188841" d="M629.517-2245.106l6.688-.017.132-.562-6.688.017Z" transform="translate(2063.632 -1689.508)" fill="#0a294c"/>
      <path id="Trazado_188842" data-name="Trazado 188842" d="M631.039-2243.588l4.809-.012.132-.562-4.809.013Z" transform="translate(2063.632 -1689.508)" fill="#0a294c"/>
      <path id="Trazado_188843" data-name="Trazado 188843" d="M625.514-2243.575l4.809-.012.132-.561-4.809.012Z" transform="translate(2063.632 -1689.508)" fill="#0a294c"/>
      <path id="Trazado_188844" data-name="Trazado 188844" d="M621.517-2243.565l2.981-.008.132-.562-2.981.007Z" transform="translate(2063.632 -1689.508)" fill="#0a294c"/>
      <path id="Trazado_188845" data-name="Trazado 188845" d="M624.151-2245.093l4.126-.01.132-.562-4.126.01Z" transform="translate(2063.632 -1689.508)" fill="#0a294c"/>
      <path id="Trazado_188846" data-name="Trazado 188846" d="M618.515-2245.079l4.126-.01.132-.562-4.126.01Z" transform="translate(2063.632 -1689.508)" fill="#0a294c"/>
      <path id="Trazado_188847" data-name="Trazado 188847" d="M606.556-2271.73l6.688-.017.132-.561-6.688.016Z" transform="translate(2063.632 -1689.508)" fill="#f1903a"/>
      <path id="Trazado_188848" data-name="Trazado 188848" d="M608.077-2270.212l4.809-.012.132-.561-4.809.012Z" transform="translate(2063.632 -1689.508)" fill="#f1903a"/>
      <path id="Trazado_188849" data-name="Trazado 188849" d="M602.552-2270.2l4.809-.012.132-.562-4.809.013Z" transform="translate(2063.632 -1689.508)" fill="#f1903a"/>
      <path id="Trazado_188850" data-name="Trazado 188850" d="M598.555-2270.189l2.981-.008.132-.561-2.98.007Z" transform="translate(2063.632 -1689.508)" fill="#f1903a"/>
      <path id="Trazado_188851" data-name="Trazado 188851" d="M601.189-2271.716l4.126-.011.132-.562-4.126.011Z" transform="translate(2063.632 -1689.508)" fill="#f1903a"/>
      <path id="Trazado_188852" data-name="Trazado 188852" d="M595.553-2271.7l4.126-.01.132-.562-4.126.01Z" transform="translate(2063.632 -1689.508)" fill="#f1903a"/>
      <path id="Trazado_188853" data-name="Trazado 188853" d="M606.43-2266.784l5.649-.014.132-.562-5.649.013Z" transform="translate(2063.632 -1689.508)" fill="#f1903a"/>
      <path id="Trazado_188854" data-name="Trazado 188854" d="M602.248-2266.774l3.155-.008.132-.562-3.155.008Z" transform="translate(2063.632 -1689.508)" fill="#f1903a"/>
      <path id="Trazado_188855" data-name="Trazado 188855" d="M595.979-2266.759l4.838-.012.132-.562-4.838.012Z" transform="translate(2063.632 -1689.508)" fill="#f1903a"/>
      <path id="Trazado_188856" data-name="Trazado 188856" d="M605.044-2265.306l6.688-.016.132-.562-6.688.017Z" transform="translate(2063.632 -1689.508)" fill="#f1903a"/>
      <path id="Trazado_188857" data-name="Trazado 188857" d="M606.565-2263.788l4.809-.011.132-.562-4.809.011Z" transform="translate(2063.632 -1689.508)" fill="#f1903a"/>
      <path id="Trazado_188858" data-name="Trazado 188858" d="M601.041-2263.775l4.809-.012.132-.562-4.809.012Z" transform="translate(2063.632 -1689.508)" fill="#f1903a"/>
      <path id="Trazado_188859" data-name="Trazado 188859" d="M597.044-2263.765l2.98-.007.132-.562-2.981.007Z" transform="translate(2063.632 -1689.508)" fill="#f1903a"/>
      <path id="Trazado_188860" data-name="Trazado 188860" d="M599.677-2265.292l4.126-.011.132-.562-4.126.01Z" transform="translate(2063.632 -1689.508)" fill="#f1903a"/>
      <path id="Trazado_188861" data-name="Trazado 188861" d="M594.04-2265.279l4.126-.01.132-.562-4.126.01Z" transform="translate(2063.632 -1689.508)" fill="#f1903a"/>
      <path id="Trazado_188862" data-name="Trazado 188862" d="M604.775-2259.752l5.649-.014.132-.562-5.649.014Z" transform="translate(2063.632 -1689.508)" fill="#fad4b1"/>
      <path id="Trazado_188863" data-name="Trazado 188863" d="M600.594-2259.742l3.155-.008.132-.562-3.155.008Z" transform="translate(2063.632 -1689.508)" fill="#fad4b1"/>
      <path id="Trazado_188864" data-name="Trazado 188864" d="M594.324-2259.727l4.838-.012.132-.562-4.838.012Z" transform="translate(2063.632 -1689.508)" fill="#fad4b1"/>
      <path id="Trazado_188865" data-name="Trazado 188865" d="M603.389-2258.274l6.688-.017.132-.562-6.688.017Z" transform="translate(2063.632 -1689.508)" fill="#fad4b1"/>
      <path id="Trazado_188866" data-name="Trazado 188866" d="M604.91-2256.756l4.809-.012.132-.562-4.809.012Z" transform="translate(2063.632 -1689.508)" fill="#fad4b1"/>
      <path id="Trazado_188867" data-name="Trazado 188867" d="M599.385-2256.742l4.809-.012.132-.562-4.809.012Z" transform="translate(2063.632 -1689.508)" fill="#fad4b1"/>
      <path id="Trazado_188868" data-name="Trazado 188868" d="M595.388-2256.733l2.98-.008.132-.561-2.981.007Z" transform="translate(2063.632 -1689.508)" fill="#fad4b1"/>
      <path id="Trazado_188869" data-name="Trazado 188869" d="M598.022-2258.26l4.126-.01.132-.562-4.126.011Z" transform="translate(2063.632 -1689.508)" fill="#fad4b1"/>
      <path id="Trazado_188870" data-name="Trazado 188870" d="M592.385-2258.246l4.126-.011.132-.561-4.126.01Z" transform="translate(2063.632 -1689.508)" fill="#fad4b1"/>
      <path id="Trazado_188871" data-name="Trazado 188871" d="M603.191-2253.026l5.65-.013.132-.562-5.649.014Z" transform="translate(2063.632 -1689.508)" fill="#fad4b1"/>
      <path id="Trazado_188872" data-name="Trazado 188872" d="M599.01-2253.015l3.155-.007.132-.562-3.155.007Z" transform="translate(2063.632 -1689.508)" fill="#fad4b1"/>
      <path id="Trazado_188873" data-name="Trazado 188873" d="M592.74-2253l4.838-.012.132-.562-4.838.012Z" transform="translate(2063.632 -1689.508)" fill="#fad4b1"/>
      <path id="Trazado_188874" data-name="Trazado 188874" d="M601.805-2251.546l6.688-.016.132-.562-6.688.016Z" transform="translate(2063.632 -1689.508)" fill="#fad4b1"/>
      <path id="Trazado_188875" data-name="Trazado 188875" d="M603.326-2250.028l4.809-.013.132-.561-4.809.012Z" transform="translate(2063.632 -1689.508)" fill="#fad4b1"/>
      <path id="Trazado_188876" data-name="Trazado 188876" d="M597.8-2250.015l4.809-.012.132-.562-4.809.012Z" transform="translate(2063.632 -1689.508)" fill="#fad4b1"/>
      <path id="Trazado_188877" data-name="Trazado 188877" d="M593.8-2250l2.981-.008.132-.562-2.981.008Z" transform="translate(2063.632 -1689.508)" fill="#fad4b1"/>
      <path id="Trazado_188878" data-name="Trazado 188878" d="M596.438-2251.533l4.126-.01.132-.562-4.126.01Z" transform="translate(2063.632 -1689.508)" fill="#fad4b1"/>
      <path id="Trazado_188879" data-name="Trazado 188879" d="M590.8-2251.519l4.126-.01.132-.562-4.126.01Z" transform="translate(2063.632 -1689.508)" fill="#fad4b1"/>
      <path id="Trazado_188880" data-name="Trazado 188880" d="M601.565-2246.115l5.65-.014.132-.562-5.649.014Z" transform="translate(2063.632 -1689.508)" fill="#fad4b1"/>
      <path id="Trazado_188881" data-name="Trazado 188881" d="M597.384-2246.106l3.155-.008.132-.562-3.155.008Z" transform="translate(2063.632 -1689.508)" fill="#fad4b1"/>
      <path id="Trazado_188882" data-name="Trazado 188882" d="M591.115-2246.09l4.838-.012.132-.562-4.838.012Z" transform="translate(2063.632 -1689.508)" fill="#fad4b1"/>
      <path id="Trazado_188883" data-name="Trazado 188883" d="M600.179-2244.637l6.688-.017.132-.561-6.688.016Z" transform="translate(2063.632 -1689.508)" fill="#fad4b1"/>
      <path id="Trazado_188884" data-name="Trazado 188884" d="M601.7-2243.119l4.809-.012.132-.562-4.809.012Z" transform="translate(2063.632 -1689.508)" fill="#fad4b1"/>
      <path id="Trazado_188885" data-name="Trazado 188885" d="M596.176-2243.106l4.809-.012.132-.562-4.809.011Z" transform="translate(2063.632 -1689.508)" fill="#fad4b1"/>
      <path id="Trazado_188886" data-name="Trazado 188886" d="M592.179-2243.1l2.98-.007.132-.562-2.981.008Z" transform="translate(2063.632 -1689.508)" fill="#fad4b1"/>
      <path id="Trazado_188887" data-name="Trazado 188887" d="M594.812-2244.624l4.126-.01.132-.562-4.126.01Z" transform="translate(2063.632 -1689.508)" fill="#fad4b1"/>
      <path id="Trazado_188888" data-name="Trazado 188888" d="M589.176-2244.611l4.126-.01.132-.562-4.126.011Z" transform="translate(2063.632 -1689.508)" fill="#fad4b1"/>
      <path id="Trazado_188889" data-name="Trazado 188889" d="M570.676-2128.5s.612,9.528,2.456,9.662c.245.016,9.351,0,9.351,0l11.625-.093a3.773,3.773,0,0,0-3.482-3.386c-3.4-.584-9.091-2.96-11.16-7.446C577.291-2134.487,570.676-2128.5,570.676-2128.5Z" transform="translate(2063.632 -1689.508)" fill="#0d223d"/>
      <path id="Trazado_188890" data-name="Trazado 188890" d="M537.4-2206.878c-.444.373-12.283,13.2-11.316,23.053a5.685,5.685,0,0,0,5.685,5.071h14.421s14.715,2.629,15.066,5.809,3.362,20.322,9.329,44.681c0,0,4.4,1.514,7.065.433,3.527-1.43,4.039-2.947,4.039-2.947s-3.557-54.547-6.365-58.385-31.736-15.25-41.1-16.387S537.4-2206.878,537.4-2206.878Z" transform="translate(2063.632 -1689.508)" fill="#302578"/>
      <path id="Trazado_188891" data-name="Trazado 188891" d="M621.039-2220.484s8.367-1.946,10.508,0a10.549,10.549,0,0,1,2.821,4.768H621.039Z" transform="translate(2063.632 -1689.508)" fill="#f79f6a"/>
      <path id="Trazado_188892" data-name="Trazado 188892" d="M591.05-2128.5s.611,9.528,2.456,9.662c.245.016,9.351,0,9.351,0l11.624-.093a3.772,3.772,0,0,0-3.482-3.386c-3.4-.584-9.091-2.96-11.159-7.446C597.664-2134.487,591.05-2128.5,591.05-2128.5Z" transform="translate(2063.632 -1689.508)" fill="#0a294c"/>
      <path id="Trazado_188893" data-name="Trazado 188893" d="M526.465-2206.878c-.337.282-2.9,7.176-4.61,15.008a10.8,10.8,0,0,0,10.551,13.116h33.548s14.715,2.629,15.066,5.809,3.362,20.322,9.329,44.681c0,0,4.413,1.158,7.858-.314a9.751,9.751,0,0,0,3.278-2.662s-3.589-54.085-6.4-57.923-31.736-15.25-41.1-16.387S526.465-2206.878,526.465-2206.878Z" transform="translate(2063.632 -1689.508)" fill="#302578"/>
      <path id="Trazado_188894" data-name="Trazado 188894" d="M545.061-2255.643l5.188,4.981h8.84c.01-.709-.02-3.674-.051-6.36,0-.158-.006-.316-.006-.472-.007-.6-.016-1.171-.022-1.7-.017-1.48-.032-2.553-.032-2.553l-2.273-1.553-5.049-3.457-2.73-1.867c0,.046-.226,2.489-.26,2.843A20.7,20.7,0,0,1,545.061-2255.643Z" transform="translate(2063.632 -1689.508)" fill="#f79f6a"/>
      <path id="Trazado_188895" data-name="Trazado 188895" d="M557.913-2256.541c-.168-.072-9.733-4.362-10.852-3.993s-2.513,3.786-2.513,3.786l16.843,3.807A8.361,8.361,0,0,0,557.913-2256.541Z" transform="translate(2063.632 -1689.508)" fill="#0a294c"/>
      <path id="Trazado_188896" data-name="Trazado 188896" d="M516.543-2227.879c1.823-11.237,9.517-19.648,12.809-22.8,2.211-3.325,15.2-6.069,15.2-6.069l16.842,3.807a21.462,21.462,0,0,1,14.846,9.884c3.31,5.476,12.792,18,19.019,18.39s25.783,4.183,25.783,4.183v4.81l-29.814.818a5.012,5.012,0,0,1-1.086-.086c-2.565-.484-13.562-2.67-19.031-5.516-.874,14.084-1.9,35.589-6.824,39.005-5.2,3.612-41.79,4.095-45.664-1.411-1.983-2.817.448-19.5,3.486-35.588C518.329-2220.247,515.779-2223.167,516.543-2227.879Z" transform="translate(2063.632 -1689.508)" fill="#4760a9"/>
      <path id="Trazado_188897" data-name="Trazado 188897" d="M550.341-2263.808l.45.28a36.2,36.2,0,0,0,8.22,4.339c-.018-1.479-.033-2.552-.033-2.552l-2.272-1.554Z" transform="translate(2063.632 -1689.508)" fill="#e78e58"/>
      <path id="Trazado_188898" data-name="Trazado 188898" d="M562.075-2261.664s-13.6,1.609-14.473-6.877-3.214-13.993,5.433-15.379,10.67,1.678,11.65,4.44S565.591-2262.3,562.075-2261.664Z" transform="translate(2063.632 -1689.508)" fill="#f79f6a"/>
      <path id="Trazado_188899" data-name="Trazado 188899" d="M564.325-2280.349s-2.567,9.205-4.427,8.438-3.558-1.4-3.8,1.477,1.832,6.633-4.226,6.018-11.76-17.6-9.577-20.205C548.59-2292.142,573.073-2289.326,564.325-2280.349Z" transform="translate(2063.632 -1689.508)" fill="#0a294c"/>
      <path id="Trazado_188900" data-name="Trazado 188900" d="M502.052-2184.565h71.906v7.635H509.687a7.619,7.619,0,0,1-1.49-.147,7.646,7.646,0,0,1-1.432-.434,7.6,7.6,0,0,1-1.32-.706,7.585,7.585,0,0,1-1.157-.949,7.643,7.643,0,0,1-.95-1.158,7.659,7.659,0,0,1-.705-1.319,7.638,7.638,0,0,1-.435-1.433A7.6,7.6,0,0,1,502.052-2184.565Z" transform="translate(2063.632 -1689.508)" fill="#5d92ce"/>
      <path id="Trazado_188901" data-name="Trazado 188901" d="M527.7-2180.747a3.772,3.772,0,0,1,.29-1.461,3.785,3.785,0,0,1,.828-1.239,3.791,3.791,0,0,1,1.238-.828,3.794,3.794,0,0,1,1.461-.29h50.107a3.8,3.8,0,0,1,1.461.29,3.8,3.8,0,0,1,1.239.827,3.8,3.8,0,0,1,.827,1.24,3.773,3.773,0,0,1,.291,1.461,3.784,3.784,0,0,1-.291,1.461,3.8,3.8,0,0,1-.827,1.238,3.767,3.767,0,0,1-1.239.827,3.782,3.782,0,0,1-1.461.291H531.517a3.782,3.782,0,0,1-1.461-.291,3.763,3.763,0,0,1-1.238-.827,3.8,3.8,0,0,1-.828-1.238A3.783,3.783,0,0,1,527.7-2180.747Z" transform="translate(2063.632 -1689.508)" fill="#f28134"/>
      <path id="Trazado_188902" data-name="Trazado 188902" d="M539.646-2121.706h-4.34l-1.218-55.224h6.63Z" transform="translate(2063.632 -1689.508)" fill="#0a387a"/>
      <path id="Trazado_188903" data-name="Trazado 188903" d="M558.506-2121.706H516.3v-3.812l21.512-1.939,20.695,1.939Z" transform="translate(2063.632 -1689.508)" fill="#0a387a"/>
      <path id="Trazado_188904" data-name="Trazado 188904" d="M513.408-2119.672a3.44,3.44,0,0,1-.835-1.067,3.432,3.432,0,0,1-.364-1.3,3.445,3.445,0,0,1,.163-1.345,3.442,3.442,0,0,1,.666-1.18,3.455,3.455,0,0,1,1.066-.836,3.461,3.461,0,0,1,1.3-.363,3.446,3.446,0,0,1,1.345.163,3.451,3.451,0,0,1,1.18.666,3.419,3.419,0,0,1,.835,1.067,3.433,3.433,0,0,1,.364,1.3,3.447,3.447,0,0,1-.163,1.345,3.451,3.451,0,0,1-.666,1.18,3.444,3.444,0,0,1-1.066.836,3.438,3.438,0,0,1-1.3.363,3.448,3.448,0,0,1-1.345-.163A3.43,3.43,0,0,1,513.408-2119.672Z" transform="translate(2063.632 -1689.508)" fill="#0a387a"/>
      <path id="Trazado_188905" data-name="Trazado 188905" d="M554.406-2122.3a3.471,3.471,0,0,1,3.472-3.472,3.472,3.472,0,0,1,3.472,3.472,3.473,3.473,0,0,1-3.472,3.472A3.472,3.472,0,0,1,554.406-2122.3Z" transform="translate(2063.632 -1689.508)" fill="#0a387a"/>
      <path id="Trazado_188906" data-name="Trazado 188906" d="M556.993-2173.307H517.812a3.623,3.623,0,0,1-3.623-3.623h46.427A3.623,3.623,0,0,1,556.993-2173.307Z" transform="translate(2063.632 -1689.508)" fill="#0a387a"/>
      <path id="Trazado_188907" data-name="Trazado 188907" d="M508.7-2176.93a3.3,3.3,0,0,1-3.3-3.3v-50.851c0-9.529,6.23-17.253,13.915-17.253h31.468c7.685,0,13.915,7.724,13.915,17.253v54.155Z" transform="translate(2063.632 -1689.508)" fill="#f28134"/>
      <path id="Trazado_188908" data-name="Trazado 188908" d="M508.076-2176.93a6.024,6.024,0,0,1-6.024-6.024v-48.131c0-9.529,6.23-17.253,13.915-17.253h31.467c7.685,0,13.915,7.724,13.915,17.253v54.155Z" transform="translate(2063.632 -1689.508)" fill="#b82c1d"/>
    </g>
  </g>
</svg>
